<?xml version="1.0" standalone="no"?>
<!DOCTYPE svg PUBLIC "-//W3C//DTD SVG 1.1//EN" "http://www.w3.org/Graphics/SVG/1.1/DTD/svg11.dtd" >
<svg xmlns="http://www.w3.org/2000/svg">
<metadata>Generated by IcoMoon</metadata>
<defs>
<font id="icomoon" horiz-adv-x="1024">
<font-face units-per-em="1024" ascent="960" descent="-64" />
<missing-glyph horiz-adv-x="1024" />
<glyph unicode="&#x20;" horiz-adv-x="512" d="" />
<glyph unicode="&#xe15b;" glyph-name="remove" d="M810 384.667h-596v84h596v-84z" />
<glyph unicode="&#xe900;" glyph-name="open-in-new-3" d="M639.916 960v-51.302h296.67l-570.726-570.39 36.112-36.452 570.726 570.726v-296.67h51.3v384.084h-384.084z" />
<glyph unicode="&#xe901;" glyph-name="to_left" d="M672 64c-8.533 0-17.067 2.133-21.333 8.533l-362.667 352c-6.4 6.4-10.667 14.933-10.667 23.467s4.267 17.067 10.667 23.467l364.8 352c12.8 12.8 32 12.8 44.8 0s12.8-32 0-44.8l-341.333-330.667 339.2-328.533c12.8-12.8 12.8-32 0-44.8-6.4-8.533-14.933-10.667-23.467-10.667z" />
<glyph unicode="&#xe902;" glyph-name="to_right" d="M352 64c8.533 0 17.067 2.133 21.333 8.533l362.667 352c6.4 6.4 10.667 14.933 10.667 23.467s-4.267 17.067-10.667 23.467l-364.8 352c-12.8 12.8-32 12.8-44.8 0s-12.8-32 0-44.8l341.333-330.667-339.2-328.533c-12.8-12.8-12.8-32 0-44.8 6.4-8.533 14.933-10.667 23.467-10.667z" />
<glyph unicode="&#xe903;" glyph-name="lamp" d="M534.505 148.958v469.802h489.495l-141.222 341.24h-742.119l-140.659-341.24h490.62v-469.802c-107.182-4.22-213.24-41.354-213.24-106.338 0-69.204 120.967-106.62 234.62-106.62s234.62 37.415 234.62 106.62c0 64.985-106.338 101.556-212.114 106.338zM168.791 917.24h686.418l103.244-256h-892.624zM512-21.521c-117.31 0-192.141 37.978-192.141 64.141s65.829 59.358 170.76 63.578v-63.578h43.886v63.578c104.932-4.22 170.76-39.103 170.76-63.578s-75.956-64.141-193.266-64.141z" />
<glyph unicode="&#xe904;" glyph-name="down" d="M512 352c-6.4 0-19.2 0-25.6 6.4l-128 128c-12.8 12.8-12.8 32 0 44.8s32 12.8 44.8 0l108.8-102.4 102.4 102.4c12.8 12.8 32 12.8 44.8 0s12.8-32 0-44.8l-128-128c0-6.4-12.8-6.4-19.2-6.4z" />
<glyph unicode="&#xe905;" glyph-name="lock" d="M748.8 96h-473.6c-32 0-57.6 25.6-57.6 57.6v294.4c0 32 32 57.6 57.6 57.6h467.2c38.4 0 57.6-25.6 57.6-57.6v-294.4c6.4-32-19.2-57.6-51.2-57.6zM364.8 537.6v83.2c0 70.4 51.2 121.6 121.6 121.6h51.2c64 0 121.6-51.2 121.6-121.6v-83.2h57.6v83.2c0 102.4-83.2 179.2-179.2 179.2h-51.2c-102.4 0-179.2-83.2-179.2-179.2v-83.2h57.6z" />
<glyph unicode="&#xe906;" glyph-name="sharing_email" d="M116.364 750.545v-605.091h791.273v605.091h-791.273zM814.545 657.455v-8.145l-302.545-248.832-302.545 248.785v8.192h605.091zM209.455 238.545v302.22l302.545-248.785 302.545 248.832v-302.266h-605.091z" />
<glyph unicode="&#xe907;" glyph-name="add" d="M810 384.667h-256v-256h-84v256h-256v84h256v256h84v-256h256v-84z" />
<glyph unicode="&#xe908;" glyph-name="sharing_print" d="M897.21 537.321h-94.999v207.313l-164.166 164.166h-424.774v-371.479h-86.481v-443.997h112.454v-106.124h537.041v106.124h120.972v443.997zM297.053 825.065h281.74v-139.636h139.636v-148.108h-421.376v287.744zM692.457 70.982h-369.478v162.956h369.478v-162.956zM776.285 177.152v140.614h-537.041v-140.614h-28.719v241.199h602.857v-241.199h-37.097z" />
<glyph unicode="&#xe909;" glyph-name="sharing_share" d="M768 285.137c-35.002 0-66.653-14.103-89.786-36.864l-298.217 169.472c2.374 9.728 4.003 19.782 4.003 30.255 0 10.24-1.536 20.061-3.77 29.603l297.472 166.726c23.133-23.040 55.063-37.329 90.298-37.329 70.749 0 128 57.297 128 128s-57.251 128-128 128-128-57.297-128-128c0-10.24 1.489-20.061 3.77-29.603l-297.425-166.772c-23.18 23.133-55.063 37.376-90.345 37.376-70.703 0-128-57.251-128-128s57.297-128 128-128c35.002 0 66.653 14.103 89.786 36.864l298.217-169.425c-2.374-9.775-4.003-19.828-4.003-30.301 0-70.749 57.251-128.047 128-128.047s128 57.297 128 128.047c0 70.703-57.251 128-128 128z" />
<glyph unicode="&#xe90a;" glyph-name="browser" d="M1024 448c-0.275 279.805-224.708 507.099-503.382 511.994l-0.459 0.006h-8.158c-282.77 0-512-229.23-512-512s229.23-512 512-512v0h8.158c279.134 4.901 503.567 232.195 503.842 511.973v0.027zM517.626-21.24h-1.688c-58.514 0-119.56 81.582-155.007 215.49 42.528 6.108 91.64 9.596 141.567 9.596 2.846 0 5.689-0.011 8.53-0.034l-0.435 0.003c2.673 0.026 5.832 0.040 8.995 0.040 53.818 0 106.652-4.208 158.193-12.314l-5.711 0.74c-36.009-132.501-96.492-212.677-154.725-213.521zM510.312 246.295c-2.45 0.020-5.345 0.032-8.243 0.032-53.362 0-105.814-3.898-157.087-11.424l5.822 0.702c-11.82 55.169-18.589 118.551-18.589 183.515 0 2.242 0.008 4.482 0.024 6.72l-0.002-0.344h371.059q0-10.69 0-21.38c-3.105-62.812-10.743-121.705-22.672-179.026l1.292 7.421c-51.034 8.772-109.814 13.786-169.764 13.786-0.647 0-1.294-0.001-1.94-0.002h0.1zM140.659 160.492c-56.804 72.74-92.692 164.273-97.298 263.973l-0.038 1.029h244.466c1.256-70.438 9.083-138.287 22.896-203.932l-1.234 7.009c-61.694-13.046-116.33-35.76-165.199-66.752l2.034 1.205zM146.286 742.822c47.197-30.392 102.611-52.787 162.040-63.711l2.813-0.429c-13.923-62.348-22.379-134.282-23.342-208.023l-0.007-0.716h-244.466c4.96 104.144 43.305 198.471 104.473 273.441l-0.667-0.843zM514.813 917.521h1.688c56.264 0 115.903-76.8 151.631-203.393-43.91-6.482-94.596-10.183-146.146-10.183-3.808 0-7.611 0.020-11.409 0.060l0.579-0.005c-2.559-0.022-5.584-0.034-8.612-0.034-49.333 0-97.899 3.284-145.491 9.645l5.567-0.608c36.571 127.156 95.93 203.675 153.037 204.237zM511.156 661.24c3.53-0.041 7.7-0.064 11.876-0.064 55.362 0 109.762 4.114 162.913 12.053l-5.998-0.736c13.831-60.623 22.282-130.585 23.34-202.337l0.009-0.776h-372.747c0.872 71.912 9.025 141.429 23.755 208.481l-1.249-6.776c45.282-6.466 97.58-10.157 150.739-10.157 2.885 0 5.767 0.011 8.647 0.033l-0.441-0.003zM875.182 745.635c61.278-74.527 100.076-169.594 104.894-273.536l0.038-1.031h-235.182c-1.14 74.157-9.689 145.674-24.941 214.672l1.31-7.059c57.090 12.866 107.507 34.347 152.674 63.303l-1.887-1.132zM744.932 425.495h235.745q0-10.69-1.407-21.38c-8.78-93.904-44.134-178.181-98.368-246.858l0.75 0.985c-45.373 29.878-98.37 52.749-155.19 65.508l-3.192 0.602c12.866 60.049 20.707 129.396 21.654 200.407l0.008 0.736zM846.769 776.58c-39.092-25.068-84.601-44.494-133.251-55.7l-2.907-0.564c-17.013 70.419-47.829 131.965-89.626 184.366l0.729-0.947c88.791-21.744 165.123-66.293 224.996-127.096l0.059-0.060zM413.257 906.831c-42.652-52.266-74.49-115.108-91.063-183.899l-0.647-3.178c-54.881 10.384-103.708 29.982-147.2 57.294l1.758-1.030c62.674 64.104 143.442 110.271 234.042 130.238l3.109 0.575zM168.791 127.297c42.731 27.006 92.57 47.582 145.849 58.833l2.969 0.525c17.055-75.712 49.974-141.965 95.225-197.818l-0.702 0.895c-96.681 21.295-179.745 69.941-243.114 137.322l-0.227 0.243zM621.714-8.299c42.865 53.826 74.743 118.388 91.079 188.904l0.631 3.236c53.172-11.354 100.252-30.836 142.485-57.332l-1.826 1.068c-61.016-65.248-140.037-112.948-229.136-135.194l-3.233-0.683z" />
<glyph unicode="&#xe90b;" glyph-name="sharing_wechat" d="M693.108 612.864c11.823 0 23.366-0.977 35.002-2.234-31.325 146.106-187.485 254.557-365.708 254.557-199.215 0-362.403-135.727-362.403-308.224 0-99.514 54.225-181.201 145.036-244.783l-36.212-108.963 126.743 63.535c45.382-8.844 81.687-18.060 126.976-18.060 11.404 0 22.668 0.465 33.745 1.303-6.982 24.25-11.171 49.664-11.171 76.055-0.093 158.255 135.866 286.813 307.991 286.813v0zM498.316 711.028c27.369 0 45.335-17.967 45.335-45.242 0-27.183-17.967-45.382-45.335-45.382-27.089 0-54.319 18.199-54.319 45.382 0 27.415 27.136 45.242 54.319 45.242v0zM244.689 620.451c-27.136 0-54.551 18.199-54.551 45.382 0 27.276 27.369 45.242 54.551 45.242s45.242-17.967 45.242-45.242c0-27.183-18.060-45.382-45.242-45.382v0zM1024 330.287c0 144.896-144.989 263.028-307.898 263.028-172.544 0-308.271-118.225-308.271-263.028 0-145.222 135.773-262.982 308.271-262.982 35.98 0 72.564 8.983 108.777 18.060l99.328-54.505-27.229 90.531c72.844 54.737 127.023 127.255 127.023 208.896v0zM616.169 375.761c-18.013 0-36.259 17.967-36.259 36.212 0 18.106 18.292 36.212 36.259 36.212 27.508 0 45.382-18.153 45.382-36.212 0-18.339-17.873-36.212-45.382-36.212v0zM815.43 375.761c-17.78 0-36.026 17.967-36.026 36.212 0 18.106 18.199 36.212 36.026 36.212 27.322 0 45.428-18.153 45.428-36.212 0.047-18.339-18.153-36.212-45.428-36.212v0z" />
<glyph unicode="&#xe90c;" glyph-name="cross" d="M1024 910.938l-49.062 49.062-462.713-462.713-463.163 462.713-49.062-49.062 462.713-463.163-462.713-462.713 49.062-49.062 463.163 462.713 462.713-462.713 49.062 49.062-462.713 462.713 462.713 463.163z" />
<glyph unicode="&#xe90d;" glyph-name="dehaze" horiz-adv-x="1297" d="M0 960h1297.217v-68.417h-1297.217v68.417zM0 481.983h1297.217v-68.417h-1297.217v68.417zM0 3.967h1297.217v-68.417h-1297.217v68.417z" />
<glyph unicode="&#xe90e;" glyph-name="open-in-new-2" d="M870.434-12.698h-819.132v819.132h409.396v51.302h-460.7v-921.736h921.398v461.036h-50.964v-409.736z" />
<glyph unicode="&#xe90f;" glyph-name="email" horiz-adv-x="1365" d="M0 960v-768.188c0.214-141.327 114.831-255.812 256.187-255.812 0 0 0 0 0 0h853.333c141.488 0 256.188 114.699 256.188 256.188v0 767.812zM1308.695 191.812c0-110.001-89.173-199.174-199.174-199.174v0h-853.333c-110.001 0-199.174 89.173-199.174 199.174v0 712.674h1251.681zM1208.545 741.697l-38.259 42.385-487.619-439.982-484.618 439.232-38.259-42.010 522.878-473.741 525.878 474.116z" />
<glyph unicode="&#xe910;" glyph-name="files" horiz-adv-x="1117" d="M279.245 960v-861.056c0-64.231-52.070-116.301-116.301-116.301s-116.301 52.070-116.301 116.301v0 349.209c3.756 22.313 22.932 39.102 46.029 39.102s42.273-16.788 45.991-38.827l0.038-0.274v-302.566h47.564v302.566c0 51.436-41.697 93.133-93.133 93.133s-93.133-41.697-93.133-93.133v0-349.209c0-89.991 72.952-162.944 162.944-162.944h791.091c89.991 0 162.944 72.952 162.944 162.944v0 861.056zM1070.643 98.944c-0.174-64.161-52.14-116.127-116.284-116.301h-678.183c30.298 29.517 49.093 70.714 49.098 116.3v814.414h745.369zM931.021 773.734h-465.51v-325.581h465.51zM884.378 494.49h-372.531v232.909h372.531zM465.51 354.867h465.51v-46.643h-465.51v46.643zM465.51 215.245h349.209v-46.643h-349.209v46.643z" />
<glyph unicode="&#xe911;" glyph-name="top" d="M640 352c-6.4 0-19.2 0-25.6 6.4l-102.4 108.8-102.4-108.8c-12.8-12.8-32-12.8-44.8 0s-12.8 32 0 44.8l128 128c12.8 12.8 32 12.8 44.8 0l128-128c12.8-12.8 12.8-32 0-44.8-6.4-6.4-19.2-6.4-25.6-6.4z" />
<glyph unicode="&#xe912;" glyph-name="to-right" horiz-adv-x="1707" d="M1643.93 510.737l-0.068-0.068-449.195 449.331h-125.474l467.627-467.627h-1536.819v-88.747h1536.819l-467.627-467.627h125.406l512.068 512z" />
<glyph unicode="&#xe913;" glyph-name="download" d="M972.698 268.784v-152.554c-4.818-71.744-64.196-128.114-136.738-128.114-2.596 0-5.174 0.072-7.732 0.216l0.356-0.016h-633.164c-2.204-0.126-4.782-0.198-7.378-0.198-72.542 0-131.92 56.37-136.716 127.698l-0.024 0.418v152.554h-51.302v-152.554c4.736-100.048 87.002-179.37 187.794-179.37 2.682 0 5.348 0.056 8.004 0.168l-0.38-0.014h633.164c2.274-0.098 4.942-0.154 7.624-0.154 100.794 0 183.060 79.322 187.778 178.948l0.016 0.424v152.554z" />
<glyph unicode="&#xe914;" glyph-name="pdf" horiz-adv-x="935" d="M222.005 470.201h-111.003c-12.261 0-22.201-9.94-22.201-22.201v-267.239c0-12.261 9.94-22.201 22.201-22.201s22.201 9.94 22.201 22.201v0 111.003h88.802c49.197 0 89.080 39.882 89.080 89.080s-39.882 89.080-89.080 89.080v0zM222.005 336.442h-88.525v89.357h88.525c24.599 0 44.54-19.941 44.54-44.54s-19.941-44.54-44.54-44.54v0zM422.92 470.201h-44.401c-12.261 0-22.201-9.94-22.201-22.201v-267.239c0-12.261 9.94-22.201 22.201-22.201v0h44.401c83.257 3.624 149.382 72 149.382 155.82s-66.125 152.197-149.056 155.809l-0.326 0.011zM422.92 202.962h-22.201v222.005h22.201c61.305 0 111.003-49.698 111.003-111.003s-49.698-111.003-111.003-111.003v0zM645.481 470.201c-12.261 0-22.201-9.94-22.201-22.201v0-267.239c0-12.261 9.94-22.201 22.201-22.201s22.201 9.94 22.201 22.201v111.003h111.003c12.261 0 22.201 9.94 22.201 22.201s-9.94 22.201-22.201 22.201h-111.003v89.635h155.959c12.261 0 22.201 9.94 22.201 22.201s-9.94 22.201-22.201 22.201v0zM912.72 559.28h-66.879v378.519c0 12.261-9.94 22.201-22.201 22.201v0h-496.182c-4.001-0.863-7.478-2.715-10.284-5.287l0.016 0.015-222.005-222.005c-2.536-2.802-4.382-6.274-5.244-10.118l-0.028-0.15c-0.022-0.414-0.035-0.899-0.035-1.388s0.013-0.973 0.037-1.455l-0.003 0.068c-0.029-0.415-0.046-0.899-0.046-1.388s0.017-0.972 0.050-1.452l-0.004 0.065v-155.959h-67.712c-12.261 0-22.201-9.94-22.201-22.201v0-444.011c0-12.261 9.94-22.201 22.201-22.201v0h66.879v-111.003c0-12.261 9.94-22.201 22.201-22.201v0h712.36c12.261 0 22.201 9.94 22.201 22.201v0 111.003h66.879c12.261 0 22.201 9.94 22.201 22.201v444.011c0 12.261-9.94 22.201-22.201 22.201v0zM311.64 883.963v-145.969h-146.524zM133.481 692.761h199.527c12.261 0 22.201 9.94 22.201 22.201v0 200.637h444.011v-356.319h-665.739zM801.44-19.599h-667.959v89.080h667.959zM890.519 113.882h-846.118v402.107h846.118z" />
<glyph unicode="&#xe915;" glyph-name="left" d="M576 288c-6.4 0-19.2 0-25.6 6.4l-128 128c-12.8 12.8-12.8 32 0 44.8l128 128c12.8 12.8 32 12.8 44.8 0s12.8-32 0-44.8l-102.4-102.4 102.4-102.4c12.8-12.8 12.8-32 0-44.8 0-12.8-12.8-12.8-19.2-12.8z" />
<glyph unicode="&#xe916;" glyph-name="right" d="M448 288c-6.4 0-19.2 0-25.6 6.4-12.8 12.8-12.8 32 0 44.8l108.8 108.8-108.8 102.4c-12.8 12.8-12.8 32 0 44.8s32 12.8 44.8 0l128-128c12.8-12.8 12.8-32 0-44.8l-128-128c0-6.4-12.8-6.4-19.2-6.4z" />
<glyph unicode="&#xe917;" glyph-name="search" d="M1024-33.874l-391.356 391.356c57.004 63.895 91.84 148.637 91.84 241.516 0 200.746-162.736 363.482-363.482 363.482s-363.482-162.736-363.482-363.482c0-200.746 162.736-363.482 363.482-363.482 92.879 0 177.621 34.836 241.874 92.154l-0.358-0.314 391.356-391.356zM41.106 597.926c0 177.266 143.702 320.968 320.968 320.968s320.968-143.702 320.968-320.968c0-177.266-143.702-320.968-320.968-320.968v0c-177.137 0.32-320.648 143.831-320.968 320.937v0.030z" />
<glyph unicode="&#xe918;" glyph-name="download2" d="M786.058 506.726l-36.114 36.112-212.294-212.292v629.452h-51.3v-629.452l-212.294 212.294-36.112-36.112 274.058-274.056 274.058 274.058z" />
<glyph unicode="&#xe919;" glyph-name="icon_VK1" horiz-adv-x="1724" d="M1684.698 890.644c11.983 39.989 0 69.356-57.055 69.356h-188.641c-48.023 0-70.082-25.373-82.111-53.333 0 0-95.864-233.804-231.762-385.725-43.983-43.938-64-57.918-87.921-57.918-12.028 0-30.003 13.98-30.003 53.923v373.696c0 47.977-13.299 69.356-53.288 69.356h-296.443c-30.003 0-48.023-22.241-48.023-43.393 0-45.435 67.949-55.921 74.939-183.83v-277.833c0-60.913-10.984-71.943-34.95-71.943-64.045 0-219.552 234.848-311.83 503.648-18.020 52.244-36.13 73.35-84.335 73.35h-188.641c-53.923 0-64.635-25.373-64.635-53.333 0-49.974 63.909-297.759 297.713-625.475 155.915-223.909 375.512-345.146 575.365-345.146 119.921 0 134.809 26.871 134.809 73.305v169.214c0 53.923 11.302 64.635 49.339 64.635 27.87 0 75.938-14.026 187.824-121.918 127.909-127.909 148.925-185.282 220.959-185.282h188.596c53.923 0 80.84 26.871 65.271 80.068-16.93 53.016-77.98 129.952-159.001 221.095-44.028 52.017-109.98 107.938-129.906 135.898-28.006 35.994-19.972 51.972 0 83.926-0.045-0.045 229.719 323.767 253.73 433.657z" />
<glyph unicode="&#xe91a;" glyph-name="telphone" d="M800.352 312.967c-7.912 1.679-17.003 2.64-26.318 2.64-20.152 0-39.254-4.499-56.355-12.547l0.809 0.342-91.991-39.666c-61.522 38.488-114.888 81.12-162.882 129.123l-0.002 0.002c-48.028 48.576-90.525 102.796-126.358 161.527l-2.205 3.888 30.664 83.27c6.733 15.476 10.65 33.504 10.65 52.447 0 9.618-1.010 19-2.929 28.045l0.156-0.879-61.327 238.84-312.264-45.011v-19.692c16.689-259.585 127.107-490.574 297.409-661.999l-0.055 0.056c173.437-173.426 409.29-284.432 670.973-296.429l2.222-0.081h20.255l33.196 324.36zM952.545-19.833c-245.217 15.799-463.377 120.273-625.123 281.352l0.033-0.033c-158.656 160.342-262.807 374.893-282.213 613.412l-0.23 3.52 236.308 34.040 50.919-200.862c1.12-5.402 1.761-11.611 1.761-17.969 0-13.34-2.822-26.021-7.902-37.479l0.234 0.59-37.415-103.244 5.345-8.721c41.314-68.904 87.842-128.502 140.718-181.791l-0.059 0.059c52.818-52.526 111.738-99.009 175.579-138.266l4.184-2.393 9.565-6.189 112.527 48.949c11.251 5.574 24.499 8.836 38.509 8.836 6.285 0 12.417-0.656 18.331-1.905l-0.576 0.102 184.826-43.604z" />
<glyph unicode="&#xe91b;" glyph-name="tick" horiz-adv-x="1088" d="M1031.595 960l-529.932-919.786-455.674 448.501-45.989-45.145 516.008-507.57 572.124 992.778-56.537 31.222z" />
<glyph unicode="&#xe91c;" glyph-name="icon_print" horiz-adv-x="1101" d="M869.83 758.736v201.264h-638.925v-201.264h-230.905v-473.913l118.702-180.253h112.175v-168.598h638.953v168.598h112.175l118.674 180.253v473.913h-230.849zM272.928 917.977h554.906v-159.241h-554.906v159.241zM827.806-21.977h-554.878v314.616h554.906v-314.616zM1058.683 297.402l-99.315-150.808h-89.51v188.069h-638.953v-188.069h-89.538l-99.343 150.808v419.31h1016.632v-419.31zM986.739 595.741c0-27.758-22.502-50.26-50.26-50.26s-50.26 22.502-50.26 50.26c0 27.758 22.502 50.26 50.26 50.26s50.26-22.502 50.26-50.26z" />
<glyph unicode="&#xe91d;" glyph-name="icon_building" horiz-adv-x="861" d="M304.106 720.245h-131.251v-175.321h131.251v175.321zM262.996 586.007h-49.031v93.101h49.031v-93.101zM495.981 720.245h-131.251v-175.321h131.251v175.321zM454.871 586.007h-49.031v93.101h49.031v-93.101zM687.883 720.245h-131.251v-175.321h131.251v175.321zM646.773 586.007h-49.031v93.101h49.031v-93.101zM304.106 449.603h-131.251v-175.321h131.251v175.321zM262.996 315.365h-49.031v93.101h49.031v-93.101zM495.981 449.603h-131.251v-175.321h131.251v175.321zM454.871 315.365h-49.031v93.101h49.031v-93.101zM687.883 449.603h-131.251v-175.321h131.251v175.321zM646.773 315.365h-49.031v93.101h49.031v-93.101zM860.793 960h-860.793v-157.014h75.314v-698.627c0-92.827 73.121-168.36 162.988-168.36h384.161c89.867 0 162.961 75.533 162.961 168.36v698.627h75.369v157.014zM368.293-22.89v129.305h124.153v-129.305h-124.153zM744.314 104.333c0-70.161-54.649-127.25-121.851-127.25h-88.88v170.415h-206.373v-170.415h-88.908c-67.201 0-121.878 57.088-121.878 127.25v698.654h627.89v-698.654zM819.682 844.097h-778.572v74.793h778.572v-74.793z" />
<glyph unicode="&#xe91e;" glyph-name="zoom-out" d="M365.859 339.322l-314.558-314.558v244.018h-51.301v-332.783h332.783v51.301h-245.368l314.558 315.233-36.113 36.788zM691.217 960v-51.301h245.368l-314.895-313.883 36.451-35.776 314.558 314.895v-246.719h51.301v332.783h-332.783zM332.783 908.699v51.301h-332.783v-332.783h51.301v246.719l314.558-314.558 36.113 35.438-314.558 313.883h245.368zM972.699 28.14l-288.57 310.508-37.463-35.438 292.957-315.908h-248.406v-51.301h332.783v332.783h-51.301v-240.643z" />
<glyph unicode="&#xe91f;" glyph-name="icon_time" d="M512 960c-282.309 0-512-229.691-512-511.972 0-282.309 229.691-512.028 512-512.028 282.337 0 511.972 229.719 511.972 512.028 0 282.281-229.663 511.972-511.972 511.972zM512-21.906c-259.101 0-469.906 210.805-469.906 469.934 0 259.073 210.805 469.878 469.906 469.878s469.878-210.805 469.878-469.878c0-259.129-210.777-469.934-469.878-469.934zM522.467 422.968h-226.913v-42.066h269.007v400.845h-42.094z" />
<glyph unicode="&#xe920;" glyph-name="icon_user" horiz-adv-x="932" d="M461.118 394.816c130.075 0 235.925 136.060 235.925 303.336 0 166.385-85.997 261.848-235.925 261.848s-235.925-95.434-235.925-261.848c0-167.248 105.821-303.336 235.925-303.336zM461.118 916.843c159.336 0 192.768-118.912 192.768-218.691 0-143.454-86.487-260.179-192.768-260.179s-192.768 116.725-192.768 260.179c0 99.779 33.432 218.691 192.768 218.691zM921.229 188.123c-127.802 75.985-289.497 117.819-455.306 117.819s-327.533-41.833-455.364-117.819l-10.559-6.272v-245.851h931.759v245.851l-10.53 6.272zM888.602-20.843h-845.445v178.008c119.574 68.188 269.156 105.62 422.766 105.62s303.163-37.431 422.679-105.62v-178.008z" />
<glyph unicode="&#xe921;" glyph-name="open-in-new3" d="M853.333 21.333h-768v768h426.667v85.333h-512v-938.667h938.667v512h-85.333zM682.667 960v-85.333h195.669l-481.877-481.792 60.416-60.416 481.792 481.877v-195.669h85.333v341.333z" />
<glyph unicode="&#xe922;" glyph-name="icon_print2" horiz-adv-x="1101" d="M272.928 917.977h554.906v-159.241h41.995v201.264h-638.925v-201.264h42.023z" />
<glyph unicode="&#xe923;" glyph-name="icon_print3" horiz-adv-x="1101" d="M986.767 595.741c0-27.758-22.502-50.26-50.26-50.26s-50.26 22.502-50.26 50.26c0 27.758 22.502 50.26 50.26 50.26s50.26-22.502 50.26-50.26zM0 758.736v-473.913l118.702-180.281h112.175v-168.598h638.953v168.598h112.203l118.646 180.281v473.913h-1100.679zM827.806-21.977h-554.878v314.644h554.906l-0.028-314.644zM1058.683 297.43l-99.315-150.836h-89.51v188.097h-638.953v-188.097h-89.538l-99.343 150.836v419.282h1016.632l0.028-419.282z" />
<glyph unicode="&#xe924;" glyph-name="icon_habrahabr" d="M916.348 960h-806.352c-60.711 0-109.996-49.258-109.996-109.969v-806.325c0-60.765 49.285-109.996 109.996-109.996h806.379c60.765 0 109.942 49.232 109.942 109.996v806.325c-0.027 60.711-49.205 109.969-109.969 109.969zM738.797 187.493h-135.919v191.402h-179.357v-191.402h-136v518.723h136v-191.402h179.357v191.402h135.919v-518.723z" />
<glyph unicode="&#xe925;" glyph-name="icon_instagram" d="M734.189 960h-443.057c-160.521 0-291.132-130.61-291.132-291.159v-443.003c0-160.548 130.61-291.159 291.132-291.159h443.057c160.548 0 291.186 130.61 291.186 291.159v443.003c-0.027 160.548-130.637 291.159-291.186 291.159zM933.028 225.838c0-109.646-89.166-198.866-198.839-198.866h-443.057c-109.646 0-198.839 89.22-198.839 198.866v443.003c0 109.646 89.22 198.839 198.839 198.839h443.057c109.673 0 198.839-89.22 198.839-198.839v-443.003zM511.448 711.956c-146.078 0-265.020-118.943-265.020-265.074 0-146.159 118.943-265.074 265.020-265.074 146.213 0 265.155 118.916 265.155 265.074 0 146.132-118.943 265.074-265.155 265.074zM511.448 274.1c-95.229 0-172.674 77.526-172.674 172.782s77.472 172.782 172.674 172.782c95.337 0 172.863-77.526 172.863-172.782s-77.526-172.782-172.863-172.782zM848.847 720.175c0-35.048-28.412-63.459-63.459-63.459s-63.459 28.412-63.459 63.459c0 35.048 28.412 63.459 63.459 63.459s63.459-28.412 63.459-63.459z" />
<glyph unicode="&#xe926;" glyph-name="icon_pic" horiz-adv-x="1355" d="M1155.237 698.497c0-34.345-27.842-62.187-62.187-62.187s-62.187 27.842-62.187 62.187c0 34.345 27.842 62.187 62.187 62.187s62.187-27.842 62.187-62.187zM1354.553-64h-1354.553v1024h1354.553v-1024zM51.996-12.004h1250.562v920.009h-1250.562v-920.009zM1180.922 144.086l-238.555 238.555-157.2-157.269-351.663 351.628-259.874-259.908-36.778 36.778 296.652 296.652 351.663-351.628 157.2 157.234 275.334-275.299z" />
<glyph unicode="&#xe927;" glyph-name="toutiao" d="M1024 776.807v0 0c-9.394 103.339-93.945 183.193-192.587 183.193h-634.128c-108.037 0-197.284-89.248-197.284-197.284v-634.128c0-108.037 89.248-192.587 192.587-192.587h634.128c108.037 0 192.587 89.248 192.587 192.587v634.128c4.697 4.697 4.697 9.394 4.697 14.092zM46.972 729.835v32.881c0 84.55 65.761 150.312 150.312 150.312h634.128c75.156 0 140.917-61.064 145.615-136.22l-977.028-46.972h46.972zM746.862 278.899l-65.761-4.697v103.339l-145.615-9.394v42.275l145.615 9.394v23.486l65.761 4.697v-23.486l145.615 9.394v-42.275l-145.615-9.394v-103.339zM648.22 358.752l-46.972-89.248-70.459-4.697 46.972 89.248 70.459 4.697zM601.248 532.55l28.183 42.275 84.55-32.881 108.037 56.367v14.092l-192.587-14.092-42.275-61.064-61.064 18.789 75.156 112.734 51.67-28.183 164.404 9.394 65.761 4.697v-84.55l-117.431-56.367 89.248-32.881h28.183v-42.275l-37.578 4.697-131.523 46.972-131.523-65.761-51.67-4.697v42.275h32.881l84.55 42.275-46.972 28.183zM850.202 372.844l51.67-84.55-70.459-4.697-51.67 84.55 70.459 4.697zM122.128 363.45v42.275l201.982 14.092v206.679l70.459 4.697v-206.679l89.248 4.697v-42.275l-131.523-9.394-98.642-131.523-89.248-4.697-42.275-4.697v42.275l75.156 4.697 65.761 84.55-140.917-4.697zM216.073 527.853l-61.064 75.156 79.853 4.697 56.367-75.156-75.156-4.697zM291.229 433.908l-79.853-4.697-56.367 79.853 79.853 4.697 56.367-79.853zM441.541 368.147l51.67-103.339-75.156-9.394-51.67 103.339 75.156 9.394zM977.028 166.165v-37.578c0-79.853-65.761-150.312-150.312-150.312h-629.431c-79.853 0-140.917 61.064-145.615 140.917h-46.972l1019.303 51.67-46.972-4.697z" />
<glyph unicode="&#xe928;" glyph-name="zhihu" d="M620.037 255.413h28.183l9.394-42.275 65.761 42.275h61.064v375.78h-164.404zM803.229 960h-582.459c-122.128 0-220.771-98.642-220.771-220.771v-582.459c0-122.128 98.642-220.771 220.771-220.771h582.459c122.128 0 220.771 98.642 220.771 220.771v582.459c0 122.128-98.642 220.771-220.771 220.771zM413.358 344.661c18.789-18.789 65.761-75.156 79.853-93.945 18.789-28.183 4.697-89.248 4.697-89.248l-122.128 145.615c-28.183-108.037-79.853-155.009-79.853-155.009-23.486-18.789-65.761-32.881-112.734-23.486 93.945 75.156 150.312 169.101 159.706 277.138h-145.615c0 0 9.394 51.67 32.881 51.67h117.431c0 14.092 4.697 140.917 4.697 164.404h-65.761c-4.697-14.092-4.697-14.092-9.394-28.183-23.486-46.972-70.459-46.972-79.853-51.67 37.578 79.853 56.367 159.706 65.761 178.495 18.789 46.972 70.459 46.972 70.459 46.972-9.394-32.881-18.789-61.064-28.183-89.248h197.284c23.486 0 18.789-51.67 18.789-51.67h-112.734c0-46.972 0-103.339-4.697-164.404h117.431c18.789 0 18.789-51.67 18.789-51.67h-140.917c0-28.183-9.394-61.064-18.789-89.248l32.881 23.486zM840.807 199.046h-108.037l-93.945-61.064-18.789 61.064h-51.67v488.514h272.44v-488.514z" />
<glyph unicode="&#xe929;" glyph-name="icon_camera" horiz-adv-x="1100" d="M772.197 705.399c0 58.754-47.563 106.317-106.317 106.317h-542.776c-58.754 0-106.317-47.563-106.317-106.317v-514.798c0-58.754 47.563-106.317 106.317-106.317h542.776c58.754 0 106.317 47.563 106.317 106.317v514.798zM716.24 204.59c0-36.372-27.978-64.35-64.35-64.35h-514.798c-36.372 0-64.35 27.978-64.35 64.35v486.82c0 36.372 27.978 64.35 64.35 64.35h514.798c36.372 0 64.35-27.978 64.35-64.35v-486.82zM1051.978 143.038c-8.393 0-16.787 2.798-22.383 11.191l-198.645 274.186c-8.393 11.191-8.393 22.383 0 33.574l198.645 274.186c8.393 8.393 19.585 13.989 30.776 11.191s19.585-13.989 19.585-27.978v-551.169c0-11.191-8.393-22.383-19.585-27.978 0 2.798-5.596 2.798-8.393 2.798zM886.907 448l137.093-190.251v377.705l-137.093-187.454z" />
<glyph unicode="&#xe92a;" glyph-name="icon_link" d="M398.978 364.806l194.408 194.408 29.756-29.756-194.408-194.408-29.756 29.756zM995.945 794.477l-137.468 137.468c-30.86 30.86-78.553 30.86-109.414 0l-286.159-283.353c-14.027-14.027-22.444-33.666-22.444-56.11 0-19.638 8.416-39.277 22.444-56.11l39.277-39.277 30.86 30.86-39.277 39.277c-5.611 5.611-11.222 16.833-11.222 25.249s2.805 19.638 11.222 25.249l283.353 283.353c14.027 14.027 36.471 14.027 50.499 0l137.468-137.468c14.027-14.027 14.027-36.471 0-50.499l-283.353-283.353c-14.027-14.027-36.471-14.027-50.499 0l-39.277 39.277-30.86-30.86 39.277-39.277c14.027-14.027 36.471-22.444 56.11-22.444s39.277 8.416 56.11 22.444l283.353 283.353c30.86 30.86 30.86 81.359 0 112.219zM521.819 396.099l-30.86-30.86 39.277-39.277c5.611-5.611 11.222-16.833 11.222-25.249s-2.805-19.638-11.222-25.249l-283.353-280.548c-14.027-14.027-36.471-14.027-50.499 0l-137.468 137.468c-5.611 5.611-11.222 16.833-11.222 25.249s2.805 19.638 11.222 25.249l283.353 283.353c14.027 14.027 36.471 14.027 50.499 0l39.277-39.277 30.86 30.86-42.082 39.277c-30.86 30.86-78.553 30.86-109.414 0l-283.353-283.353c-14.027-14.027-22.444-33.666-22.444-56.11 0-19.638 8.416-39.277 22.444-56.11l137.468-137.468c14.027-14.027 36.471-22.444 56.11-22.444s39.277 8.416 56.11 22.444l283.353 283.353c14.027 14.027 22.444 33.666 22.444 56.11 0 19.638-8.416 39.277-22.444 56.11l-39.277 36.471z" />
<glyph unicode="&#xe92b;" glyph-name="icon_rss" d="M966.535 649.141h-909.070c-31.345 0-57.466-26.122-57.466-57.466v-287.349c0-31.345 26.122-57.466 57.466-57.466h909.070c31.345 0 57.466 26.122 57.466 57.466v287.349c0 31.345-24.816 57.466-57.466 57.466zM101.876 312.16c-20.899 0-37.881 16.982-37.881 37.881s16.982 37.881 37.881 37.881c20.899 0 37.881-16.982 37.881-37.881s-16.982-37.881-37.881-37.881zM197.223 309.548c0 73.143-60.086 133.229-133.229 133.229v50.938c100.57 0 182.861-82.283 182.861-182.861h-49.632zM289.959 309.548c0 124.081-100.57 225.966-225.966 225.966v49.632c151.508 0 275.599-124.081 275.599-275.599h-49.632zM598.208 357.875h-36.576l-30.039 67.92h-39.187v-67.92h-32.65v178.944h75.754c19.593 0 35.263-5.223 45.715-15.677s15.677-23.511 15.677-39.187c0-11.751-2.611-22.205-9.14-31.345s-14.371-15.677-23.511-19.593l33.956-73.143zM741.882 373.551c-13.065-13.065-31.345-19.593-56.161-19.593-22.205 0-40.493 6.528-53.549 18.288s-18.288 24.816-18.288 41.8h33.956c0-7.834 2.611-15.677 9.14-22.205s16.982-9.14 30.039-9.14c14.371 0 24.816 2.611 31.345 9.14 5.223 5.223 6.528 10.445 6.528 16.982 0 11.751-6.528 18.288-20.899 20.899-3.917 1.306-10.445 1.306-19.593 2.611s-15.677 1.306-19.593 2.611c-13.065 2.611-24.816 7.834-32.65 15.677s-13.065 19.593-13.065 33.956c0 13.065 5.223 24.816 15.677 35.263 6.528 6.528 14.371 10.445 23.511 14.371s19.593 5.223 30.039 5.223c20.899 0 37.881-5.223 49.632-16.982s18.288-23.511 18.288-37.881h-33.956c0 6.528-2.611 13.065-7.834 18.288-2.611 2.611-6.528 5.223-11.751 6.528s-10.445 2.611-15.677 2.611c-13.065 0-22.205-3.917-28.733-10.445-3.917-3.917-6.528-9.14-6.528-15.677 0-10.445 6.528-16.982 18.288-19.593 3.917-1.306 10.445-1.306 20.899-2.611 9.14-1.306 15.677-1.306 18.288-2.611 14.371-2.611 26.122-7.834 35.263-16.982s14.371-20.899 14.371-35.263c-1.306-11.751-6.528-24.816-16.982-35.263zM902.539 373.551c-13.065-13.065-31.345-19.593-56.161-19.593-22.205 0-40.493 6.528-53.549 18.288s-18.288 24.816-18.288 41.8h33.956c0-7.834 2.611-15.677 9.14-22.205s16.982-9.14 30.039-9.14c14.371 0 24.816 2.611 31.345 9.14 5.223 5.223 6.528 10.445 6.528 16.982 0 11.751-6.528 18.288-20.899 20.899-3.917 1.306-10.445 1.306-19.593 2.611s-15.677 1.306-19.593 2.611c-13.065 2.611-24.816 7.834-32.65 15.677s-13.065 19.593-13.065 33.956c0 13.065 5.223 24.816 15.677 35.263 6.528 6.528 14.371 10.445 23.511 14.371s19.593 5.223 30.039 5.223c20.899 0 37.881-5.223 49.632-16.982s18.288-23.511 18.288-37.881h-33.956c0 6.528-2.611 13.065-7.834 18.288-2.611 2.611-6.528 5.223-11.751 6.528s-10.445 2.611-15.677 2.611c-13.065 0-22.205-3.917-28.733-10.445-3.917-3.917-6.528-9.14-6.528-15.677 0-10.445 6.528-16.982 18.288-19.593 3.917-1.306 10.445-1.306 20.899-2.611 9.14-1.306 15.677-1.306 18.288-2.611 14.371-2.611 26.122-7.834 35.263-16.982s14.371-20.899 14.371-35.263c-2.611-11.751-7.834-24.816-16.982-35.263zM535.511 509.383h-43.104v-53.549h43.104c9.14 0 16.982 2.611 20.899 6.528 5.223 5.223 7.834 11.751 7.834 19.593s-2.611 14.371-7.834 19.593c-5.223 5.223-11.751 7.834-20.899 7.834z" />
<glyph unicode="&#xe92c;" glyph-name="icon_nav_phones" horiz-adv-x="1514" d="M647.011 3.816h-62.897c-5.894 0-11.789-5.894-11.789-11.789s5.894-11.789 11.789-11.789h62.897c5.894 0 11.789 5.894 11.789 11.789s-5.894 11.789-11.789 11.789zM1116.75 841.088h-216.198v49.131c0 39.308-31.449 70.756-70.756 70.756h-430.431c-39.308 0-70.756-31.449-70.756-70.756v-882.487c0-39.308 31.449-70.756 70.756-70.756h430.431c0 0 1.965 0 1.965 0s0 0 0 0h283.025c35.378 0 64.862 29.484 64.862 64.862v776.353c1.965 33.413-27.519 62.897-62.897 62.897zM965.414 815.534c0-1.965 0-3.93 0-7.859s-3.93-7.859-7.859-7.859-7.859 3.93-7.859 7.859c0 1.965 0 5.894 0 7.859h15.718zM682.389 935.434c0-1.965 0-3.93 0-7.859s-3.93-7.859-7.859-7.859h-117.923c-3.93 0-7.859 3.93-7.859 7.859 0 1.965 0 5.894 0 7.859h133.653zM354.163 7.745v882.487c0 25.554 21.625 47.167 47.167 47.167h117.923c3.93 0 7.859-3.93 7.859-7.859 0-17.683 13.753-31.449 31.449-31.449h117.923c17.683 0 31.449 13.753 31.449 31.449 0 3.93 3.93 7.859 7.859 7.859h117.923c25.554 0 47.167-21.625 47.167-47.167v-882.487c0-25.554-21.625-47.167-47.167-47.167h-430.431c-29.484 0-49.131 21.625-49.131 47.167zM1156.058-0.126c0-21.625-17.683-39.308-39.308-39.308h-233.893c11.789 11.789 17.683 29.484 17.683 47.167v807.801h15.718c3.93 0 7.859-3.93 7.859-7.859 0-17.683 13.753-31.449 31.449-31.449s31.449 13.753 31.449 31.449c0 3.93 3.93 7.859 7.859 7.859h119.887c21.625 0 39.308-17.683 39.308-39.308v-776.353zM985.074 3.816h-55.038c-5.894 0-11.789-5.894-11.789-11.789s5.894-11.789 11.789-11.789h55.038c5.894 0 11.789 5.894 11.789 11.789s-5.894 11.789-11.789 11.789z" />
<glyph unicode="&#xe92d;" glyph-name="icon_nav_pc" horiz-adv-x="1514" d="M1430.776-5.967c0 0 0 0 0 0 0 2.072 0 2.072 0 4.144s0 4.144 0 4.144c-2.072 4.144-4.144 8.289-4.144 10.361l-124.371 223.875c-2.072 4.144-6.217 8.289-8.289 10.361 2.072 4.144 4.144 10.361 4.144 14.505v663.336c0 18.65-14.505 33.168-33.168 33.168h-1015.726c-18.65 0-33.168-14.505-33.168-33.168v-663.336c0-6.217 2.072-10.361 4.144-14.505-4.144-2.072-6.217-6.217-8.289-10.361l-122.298-223.875c-2.072-4.144-4.144-8.289-6.217-12.433 0-2.072 0-4.144 0-6.217 0 0 0-2.072 0-4.144 0-4.144 0-6.217 2.072-8.289 0 0 0-2.072 0-2.072 2.072-2.072 2.072-6.217 6.217-10.361 2.072-4.144 6.217-6.217 10.361-8.289l33.168-20.735c6.217-4.144 12.433-6.217 18.65-6.217h1212.65c6.217 0 14.505 2.072 18.65 6.217l33.168 20.735c4.144 2.072 8.289 4.144 10.361 10.361 2.072 2.072 4.144 6.217 4.144 8.289v0c0 0 0 2.072 0 2.072-2.072 4.144-2.072 8.289-2.072 12.433 0-2.072 0-2.072 0 0 0-2.072 0-2.072 0 0zM238.848 926.846c0 4.144 4.144 8.289 8.289 8.289h1015.726c4.144 0 8.289-4.144 8.289-8.289v-663.336c0-4.144-4.144-8.289-8.289-8.289h-1015.726c-4.144 0-8.289 4.144-8.289 8.289v663.336zM230.56 224.125c2.072 2.072 4.144 4.144 8.289 4.144h1032.304c4.144 0 6.217-2.072 8.289-4.144l120.226-219.731h-1289.347l120.226 219.731zM1366.512-34.99c-2.072-2.072-4.144-2.072-6.217-2.072h-1212.65c-2.072 0-4.144 0-6.217 2.072l-24.879 16.577h1272.77l-22.807-16.577zM535.276 20.985h439.461c10.361 0 20.735 6.217 26.952 14.505s8.289 20.735 4.144 31.096l-6.217 20.735c-4.144 14.505-16.577 22.807-31.096 22.807h-427.015c-14.505 0-26.952-8.289-31.096-22.807l-6.217-20.735c-4.144-10.361-2.072-20.735 4.144-31.096 6.217-8.289 16.577-14.505 26.952-14.505zM526.988 58.297l6.217 20.735c2.072 4.144 4.144 6.217 8.289 6.217h427.015c4.144 0 6.217-2.072 8.289-6.217l6.217-20.735c2.072-4.144 0-6.217-2.072-6.217 0 0-2.072-4.144-6.217-4.144h-439.461c-4.144 0-6.217 2.072-6.217 4.144-2.072 0-2.072 2.072-2.072 6.217zM744.646 186.812h20.735c6.217 0 12.433 6.217 12.433 12.433s-6.217 12.433-12.433 12.433h-20.735c-6.217 0-12.433-6.217-12.433-12.433s4.144-12.433 12.433-12.433z" />
<glyph unicode="&#xe92e;" glyph-name="smarthome-navbar" horiz-adv-x="555" d="M512 960h-469.333c-23.467 0-42.667-19.2-42.667-42.667v-896c0-23.467 19.2-42.667 42.667-42.667h469.333c23.467 0 42.667 19.2 42.667 42.667v896c0 23.467-19.2 42.667-42.667 42.667zM512 21.333h-469.333c-12.8 0-21.333 8.533-21.333 21.333h512c0-12.8-8.533-21.333-21.333-21.333zM533.333 64h-512v853.333c0 12.8 8.533 21.333 21.333 21.333h469.333c12.8 0 21.333-8.533 21.333-21.333v-853.333zM134.4 292.267l14.933-14.933c34.133 34.133 78.933 53.333 128 53.333s93.867-19.2 128-53.333l14.933 14.933c-38.4 38.4-89.6 59.733-142.933 59.733s-104.533-21.333-142.933-59.733zM189.867 230.4l14.933-14.933c40.533 40.533 104.533 40.533 145.067 0l14.933 14.933c-49.067 49.067-125.867 49.067-174.933 0zM277.333 192c-23.467 0-42.667-19.2-42.667-42.667s19.2-42.667 42.667-42.667v0c23.467 0 42.667 19.2 42.667 42.667s-19.2 42.667-42.667 42.667zM277.333 128c-10.667 0-21.333 8.533-21.333 21.333 0 10.667 8.533 21.333 21.333 21.333 10.667 0 21.333-8.533 21.333-21.333s-10.667-21.333-21.333-21.333zM64-64h426.667c12.8 0 21.333 8.533 21.333 21.333h-469.333c0-12.8 8.533-21.333 21.333-21.333z" />
<glyph unicode="&#xe92f;" glyph-name="Wearables-navbar" horiz-adv-x="689" d="M518.982 589.964l-13.964 18.618-169.891-134.982-148.945 81.455-9.309-20.945 162.909-88.436zM672.582 413.091c0 0 0 2.327 0 2.327 0 11.636 2.327 23.273 2.327 32.582 0 0 0 0 0 0s0 0 0 0 0 0 0 0c0 9.309 0 20.945-2.327 32.582 0 0 0 2.327 0 2.327-6.982 76.8-34.909 183.855-86.109 318.836l-20.945-4.655-23.273 116.364c-4.655 27.927-30.255 46.545-58.182 46.545h-295.564c-27.927 0-51.2-18.618-58.182-46.545l-23.273-116.364-18.618 6.982c-48.873-134.982-79.127-242.036-86.109-318.836 0 0 0-2.327 0-2.327-2.327-11.636-2.327-23.273-2.327-32.582 0 0 0 0 0 0s0 0 0 0 0 0 0 0c0-9.309 0-20.945 2.327-32.582 0 0 0-2.327 0-2.327 6.982-76.8 37.236-186.182 86.109-323.491l20.945 6.982 23.273-114.036c4.655-27.927 30.255-46.545 58.182-46.545h297.891c27.927 0 51.2 18.618 58.182 46.545l23.273 114.036 18.618-6.982c46.545 137.309 76.8 244.364 83.782 321.164zM46.545 450.327c0 0 0 0 0 0 0 160.582 130.327 290.909 290.909 290.909s290.909-130.327 290.909-290.909c0 0 0 0 0 0 0-160.582-130.327-290.909-290.909-290.909s-290.909 130.327-290.909 290.909zM153.6 908.8c2.327 16.291 18.618 27.927 34.909 27.927h297.891c16.291 0 30.255-11.636 34.909-27.927l39.564-207.127c-60.509 53.527-137.309 86.109-223.418 86.109s-165.236-32.582-223.418-86.109l39.564 207.127zM521.309-12.8c-2.327-16.291-18.618-27.927-34.909-27.927h-297.891c-16.291 0-30.255 11.636-34.909 27.927l-41.891 211.782c60.509-53.527 139.636-86.109 225.745-86.109s165.236 32.582 225.745 86.109l-41.891-211.782zM688.873 578.327c-2.327 16.291-6.982 30.255-11.636 46.545l-23.273-4.655c4.655-16.291 6.982-30.255 11.636-46.545l23.273 4.655zM653.964 275.782l23.273-6.982c4.655 16.291 6.982 32.582 11.636 46.545l-23.273 4.655c-4.655-11.636-6.982-27.927-11.636-44.218z" />
<glyph unicode="&#xe930;" glyph-name="tablets-navbar" horiz-adv-x="1718" d="M1420.387 960h-1354.323c-36.335 0-66.065-29.729-66.065-66.065v-891.871c0-36.335 29.729-66.065 66.065-66.065h1354.323c36.335 0 66.065 29.729 66.065 66.065v891.871c0 36.335-29.729 66.065-66.065 66.065zM1420.387 35.097c0-19.819-13.213-33.032-33.032-33.032h-1288.258c-19.819 0-33.032 13.213-33.032 33.032v825.806c0 19.819 13.213 33.032 33.032 33.032h1288.258c19.819 0 33.032-13.213 33.032-33.032v-825.806zM726.71 860.903h33.032v-33.032h-33.032v33.032zM842.323 68.129h-198.194c-9.91 0-16.516-6.606-16.516-16.516s6.606-16.516 16.516-16.516h198.194c9.91 0 16.516 6.606 16.516 16.516 0 6.606-6.606 16.516-16.516 16.516zM1651.613 761.806h-132.129v-33.032h132.129c19.819 0 33.032-13.213 33.032-33.032v-660.645c0-19.819-13.213-33.032-33.032-33.032h-132.129v-33.032h132.129c36.335 0 66.065 29.729 66.065 66.065v660.645c0 36.335-29.729 66.065-66.065 66.065zM1651.613 315.871v99.097c0 9.91-6.606 16.516-16.516 16.516s-16.516-9.91-16.516-16.516v-99.097c0-9.91 6.606-16.516 16.516-16.516s16.516 6.606 16.516 16.516z" />
<glyph unicode="&#xe931;" glyph-name="solutions-nav" horiz-adv-x="812" d="M0 960v-247.172h812.138v247.172h-812.138zM776.828 783.448h-741.517v141.241h741.517v-141.241zM0 395.034h812.138v247.172h-812.138v-247.172zM35.31 606.897h741.517v-141.241h-741.517v141.241zM0 6.621c0-38.841 31.779-70.621 70.621-70.621h670.897c38.841 0 70.621 31.779 70.621 70.621v317.793h-812.138v-317.793zM35.31 289.103h741.517v-229.517c0-28.248-24.717-52.966-52.966-52.966h-635.586c-28.248 0-52.966 24.717-52.966 52.966v229.517zM706.207 854.069c0-19.501-15.809-35.31-35.31-35.31s-35.31 15.809-35.31 35.31c0 19.501 15.809 35.31 35.31 35.31s35.31-15.809 35.31-35.31zM706.207 536.276c0-19.501-15.809-35.31-35.31-35.31s-35.31 15.809-35.31 35.31c0 19.501 15.809 35.31 35.31 35.31s35.31-15.809 35.31-35.31zM706.207 147.862c0-19.501-15.809-35.31-35.31-35.31s-35.31 15.809-35.31 35.31c0 19.501 15.809 35.31 35.31 35.31s35.31-15.809 35.31-35.31zM141.241 112.552h388.414c21.186 0 35.31 14.124 35.31 35.31s-14.124 35.31-35.31 35.31h-388.414c-21.186 0-35.31-14.124-35.31-35.31s14.124-35.31 35.31-35.31z" />
<glyph unicode="&#xe932;" glyph-name="pc-navbar" horiz-adv-x="1771" d="M1632.865 904.649c0 30.443-24.908 55.351-55.351 55.351h-1383.784c-30.443 0-55.351-24.908-55.351-55.351v-913.297h1494.486v913.297zM1605.189 46.703h-1439.135v844.108c0 22.141 19.373 41.514 41.514 41.514h1356.108c22.141 0 41.514-19.373 41.514-41.514v-844.108zM0-36.324h1771.243v-27.676h-1771.243v27.676z" />
<glyph unicode="&#xe933;" glyph-name="mobile-navbar" horiz-adv-x="532" d="M472.615 960h-413.538c-33.477 0-59.077-25.6-59.077-59.077v-905.846c0-33.477 25.6-59.077 59.077-59.077h413.538c33.477 0 59.077 25.6 59.077 59.077v905.846c0 33.477-25.6 59.077-59.077 59.077zM512 14.769c0-21.662-17.723-39.385-39.385-39.385h-413.538c-21.662 0-39.385 17.723-39.385 39.385v866.462c0 21.662 17.723 39.385 39.385 39.385h118.154c9.846 0 19.692-9.846 19.692-19.692s9.846-19.692 19.692-19.692h98.462c9.846 0 19.692 9.846 19.692 19.692s9.846 19.692 19.692 19.692h118.154c21.662 0 39.385-17.723 39.385-39.385v-866.462z" />
<glyph unicode="&#xe934;" glyph-name="accessories-navbar" horiz-adv-x="656" d="M562.404 784.912h17.686v-17.686h-17.686v17.686zM645.527 853.886c10.611 17.686 12.38 37.14 7.074 54.826-5.306 19.454-17.686 33.603-35.371 42.446-33.603 17.686-76.048 3.537-95.503-30.066l-12.38-19.454c-3.537-7.074-10.611-10.611-17.686-12.38 0 0-1.769 0-1.769 0-8.843-1.769-17.686-5.306-26.528-8.843-30.066-14.149-53.057-38.908-65.437-68.974-24.76-63.668 8.843-134.411 72.511-159.171 14.149-5.306 28.297-7.074 44.214-7.074 7.074 0 12.38 0 19.454 1.769v-408.539h-17.686v-159.171h17.686v-141.485h17.686v141.485h17.686v159.171h-17.686v229.914h17.686v189.237c28.297 14.149 49.52 37.14 61.9 67.206 7.074 21.223 10.611 42.446 5.306 65.437 0 1.769 0 3.537-1.769 5.306 0 3.537-1.769 5.306-1.769 8.843 0 1.769 0 3.537-1.769 5.306-1.769 7.074-1.769 15.917 1.769 21.223l12.38 22.991zM596.007 737.161c-17.686-45.983-68.974-68.974-113.188-51.288-21.223 8.843-38.908 24.76-49.52 45.983-8.843 21.223-10.611 45.983-1.769 67.206s24.76 38.908 45.983 49.52c10.611 5.306 22.991 7.074 35.371 7.074 10.611 0 21.223-1.769 31.834-5.306 21.223-8.843 38.908-24.76 49.52-45.983 8.843-21.223 8.843-45.983 1.769-67.206zM617.23 839.737c0-1.769 0-1.769-1.769-3.537-14.149 21.223-33.603 37.14-58.363 45.983-10.611 3.537-21.223 7.074-33.603 7.074 0 0 1.769 1.769 1.769 1.769l12.38 19.454c10.611 21.223 30.066 31.834 47.751 31.834 7.074 0 15.917-1.769 22.991-5.306 12.38-7.074 22.991-17.686 26.528-31.834s1.769-28.297-5.306-42.446l-12.38-22.991zM74.28 784.912h17.686v-17.686h-17.686v17.686zM192.774 880.415c-8.843 3.537-17.686 7.074-26.528 8.843 0 0-1.769 0-1.769 0-7.074 1.769-14.149 5.306-17.686 12.38l-12.38 21.223c-21.223 33.603-63.668 45.983-95.503 30.066-17.686-8.843-30.066-24.76-35.371-42.446-5.306-19.454-3.537-38.908 5.306-56.594l14.149-22.991c3.537-7.074 5.306-14.149 1.769-21.223 0-3.537-1.769-7.074-1.769-10.611-7.074-24.76-5.306-51.288 3.537-74.28 12.38-31.834 35.371-54.826 63.668-67.206v-189.237h17.686v-530.57h17.686v707.427c5.306 0 12.38-1.769 17.686-1.769 14.149 0 28.297 1.769 44.214 7.074 63.668 24.76 95.503 95.503 72.511 159.171-14.149 31.834-37.14 56.594-67.206 70.743zM40.677 836.2c0 1.769 0 1.769-1.769 3.537l-14.149 22.991c-7.074 12.38-8.843 28.297-5.306 42.446s14.149 24.76 26.528 31.834c24.76 12.38 56.594 1.769 72.511-22.991l12.38-19.454c0 0 1.769-1.769 1.769-1.769-12.38-3.537-22.991-5.306-33.603-8.843-24.76-8.843-44.214-26.528-58.363-47.751zM222.839 731.855c-8.843-21.223-26.528-37.14-49.52-45.983-45.983-17.686-97.271 5.306-113.188 51.288-8.843 21.223-7.074 45.983 1.769 67.206 10.611 21.223 26.528 37.14 49.52 45.983 10.611 3.537 21.223 5.306 30.066 5.306 12.38 0 24.76-1.769 37.14-7.074 21.223-8.843 37.14-26.528 45.983-49.52s7.074-45.983-1.769-67.206z" />
<glyph unicode="&#xe935;" glyph-name="mobile-nav" horiz-adv-x="528" d="M434.424 960h-341.333c-52.752 0-93.091-40.339-93.091-93.091v-837.818c0-52.752 40.339-93.091 93.091-93.091h341.333c52.752 0 93.091 40.339 93.091 93.091v837.818c0 52.752-40.339 93.091-93.091 93.091zM496.485 60.121c0-34.133-27.927-62.061-62.061-62.061h-341.333c-34.133 0-62.061 27.927-62.061 62.061v775.758c0 34.133 27.927 62.061 62.061 62.061h62.061c0-18.618 12.412-31.030 31.030-31.030h155.152c18.618 0 31.030 12.412 31.030 31.030h62.061c34.133 0 62.061-27.927 62.061-62.061v-775.758z" />
<glyph unicode="&#xe936;" glyph-name="smart-screen" horiz-adv-x="1695" d="M1625.6 12.8h-1572.234c-0.416-0.016-0.905-0.026-1.396-0.026-20.584 0-37.346 16.363-37.987 36.791l-0.001 0.059v835.348c0.643 20.487 17.405 36.85 37.989 36.85 0.491 0 0.98-0.009 1.466-0.028l-0.070 0.002h1572.234c0.416 0.016 0.905 0.026 1.396 0.026 20.584 0 37.346-16.363 37.987-36.791l0.001-0.059v-835.348c-0.643-20.487-17.405-36.85-37.989-36.85-0.491 0-0.98 0.009-1.466 0.028l0.070-0.002zM53.366 903.286c-0.014 0-0.031 0-0.048 0-10.391 0-18.902-8.048-19.64-18.25l-0.004-0.064v-835.348c0.841-10.177 9.308-18.117 19.629-18.117 0.022 0 0.044 0 0.067 0h1572.231c0.019 0 0.041 0 0.063 0 10.321 0 18.788 7.941 19.624 18.046l0.005 0.071v835.348c-0.742 10.266-9.253 18.314-19.644 18.314-0.017 0-0.034 0-0.051 0h0.003zM1625.6 5.514h-1572.234c-0.355-0.010-0.773-0.016-1.192-0.016-24.565 0-44.542 19.641-45.084 44.076l-0.001 0.050v835.348c0.545 24.592 20.61 44.319 45.282 44.319 0.35 0 0.699-0.004 1.047-0.012l-0.052 0.001h1572.234c0.296 0.007 0.645 0.011 0.995 0.011 24.672 0 44.736-19.727 45.281-44.268l0.001-0.051v-835.348c-0.543-24.485-20.52-44.127-45.085-44.127-0.419 0-0.837 0.006-1.253 0.017l0.061-0.001zM53.366 914.511c-0.298 0.010-0.648 0.016-1 0.016-16.517 0-29.97-13.119-30.506-29.506l-0.001-0.049v-835.348c0.644-16.349 14.053-29.358 30.501-29.358 0.354 0 0.707 0.006 1.058 0.018l-0.051-0.001h1572.234c0.3-0.011 0.653-0.017 1.007-0.017 16.448 0 29.857 13.010 30.499 29.3l0.002 0.058v835.348c-0.538 16.436-13.991 29.555-30.508 29.555-0.352 0-0.702-0.006-1.051-0.018l0.051 0.001zM1625.6 24.025h-1572.234c-0.119-0.002-0.26-0.003-0.4-0.003-14.258 0-25.855 11.393-26.184 25.573l-0.001 0.031v835.348c0.329 14.21 11.926 25.603 26.184 25.603 0.141 0 0.281-0.001 0.422-0.003h1572.213c0.177 0.004 0.385 0.007 0.594 0.007 14.22 0 25.773-11.418 25.991-25.586v-835.368c-0.218-14.189-11.771-25.607-25.991-25.607-0.209 0-0.417 0.002-0.624 0.007l0.031-0.001zM53.366 895.803c-0.178 0.010-0.387 0.016-0.597 0.016-6.066 0-11.009-4.812-11.218-10.828l-0.001-0.019v-835.348c0.319-6.052 5.304-10.838 11.407-10.838 0.144 0 0.287 0.003 0.429 0.008l-0.021-0.001h1572.234c0.122-0.005 0.265-0.007 0.409-0.007 6.103 0 11.088 4.786 11.405 10.81l0.001 0.028v835.348c-0.21 6.034-5.152 10.847-11.218 10.847-0.21 0-0.419-0.006-0.626-0.017l0.029 0.001zM782.769 960h113.428v-41.157h-113.428v41.157zM201.058 12.8h1277.046v-52.185h-1277.046v52.185zM591.951-4.529h495.065v-51.988h-495.065v51.988z" />
<glyph unicode="&#xe937;" glyph-name="emui" d="M512.985-55.138c-276.788 0-501.169 224.381-501.169 501.169s224.381 501.169 501.169 501.169c276.788 0 501.169-224.381 501.169-501.169v0c-0.336-276.653-224.516-500.833-501.137-501.169h-0.032zM31.508 446.031c0-265.912 215.565-481.477 481.477-481.477s481.477 215.565 481.477 481.477v0c0-265.912-215.565-481.477-481.477-481.477s-481.477 215.565-481.477 481.477v0zM512.985 907.815c-255.037 0-461.785-206.748-461.785-461.785s206.748-461.785 461.785-461.785c255.037 0 461.785 206.748 461.785 461.785v0c-0.336 254.902-206.884 461.449-461.753 461.785h-0.032zM734.72 321.575c-0.773-0.023-1.682-0.036-2.594-0.036-50.664 0-91.9 40.364-93.305 90.688l-0.003 0.13v142.375c0 8.592 6.965 15.557 15.557 15.557s15.557-6.965 15.557-15.557v0-142.375c2.704-33.648 30.677-59.929 64.788-59.929s62.083 26.281 64.773 59.7l0.015 0.23v142.375c0 8.592 6.965 15.557 15.557 15.557s15.557-6.965 15.557-15.557v0-142.375c-1.518-50.474-42.797-90.812-93.499-90.812-0.845 0-1.687 0.011-2.527 0.033l0.124-0.003zM877.883 325.711c-8.592 0-15.557 6.965-15.557 15.557v0 213.465c0.914 7.911 7.574 13.995 15.655 13.995s14.741-6.084 15.648-13.922l0.007-0.073v-213.465c0 0 0-0.001 0-0.001 0-8.592-6.965-15.557-15.557-15.557-0.069 0-0.138 0-0.207 0.001h0.010zM593.329 325.711c-0.059-0.001-0.128-0.001-0.197-0.001-8.592 0-15.557 6.965-15.557 15.557 0 0 0 0.001 0 0.001v0 165.809l-76.997-103.582 39.385-52.972c1.766-2.268 2.863-5.133 2.953-8.25v-1.398c0 0 0-0.001 0-0.001 0-8.592-6.965-15.557-15.557-15.557-0.069 0-0.138 0-0.207 0.001h-92.15c-0.059-0.001-0.128-0.001-0.197-0.001-8.592 0-15.557 6.965-15.557 15.557 0 0 0 0.001 0 0.001v0c-0.002 0.097-0.003 0.21-0.003 0.325 0 3.523 1.186 6.769 3.181 9.361l-0.027-0.036 39.385 52.972-77.194 103.582v-166.203c0-8.592-6.965-15.557-15.557-15.557s-15.557 6.965-15.557 15.557v0 218.782l1.182 2.363c0.447 0.926 1.043 1.71 1.765 2.357l0.007 0.006c2.837 3.389 7.070 5.529 11.802 5.529 2.914 0 5.638-0.811 7.959-2.22l-0.068 0.038 1.969-1.378 2.166-1.969 99.446-133.908 103.385 135.68 1.772 1.378c2.281 1.36 5.031 2.163 7.968 2.163 3.788 0 7.263-1.337 9.98-3.564l-0.028 0.022 3.545-3.938c0.396-0.751 0.794-1.661 1.132-2.6l0.049-0.157 0.985-5.317v-212.874c0-0.001 0-0.003 0-0.005 0-8.453-6.742-15.332-15.143-15.552h-0.020zM465.723 357.022h30.917l-15.557 20.677zM590.769 559.655v-1.182zM315.077 325.711h-166.991c-8.592 0-15.557 6.965-15.557 15.557v0 211.889c0 8.592 6.965 15.557 15.557 15.557v0h166.991c7.911-0.914 13.995-7.574 13.995-15.655s-6.084-14.741-13.922-15.648l-0.073-0.007h-151.434v-74.634h151.434c8.592 0 15.557-6.965 15.557-15.557v0c0.001-0.059 0.001-0.128 0.001-0.197 0-8.592-6.965-15.557-15.557-15.557 0 0-0.001 0-0.001 0h-151.434v-74.437h151.434c0 0 0.001 0 0.001 0 8.592 0 15.557-6.965 15.557-15.557 0-0.069 0-0.138-0.001-0.207v0.010c0-8.592-6.965-15.557-15.557-15.557v0z" />
<glyph unicode="&#xea1c;" glyph-name="play2" d="M192 832l640-384-640-384z" />
<glyph unicode="&#xea8b;" glyph-name="google-plus" d="M325.8 502.6v-111.8h184.8c-7.4-48-55.8-140.6-184.8-140.6-111.2 0-202 92.2-202 205.8s90.8 205.8 202 205.8c63.4 0 105.6-27 129.8-50.2l88.4 85.2c-56.8 53-130.4 85.2-218.2 85.2-180.2-0.2-325.8-145.8-325.8-326s145.6-325.8 325.8-325.8c188 0 312.8 132.2 312.8 318.4 0 21.4-2.4 37.8-5.2 54h-307.6zM1024 512h-96v96h-96v-96h-96v-96h96v-96h96v96h96z" />
<glyph unicode="&#xea91;" glyph-name="facebook" d="M928 960h-832c-52.8 0-96-43.2-96-96v-832c0-52.8 43.2-96 96-96h416v448h-128v128h128v64c0 105.8 86.2 192 192 192h128v-128h-128c-35.2 0-64-28.8-64-64v-64h192l-32-128h-160v-448h288c52.8 0 96 43.2 96 96v832c0 52.8-43.2 96-96 96z" />
<glyph unicode="&#xea96;" glyph-name="twitter" d="M1024 733.6c-37.6-16.8-78.2-28-120.6-33 43.4 26 76.6 67.2 92.4 116.2-40.6-24-85.6-41.6-133.4-51-38.4 40.8-93 66.2-153.4 66.2-116 0-210-94-210-210 0-16.4 1.8-32.4 5.4-47.8-174.6 8.8-329.4 92.4-433 219.6-18-31-28.4-67.2-28.4-105.6 0-72.8 37-137.2 93.4-174.8-34.4 1-66.8 10.6-95.2 26.2 0-0.8 0-1.8 0-2.6 0-101.8 72.4-186.8 168.6-206-17.6-4.8-36.2-7.4-55.4-7.4-13.6 0-26.6 1.4-39.6 3.8 26.8-83.4 104.4-144.2 196.2-146-72-56.4-162.4-90-261-90-17 0-33.6 1-50.2 3 93.2-59.8 203.6-94.4 322.2-94.4 386.4 0 597.8 320.2 597.8 597.8 0 9.2-0.2 18.2-0.6 27.2 41 29.4 76.6 66.4 104.8 108.6z" />
<glyph unicode="&#xea9a;" glyph-name="sina-weibo" d="M430.2 62c-169.6-16.8-316 60-327 171.2-11 111.4 117.6 215 287 231.8 169.6 16.8 316-60 326.8-171.2 11.2-111.4-117.4-215.2-286.8-231.8zM769.2 431.4c-14.4 4.4-24.4 7.2-16.8 26.2 16.4 41.2 18 76.6 0.2 102-33.2 47.4-124.2 45-228.4 1.2 0 0-32.8-14.2-24.4 11.6 16 51.6 13.6 94.6-11.4 119.6-56.6 56.6-207-2.2-336-131.2-96.4-96.2-152.4-198.8-152.4-287.4 0-169.2 217.2-272.2 429.6-272.2 278.4 0 463.8 161.8 463.8 290.2 0 77.8-65.4 121.8-124.2 140zM954.2 741.4c-67.2 74.6-166.4 103-258 83.6v0c-21.2-4.6-34.6-25.4-30-46.4 4.6-21.2 25.2-34.6 46.4-30 65.2 13.8 135.6-6.4 183.4-59.4s60.8-125.2 40.2-188.4v0c-6.6-20.6 4.6-42.6 25.2-49.4 20.6-6.6 42.6 4.6 49.4 25.2v0.2c28.8 88.4 10.6 190-56.6 264.6zM850.8 648c-32.8 36.4-81.2 50.2-125.6 40.6-18.2-3.8-29.8-22-26-40.2 4-18.2 22-29.8 40-25.8v0c21.8 4.6 45.4-2.2 61.4-19.8 16-17.8 20.4-42 13.4-63.2v0c-5.6-17.6 4-36.8 21.8-42.6 17.8-5.6 36.8 4 42.6 21.8 14 43.4 5.2 93-27.6 129.2zM439.6 263.4c-6-10.2-19-15-29.2-10.8-10.2 4-13.2 15.6-7.4 25.4 6 9.8 18.6 14.6 28.6 10.8 10-3.6 13.6-15 8-25.4zM385.4 194.2c-16.4-26.2-51.6-37.6-78-25.6-26 11.8-33.8 42.2-17.4 67.8 16.2 25.4 50.2 36.8 76.4 25.8 26.6-11.4 35.2-41.6 19-68zM447 379.4c-80.6 21-171.8-19.2-206.8-90.2-35.8-72.4-1.2-153 80.2-179.4 84.4-27.2 184 14.6 218.6 92.6 34.2 76.6-8.4 155.2-92 177z" />
<glyph unicode="&#xea9d;" glyph-name="youtube" d="M1013.8 652.8c0 0-10 70.6-40.8 101.6-39 40.8-82.6 41-102.6 43.4-143.2 10.4-358.2 10.4-358.2 10.4h-0.4c0 0-215 0-358.2-10.4-20-2.4-63.6-2.6-102.6-43.4-30.8-31-40.6-101.6-40.6-101.6s-10.2-82.8-10.2-165.8v-77.6c0-82.8 10.2-165.8 10.2-165.8s10-70.6 40.6-101.6c39-40.8 90.2-39.4 113-43.8 82-7.8 348.2-10.2 348.2-10.2s215.2 0.4 358.4 10.6c20 2.4 63.6 2.6 102.6 43.4 30.8 31 40.8 101.6 40.8 101.6s10.2 82.8 10.2 165.8v77.6c-0.2 82.8-10.4 165.8-10.4 165.8zM406.2 315.2v287.8l276.6-144.4-276.6-143.4z" />
<glyph unicode="&#xeaca;" glyph-name="linkedin" d="M384 576h177.106v-90.782h2.532c24.64 44.194 84.958 90.782 174.842 90.782 186.946 0 221.52-116.376 221.52-267.734v-308.266h-184.61v273.278c0 65.184-1.334 149.026-96.028 149.026-96.148 0-110.82-70.986-110.82-144.292v-278.012h-184.542v576zM64 576h192v-576h-192v576zM256 736c0-53.019-42.981-96-96-96s-96 42.981-96 96c0 53.019 42.981 96 96 96s96-42.981 96-96z" />
<glyph unicode="&#xf0d9;" glyph-name="caret_left" horiz-adv-x="402" d="M365.714 694.857v-512c0-20-16.571-36.571-36.571-36.571-9.714 0-18.857 4-25.714 10.857l-256 256c-6.857 6.857-10.857 16-10.857 25.714s4 18.857 10.857 25.714l256 256c6.857 6.857 16 10.857 25.714 10.857 20 0 36.571-16.571 36.571-36.571z" />
<glyph unicode="&#xf0da;" glyph-name="caret_right" horiz-adv-x="329" d="M329.143 438.857c0-9.714-4-18.857-10.857-25.714l-256-256c-6.857-6.857-16-10.857-25.714-10.857-20 0-36.571 16.571-36.571 36.571v512c0 20 16.571 36.571 36.571 36.571 9.714 0 18.857-4 25.714-10.857l256-256c6.857-6.857 10.857-16 10.857-25.714z" />
<glyph unicode="&#xf0dd;" glyph-name="sort_desc" horiz-adv-x="585" d="M585.143 329.143c0-9.714-4-18.857-10.857-25.714l-256-256c-6.857-6.857-16-10.857-25.714-10.857s-18.857 4-25.714 10.857l-256 256c-6.857 6.857-10.857 16-10.857 25.714 0 20 16.571 36.571 36.571 36.571h512c20 0 36.571-16.571 36.571-36.571z" />
<glyph unicode="&#xf0de;" glyph-name="sort_asc" horiz-adv-x="585" d="M585.143 548.571c0-20-16.571-36.571-36.571-36.571h-512c-20 0-36.571 16.571-36.571 36.571 0 9.714 4 18.857 10.857 25.714l256 256c6.857 6.857 16 10.857 25.714 10.857s18.857-4 25.714-10.857l256-256c6.857-6.857 10.857-16 10.857-25.714z" />
</font>
</defs>
</svg>
