<?xml version="1.0" standalone="no"?>
<!DOCTYPE svg PUBLIC "-//W3C//DTD SVG 1.1//EN" "http://www.w3.org/Graphics/SVG/1.1/DTD/svg11.dtd" >
<svg>
<metadata>
Created by FontForge 20120731 at Tue Apr 23 17:59:21 2019
 By www-data
</metadata>
<defs>
<font id="HuaweiSansLight" horiz-adv-x="1450" >
  <font-face 
    font-family="Huawei Sans Light"
    font-weight="300"
    font-stretch="normal"
    units-per-em="2048"
    panose-1="2 12 3 3 3 2 3 2 2 4"
    ascent="1638"
    descent="-410"
    x-height="1069"
    cap-height="1448"
    bbox="-866 -555 2453 2163"
    underline-thickness="50"
    underline-position="-50"
    unicode-range="U+000D-FEFF"
  />
<missing-glyph horiz-adv-x="1202" 
d="M50 1530h1102v-1909h-1102v1909zM1003 -244v1639h-803v-1639h803z" />
    <glyph glyph-name="f_f" unicode="ff" horiz-adv-x="1330" 
d="M247 970h-170l21 85l149 14v125q0 190 67 275t201 85q47 0 96.5 -9.5t88.5 -24.5l-25 -93q-80 26 -148 26q-54 0 -89.5 -24t-54 -82t-18.5 -157v-121h276l-21 -99h-255v-970h-118v970zM912 970h-170l21 85l149 14v125q0 190 67 275t201 85q47 0 96.5 -9.5t88.5 -24.5
l-25 -93q-80 26 -148 26q-54 0 -89.5 -24t-54 -82t-18.5 -157v-121h276l-21 -99h-255v-970h-118v970z" />
    <glyph glyph-name="f_f_i" unicode="ffi" horiz-adv-x="1808" 
d="M247 970h-170l21 85l149 14v125q0 190 67 275t201 85q47 0 96.5 -9.5t88.5 -24.5l-25 -93q-80 26 -148 26q-54 0 -89.5 -24t-54 -82t-18.5 -157v-121h276l-21 -99h-255v-970h-118v970zM912 970h-170l21 85l149 14v125q0 190 67 275t201 85q47 0 96.5 -9.5t88.5 -24.5
l-25 -93q-80 26 -148 26q-54 0 -89.5 -24t-54 -82t-18.5 -157v-121h276l-21 -99h-255v-970h-118v970zM1510 1069h118v-1069h-118v1069zM1504.5 1309.5q-25.5 25.5 -25.5 66.5q0 40 25.5 64.5t63.5 24.5t64.5 -24.5t26.5 -64.5t-26.5 -66t-64.5 -26t-63.5 25.5z" />
    <glyph glyph-name="f_f_l" unicode="ffl" horiz-adv-x="1838" 
d="M247 970h-170l21 85l149 14v125q0 190 67 275t201 85q47 0 96.5 -9.5t88.5 -24.5l-25 -93q-80 26 -148 26q-54 0 -89.5 -24t-54 -82t-18.5 -157v-121h276l-21 -99h-255v-970h-118v970zM912 970h-170l21 85l149 14v125q0 190 67 275t201 85q47 0 96.5 -9.5t88.5 -24.5
l-25 -93q-80 26 -148 26q-54 0 -89.5 -24t-54 -82t-18.5 -157v-121h276l-21 -99h-255v-970h-118v970zM1549 40q-50 58 -50 177v1317l119 20v-1318q0 -82 22.5 -116t80.5 -34q18 0 52 9l18 -98q-20 -7 -47.5 -11t-49.5 -4q-95 0 -145 58z" />
    <glyph glyph-name="fi" unicode="fi" horiz-adv-x="1143" 
d="M247 970h-170l21 85l149 14v125q0 190 67 275t201 85q47 0 96.5 -9.5t88.5 -24.5l-25 -93q-80 26 -148 26q-54 0 -89.5 -24t-54 -82t-18.5 -157v-121h276l-21 -99h-255v-970h-118v970zM845 1069h118v-1069h-118v1069zM839.5 1309.5q-25.5 25.5 -25.5 66.5q0 40 25.5 64.5
t63.5 24.5t64.5 -24.5t26.5 -64.5t-26.5 -66t-64.5 -26t-63.5 25.5z" />
    <glyph glyph-name="fl" unicode="fl" horiz-adv-x="1173" 
d="M247 970h-170l21 85l149 14v125q0 190 67 275t201 85q47 0 96.5 -9.5t88.5 -24.5l-25 -93q-80 26 -148 26q-54 0 -89.5 -24t-54 -82t-18.5 -157v-121h276l-21 -99h-255v-970h-118v970zM884 40q-50 58 -50 177v1317l119 20v-1318q0 -82 22.5 -116t80.5 -34q18 0 52 9
l18 -98q-20 -7 -47.5 -11t-49.5 -4q-95 0 -145 58z" />
    <glyph glyph-name=".notdef" horiz-adv-x="1202" 
d="M50 1530h1102v-1909h-1102v1909zM1003 -244v1639h-803v-1639h803z" />
    <glyph glyph-name="nonmarkingreturn" unicode="&#xd;" horiz-adv-x="639" 
 />
    <glyph glyph-name="space" unicode=" " horiz-adv-x="639" 
 />
    <glyph glyph-name="uni0000" horiz-adv-x="0" 
 />
    <glyph glyph-name="uni0000" horiz-adv-x="0" 
 />
    <glyph glyph-name="A" unicode="A" horiz-adv-x="1294" 
d="M973 459h-658l-181 -459h-133l589 1448h99l604 -1448h-133zM565 1091l-209 -526h574l-210 521q-37 87 -80 206q-24 -68 -75 -201z" />
    <glyph glyph-name="Aacute" unicode="&#xc1;" horiz-adv-x="1294" 
d="M973 459h-658l-181 -459h-133l589 1448h99l604 -1448h-133zM565 1091l-209 -526h574l-210 521q-37 87 -80 206q-24 -68 -75 -201zM503 1556l269 288l161 -24l-354 -286z" />
    <glyph glyph-name="Abreve" unicode="&#x102;" horiz-adv-x="1294" 
d="M973 459h-658l-181 -459h-133l589 1448h99l604 -1448h-133zM565 1091l-209 -526h574l-210 521q-37 87 -80 206q-24 -68 -75 -201zM479 1584q-65 37 -100.5 95.5t-46.5 127.5h93q16 -76 69 -118t144 -42t144.5 42t69.5 118h92q-11 -68 -46 -126.5t-100 -96t-160 -37.5
q-94 0 -159 37z" />
    <glyph glyph-name="Acircumflex" unicode="&#xc2;" horiz-adv-x="1294" 
d="M973 459h-658l-181 -459h-133l589 1448h99l604 -1448h-133zM565 1091l-209 -526h574l-210 521q-37 87 -80 206q-24 -68 -75 -201zM315 1564l253 256h144l254 -260l-75 -23l-251 193l-249 -193z" />
    <glyph glyph-name="Adieresis" unicode="&#xc4;" horiz-adv-x="1294" 
d="M973 459h-658l-181 -459h-133l589 1448h99l604 -1448h-133zM565 1091l-209 -526h574l-210 521q-37 87 -80 206q-24 -68 -75 -201zM367 1639q-25 24 -25 64q0 38 25 62t64 24q38 0 63 -24.5t25 -61.5q0 -39 -24.5 -63.5t-63.5 -24.5t-64 24zM784.5 1638.5
q-24.5 23.5 -24.5 64.5q0 38 24.5 62t64.5 24q37 0 62.5 -25t25.5 -61q0 -39 -26 -63.5t-62 -24.5q-40 0 -64.5 23.5z" />
    <glyph glyph-name="Agrave" unicode="&#xc0;" horiz-adv-x="1294" 
d="M973 459h-658l-181 -459h-133l589 1448h99l604 -1448h-133zM565 1091l-209 -526h574l-210 521q-37 87 -80 206q-24 -68 -75 -201zM347 1820l161 24l269 -288l-75 -22z" />
    <glyph glyph-name="Amacron" unicode="&#x100;" horiz-adv-x="1294" 
d="M973 459h-658l-181 -459h-133l589 1448h99l604 -1448h-133zM565 1091l-209 -526h574l-210 521q-37 87 -80 206q-24 -68 -75 -201zM351 1745h579v-100h-579v100z" />
    <glyph glyph-name="Aogonek" unicode="&#x104;" horiz-adv-x="1294" 
d="M1297 -383q-28 -15 -67.5 -23t-84.5 -8q-72 0 -120.5 27t-71.5 71t-23 95q0 84 55 145.5t162 107.5l-174 427h-658l-181 -459h-133l589 1448h99l604 -1448h-70q-83 -40 -131.5 -90.5t-48.5 -118.5q0 -51 32.5 -81t87.5 -30q58 0 110 21zM565 1091l-209 -526h574l-210 521
q-37 87 -80 206q-24 -68 -75 -201z" />
    <glyph glyph-name="Aring" unicode="&#xc5;" horiz-adv-x="1294" 
d="M973 459h-658l-181 -459h-133l589 1448h99l604 -1448h-133zM565 1091l-209 -526h574l-210 521q-37 87 -80 206q-24 -68 -75 -201zM539 1552.5q-46 25.5 -72.5 71t-26.5 103.5t26.5 104t72.5 72t103 26q59 0 106 -26t74 -72t27 -104t-27 -103.5t-74 -71t-106 -25.5
q-57 0 -103 25.5zM723.5 1647q31.5 31 31.5 82q0 49 -31.5 79.5t-81.5 30.5q-48 0 -78 -30.5t-30 -79.5q0 -51 30 -82t78 -31q50 0 81.5 31z" />
    <glyph glyph-name="Aringacute" unicode="&#x1fa;" horiz-adv-x="1294" 
d="M973 459h-658l-181 -459h-133l560 1377q-56 22 -89 71t-33 115q0 61 29 109t79 72l186 199l161 -24l-198 -160q68 -17 110 -70t42 -126q0 -67 -35 -116.5t-94 -70.5l574 -1376h-133zM563 1644.5q-30 -30.5 -30 -79.5q0 -51 30 -82t78 -31q50 0 81.5 31t31.5 82
q0 49 -31.5 79.5t-81.5 30.5q-48 0 -78 -30.5zM720 1086q-37 87 -80 206q-24 -68 -75 -201l-209 -526h574z" />
    <glyph glyph-name="Atilde" unicode="&#xc3;" horiz-adv-x="1294" 
d="M973 459h-658l-181 -459h-133l589 1448h99l604 -1448h-133zM565 1091l-209 -526h574l-210 521q-37 87 -80 206q-24 -68 -75 -201zM298 1628q9 96 54 148t120 52q48 0 92.5 -19.5t98.5 -52.5q45 -27 72 -38.5t59 -11.5q44 0 69.5 27.5t35.5 96.5l82 -25
q-12 -95 -54.5 -149t-129.5 -54q-46 0 -83.5 15.5t-90.5 48.5q-50 31 -81.5 45t-63.5 14q-44 0 -67 -29.5t-36 -93.5z" />
    <glyph glyph-name="AE" unicode="&#xc6;" horiz-adv-x="1817" 
d="M1729 111l-20 -111h-784v459h-576l-218 -459h-130l695 1448h1023l-21 -110h-651v-533h619v-109h-619v-585h682zM399 565h526v778h-161z" />
    <glyph glyph-name="AEacute" unicode="&#x1fc;" horiz-adv-x="1817" 
d="M1729 111l-20 -111h-784v459h-576l-218 -459h-130l695 1448h1023l-21 -110h-651v-533h619v-109h-619v-585h682zM399 565h526v778h-161zM983 1556l269 288l161 -24l-354 -286z" />
    <glyph glyph-name="B" unicode="B" horiz-adv-x="1201" 
d="M915.5 720.5q77.5 -48.5 121.5 -127.5t44 -183q0 -121 -56 -214t-165 -144.5t-261 -51.5h-391v1448h349q211 0 323.5 -86t112.5 -240q0 -123 -68.5 -210.5t-188.5 -126.5q102 -16 179.5 -64.5zM330 825h211q98 0 172.5 39.5t115 106t40.5 145.5q0 113 -81.5 170
t-237.5 57h-220v-518zM867.5 185q91.5 80 91.5 226q0 150 -102.5 230.5t-291.5 80.5h-235v-617h266q180 0 271.5 80z" />
    <glyph glyph-name="C" unicode="C" horiz-adv-x="1234" 
d="M402.5 68.5q-149.5 89.5 -223.5 252.5t-74 383q0 224 75 396.5t222.5 270.5t357.5 98q215 0 410 -105l-48 -103q-91 47 -176.5 72.5t-182.5 25.5q-171 0 -289.5 -80t-178.5 -225t-60 -339q0 -185 58.5 -325.5t181.5 -220.5t309 -80q95 0 186 23t185 70l37 -103
q-93 -46 -194 -73t-226 -27q-220 0 -369.5 89.5z" />
    <glyph glyph-name="Cacute" unicode="&#x106;" horiz-adv-x="1234" 
d="M402.5 68.5q-149.5 89.5 -223.5 252.5t-74 383q0 224 75 396.5t222.5 270.5t357.5 98q215 0 410 -105l-48 -103q-91 47 -176.5 72.5t-182.5 25.5q-171 0 -289.5 -80t-178.5 -225t-60 -339q0 -185 58.5 -325.5t181.5 -220.5t309 -80q95 0 186 23t185 70l37 -103
q-93 -46 -194 -73t-226 -27q-220 0 -369.5 89.5zM625 1556l269 288l161 -24l-354 -286z" />
    <glyph glyph-name="Ccaron" unicode="&#x10c;" horiz-adv-x="1234" 
d="M402.5 68.5q-149.5 89.5 -223.5 252.5t-74 383q0 224 75 396.5t222.5 270.5t357.5 98q215 0 410 -105l-48 -103q-91 47 -176.5 72.5t-182.5 25.5q-171 0 -289.5 -80t-178.5 -225t-60 -339q0 -185 58.5 -325.5t181.5 -220.5t309 -80q95 0 186 23t185 70l37 -103
q-93 -46 -194 -73t-226 -27q-220 0 -369.5 89.5zM1085 1801l-253 -256h-144l-254 260l75 23l251 -193l249 193z" />
    <glyph glyph-name="Ccedilla" unicode="&#xc7;" horiz-adv-x="1234" 
d="M878 -152q52 -39 52 -115q0 -83 -63.5 -129t-178.5 -46q-61 0 -110.5 14t-97.5 43l35 78q86 -48 177 -48q61 0 98.5 23t37.5 67q0 36 -25 58.5t-73 35.5t-130 25l51 133q-180 24 -302.5 118.5t-183 247t-60.5 351.5q0 224 75 396.5t222.5 270.5t357.5 98q215 0 410 -105
l-48 -103q-91 47 -176.5 72.5t-182.5 25.5q-171 0 -289.5 -80t-178.5 -225t-60 -339q0 -185 58.5 -325.5t181.5 -220.5t309 -80q95 0 186 23t185 70l37 -103q-93 -46 -194 -73t-226 -27h-22l-24 -69q100 -23 152 -62z" />
    <glyph glyph-name="Ccircumflex" unicode="&#x108;" horiz-adv-x="1234" 
d="M402.5 68.5q-149.5 89.5 -223.5 252.5t-74 383q0 224 75 396.5t222.5 270.5t357.5 98q215 0 410 -105l-48 -103q-91 47 -176.5 72.5t-182.5 25.5q-171 0 -289.5 -80t-178.5 -225t-60 -339q0 -185 58.5 -325.5t181.5 -220.5t309 -80q95 0 186 23t185 70l37 -103
q-93 -46 -194 -73t-226 -27q-220 0 -369.5 89.5zM437 1564l253 256h144l254 -260l-75 -23l-251 193l-249 -193z" />
    <glyph glyph-name="Cdotaccent" unicode="&#x10a;" horiz-adv-x="1234" 
d="M402.5 68.5q-149.5 89.5 -223.5 252.5t-74 383q0 224 75 396.5t222.5 270.5t357.5 98q215 0 410 -105l-48 -103q-91 47 -176.5 72.5t-182.5 25.5q-171 0 -289.5 -80t-178.5 -225t-60 -339q0 -185 58.5 -325.5t181.5 -220.5t309 -80q95 0 186 23t185 70l37 -103
q-93 -46 -194 -73t-226 -27q-220 0 -369.5 89.5zM703.5 1637.5q-25.5 25.5 -25.5 66.5q0 40 25.5 64.5t63.5 24.5t64.5 -24.5t26.5 -64.5t-26.5 -66t-64.5 -26t-63.5 25.5z" />
    <glyph glyph-name="D" unicode="D" horiz-adv-x="1467" 
d="M208 1448h395q240 0 409.5 -76.5t259.5 -229.5t90 -377q0 -225 -92.5 -398t-266 -270t-409.5 -97h-386v1448zM578 107q214 0 361 82.5t220.5 229t73.5 340.5q0 289 -164 435.5t-486 146.5h-253v-1234h248z" />
    <glyph glyph-name="Eth" unicode="&#xd0;" horiz-adv-x="1467" 
d="M1012.5 1371.5q169.5 -76.5 259.5 -229.5t90 -377q0 -225 -92.5 -398t-266 -270t-409.5 -97h-386v700h-167l20 102h147v646h395q240 0 409.5 -76.5zM939 189.5q147 82.5 220.5 229t73.5 340.5q0 289 -164 435.5t-486 146.5h-253v-539h448l-21 -102h-427v-593h248
q214 0 361 82.5z" />
    <glyph glyph-name="Dcaron" unicode="&#x10e;" horiz-adv-x="1467" 
d="M208 1448h395q240 0 409.5 -76.5t259.5 -229.5t90 -377q0 -225 -92.5 -398t-266 -270t-409.5 -97h-386v1448zM578 107q214 0 361 82.5t220.5 229t73.5 340.5q0 289 -164 435.5t-486 146.5h-253v-1234h248zM1042 1801l-253 -256h-144l-254 260l75 23l251 -193l249 193z
" />
    <glyph glyph-name="Dcroat" unicode="&#x110;" horiz-adv-x="1467" 
d="M1012.5 1371.5q169.5 -76.5 259.5 -229.5t90 -377q0 -225 -92.5 -398t-266 -270t-409.5 -97h-386v700h-167l20 102h147v646h395q240 0 409.5 -76.5zM939 189.5q147 82.5 220.5 229t73.5 340.5q0 289 -164 435.5t-486 146.5h-253v-539h448l-21 -102h-427v-593h248
q214 0 361 82.5z" />
    <glyph glyph-name="E" unicode="E" horiz-adv-x="1099" 
d="M208 1448h795l-24 -110h-649v-533h616v-109h-616v-585h680l-21 -111h-781v1448z" />
    <glyph glyph-name="Eacute" unicode="&#xc9;" horiz-adv-x="1099" 
d="M208 1448h795l-24 -110h-649v-533h616v-109h-616v-585h680l-21 -111h-781v1448zM473 1556l269 288l161 -24l-354 -286z" />
    <glyph glyph-name="Ebreve" unicode="&#x114;" horiz-adv-x="1099" 
d="M208 1448h795l-24 -110h-649v-533h616v-109h-616v-585h680l-21 -111h-781v1448zM449 1584q-65 37 -100.5 95.5t-46.5 127.5h93q16 -76 69 -118t144 -42t144.5 42t69.5 118h92q-11 -68 -46 -126.5t-100 -96t-160 -37.5q-94 0 -159 37z" />
    <glyph glyph-name="Ecaron" unicode="&#x11a;" horiz-adv-x="1099" 
d="M208 1448h795l-24 -110h-649v-533h616v-109h-616v-585h680l-21 -111h-781v1448zM933 1801l-253 -256h-144l-254 260l75 23l251 -193l249 193z" />
    <glyph glyph-name="Ecircumflex" unicode="&#xca;" horiz-adv-x="1099" 
d="M208 1448h795l-24 -110h-649v-533h616v-109h-616v-585h680l-21 -111h-781v1448zM285 1564l253 256h144l254 -260l-75 -23l-251 193l-249 -193z" />
    <glyph glyph-name="Edieresis" unicode="&#xcb;" horiz-adv-x="1099" 
d="M208 1448h795l-24 -110h-649v-533h616v-109h-616v-585h680l-21 -111h-781v1448zM337 1639q-25 24 -25 64q0 38 25 62t64 24q38 0 63 -24.5t25 -61.5q0 -39 -24.5 -63.5t-63.5 -24.5t-64 24zM754.5 1638.5q-24.5 23.5 -24.5 64.5q0 38 24.5 62t64.5 24q37 0 62.5 -25
t25.5 -61q0 -39 -26 -63.5t-62 -24.5q-40 0 -64.5 23.5z" />
    <glyph glyph-name="Edotaccent" unicode="&#x116;" horiz-adv-x="1099" 
d="M208 1448h795l-24 -110h-649v-533h616v-109h-616v-585h680l-21 -111h-781v1448zM551.5 1637.5q-25.5 25.5 -25.5 66.5q0 40 25.5 64.5t63.5 24.5t64.5 -24.5t26.5 -64.5t-26.5 -66t-64.5 -26t-63.5 25.5z" />
    <glyph glyph-name="Egrave" unicode="&#xc8;" horiz-adv-x="1099" 
d="M208 1448h795l-24 -110h-649v-533h616v-109h-616v-585h680l-21 -111h-781v1448zM317 1820l161 24l269 -288l-75 -22z" />
    <glyph glyph-name="Emacron" unicode="&#x112;" horiz-adv-x="1099" 
d="M208 1448h795l-24 -110h-649v-533h616v-109h-616v-585h680l-21 -111h-781v1448zM321 1745h579v-100h-579v100z" />
    <glyph glyph-name="Eogonek" unicode="&#x118;" horiz-adv-x="1099" 
d="M769.5 -90.5q-48.5 -50.5 -48.5 -118.5q0 -51 32.5 -81t87.5 -30q58 0 110 21l24 -84q-28 -15 -67.5 -23t-84.5 -8q-72 0 -120.5 27t-71.5 71t-23 95q0 135 152 221h-552v1448h795l-24 -110h-649v-533h616v-109h-616v-585h680l-21 -111h-88q-83 -40 -131.5 -90.5z" />
    <glyph glyph-name="F" unicode="F" horiz-adv-x="1063" 
d="M208 1448h794l-21 -110h-651v-531h612v-109h-612v-698h-122v1448z" />
    <glyph glyph-name="G" unicode="G" horiz-adv-x="1445" 
d="M413.5 72.5q-152.5 92.5 -230.5 257.5t-78 380q0 237 91.5 408.5t253.5 260.5t371 89q123 0 235 -30t206 -79l-47 -103q-94 48 -190 75t-202 27q-173 0 -306 -75.5t-208 -221.5t-75 -350q0 -179 60 -319.5t185 -222t313 -81.5q95 0 193.5 20t182.5 55v377h-397v111h518
v-550q-115 -58 -247.5 -89.5t-259.5 -31.5q-216 0 -368.5 92.5z" />
    <glyph glyph-name="Gbreve" unicode="&#x11e;" horiz-adv-x="1445" 
d="M413.5 72.5q-152.5 92.5 -230.5 257.5t-78 380q0 237 91.5 408.5t253.5 260.5t371 89q123 0 235 -30t206 -79l-47 -103q-94 48 -190 75t-202 27q-173 0 -306 -75.5t-208 -221.5t-75 -350q0 -179 60 -319.5t185 -222t313 -81.5q95 0 193.5 20t182.5 55v377h-397v111h518
v-550q-115 -58 -247.5 -89.5t-259.5 -31.5q-216 0 -368.5 92.5zM630 1584q-65 37 -100.5 95.5t-46.5 127.5h93q16 -76 69 -118t144 -42t144.5 42t69.5 118h92q-11 -68 -46 -126.5t-100 -96t-160 -37.5q-94 0 -159 37z" />
    <glyph glyph-name="Gcircumflex" unicode="&#x11c;" horiz-adv-x="1445" 
d="M413.5 72.5q-152.5 92.5 -230.5 257.5t-78 380q0 237 91.5 408.5t253.5 260.5t371 89q123 0 235 -30t206 -79l-47 -103q-94 48 -190 75t-202 27q-173 0 -306 -75.5t-208 -221.5t-75 -350q0 -179 60 -319.5t185 -222t313 -81.5q95 0 193.5 20t182.5 55v377h-397v111h518
v-550q-115 -58 -247.5 -89.5t-259.5 -31.5q-216 0 -368.5 92.5zM466 1564l253 256h144l254 -260l-75 -23l-251 193l-249 -193z" />
    <glyph glyph-name="Gcommaaccent" unicode="&#x122;" horiz-adv-x="1445" 
d="M413.5 72.5q-152.5 92.5 -230.5 257.5t-78 380q0 237 91.5 408.5t253.5 260.5t371 89q123 0 235 -30t206 -79l-47 -103q-94 48 -190 75t-202 27q-173 0 -306 -75.5t-208 -221.5t-75 -350q0 -179 60 -319.5t185 -222t313 -81.5q95 0 193.5 20t182.5 55v377h-397v111h518
v-550q-115 -58 -247.5 -89.5t-259.5 -31.5q-216 0 -368.5 92.5zM661 -477q48 87 68 175t20 186l126 -16q0 -105 -37.5 -200.5t-93.5 -168.5z" />
    <glyph glyph-name="Gdotaccent" unicode="&#x120;" horiz-adv-x="1445" 
d="M413.5 72.5q-152.5 92.5 -230.5 257.5t-78 380q0 237 91.5 408.5t253.5 260.5t371 89q123 0 235 -30t206 -79l-47 -103q-94 48 -190 75t-202 27q-173 0 -306 -75.5t-208 -221.5t-75 -350q0 -179 60 -319.5t185 -222t313 -81.5q95 0 193.5 20t182.5 55v377h-397v111h518
v-550q-115 -58 -247.5 -89.5t-259.5 -31.5q-216 0 -368.5 92.5zM732.5 1637.5q-25.5 25.5 -25.5 66.5q0 40 25.5 64.5t63.5 24.5t64.5 -24.5t26.5 -64.5t-26.5 -66t-64.5 -26t-63.5 25.5z" />
    <glyph glyph-name="H" unicode="H" horiz-adv-x="1523" 
d="M208 1448h122v-641h864v641h121v-1448h-121v698h-864v-698h-122v1448z" />
    <glyph glyph-name="Hbar" unicode="&#x126;" horiz-adv-x="1523" 
d="M1315 1448v-1448h-121v698h-864v-698h-122v1448h122v-281h864v281h121zM1194 807v260h-864v-260h864z" />
    <glyph glyph-name="Hcircumflex" unicode="&#x124;" horiz-adv-x="1523" 
d="M208 1448h122v-641h864v641h121v-1448h-121v698h-864v-698h-122v1448zM435 1564l253 256h144l254 -260l-75 -23l-251 193l-249 -193z" />
    <glyph glyph-name="I" unicode="I" horiz-adv-x="537" 
d="M208 1448h122v-1448h-122v1448z" />
    <glyph glyph-name="IJ" unicode="&#x132;" horiz-adv-x="1185" 
d="M208 1448h122v-1448h-122v1448zM550 2l17 102q37 -11 85 -11q83 0 129.5 40t64.5 115.5t18 193.5v1006h121v-1011q0 -221 -74 -336t-249 -115q-58 0 -112 16z" />
    <glyph glyph-name="Iacute" unicode="&#xcd;" horiz-adv-x="537" 
d="M208 1448h122v-1448h-122v1448zM132 1556l269 288l161 -24l-354 -286z" />
    <glyph glyph-name="Ibreve" unicode="&#x12c;" horiz-adv-x="537" 
d="M208 1448h122v-1448h-122v1448zM69.5 1632.5q-70.5 75.5 -87.5 184.5h93q15 -78 63.5 -123t128.5 -45q81 0 129.5 45t64.5 123h92q-17 -109 -86.5 -184.5t-199.5 -75.5q-127 0 -197.5 75.5z" />
    <glyph glyph-name="Icircumflex" unicode="&#xce;" horiz-adv-x="537" 
d="M208 1448h122v-1448h-122v1448zM-22 1557l219 261h145l217 -261l-73 -22l-217 194l-215 -194z" />
    <glyph glyph-name="Idieresis" unicode="&#xcf;" horiz-adv-x="537" 
d="M208 1448h122v-1448h-122v1448zM32.5 1639.5q-23.5 22.5 -23.5 61.5q0 36 24 58.5t60 22.5q37 0 60.5 -23t23.5 -58q0 -38 -23.5 -61t-60.5 -23t-60.5 22.5zM383.5 1639.5q-23.5 22.5 -23.5 61.5q0 36 23.5 58.5t60.5 22.5q36 0 60 -23t24 -58q0 -37 -24.5 -60.5
t-59.5 -23.5q-37 0 -60.5 22.5z" />
    <glyph glyph-name="Idotaccent" unicode="&#x130;" horiz-adv-x="537" 
d="M208 1448h122v-1448h-122v1448zM210.5 1637.5q-25.5 25.5 -25.5 66.5q0 40 25.5 64.5t63.5 24.5t64.5 -24.5t26.5 -64.5t-26.5 -66t-64.5 -26t-63.5 25.5z" />
    <glyph glyph-name="Igrave" unicode="&#xcc;" horiz-adv-x="537" 
d="M208 1448h122v-1448h-122v1448zM-24 1820l161 24l269 -288l-75 -22z" />
    <glyph glyph-name="Imacron" unicode="&#x12a;" horiz-adv-x="537" 
d="M208 1448h122v-1448h-122v1448zM11 1749h517v-100h-517v100z" />
    <glyph glyph-name="Iogonek" unicode="&#x12e;" horiz-adv-x="537" 
d="M404 -383q-28 -15 -67.5 -23t-84.5 -8q-72 0 -120.5 27t-71.5 71t-23 95q0 74 43.5 131t127.5 101v1437h122v-1448q-83 -40 -131.5 -90.5t-48.5 -118.5q0 -51 32.5 -81t87.5 -30q58 0 110 21z" />
    <glyph glyph-name="Itilde" unicode="&#x128;" horiz-adv-x="537" 
d="M208 1448h122v-1448h-122v1448zM-28 1631q8 90 50 140.5t106 50.5q42 0 79 -18t81 -50q37 -28 61 -39t50 -11q36 0 58 27.5t30 93.5l78 -23q-9 -89 -50.5 -141t-114.5 -52q-41 0 -72.5 15t-73.5 46t-67.5 44.5t-53.5 13.5q-36 0 -56 -28.5t-32 -90.5z" />
    <glyph glyph-name="J" unicode="J" horiz-adv-x="648" 
d="M13 2l17 102q37 -11 85 -11q83 0 129.5 40t64.5 115.5t18 193.5v1006h121v-1011q0 -221 -74 -336t-249 -115q-58 0 -112 16z" />
    <glyph glyph-name="Jcircumflex" unicode="&#x134;" horiz-adv-x="648" 
d="M13 2l17 102q37 -11 85 -11q83 0 129.5 40t64.5 115.5t18 193.5v1006h121v-1011q0 -221 -74 -336t-249 -115q-58 0 -112 16zM100 1557l219 261h145l217 -261l-73 -22l-217 194l-215 -194z" />
    <glyph glyph-name="K" unicode="K" horiz-adv-x="1193" 
d="M208 1448h122v-798q112 128 159 186l504 612h146l-546 -652l589 -796h-150l-519 709l-183 -190v-519h-122v1448z" />
    <glyph glyph-name="Kcommaaccent" unicode="&#x136;" horiz-adv-x="1193" 
d="M208 1448h122v-798q112 128 159 186l504 612h146l-546 -652l589 -796h-150l-519 709l-183 -190v-519h-122v1448zM527 -477q48 87 68 175t20 186l126 -16q0 -105 -37.5 -200.5t-93.5 -168.5z" />
    <glyph glyph-name="L" unicode="L" horiz-adv-x="1018" 
d="M208 1448h122v-1334h660l-20 -114h-762v1448z" />
    <glyph glyph-name="Lacute" unicode="&#x139;" horiz-adv-x="1018" 
d="M208 1448h122v-1334h660l-20 -114h-762v1448zM190 1556l269 288l161 -24l-354 -286z" />
    <glyph glyph-name="Lcaron" unicode="&#x13d;" horiz-adv-x="1018" 
d="M208 1448h122v-1334h660l-20 -114h-762v1448zM586 1112q44 87 66 184.5t22 194.5l127 -16q0 -107 -40 -208t-95 -178z" />
    <glyph glyph-name="Lcommaaccent" unicode="&#x13b;" horiz-adv-x="1018" 
d="M208 1448h122v-1334h660l-20 -114h-762v1448zM476 -477q48 87 68 175t20 186l126 -16q0 -105 -37.5 -200.5t-93.5 -168.5z" />
    <glyph glyph-name="Ldot" unicode="&#x13f;" horiz-adv-x="1018" 
d="M208 1448h122v-1334h660l-20 -114h-762v1448zM714.5 712.5q-25.5 25.5 -25.5 66.5q0 40 25.5 64.5t63.5 24.5t64.5 -24.5t26.5 -64.5t-26.5 -66t-64.5 -26t-63.5 25.5z" />
    <glyph glyph-name="Lslash" unicode="&#x141;" horiz-adv-x="1018" 
d="M990 114l-20 -114h-762v599l-165 -96v119l165 96v730h122v-659l331 192v-120l-331 -192v-555h660z" />
    <glyph glyph-name="M" unicode="M" horiz-adv-x="1856" 
d="M413 1035q-38 87 -100 257q3 -52 6 -155t3 -196v-941h-114v1448h147l428 -972q103 -234 139 -350q53 142 145 348l437 974h145v-1448h-121v941q0 150 13 351q-62 -161 -114 -274l-459 -1020h-97z" />
    <glyph glyph-name="N" unicode="N" horiz-adv-x="1521" 
d="M208 1448h133l860 -1271q-7 124 -7 294v977h120v-1448h-129l-868 1284q10 -182 10 -351v-933h-119v1448z" />
    <glyph glyph-name="Nacute" unicode="&#x143;" horiz-adv-x="1521" 
d="M208 1448h133l860 -1271q-7 124 -7 294v977h120v-1448h-129l-868 1284q10 -182 10 -351v-933h-119v1448zM646 1556l269 288l161 -24l-354 -286z" />
    <glyph glyph-name="Ncaron" unicode="&#x147;" horiz-adv-x="1521" 
d="M208 1448h133l860 -1271q-7 124 -7 294v977h120v-1448h-129l-868 1284q10 -182 10 -351v-933h-119v1448zM1106 1801l-253 -256h-144l-254 260l75 23l251 -193l249 193z" />
    <glyph glyph-name="Ncommaaccent" unicode="&#x145;" horiz-adv-x="1521" 
d="M208 1448h133l860 -1271q-7 124 -7 294v977h120v-1448h-129l-868 1284q10 -182 10 -351v-933h-119v1448zM628 -477q48 87 68 175t20 186l126 -16q0 -105 -37.5 -200.5t-93.5 -168.5z" />
    <glyph glyph-name="Eng" unicode="&#x14a;" horiz-adv-x="1521" 
d="M880 -434l16 102q40 -12 88 -12q82 0 127.5 38.5t63.5 113.5t18 195l-876 1281q10 -182 10 -351v-933h-119v1448h133l860 -1262q-7 126 -7 294v968h120v-1442q0 -153 -30.5 -253t-101.5 -152t-190 -52q-56 0 -112 17z" />
    <glyph glyph-name="Ntilde" unicode="&#xd1;" horiz-adv-x="1521" 
d="M208 1448h133l860 -1271q-7 124 -7 294v977h120v-1448h-129l-868 1284q10 -182 10 -351v-933h-119v1448zM441 1628q9 96 54 148t120 52q48 0 92.5 -19.5t98.5 -52.5q45 -27 72 -38.5t59 -11.5q44 0 69.5 27.5t35.5 96.5l82 -25q-12 -95 -54.5 -149t-129.5 -54
q-46 0 -83.5 15.5t-90.5 48.5q-50 31 -81.5 45t-63.5 14q-44 0 -67 -29.5t-36 -93.5z" />
    <glyph glyph-name="O" unicode="O" horiz-adv-x="1588" 
d="M416.5 71q-151.5 91 -231.5 256t-80 383q0 228 85.5 400t246 265.5t377.5 93.5q209 0 360 -91t230 -255.5t79 -381.5q0 -232 -86.5 -403.5t-246 -264.5t-374.5 -93q-208 0 -359.5 91zM1099 170q127 82 191 226.5t64 330.5q0 179 -57 321.5t-180.5 227t-314.5 84.5
q-184 0 -312 -85t-192 -229t-64 -320q0 -181 61 -325t185.5 -228.5t308.5 -84.5q183 0 310 82z" />
    <glyph glyph-name="Oacute" unicode="&#xd3;" horiz-adv-x="1588" 
d="M416.5 71q-151.5 91 -231.5 256t-80 383q0 228 85.5 400t246 265.5t377.5 93.5q209 0 360 -91t230 -255.5t79 -381.5q0 -232 -86.5 -403.5t-246 -264.5t-374.5 -93q-208 0 -359.5 91zM1099 170q127 82 191 226.5t64 330.5q0 179 -57 321.5t-180.5 227t-314.5 84.5
q-184 0 -312 -85t-192 -229t-64 -320q0 -181 61 -325t185.5 -228.5t308.5 -84.5q183 0 310 82zM664 1556l269 288l161 -24l-354 -286z" />
    <glyph glyph-name="Obreve" unicode="&#x14e;" horiz-adv-x="1588" 
d="M416.5 71q-151.5 91 -231.5 256t-80 383q0 228 85.5 400t246 265.5t377.5 93.5q209 0 360 -91t230 -255.5t79 -381.5q0 -232 -86.5 -403.5t-246 -264.5t-374.5 -93q-208 0 -359.5 91zM1099 170q127 82 191 226.5t64 330.5q0 179 -57 321.5t-180.5 227t-314.5 84.5
q-184 0 -312 -85t-192 -229t-64 -320q0 -181 61 -325t185.5 -228.5t308.5 -84.5q183 0 310 82zM640 1584q-65 37 -100.5 95.5t-46.5 127.5h93q16 -76 69 -118t144 -42t144.5 42t69.5 118h92q-11 -68 -46 -126.5t-100 -96t-160 -37.5q-94 0 -159 37z" />
    <glyph glyph-name="Ocircumflex" unicode="&#xd4;" horiz-adv-x="1588" 
d="M416.5 71q-151.5 91 -231.5 256t-80 383q0 228 85.5 400t246 265.5t377.5 93.5q209 0 360 -91t230 -255.5t79 -381.5q0 -232 -86.5 -403.5t-246 -264.5t-374.5 -93q-208 0 -359.5 91zM1099 170q127 82 191 226.5t64 330.5q0 179 -57 321.5t-180.5 227t-314.5 84.5
q-184 0 -312 -85t-192 -229t-64 -320q0 -181 61 -325t185.5 -228.5t308.5 -84.5q183 0 310 82zM476 1564l253 256h144l254 -260l-75 -23l-251 193l-249 -193z" />
    <glyph glyph-name="Odieresis" unicode="&#xd6;" horiz-adv-x="1588" 
d="M416.5 71q-151.5 91 -231.5 256t-80 383q0 228 85.5 400t246 265.5t377.5 93.5q209 0 360 -91t230 -255.5t79 -381.5q0 -232 -86.5 -403.5t-246 -264.5t-374.5 -93q-208 0 -359.5 91zM1099 170q127 82 191 226.5t64 330.5q0 179 -57 321.5t-180.5 227t-314.5 84.5
q-184 0 -312 -85t-192 -229t-64 -320q0 -181 61 -325t185.5 -228.5t308.5 -84.5q183 0 310 82zM528 1639q-25 24 -25 64q0 38 25 62t64 24q38 0 63 -24.5t25 -61.5q0 -39 -24.5 -63.5t-63.5 -24.5t-64 24zM945.5 1638.5q-24.5 23.5 -24.5 64.5q0 38 24.5 62t64.5 24
q37 0 62.5 -25t25.5 -61q0 -39 -26 -63.5t-62 -24.5q-40 0 -64.5 23.5z" />
    <glyph glyph-name="Ograve" unicode="&#xd2;" horiz-adv-x="1588" 
d="M416.5 71q-151.5 91 -231.5 256t-80 383q0 228 85.5 400t246 265.5t377.5 93.5q209 0 360 -91t230 -255.5t79 -381.5q0 -232 -86.5 -403.5t-246 -264.5t-374.5 -93q-208 0 -359.5 91zM1099 170q127 82 191 226.5t64 330.5q0 179 -57 321.5t-180.5 227t-314.5 84.5
q-184 0 -312 -85t-192 -229t-64 -320q0 -181 61 -325t185.5 -228.5t308.5 -84.5q183 0 310 82zM508 1820l161 24l269 -288l-75 -22z" />
    <glyph glyph-name="Ohungarumlaut" unicode="&#x150;" horiz-adv-x="1588" 
d="M416.5 71q-151.5 91 -231.5 256t-80 383q0 228 85.5 400t246 265.5t377.5 93.5q209 0 360 -91t230 -255.5t79 -381.5q0 -232 -86.5 -403.5t-246 -264.5t-374.5 -93q-208 0 -359.5 91zM1099 170q127 82 191 226.5t64 330.5q0 179 -57 321.5t-180.5 227t-314.5 84.5
q-184 0 -312 -85t-192 -229t-64 -320q0 -181 61 -325t185.5 -228.5t308.5 -84.5q183 0 310 82zM848 1562l269 288l161 -24l-354 -286zM515 1562l269 288l161 -24l-354 -286z" />
    <glyph glyph-name="Omacron" unicode="&#x14c;" horiz-adv-x="1588" 
d="M416.5 71q-151.5 91 -231.5 256t-80 383q0 228 85.5 400t246 265.5t377.5 93.5q209 0 360 -91t230 -255.5t79 -381.5q0 -232 -86.5 -403.5t-246 -264.5t-374.5 -93q-208 0 -359.5 91zM1099 170q127 82 191 226.5t64 330.5q0 179 -57 321.5t-180.5 227t-314.5 84.5
q-184 0 -312 -85t-192 -229t-64 -320q0 -181 61 -325t185.5 -228.5t308.5 -84.5q183 0 310 82zM512 1745h579v-100h-579v100z" />
    <glyph glyph-name="Oslash" unicode="&#xd8;" horiz-adv-x="1588" 
d="M1424.5 1076.5q58.5 -148.5 58.5 -335.5q0 -232 -86.5 -403.5t-246 -264.5t-374.5 -93q-199 0 -349 85l-70 -106h-121l108 163q-116 96 -177.5 247t-61.5 341q0 228 85.5 400t246 265.5t377.5 93.5q206 0 358 -90l72 110h121l-111 -168q112 -96 170.5 -244.5zM279 442
q45 -129 134 -215l694 1055q-126 78 -305 78q-184 0 -312 -85t-192 -229t-64 -320q0 -155 45 -284zM1099 170q127 82 191 226.5t64 330.5q0 152 -41 279t-126 212l-694 -1053q124 -77 296 -77q183 0 310 82z" />
    <glyph glyph-name="Oslashacute" unicode="&#x1fe;" horiz-adv-x="1588" 
d="M1424.5 1076.5q58.5 -148.5 58.5 -335.5q0 -232 -86.5 -403.5t-246 -264.5t-374.5 -93q-199 0 -349 85l-70 -106h-121l108 163q-116 96 -177.5 247t-61.5 341q0 228 85.5 400t246 265.5t377.5 93.5q206 0 358 -90l72 110h121l-111 -168q112 -96 170.5 -244.5zM279 442
q45 -129 134 -215l694 1055q-126 78 -305 78q-184 0 -312 -85t-192 -229t-64 -320q0 -155 45 -284zM1099 170q127 82 191 226.5t64 330.5q0 152 -41 279t-126 212l-694 -1053q124 -77 296 -77q183 0 310 82zM681 1556l269 288l161 -24l-354 -286z" />
    <glyph glyph-name="Otilde" unicode="&#xd5;" horiz-adv-x="1588" 
d="M416.5 71q-151.5 91 -231.5 256t-80 383q0 228 85.5 400t246 265.5t377.5 93.5q209 0 360 -91t230 -255.5t79 -381.5q0 -232 -86.5 -403.5t-246 -264.5t-374.5 -93q-208 0 -359.5 91zM1099 170q127 82 191 226.5t64 330.5q0 179 -57 321.5t-180.5 227t-314.5 84.5
q-184 0 -312 -85t-192 -229t-64 -320q0 -181 61 -325t185.5 -228.5t308.5 -84.5q183 0 310 82zM459 1628q9 96 54 148t120 52q48 0 92.5 -19.5t98.5 -52.5q45 -27 72 -38.5t59 -11.5q44 0 69.5 27.5t35.5 96.5l82 -25q-12 -95 -54.5 -149t-129.5 -54q-46 0 -83.5 15.5
t-90.5 48.5q-50 31 -81.5 45t-63.5 14q-44 0 -67 -29.5t-36 -93.5z" />
    <glyph glyph-name="OE" unicode="&#x152;" horiz-adv-x="1905" 
d="M425.5 79.5q-159.5 89.5 -240 251.5t-80.5 379q0 226 86.5 395t251 261.5t391.5 92.5q86 0 179 -11h795l-21 -110h-651v-533h618v-109h-618v-585h681l-20 -111h-784q-96 -10 -197 -10q-231 0 -390.5 89.5zM1013 114v1221q-93 14 -188 14q-198 0 -330.5 -83.5t-196.5 -226
t-64 -321.5q0 -177 62.5 -317t192.5 -221.5t325 -81.5q98 0 199 16z" />
    <glyph glyph-name="P" unicode="P" horiz-adv-x="1119" 
d="M208 1448h338q252 0 384.5 -105t132.5 -308q0 -140 -64.5 -247.5t-181.5 -166.5t-271 -59q-106 0 -216 25v-587h-122v1448zM751.5 713q93.5 44 141 125.5t47.5 191.5q0 313 -398 313h-212v-656q106 -18 194 -18q134 0 227.5 44z" />
    <glyph glyph-name="Thorn" unicode="&#xde;" horiz-adv-x="1119" 
d="M208 1448h122v-240h216q251 0 384 -106t133 -307q0 -141 -64.5 -249t-181.5 -167t-271 -59q-106 0 -216 25v-345h-122v1448zM751.5 472.5q93.5 44.5 141 125.5t47.5 190q0 314 -398 314h-212v-657q100 -17 194 -17q134 0 227.5 44.5z" />
    <glyph glyph-name="Q" unicode="Q" horiz-adv-x="1588" 
d="M1134 -165q-172 84 -259 154q-46 -9 -99 -9q-208 0 -359.5 91t-231.5 256t-80 383q0 228 86 400t245 266t373 94q212 0 364 -91t231 -255.5t79 -381.5q0 -184 -55.5 -331.5t-159.5 -247t-247 -145.5q236 -125 516 -192l-70 -124q-161 49 -333 133zM1099 169
q127 83 191 228.5t64 331.5q0 177 -57.5 319.5t-180 227t-310.5 84.5q-187 0 -315.5 -84t-192.5 -228.5t-64 -326.5q0 -178 61 -322t186 -228.5t309 -84.5q182 0 309 83z" />
    <glyph glyph-name="R" unicode="R" horiz-adv-x="1195" 
d="M208 1448h386q138 0 241 -42t159.5 -124.5t56.5 -201.5q0 -117 -50 -207t-127 -147.5t-163 -87.5l460 -638h-150l-434 609h-257v-609h-122v1448zM540 714q111 0 198.5 45.5t136.5 127t49 185.5q0 271 -352 271h-242v-629h210z" />
    <glyph glyph-name="Racute" unicode="&#x154;" horiz-adv-x="1195" 
d="M208 1448h386q138 0 241 -42t159.5 -124.5t56.5 -201.5q0 -117 -50 -207t-127 -147.5t-163 -87.5l460 -638h-150l-434 609h-257v-609h-122v1448zM540 714q111 0 198.5 45.5t136.5 127t49 185.5q0 271 -352 271h-242v-629h210zM460 1556l269 288l161 -24l-354 -286z" />
    <glyph glyph-name="Rcaron" unicode="&#x158;" horiz-adv-x="1195" 
d="M208 1448h386q138 0 241 -42t159.5 -124.5t56.5 -201.5q0 -117 -50 -207t-127 -147.5t-163 -87.5l460 -638h-150l-434 609h-257v-609h-122v1448zM540 714q111 0 198.5 45.5t136.5 127t49 185.5q0 271 -352 271h-242v-629h210zM920 1801l-253 -256h-144l-254 260l75 23
l251 -193l249 193z" />
    <glyph glyph-name="Rcommaaccent" unicode="&#x156;" horiz-adv-x="1195" 
d="M208 1448h386q138 0 241 -42t159.5 -124.5t56.5 -201.5q0 -117 -50 -207t-127 -147.5t-163 -87.5l460 -638h-150l-434 609h-257v-609h-122v1448zM540 714q111 0 198.5 45.5t136.5 127t49 185.5q0 271 -352 271h-242v-629h210zM517 -477q48 87 68 175t20 186l126 -16
q0 -105 -37.5 -200.5t-93.5 -168.5z" />
    <glyph glyph-name="S" unicode="S" horiz-adv-x="1068" 
d="M293 6q-106 26 -198 74l47 106q88 -47 187.5 -73.5t191.5 -26.5q110 0 184.5 37t110.5 100.5t36 143.5q0 86 -42.5 143t-108 93t-179.5 83q-128 53 -208.5 99.5t-136 124.5t-55.5 193q0 107 50.5 190t148.5 129.5t234 46.5q102 0 199 -24t167 -62l-26 -104
q-176 83 -338 83q-145 0 -230 -64.5t-85 -186.5q0 -84 41 -140.5t110.5 -96t191.5 -89.5q131 -54 208.5 -99t128.5 -120.5t51 -191.5q0 -118 -54 -207t-159 -138t-252 -49q-109 0 -215 26z" />
    <glyph glyph-name="Sacute" unicode="&#x15a;" horiz-adv-x="1068" 
d="M293 6q-106 26 -198 74l47 106q88 -47 187.5 -73.5t191.5 -26.5q110 0 184.5 37t110.5 100.5t36 143.5q0 86 -42.5 143t-108 93t-179.5 83q-128 53 -208.5 99.5t-136 124.5t-55.5 193q0 107 50.5 190t148.5 129.5t234 46.5q102 0 199 -24t167 -62l-26 -104
q-176 83 -338 83q-145 0 -230 -64.5t-85 -186.5q0 -84 41 -140.5t110.5 -96t191.5 -89.5q131 -54 208.5 -99t128.5 -120.5t51 -191.5q0 -118 -54 -207t-159 -138t-252 -49q-109 0 -215 26zM419 1556l269 288l161 -24l-354 -286z" />
    <glyph glyph-name="Scaron" unicode="&#x160;" horiz-adv-x="1068" 
d="M293 6q-106 26 -198 74l47 106q88 -47 187.5 -73.5t191.5 -26.5q110 0 184.5 37t110.5 100.5t36 143.5q0 86 -42.5 143t-108 93t-179.5 83q-128 53 -208.5 99.5t-136 124.5t-55.5 193q0 107 50.5 190t148.5 129.5t234 46.5q102 0 199 -24t167 -62l-26 -104
q-176 83 -338 83q-145 0 -230 -64.5t-85 -186.5q0 -84 41 -140.5t110.5 -96t191.5 -89.5q131 -54 208.5 -99t128.5 -120.5t51 -191.5q0 -118 -54 -207t-159 -138t-252 -49q-109 0 -215 26zM879 1801l-253 -256h-144l-254 260l75 23l251 -193l249 193z" />
    <glyph glyph-name="Scedilla" unicode="&#x15e;" horiz-adv-x="1068" 
d="M925 177q-48 -86 -141.5 -136.5t-225.5 -58.5l-25 -72q100 -23 152 -62t52 -115q0 -83 -63.5 -129t-178.5 -46q-61 0 -110.5 14t-97.5 43l35 78q86 -48 177 -48q61 0 98.5 23t37.5 67q0 36 -25 58.5t-73 35.5t-130 25l49 128q-96 5 -188 30.5t-173 67.5l47 106
q88 -47 187.5 -73.5t191.5 -26.5q110 0 184.5 37t110.5 100.5t36 143.5q0 86 -42.5 143t-108 93t-179.5 83q-128 53 -208.5 99.5t-136 124.5t-55.5 193q0 107 50.5 190t148.5 129.5t234 46.5q102 0 199 -24t167 -62l-26 -104q-176 83 -338 83q-145 0 -230 -64.5t-85 -186.5
q0 -84 41 -140.5t110.5 -96t191.5 -89.5q131 -54 208.5 -99t128.5 -120.5t51 -191.5q0 -111 -48 -197z" />
    <glyph glyph-name="Scircumflex" unicode="&#x15c;" horiz-adv-x="1068" 
d="M293 6q-106 26 -198 74l47 106q88 -47 187.5 -73.5t191.5 -26.5q110 0 184.5 37t110.5 100.5t36 143.5q0 86 -42.5 143t-108 93t-179.5 83q-128 53 -208.5 99.5t-136 124.5t-55.5 193q0 107 50.5 190t148.5 129.5t234 46.5q102 0 199 -24t167 -62l-26 -104
q-176 83 -338 83q-145 0 -230 -64.5t-85 -186.5q0 -84 41 -140.5t110.5 -96t191.5 -89.5q131 -54 208.5 -99t128.5 -120.5t51 -191.5q0 -118 -54 -207t-159 -138t-252 -49q-109 0 -215 26zM231 1564l253 256h144l254 -260l-75 -23l-251 193l-249 -193z" />
    <glyph glyph-name="Scommaaccent" unicode="&#x218;" horiz-adv-x="1068" 
d="M293 6q-106 26 -198 74l47 106q88 -47 187.5 -73.5t191.5 -26.5q110 0 184.5 37t110.5 100.5t36 143.5q0 86 -42.5 143t-108 93t-179.5 83q-128 53 -208.5 99.5t-136 124.5t-55.5 193q0 107 50.5 190t148.5 129.5t234 46.5q102 0 199 -24t167 -62l-26 -104
q-176 83 -338 83q-145 0 -230 -64.5t-85 -186.5q0 -84 41 -140.5t110.5 -96t191.5 -89.5q131 -54 208.5 -99t128.5 -120.5t51 -191.5q0 -118 -54 -207t-159 -138t-252 -49q-109 0 -215 26zM384 -477q48 87 68 175t20 186l126 -16q0 -105 -37.5 -200.5t-93.5 -168.5z" />
    <glyph glyph-name="uni1E9E" unicode="&#x1e9e;" horiz-adv-x="1444" 
d="M1183.5 682q83.5 -59 124.5 -133.5t41 -174.5q0 -117 -54 -206t-157.5 -138.5t-247.5 -49.5q-106 0 -210.5 26t-193.5 73l46 106q83 -47 181 -73t189 -26q108 0 181 36.5t109 101t36 149.5q0 68 -27.5 122t-99.5 105.5t-203 103.5l-257 104v104l362 426h-673v-1338h-122
v1448h937v-110l-392 -454l210 -86q137 -57 220.5 -116z" />
    <glyph glyph-name="uni018F" unicode="&#x18f;" horiz-adv-x="1453" 
d="M1039.5 1385.5q153.5 -83.5 231.5 -243.5t78 -387q0 -239 -81.5 -414t-230 -268t-344.5 -93q-187 0 -319.5 85t-200.5 241t-68 367v63h1115v12q0 199 -64.5 336.5t-188.5 207.5t-300 70q-123 0 -250 -31t-212 -75l-41 106q251 107 498 107q224 0 377.5 -83.5z
M949.5 151.5q110.5 66.5 178.5 190t86 289.5h-979q0 -155 52.5 -279t157 -195.5t252.5 -71.5q142 0 252.5 66.5z" />
    <glyph glyph-name="T" unicode="T" horiz-adv-x="1111" 
d="M494 1341h-460l21 107h1023l-22 -107h-439v-1341h-123v1341z" />
    <glyph glyph-name="Tbar" unicode="&#x166;" horiz-adv-x="1111" 
d="M617 1341v-536h308l-20 -103h-288v-702h-123v702h-288l21 103h267v536h-460l21 107h1023l-22 -107h-439z" />
    <glyph glyph-name="Tcaron" unicode="&#x164;" horiz-adv-x="1111" 
d="M494 1341h-460l21 107h1023l-22 -107h-439v-1341h-123v1341zM879 1801l-253 -256h-144l-254 260l75 23l251 -193l249 193z" />
    <glyph glyph-name="uni0162" unicode="&#x162;" horiz-adv-x="1111" 
d="M594 0l-31 -90q100 -23 152 -62t52 -115q0 -83 -63.5 -129t-178.5 -46q-61 0 -110.5 14t-97.5 43l35 78q86 -48 177 -48q61 0 98.5 23t37.5 67q0 36 -25 58.5t-73 35.5t-130 25l57 148v1339h-460l21 107h1023l-22 -107h-439v-1341h-23z" />
    <glyph glyph-name="uni021A" unicode="&#x21a;" horiz-adv-x="1111" 
d="M494 1341h-460l21 107h1023l-22 -107h-439v-1341h-123v1341zM414 -477q48 87 68 175t20 186l126 -16q0 -105 -37.5 -200.5t-93.5 -168.5z" />
    <glyph glyph-name="U" unicode="U" horiz-adv-x="1483" 
d="M455.5 39.5q-122.5 60.5 -189 176.5t-66.5 276v956h121v-929q0 -207 107 -319t314 -112q212 0 316 114.5t104 322.5v923h121v-954q0 -161 -65 -276.5t-187 -177t-288 -61.5q-165 0 -287.5 60.5z" />
    <glyph glyph-name="Uacute" unicode="&#xda;" horiz-adv-x="1483" 
d="M455.5 39.5q-122.5 60.5 -189 176.5t-66.5 276v956h121v-929q0 -207 107 -319t314 -112q212 0 316 114.5t104 322.5v923h121v-954q0 -161 -65 -276.5t-187 -177t-288 -61.5q-165 0 -287.5 60.5zM605 1556l269 288l161 -24l-354 -286z" />
    <glyph glyph-name="Ubreve" unicode="&#x16c;" horiz-adv-x="1483" 
d="M455.5 39.5q-122.5 60.5 -189 176.5t-66.5 276v956h121v-929q0 -207 107 -319t314 -112q212 0 316 114.5t104 322.5v923h121v-954q0 -161 -65 -276.5t-187 -177t-288 -61.5q-165 0 -287.5 60.5zM581 1584q-65 37 -100.5 95.5t-46.5 127.5h93q16 -76 69 -118t144 -42
t144.5 42t69.5 118h92q-11 -68 -46 -126.5t-100 -96t-160 -37.5q-94 0 -159 37z" />
    <glyph glyph-name="Ucircumflex" unicode="&#xdb;" horiz-adv-x="1483" 
d="M455.5 39.5q-122.5 60.5 -189 176.5t-66.5 276v956h121v-929q0 -207 107 -319t314 -112q212 0 316 114.5t104 322.5v923h121v-954q0 -161 -65 -276.5t-187 -177t-288 -61.5q-165 0 -287.5 60.5zM417 1564l253 256h144l254 -260l-75 -23l-251 193l-249 -193z" />
    <glyph glyph-name="Udieresis" unicode="&#xdc;" horiz-adv-x="1483" 
d="M455.5 39.5q-122.5 60.5 -189 176.5t-66.5 276v956h121v-929q0 -207 107 -319t314 -112q212 0 316 114.5t104 322.5v923h121v-954q0 -161 -65 -276.5t-187 -177t-288 -61.5q-165 0 -287.5 60.5zM469 1639q-25 24 -25 64q0 38 25 62t64 24q38 0 63 -24.5t25 -61.5
q0 -39 -24.5 -63.5t-63.5 -24.5t-64 24zM886.5 1638.5q-24.5 23.5 -24.5 64.5q0 38 24.5 62t64.5 24q37 0 62.5 -25t25.5 -61q0 -39 -26 -63.5t-62 -24.5q-40 0 -64.5 23.5z" />
    <glyph glyph-name="Ugrave" unicode="&#xd9;" horiz-adv-x="1483" 
d="M455.5 39.5q-122.5 60.5 -189 176.5t-66.5 276v956h121v-929q0 -207 107 -319t314 -112q212 0 316 114.5t104 322.5v923h121v-954q0 -161 -65 -276.5t-187 -177t-288 -61.5q-165 0 -287.5 60.5zM449 1820l161 24l269 -288l-75 -22z" />
    <glyph glyph-name="Uhungarumlaut" unicode="&#x170;" horiz-adv-x="1483" 
d="M455.5 39.5q-122.5 60.5 -189 176.5t-66.5 276v956h121v-929q0 -207 107 -319t314 -112q212 0 316 114.5t104 322.5v923h121v-954q0 -161 -65 -276.5t-187 -177t-288 -61.5q-165 0 -287.5 60.5zM789 1562l269 288l161 -24l-354 -286zM456 1562l269 288l161 -24l-354 -286
z" />
    <glyph glyph-name="Umacron" unicode="&#x16a;" horiz-adv-x="1483" 
d="M455.5 39.5q-122.5 60.5 -189 176.5t-66.5 276v956h121v-929q0 -207 107 -319t314 -112q212 0 316 114.5t104 322.5v923h121v-954q0 -161 -65 -276.5t-187 -177t-288 -61.5q-165 0 -287.5 60.5zM453 1745h579v-100h-579v100z" />
    <glyph glyph-name="Uogonek" unicode="&#x172;" horiz-adv-x="1483" 
d="M1247 277.5q-36 -83.5 -102 -155.5q-53 -57 -84.5 -97.5t-51.5 -88.5t-20 -105q0 -77 36.5 -114t103.5 -37q55 0 120 23l24 -85q-77 -32 -160 -32q-121 0 -179 61t-58 156q0 60 23 109.5t66 99.5q-101 -32 -224 -32q-164 0 -286 60.5t-188.5 176t-66.5 275.5v956h121
v-929q0 -208 107.5 -319.5t315.5 -111.5q212 0 315 114.5t103 322.5v923h121v-954q0 -133 -36 -216.5z" />
    <glyph glyph-name="Uring" unicode="&#x16e;" horiz-adv-x="1483" 
d="M455.5 39.5q-122.5 60.5 -189 176.5t-66.5 276v956h121v-929q0 -207 107 -319t314 -112q212 0 316 114.5t104 322.5v923h121v-954q0 -161 -65 -276.5t-187 -177t-288 -61.5q-165 0 -287.5 60.5zM641 1552.5q-46 25.5 -72.5 71t-26.5 103.5t26.5 104t72.5 72t103 26
q59 0 106 -26t74 -72t27 -104t-27 -103.5t-74 -71t-106 -25.5q-57 0 -103 25.5zM825.5 1647q31.5 31 31.5 82q0 49 -31.5 79.5t-81.5 30.5q-48 0 -78 -30.5t-30 -79.5q0 -51 30 -82t78 -31q50 0 81.5 31z" />
    <glyph glyph-name="Utilde" unicode="&#x168;" horiz-adv-x="1483" 
d="M455.5 39.5q-122.5 60.5 -189 176.5t-66.5 276v956h121v-929q0 -207 107 -319t314 -112q212 0 316 114.5t104 322.5v923h121v-954q0 -161 -65 -276.5t-187 -177t-288 -61.5q-165 0 -287.5 60.5zM400 1628q9 96 54 148t120 52q48 0 92.5 -19.5t98.5 -52.5q45 -27 72 -38.5
t59 -11.5q44 0 69.5 27.5t35.5 96.5l82 -25q-12 -95 -54.5 -149t-129.5 -54q-46 0 -83.5 15.5t-90.5 48.5q-50 31 -81.5 45t-63.5 14q-44 0 -67 -29.5t-36 -93.5z" />
    <glyph glyph-name="V" unicode="V" horiz-adv-x="1238" 
d="M1 1448l134 -1l429 -1131q27 -73 56 -175q29 90 59 175l432 1132h126l-559 -1448h-118z" />
    <glyph glyph-name="W" unicode="W" horiz-adv-x="1913" 
d="M46 1448h127l258 -933q63 -228 83 -351q29 113 51 194t54 186l272 904h124l285 -924q37 -119 59 -203.5t34 -156.5q30 131 89 342l260 942h125l-404 -1448h-123l-263 866q-45 146 -71.5 240t-50.5 197q-57 -219 -122 -431l-260 -872h-123z" />
    <glyph glyph-name="Wacute" unicode="&#x1e82;" horiz-adv-x="1913" 
d="M46 1448h127l258 -933q63 -228 83 -351q29 113 51 194t54 186l272 904h124l285 -924q37 -119 59 -203.5t34 -156.5q30 131 89 342l260 942h125l-404 -1448h-123l-263 866q-45 146 -71.5 240t-50.5 197q-57 -219 -122 -431l-260 -872h-123zM820 1556l269 288l161 -24
l-354 -286z" />
    <glyph glyph-name="Wcircumflex" unicode="&#x174;" horiz-adv-x="1913" 
d="M46 1448h127l258 -933q63 -228 83 -351q29 113 51 194t54 186l272 904h124l285 -924q37 -119 59 -203.5t34 -156.5q30 131 89 342l260 942h125l-404 -1448h-123l-263 866q-45 146 -71.5 240t-50.5 197q-57 -219 -122 -431l-260 -872h-123zM632 1564l253 256h144l254 -260
l-75 -23l-251 193l-249 -193z" />
    <glyph glyph-name="Wdieresis" unicode="&#x1e84;" horiz-adv-x="1913" 
d="M46 1448h127l258 -933q63 -228 83 -351q29 113 51 194t54 186l272 904h124l285 -924q37 -119 59 -203.5t34 -156.5q30 131 89 342l260 942h125l-404 -1448h-123l-263 866q-45 146 -71.5 240t-50.5 197q-57 -219 -122 -431l-260 -872h-123zM684 1639q-25 24 -25 64
q0 38 25 62t64 24q38 0 63 -24.5t25 -61.5q0 -39 -24.5 -63.5t-63.5 -24.5t-64 24zM1101.5 1638.5q-24.5 23.5 -24.5 64.5q0 38 24.5 62t64.5 24q37 0 62.5 -25t25.5 -61q0 -39 -26 -63.5t-62 -24.5q-40 0 -64.5 23.5z" />
    <glyph glyph-name="Wgrave" unicode="&#x1e80;" horiz-adv-x="1913" 
d="M46 1448h127l258 -933q63 -228 83 -351q29 113 51 194t54 186l272 904h124l285 -924q37 -119 59 -203.5t34 -156.5q30 131 89 342l260 942h125l-404 -1448h-123l-263 866q-45 146 -71.5 240t-50.5 197q-57 -219 -122 -431l-260 -872h-123zM664 1820l161 24l269 -288
l-75 -22z" />
    <glyph glyph-name="X" unicode="X" horiz-adv-x="1115" 
d="M488 739l-450 709h141l377 -610l385 610h136l-447 -700l484 -748h-145l-407 653l-425 -653h-136z" />
    <glyph glyph-name="Y" unicode="Y" horiz-adv-x="1099" 
d="M488 588l-487 860h134l299 -542q91 -164 114 -219q42 88 111 208l311 553h128l-490 -860v-588h-120v588z" />
    <glyph glyph-name="Yacute" unicode="&#xdd;" horiz-adv-x="1099" 
d="M488 588l-487 860h134l299 -542q91 -164 114 -219q42 88 111 208l311 553h128l-490 -860v-588h-120v588zM412 1556l269 288l161 -24l-354 -286z" />
    <glyph glyph-name="Ycircumflex" unicode="&#x176;" horiz-adv-x="1099" 
d="M488 588l-487 860h134l299 -542q91 -164 114 -219q42 88 111 208l311 553h128l-490 -860v-588h-120v588zM224 1564l253 256h144l254 -260l-75 -23l-251 193l-249 -193z" />
    <glyph glyph-name="Ydieresis" unicode="&#x178;" horiz-adv-x="1099" 
d="M488 588l-487 860h134l299 -542q91 -164 114 -219q42 88 111 208l311 553h128l-490 -860v-588h-120v588zM276 1639q-25 24 -25 64q0 38 25 62t64 24q38 0 63 -24.5t25 -61.5q0 -39 -24.5 -63.5t-63.5 -24.5t-64 24zM693.5 1638.5q-24.5 23.5 -24.5 64.5q0 38 24.5 62
t64.5 24q37 0 62.5 -25t25.5 -61q0 -39 -26 -63.5t-62 -24.5q-40 0 -64.5 23.5z" />
    <glyph glyph-name="Ygrave" unicode="&#x1ef2;" horiz-adv-x="1099" 
d="M488 588l-487 860h134l299 -542q91 -164 114 -219q42 88 111 208l311 553h128l-490 -860v-588h-120v588zM256 1820l161 24l269 -288l-75 -22z" />
    <glyph glyph-name="Z" unicode="Z" horiz-adv-x="1170" 
d="M1116 113l-20 -113h-1042v87l858 1251h-815l21 110h976l-19 -87l-857 -1248h898z" />
    <glyph glyph-name="Zacute" unicode="&#x179;" horiz-adv-x="1170" 
d="M1116 113l-20 -113h-1042v87l858 1251h-815l21 110h976l-19 -87l-857 -1248h898zM445 1556l269 288l161 -24l-354 -286z" />
    <glyph glyph-name="Zcaron" unicode="&#x17d;" horiz-adv-x="1170" 
d="M1116 113l-20 -113h-1042v87l858 1251h-815l21 110h976l-19 -87l-857 -1248h898zM905 1801l-253 -256h-144l-254 260l75 23l251 -193l249 193z" />
    <glyph glyph-name="Zdotaccent" unicode="&#x17b;" horiz-adv-x="1170" 
d="M1116 113l-20 -113h-1042v87l858 1251h-815l21 110h976l-19 -87l-857 -1248h898zM523.5 1637.5q-25.5 25.5 -25.5 66.5q0 40 25.5 64.5t63.5 24.5t64.5 -24.5t26.5 -64.5t-26.5 -66t-64.5 -26t-63.5 25.5z" />
    <glyph glyph-name="a" unicode="a" horiz-adv-x="1102" 
d="M826 0q-5 27 -9 74t-5 80q-63 -73 -164.5 -123.5t-221.5 -50.5q-94 0 -166 35t-112.5 103.5t-40.5 166.5q0 154 112 247.5t367 93.5q102 0 220 -14v43q0 185 -72 260.5t-202 75.5q-81 0 -167.5 -23.5t-147.5 -54.5l-25 96q54 30 151.5 55.5t203.5 25.5q120 0 203 -42
t129 -141.5t46 -268.5v-435q0 -67 8 -203h-107zM586.5 104q70.5 24 128 63.5t91.5 84.5v274q-103 13 -206 13q-207 0 -289 -68t-82 -182q0 -106 58.5 -157.5t157.5 -51.5q71 0 141.5 24z" />
    <glyph glyph-name="aacute" unicode="&#xe1;" horiz-adv-x="1102" 
d="M826 0q-5 27 -9 74t-5 80q-63 -73 -164.5 -123.5t-221.5 -50.5q-94 0 -166 35t-112.5 103.5t-40.5 166.5q0 154 112 247.5t367 93.5q102 0 220 -14v43q0 185 -72 260.5t-202 75.5q-81 0 -167.5 -23.5t-147.5 -54.5l-25 96q54 30 151.5 55.5t203.5 25.5q120 0 203 -42
t129 -141.5t46 -268.5v-435q0 -67 8 -203h-107zM586.5 104q70.5 24 128 63.5t91.5 84.5v274q-103 13 -206 13q-207 0 -289 -68t-82 -182q0 -106 58.5 -157.5t157.5 -51.5q71 0 141.5 24zM421 1241l248 313l161 -24l-326 -312z" />
    <glyph glyph-name="abreve" unicode="&#x103;" horiz-adv-x="1102" 
d="M826 0q-5 27 -9 74t-5 80q-63 -73 -164.5 -123.5t-221.5 -50.5q-94 0 -166 35t-112.5 103.5t-40.5 166.5q0 154 112 247.5t367 93.5q102 0 220 -14v43q0 185 -72 260.5t-202 75.5q-81 0 -167.5 -23.5t-147.5 -54.5l-25 96q54 30 151.5 55.5t203.5 25.5q120 0 203 -42
t129 -141.5t46 -268.5v-435q0 -67 8 -203h-107zM586.5 104q70.5 24 128 63.5t91.5 84.5v274q-103 13 -206 13q-207 0 -289 -68t-82 -182q0 -106 58.5 -157.5t157.5 -51.5q71 0 141.5 24zM394.5 1307.5q-66.5 37.5 -101 100t-37.5 135.5h98q20 -174 202 -174q94 0 144 45
t57 129h98q-4 -72 -37.5 -134t-99.5 -100.5t-162 -38.5q-95 0 -161.5 37.5z" />
    <glyph glyph-name="acircumflex" unicode="&#xe2;" horiz-adv-x="1102" 
d="M826 0q-5 27 -9 74t-5 80q-63 -73 -164.5 -123.5t-221.5 -50.5q-94 0 -166 35t-112.5 103.5t-40.5 166.5q0 154 112 247.5t367 93.5q102 0 220 -14v43q0 185 -72 260.5t-202 75.5q-81 0 -167.5 -23.5t-147.5 -54.5l-25 96q54 30 151.5 55.5t203.5 25.5q120 0 203 -42
t129 -141.5t46 -268.5v-435q0 -67 8 -203h-107zM586.5 104q70.5 24 128 63.5t91.5 84.5v274q-103 13 -206 13q-207 0 -289 -68t-82 -182q0 -106 58.5 -157.5t157.5 -51.5q71 0 141.5 24zM243 1251l242 298h144l241 -298l-84 -22l-229 228l-228 -228z" />
    <glyph glyph-name="adieresis" unicode="&#xe4;" horiz-adv-x="1102" 
d="M826 0q-5 27 -9 74t-5 80q-63 -73 -164.5 -123.5t-221.5 -50.5q-94 0 -166 35t-112.5 103.5t-40.5 166.5q0 154 112 247.5t367 93.5q102 0 220 -14v43q0 185 -72 260.5t-202 75.5q-81 0 -167.5 -23.5t-147.5 -54.5l-25 96q54 30 151.5 55.5t203.5 25.5q120 0 203 -42
t129 -141.5t46 -268.5v-435q0 -67 8 -203h-107zM586.5 104q70.5 24 128 63.5t91.5 84.5v274q-103 13 -206 13q-207 0 -289 -68t-82 -182q0 -106 58.5 -157.5t157.5 -51.5q71 0 141.5 24zM305.5 1316.5q-25.5 24.5 -25.5 64.5q0 38 26 63t64 25t63.5 -25t25.5 -63
q0 -39 -25.5 -64t-63.5 -25q-39 0 -64.5 24.5zM677 1316.5q-25 24.5 -25 64.5q0 38 25 63t65 25q38 0 63.5 -25.5t25.5 -62.5q0 -38 -26 -63.5t-63 -25.5q-40 0 -65 24.5z" />
    <glyph glyph-name="agrave" unicode="&#xe0;" horiz-adv-x="1102" 
d="M826 0q-5 27 -9 74t-5 80q-63 -73 -164.5 -123.5t-221.5 -50.5q-94 0 -166 35t-112.5 103.5t-40.5 166.5q0 154 112 247.5t367 93.5q102 0 220 -14v43q0 185 -72 260.5t-202 75.5q-81 0 -167.5 -23.5t-147.5 -54.5l-25 96q54 30 151.5 55.5t203.5 25.5q120 0 203 -42
t129 -141.5t46 -268.5v-435q0 -67 8 -203h-107zM586.5 104q70.5 24 128 63.5t91.5 84.5v274q-103 13 -206 13q-207 0 -289 -68t-82 -182q0 -106 58.5 -157.5t157.5 -51.5q71 0 141.5 24zM279 1530l161 24l248 -313l-82 -23z" />
    <glyph glyph-name="amacron" unicode="&#x101;" horiz-adv-x="1102" 
d="M826 0q-5 27 -9 74t-5 80q-63 -73 -164.5 -123.5t-221.5 -50.5q-94 0 -166 35t-112.5 103.5t-40.5 166.5q0 154 112 247.5t367 93.5q102 0 220 -14v43q0 185 -72 260.5t-202 75.5q-81 0 -167.5 -23.5t-147.5 -54.5l-25 96q54 30 151.5 55.5t203.5 25.5q120 0 203 -42
t129 -141.5t46 -268.5v-435q0 -67 8 -203h-107zM586.5 104q70.5 24 128 63.5t91.5 84.5v274q-103 13 -206 13q-207 0 -289 -68t-82 -182q0 -106 58.5 -157.5t157.5 -51.5q71 0 141.5 24zM273 1429h569v-100h-569v100z" />
    <glyph glyph-name="aogonek" unicode="&#x105;" horiz-adv-x="1102" 
d="M965 -383q-28 -15 -67.5 -23t-84.5 -8q-72 0 -120.5 27t-71.5 71t-23 95q0 85 56.5 147t166.5 109q-7 54 -9 119q-63 -73 -164.5 -123.5t-221.5 -50.5q-94 0 -166 35t-112.5 103.5t-40.5 166.5q0 154 112 247.5t367 93.5q102 0 220 -14v43q0 185 -72 260.5t-202 75.5
q-81 0 -167.5 -23.5t-147.5 -54.5l-25 96q54 30 151.5 55.5t203.5 25.5q120 0 203 -42t129 -141.5t46 -268.5v-435q0 -67 8 -203h-42q-83 -40 -131.5 -90.5t-48.5 -118.5q0 -51 32.5 -81t87.5 -30q58 0 110 21zM586.5 104q70.5 24 128 63.5t91.5 84.5v274q-103 13 -206 13
q-207 0 -289 -68t-82 -182q0 -106 58.5 -157.5t157.5 -51.5q71 0 141.5 24z" />
    <glyph glyph-name="aring" unicode="&#xe5;" horiz-adv-x="1102" 
d="M826 0q-5 27 -9 74t-5 80q-63 -73 -164.5 -123.5t-221.5 -50.5q-94 0 -166 35t-112.5 103.5t-40.5 166.5q0 154 112 247.5t367 93.5q102 0 220 -14v43q0 185 -72 260.5t-202 75.5q-81 0 -167.5 -23.5t-147.5 -54.5l-25 96q54 30 151.5 55.5t203.5 25.5q120 0 203 -42
t129 -141.5t46 -268.5v-435q0 -67 8 -203h-107zM586.5 104q70.5 24 128 63.5t91.5 84.5v274q-103 13 -206 13q-207 0 -289 -68t-82 -182q0 -106 58.5 -157.5t157.5 -51.5q71 0 141.5 24zM453 1225.5q-46 25.5 -72.5 71t-26.5 103.5t26.5 104t72.5 72t103 26q59 0 106 -26
t74 -72t27 -104t-27 -103.5t-74 -71t-106 -25.5q-57 0 -103 25.5zM637.5 1320q31.5 31 31.5 82q0 49 -31.5 79.5t-81.5 30.5q-48 0 -78 -30.5t-30 -79.5q0 -51 30 -82t78 -31q50 0 81.5 31z" />
    <glyph glyph-name="aringacute" unicode="&#x1fb;" horiz-adv-x="1102" 
d="M826 0q-5 27 -9 74t-5 80q-63 -73 -164.5 -123.5t-221.5 -50.5q-94 0 -166 35t-112.5 103.5t-40.5 166.5q0 154 112 247.5t367 93.5q102 0 220 -14v43q0 185 -72 260.5t-202 75.5q-81 0 -167.5 -23.5t-147.5 -54.5l-25 96q54 30 151.5 55.5t203.5 25.5q120 0 203 -42
t129 -141.5t46 -268.5v-435q0 -67 8 -203h-107zM586.5 104q70.5 24 128 63.5t91.5 84.5v274q-103 13 -206 13q-207 0 -289 -68t-82 -182q0 -106 58.5 -157.5t157.5 -51.5q71 0 141.5 24zM453 1225.5q-46 25.5 -72.5 71t-26.5 103.5t26.5 104t72.5 72t103 26q59 0 106 -26
t74 -72t27 -104t-27 -103.5t-74 -71t-106 -25.5q-57 0 -103 25.5zM637.5 1320q31.5 31 31.5 82q0 49 -31.5 79.5t-81.5 30.5q-48 0 -78 -30.5t-30 -79.5q0 -51 30 -82t78 -31q50 0 81.5 31zM421 1696l248 313l161 -24l-326 -312z" />
    <glyph glyph-name="atilde" unicode="&#xe3;" horiz-adv-x="1102" 
d="M826 0q-5 27 -9 74t-5 80q-63 -73 -164.5 -123.5t-221.5 -50.5q-94 0 -166 35t-112.5 103.5t-40.5 166.5q0 154 112 247.5t367 93.5q102 0 220 -14v43q0 185 -72 260.5t-202 75.5q-81 0 -167.5 -23.5t-147.5 -54.5l-25 96q54 30 151.5 55.5t203.5 25.5q120 0 203 -42
t129 -141.5t46 -268.5v-435q0 -67 8 -203h-107zM586.5 104q70.5 24 128 63.5t91.5 84.5v274q-103 13 -206 13q-207 0 -289 -68t-82 -182q0 -106 58.5 -157.5t157.5 -51.5q71 0 141.5 24zM234 1292q9 89 53.5 141.5t121.5 52.5q42 0 82 -15.5t87 -46.5t75 -45.5t54 -14.5
q31 0 54.5 28t31.5 95l85 -23q-11 -95 -55 -149.5t-123 -54.5q-42 0 -76 16t-82 48q-46 32 -75 46.5t-56 14.5q-40 0 -61.5 -30t-31.5 -93z" />
    <glyph glyph-name="ae" unicode="&#xe6;" horiz-adv-x="1755" 
d="M918 552v-23q0 -448 386 -448q83 0 161 19t143 52l32 -90q-149 -82 -346 -82q-146 0 -247.5 49t-164.5 150q-74 -82 -190.5 -140.5t-245.5 -58.5q-101 0 -177.5 34.5t-119 103t-42.5 167.5q0 155 111 248t360 93q98 0 230 -18v47q0 182 -76.5 259t-208.5 77
q-78 0 -161.5 -23t-144.5 -55l-25 96q54 30 151 55.5t190 25.5q133 0 223 -61t126 -188q52 117 150 183t223 66q131 0 222.5 -68t137 -177t45.5 -233v-60h-742zM1091.5 952.5q-68.5 -42.5 -111.5 -121.5t-55 -185h613q-10 171 -86 260t-205 89q-87 0 -155.5 -42.5z
M606.5 106q74.5 26 136.5 68t102 89q-38 108 -38 261q-104 15 -210 15q-207 0 -287.5 -67t-80.5 -181q0 -108 61.5 -159.5t168.5 -51.5q73 0 147.5 26z" />
    <glyph glyph-name="aeacute" unicode="&#x1fd;" horiz-adv-x="1755" 
d="M918 552v-23q0 -448 386 -448q83 0 161 19t143 52l32 -90q-149 -82 -346 -82q-146 0 -247.5 49t-164.5 150q-74 -82 -190.5 -140.5t-245.5 -58.5q-101 0 -177.5 34.5t-119 103t-42.5 167.5q0 155 111 248t360 93q98 0 230 -18v47q0 182 -76.5 259t-208.5 77
q-78 0 -161.5 -23t-144.5 -55l-25 96q54 30 151 55.5t190 25.5q133 0 223 -61t126 -188q52 117 150 183t223 66q131 0 222.5 -68t137 -177t45.5 -233v-60h-742zM1091.5 952.5q-68.5 -42.5 -111.5 -121.5t-55 -185h613q-10 171 -86 260t-205 89q-87 0 -155.5 -42.5z
M606.5 106q74.5 26 136.5 68t102 89q-38 108 -38 261q-104 15 -210 15q-207 0 -287.5 -67t-80.5 -181q0 -108 61.5 -159.5t168.5 -51.5q73 0 147.5 26zM796 1241l248 313l161 -24l-326 -312z" />
    <glyph glyph-name="b" unicode="b" horiz-adv-x="1146" 
d="M845 1034.5q92 -55.5 149 -174.5t57 -299q0 -179 -58 -309.5t-169.5 -201t-268.5 -70.5q-88 0 -189 17.5t-186 47.5v1489l118 20v-619q159 155 345 155q110 0 202 -55.5zM831 201.5q96 123.5 96 352.5q0 152 -40.5 249t-108.5 141t-156 44q-96 0 -178 -45t-146 -113v-713
q59 -20 123.5 -29.5t124.5 -9.5q189 0 285 123.5z" />
    <glyph glyph-name="c" unicode="c" horiz-adv-x="908" 
d="M305.5 42q-102.5 62 -156.5 180t-54 283q0 172 58.5 305t167 206.5t253.5 73.5q78 0 157 -20t139 -52l-37 -95q-58 29 -127.5 47t-132.5 18q-112 0 -191.5 -59t-121 -165.5t-41.5 -249.5q0 -211 90.5 -321t262.5 -110q122 0 257 60l28 -92q-66 -32 -144.5 -51.5
t-161.5 -19.5q-143 0 -245.5 62z" />
    <glyph glyph-name="cacute" unicode="&#x107;" horiz-adv-x="908" 
d="M305.5 42q-102.5 62 -156.5 180t-54 283q0 172 58.5 305t167 206.5t253.5 73.5q78 0 157 -20t139 -52l-37 -95q-58 29 -127.5 47t-132.5 18q-112 0 -191.5 -59t-121 -165.5t-41.5 -249.5q0 -211 90.5 -321t262.5 -110q122 0 257 60l28 -92q-66 -32 -144.5 -51.5
t-161.5 -19.5q-143 0 -245.5 62zM403 1241l248 313l161 -24l-326 -312z" />
    <glyph glyph-name="ccaron" unicode="&#x10d;" horiz-adv-x="908" 
d="M305.5 42q-102.5 62 -156.5 180t-54 283q0 172 58.5 305t167 206.5t253.5 73.5q78 0 157 -20t139 -52l-37 -95q-58 29 -127.5 47t-132.5 18q-112 0 -191.5 -59t-121 -165.5t-41.5 -249.5q0 -211 90.5 -321t262.5 -110q122 0 257 60l28 -92q-66 -32 -144.5 -51.5
t-161.5 -19.5q-143 0 -245.5 62zM851 1539l-242 -298h-144l-241 298l84 22l229 -228l228 228z" />
    <glyph glyph-name="ccedilla" unicode="&#xe7;" horiz-adv-x="908" 
d="M723.5 2q-72.5 -19 -149.5 -22l-24 -70q100 -23 152 -62t52 -115q0 -83 -63.5 -129t-178.5 -46q-61 0 -110.5 14t-97.5 43l35 78q86 -48 177 -48q61 0 98.5 23t37.5 67q0 36 -25 58.5t-73 35.5t-130 25l50 131q-181 24 -280 159.5t-99 360.5q0 172 58.5 305t167 206.5
t253.5 73.5q78 0 157 -20t139 -52l-37 -95q-58 29 -127.5 47t-132.5 18q-112 0 -191.5 -59t-121 -165.5t-41.5 -249.5q0 -211 90.5 -321t262.5 -110q122 0 257 60l28 -92q-61 -30 -133.5 -49z" />
    <glyph glyph-name="ccircumflex" unicode="&#x109;" horiz-adv-x="908" 
d="M305.5 42q-102.5 62 -156.5 180t-54 283q0 172 58.5 305t167 206.5t253.5 73.5q78 0 157 -20t139 -52l-37 -95q-58 29 -127.5 47t-132.5 18q-112 0 -191.5 -59t-121 -165.5t-41.5 -249.5q0 -211 90.5 -321t262.5 -110q122 0 257 60l28 -92q-66 -32 -144.5 -51.5
t-161.5 -19.5q-143 0 -245.5 62zM225 1251l242 298h144l241 -298l-84 -22l-229 228l-228 -228z" />
    <glyph glyph-name="cdotaccent" unicode="&#x10b;" horiz-adv-x="908" 
d="M305.5 42q-102.5 62 -156.5 180t-54 283q0 172 58.5 305t167 206.5t253.5 73.5q78 0 157 -20t139 -52l-37 -95q-58 29 -127.5 47t-132.5 18q-112 0 -191.5 -59t-121 -165.5t-41.5 -249.5q0 -211 90.5 -321t262.5 -110q122 0 257 60l28 -92q-66 -32 -144.5 -51.5
t-161.5 -19.5q-143 0 -245.5 62zM473.5 1309.5q-25.5 25.5 -25.5 66.5q0 40 25.5 64.5t63.5 24.5t64.5 -24.5t26.5 -64.5t-26.5 -66t-64.5 -26t-63.5 25.5z" />
    <glyph glyph-name="d" unicode="d" horiz-adv-x="1146" 
d="M872 0q-12 66 -17 140q-64 -71 -152.5 -115.5t-197.5 -44.5q-112 0 -205 54.5t-149 171.5t-56 296t58 311.5t167 204.5t257 72q71 0 144.5 -13t128.5 -31v488l118 20v-1287q0 -147 8 -267h-104zM708 132q88 49 142 114v705q-61 17 -131 29t-131 12q-114 0 -196.5 -56
t-126.5 -164t-44 -263q0 -150 40 -245t107.5 -138t152.5 -43q99 0 187 49z" />
    <glyph glyph-name="eth" unicode="&#xf0;" horiz-adv-x="1168" 
d="M973 982.5q100 -205.5 100 -433.5q0 -183 -63 -311t-175 -193t-258 -65q-143 0 -252 62t-169.5 180.5t-60.5 281.5q0 167 62.5 290.5t171.5 189t247 65.5q94 0 173.5 -32t137.5 -94q-56 116 -128 208t-166 170l-256 -129l-42 83l215 109q-65 45 -150 94l54 85
q102 -55 198 -127l242 122l46 -83l-209 -105q182 -162 282 -367.5zM775.5 132.5q81.5 51.5 126 151.5t44.5 241q0 140 -44 236t-123 144t-186 48q-114 0 -198 -51.5t-130 -150t-46 -237.5q0 -140 45.5 -237.5t127.5 -146.5t191 -49q111 0 192.5 51.5z" />
    <glyph glyph-name="dcaron" unicode="&#x10f;" horiz-adv-x="1146" 
d="M872 0q-12 66 -17 140q-64 -71 -152.5 -115.5t-197.5 -44.5q-112 0 -205 54.5t-149 171.5t-56 296t58 311.5t167 204.5t257 72q71 0 144.5 -13t128.5 -31v488l118 20v-1287q0 -147 8 -267h-104zM708 132q88 49 142 114v705q-61 17 -131 29t-131 12q-114 0 -196.5 -56
t-126.5 -164t-44 -263q0 -150 40 -245t107.5 -138t152.5 -43q99 0 187 49zM1075 1198q44 87 66 184.5t22 194.5l127 -16q0 -107 -40 -208t-95 -178z" />
    <glyph glyph-name="dcroat" unicode="&#x111;" horiz-adv-x="1148" 
d="M968 1225v-958q0 -147 8 -267h-104q-12 66 -17 141q-64 -71 -151.5 -116t-201.5 -45q-110 0 -202 54t-148.5 169.5t-56.5 292.5q0 170 58.5 295.5t167.5 193.5t258 68q68 0 140.5 -13t130.5 -31v216h-371l21 99h350v210l118 20v-230h180l-21 -99h-159zM708 132
q88 49 142 114v668q-61 18 -131 29.5t-132 11.5q-114 0 -196 -52.5t-126 -154.5t-44 -249q0 -145 40.5 -238t107.5 -135.5t152 -42.5q99 0 187 49z" />
    <glyph glyph-name="e" unicode="e" horiz-adv-x="1052" 
d="M216 555v-22q0 -220 99.5 -336t288.5 -116q80 0 158 19t144 52l30 -90q-73 -39 -158 -60.5t-198 -21.5q-156 0 -264.5 65t-164.5 188t-56 295q0 175 57 302t159.5 193.5t237.5 66.5q136 0 228 -67t136 -175t44 -234v-59h-741zM329 906q-84 -89 -106 -255h611
q-10 169 -86 256.5t-205 87.5q-130 0 -214 -89z" />
    <glyph glyph-name="eacute" unicode="&#xe9;" horiz-adv-x="1052" 
d="M216 555v-22q0 -220 99.5 -336t288.5 -116q80 0 158 19t144 52l30 -90q-73 -39 -158 -60.5t-198 -21.5q-156 0 -264.5 65t-164.5 188t-56 295q0 175 57 302t159.5 193.5t237.5 66.5q136 0 228 -67t136 -175t44 -234v-59h-741zM329 906q-84 -89 -106 -255h611
q-10 169 -86 256.5t-205 87.5q-130 0 -214 -89zM412 1241l248 313l161 -24l-326 -312z" />
    <glyph glyph-name="ebreve" unicode="&#x115;" horiz-adv-x="1052" 
d="M216 555v-22q0 -220 99.5 -336t288.5 -116q80 0 158 19t144 52l30 -90q-73 -39 -158 -60.5t-198 -21.5q-156 0 -264.5 65t-164.5 188t-56 295q0 175 57 302t159.5 193.5t237.5 66.5q136 0 228 -67t136 -175t44 -234v-59h-741zM329 906q-84 -89 -106 -255h611
q-10 169 -86 256.5t-205 87.5q-130 0 -214 -89zM385.5 1307.5q-66.5 37.5 -101 100t-37.5 135.5h98q20 -174 202 -174q94 0 144 45t57 129h98q-4 -72 -37.5 -134t-99.5 -100.5t-162 -38.5q-95 0 -161.5 37.5z" />
    <glyph glyph-name="ecaron" unicode="&#x11b;" horiz-adv-x="1052" 
d="M216 555v-22q0 -220 99.5 -336t288.5 -116q80 0 158 19t144 52l30 -90q-73 -39 -158 -60.5t-198 -21.5q-156 0 -264.5 65t-164.5 188t-56 295q0 175 57 302t159.5 193.5t237.5 66.5q136 0 228 -67t136 -175t44 -234v-59h-741zM329 906q-84 -89 -106 -255h611
q-10 169 -86 256.5t-205 87.5q-130 0 -214 -89zM860 1539l-242 -298h-144l-241 298l84 22l229 -228l228 228z" />
    <glyph glyph-name="ecircumflex" unicode="&#xea;" horiz-adv-x="1052" 
d="M216 555v-22q0 -220 99.5 -336t288.5 -116q80 0 158 19t144 52l30 -90q-73 -39 -158 -60.5t-198 -21.5q-156 0 -264.5 65t-164.5 188t-56 295q0 175 57 302t159.5 193.5t237.5 66.5q136 0 228 -67t136 -175t44 -234v-59h-741zM329 906q-84 -89 -106 -255h611
q-10 169 -86 256.5t-205 87.5q-130 0 -214 -89zM234 1251l242 298h144l241 -298l-84 -22l-229 228l-228 -228z" />
    <glyph glyph-name="edieresis" unicode="&#xeb;" horiz-adv-x="1052" 
d="M216 555v-22q0 -220 99.5 -336t288.5 -116q80 0 158 19t144 52l30 -90q-73 -39 -158 -60.5t-198 -21.5q-156 0 -264.5 65t-164.5 188t-56 295q0 175 57 302t159.5 193.5t237.5 66.5q136 0 228 -67t136 -175t44 -234v-59h-741zM329 906q-84 -89 -106 -255h611
q-10 169 -86 256.5t-205 87.5q-130 0 -214 -89zM296.5 1316.5q-25.5 24.5 -25.5 64.5q0 38 26 63t64 25t63.5 -25t25.5 -63q0 -39 -25.5 -64t-63.5 -25q-39 0 -64.5 24.5zM668 1316.5q-25 24.5 -25 64.5q0 38 25 63t65 25q38 0 63.5 -25.5t25.5 -62.5q0 -38 -26 -63.5
t-63 -25.5q-40 0 -65 24.5z" />
    <glyph glyph-name="edotaccent" unicode="&#x117;" horiz-adv-x="1052" 
d="M216 555v-22q0 -220 99.5 -336t288.5 -116q80 0 158 19t144 52l30 -90q-73 -39 -158 -60.5t-198 -21.5q-156 0 -264.5 65t-164.5 188t-56 295q0 175 57 302t159.5 193.5t237.5 66.5q136 0 228 -67t136 -175t44 -234v-59h-741zM329 906q-84 -89 -106 -255h611
q-10 169 -86 256.5t-205 87.5q-130 0 -214 -89zM482.5 1309.5q-25.5 25.5 -25.5 66.5q0 40 25.5 64.5t63.5 24.5t64.5 -24.5t26.5 -64.5t-26.5 -66t-64.5 -26t-63.5 25.5z" />
    <glyph glyph-name="egrave" unicode="&#xe8;" horiz-adv-x="1052" 
d="M216 555v-22q0 -220 99.5 -336t288.5 -116q80 0 158 19t144 52l30 -90q-73 -39 -158 -60.5t-198 -21.5q-156 0 -264.5 65t-164.5 188t-56 295q0 175 57 302t159.5 193.5t237.5 66.5q136 0 228 -67t136 -175t44 -234v-59h-741zM329 906q-84 -89 -106 -255h611
q-10 169 -86 256.5t-205 87.5q-130 0 -214 -89zM270 1530l161 24l248 -313l-82 -23z" />
    <glyph glyph-name="emacron" unicode="&#x113;" horiz-adv-x="1052" 
d="M216 555v-22q0 -220 99.5 -336t288.5 -116q80 0 158 19t144 52l30 -90q-73 -39 -158 -60.5t-198 -21.5q-156 0 -264.5 65t-164.5 188t-56 295q0 175 57 302t159.5 193.5t237.5 66.5q136 0 228 -67t136 -175t44 -234v-59h-741zM329 906q-84 -89 -106 -255h611
q-10 169 -86 256.5t-205 87.5q-130 0 -214 -89zM264 1429h569v-100h-569v100z" />
    <glyph glyph-name="eogonek" unicode="&#x119;" horiz-adv-x="1052" 
d="M216 555v-22q0 -220 99.5 -336t288.5 -116q80 0 158 19t144 52l30 -90q-45 -25 -100 -44q-156 -85 -156 -215q0 -60 32 -91.5t88 -31.5q59 0 111 21l24 -84q-60 -31 -153 -31q-72 0 -120 27t-71 71.5t-23 97.5q0 65 26 114t76 88q-37 -4 -90 -4q-156 0 -264.5 65
t-164.5 188t-56 295q0 175 57 302t159.5 193.5t237.5 66.5q136 0 228 -67t136 -175t44 -234v-59h-741zM329 906q-84 -89 -106 -255h611q-10 169 -86 256.5t-205 87.5q-130 0 -214 -89z" />
    <glyph glyph-name="uni0259" unicode="&#x259;" horiz-adv-x="1052" 
d="M736.5 1024q108.5 -65 164.5 -188t56 -295q0 -175 -57 -302t-159.5 -193.5t-237.5 -66.5q-136 0 -228 67t-136 175t-44 234v59h741v22q0 220 -99.5 336t-288.5 116q-80 0 -158 -19t-144 -52l-30 90q73 39 158 60.5t198 21.5q156 0 264.5 -65zM723 163q84 89 106 255h-611
q10 -169 86 -256.5t205 -87.5q130 0 214 89z" />
    <glyph glyph-name="f" unicode="f" horiz-adv-x="665" 
d="M247 970h-170l21 85l149 14v125q0 190 67 275t201 85q47 0 96.5 -9.5t88.5 -24.5l-25 -93q-80 26 -148 26q-54 0 -89.5 -24t-54 -82t-18.5 -157v-121h276l-21 -99h-255v-970h-118v970z" />
    <glyph glyph-name="g" unicode="g" horiz-adv-x="1146" 
d="M176 -362l33 98q66 -35 152.5 -60t180.5 -25q152 0 231 81.5t79 264.5v149q-47 -47 -93 -81.5t-111 -59t-145 -24.5q-113 0 -205 54.5t-147.5 171.5t-55.5 296q0 180 58 312.5t166.5 203.5t256.5 71q84 0 158 -19t130 -48l13 46h100q-7 -91 -7 -207v-876
q0 -215 -114.5 -326t-319.5 -111q-190 0 -360 89zM704 133q83 50 148 120v673q-58 30 -129 48t-141 18q-111 0 -192.5 -56t-125 -164.5t-43.5 -262.5q0 -150 40 -245t107.5 -138t152.5 -43q100 0 183 50z" />
    <glyph glyph-name="gbreve" unicode="&#x11f;" horiz-adv-x="1146" 
d="M176 -362l33 98q66 -35 152.5 -60t180.5 -25q152 0 231 81.5t79 264.5v149q-47 -47 -93 -81.5t-111 -59t-145 -24.5q-113 0 -205 54.5t-147.5 171.5t-55.5 296q0 180 58 312.5t166.5 203.5t256.5 71q84 0 158 -19t130 -48l13 46h100q-7 -91 -7 -207v-876
q0 -215 -114.5 -326t-319.5 -111q-190 0 -360 89zM704 133q83 50 148 120v673q-58 30 -129 48t-141 18q-111 0 -192.5 -56t-125 -164.5t-43.5 -262.5q0 -150 40 -245t107.5 -138t152.5 -43q100 0 183 50zM431.5 1307.5q-66.5 37.5 -101 100t-37.5 135.5h98q20 -174 202 -174
q94 0 144 45t57 129h98q-4 -72 -37.5 -134t-99.5 -100.5t-162 -38.5q-95 0 -161.5 37.5z" />
    <glyph glyph-name="gcircumflex" unicode="&#x11d;" horiz-adv-x="1146" 
d="M176 -362l33 98q66 -35 152.5 -60t180.5 -25q152 0 231 81.5t79 264.5v149q-47 -47 -93 -81.5t-111 -59t-145 -24.5q-113 0 -205 54.5t-147.5 171.5t-55.5 296q0 180 58 312.5t166.5 203.5t256.5 71q84 0 158 -19t130 -48l13 46h100q-7 -91 -7 -207v-876
q0 -215 -114.5 -326t-319.5 -111q-190 0 -360 89zM704 133q83 50 148 120v673q-58 30 -129 48t-141 18q-111 0 -192.5 -56t-125 -164.5t-43.5 -262.5q0 -150 40 -245t107.5 -138t152.5 -43q100 0 183 50zM280 1251l242 298h144l241 -298l-84 -22l-229 228l-228 -228z" />
    <glyph glyph-name="gcommaaccent" unicode="&#x123;" horiz-adv-x="1146" 
d="M176 -362l33 98q66 -35 152.5 -60t180.5 -25q152 0 231 81.5t79 264.5v149q-47 -47 -93 -81.5t-111 -59t-145 -24.5q-113 0 -205 54.5t-147.5 171.5t-55.5 296q0 180 58 312.5t166.5 203.5t256.5 71q84 0 158 -19t130 -48l13 46h100q-7 -91 -7 -207v-876
q0 -215 -114.5 -326t-319.5 -111q-190 0 -360 89zM704 133q83 50 148 120v673q-58 30 -129 48t-141 18q-111 0 -192.5 -56t-125 -164.5t-43.5 -262.5q0 -150 40 -245t107.5 -138t152.5 -43q100 0 183 50zM485 1196q0 99 38.5 195t88.5 163l80 -23q-38 -81 -58 -172.5
t-20 -178.5z" />
    <glyph glyph-name="gdotaccent" unicode="&#x121;" horiz-adv-x="1146" 
d="M176 -362l33 98q66 -35 152.5 -60t180.5 -25q152 0 231 81.5t79 264.5v149q-47 -47 -93 -81.5t-111 -59t-145 -24.5q-113 0 -205 54.5t-147.5 171.5t-55.5 296q0 180 58 312.5t166.5 203.5t256.5 71q84 0 158 -19t130 -48l13 46h100q-7 -91 -7 -207v-876
q0 -215 -114.5 -326t-319.5 -111q-190 0 -360 89zM704 133q83 50 148 120v673q-58 30 -129 48t-141 18q-111 0 -192.5 -56t-125 -164.5t-43.5 -262.5q0 -150 40 -245t107.5 -138t152.5 -43q100 0 183 50zM528.5 1309.5q-25.5 25.5 -25.5 66.5q0 40 25.5 64.5t63.5 24.5
t64.5 -24.5t26.5 -64.5t-26.5 -66t-64.5 -26t-63.5 25.5z" />
    <glyph glyph-name="h" unicode="h" horiz-adv-x="1167" 
d="M927 990q81 -100 81 -300v-690h-119v680q0 159 -59 233.5t-176 74.5q-97 0 -189 -55.5t-167 -139.5v-793h-118v1534l118 20v-649q78 81 171.5 133t210.5 52q166 0 247 -100z" />
    <glyph glyph-name="hbar" unicode="&#x127;" horiz-adv-x="1167" 
d="M928 954q81 -100 81 -300v-654h-120v644q0 159 -59 234t-175 75q-98 0 -189.5 -55.5t-167.5 -139.5v-758h-118v1224h-180l21 100h159v210l118 20v-230h358l-22 -100h-336v-355q80 81 173.5 133t209.5 52q166 0 247 -100z" />
    <glyph glyph-name="hcircumflex" unicode="&#x125;" horiz-adv-x="1167" 
d="M927 990q81 -100 81 -300v-690h-119v680q0 159 -59 233.5t-176 74.5q-97 0 -189 -55.5t-167 -139.5v-793h-118v1534l118 20v-649q78 81 171.5 133t210.5 52q166 0 247 -100zM-84 1650l253 256h144l254 -260l-75 -23l-251 193l-249 -193z" />
    <glyph glyph-name="i" unicode="i" horiz-adv-x="478" 
d="M180 1069h118v-1069h-118v1069zM174.5 1309.5q-25.5 25.5 -25.5 66.5q0 40 25.5 64.5t63.5 24.5t64.5 -24.5t26.5 -64.5t-26.5 -66t-64.5 -26t-63.5 25.5z" />
    <glyph glyph-name="dotlessi" unicode="&#x131;" horiz-adv-x="478" 
d="M180 1069h118v-1069h-118v1069z" />
    <glyph glyph-name="iacute" unicode="&#xed;" horiz-adv-x="478" 
d="M180 1069h118v-1069h-118v1069zM104 1241l248 313l161 -24l-326 -312z" />
    <glyph glyph-name="ibreve" unicode="&#x12d;" horiz-adv-x="478" 
d="M180 1069h118v-1069h-118v1069zM49 1348.5q-69 78.5 -83 194.5h98q30 -181 182 -181q81 0 125.5 48.5t56.5 132.5h98q-14 -115 -82 -194t-198 -79q-128 0 -197 78.5z" />
    <glyph glyph-name="icircumflex" unicode="&#xee;" horiz-adv-x="478" 
d="M180 1069h118v-1069h-118v1069zM-46 1251l214 298h145l210 -298l-84 -22l-199 233l-200 -233z" />
    <glyph glyph-name="idieresis" unicode="&#xef;" horiz-adv-x="478" 
d="M180 1069h118v-1069h-118v1069zM25 1321q-24 23 -24 60q0 36 24 59t60 23t59.5 -24t23.5 -58q0 -36 -24 -59.5t-59 -23.5q-36 0 -60 23zM335 1320.5q-23 22.5 -23 60.5q0 36 23 59t60 23q36 0 60 -23.5t24 -58.5q0 -36 -24 -59.5t-60 -23.5q-37 0 -60 22.5z" />
    <glyph glyph-name="igrave" unicode="&#xec;" horiz-adv-x="478" 
d="M180 1069h118v-1069h-118v1069zM-38 1530l161 24l248 -313l-82 -23z" />
    <glyph glyph-name="ij" unicode="&#x133;" horiz-adv-x="957" 
d="M180 1069h118v-1069h-118v1069zM174.5 1309.5q-25.5 25.5 -25.5 66.5q0 40 25.5 64.5t63.5 24.5t64.5 -24.5t26.5 -64.5t-26.5 -66t-64.5 -26t-63.5 25.5zM491 -447q-25 4 -44 10l20 102q20 -6 44 -6q79 0 113.5 56t34.5 182v1172h118v-1192q0 -164 -62.5 -246
t-177.5 -82q-21 0 -46 4zM653.5 1309.5q-25.5 25.5 -25.5 66.5q0 40 25.5 64.5t63.5 24.5t64.5 -24.5t26.5 -64.5t-26.5 -66t-64.5 -26t-63.5 25.5z" />
    <glyph glyph-name="imacron" unicode="&#x12b;" horiz-adv-x="478" 
d="M180 1069h118v-1069h-118v1069zM5 1432h472v-102h-472v102z" />
    <glyph glyph-name="iogonek" unicode="&#x12f;" horiz-adv-x="478" 
d="M174.5 1309.5q-25.5 25.5 -25.5 66.5q0 40 25.5 64.5t63.5 24.5t64.5 -24.5t26.5 -64.5t-26.5 -66t-64.5 -26t-63.5 25.5zM372 -383q-28 -15 -67.5 -23t-84.5 -8q-72 0 -120.5 27t-71.5 71t-23 95q0 75 44.5 132.5t130.5 101.5v1056h118v-1069q-83 -40 -131.5 -90.5
t-48.5 -118.5q0 -51 32.5 -81t87.5 -30q58 0 110 21z" />
    <glyph glyph-name="itilde" unicode="&#x129;" horiz-adv-x="478" 
d="M180 1069h118v-1069h-118v1069zM-42 1292q7 89 48 141.5t107 52.5q36 0 71 -16t75 -46q41 -32 63 -45t45 -13q27 0 47.5 27t27.5 94l80 -23q-8 -89 -49.5 -142t-108.5 -53q-36 0 -66 15.5t-70 47.5t-64.5 46t-48.5 14q-34 0 -51.5 -29t-26.5 -91z" />
    <glyph glyph-name="j" unicode="j" horiz-adv-x="479" 
d="M13 -447q-25 4 -44 10l20 102q20 -6 44 -6q79 0 113.5 56t34.5 182v1172h118v-1192q0 -164 -62.5 -246t-177.5 -82q-21 0 -46 4zM175.5 1309.5q-25.5 25.5 -25.5 66.5q0 40 25.5 64.5t63.5 24.5t64.5 -24.5t26.5 -64.5t-26.5 -66t-64.5 -26t-63.5 25.5z" />
    <glyph glyph-name="uni0237" unicode="&#x237;" horiz-adv-x="479" 
d="M13 -447q-25 4 -44 10l20 102q20 -6 44 -6q79 0 113.5 56t34.5 182v1172h118v-1192q0 -164 -62.5 -246t-177.5 -82q-21 0 -46 4z" />
    <glyph glyph-name="jcircumflex" unicode="&#x135;" horiz-adv-x="479" 
d="M13 -447q-25 4 -44 10l20 102q20 -6 44 -6q79 0 113.5 56t34.5 182v1172h118v-1192q0 -164 -62.5 -246t-177.5 -82q-21 0 -46 4zM-44 1251l214 298h145l210 -298l-84 -22l-199 233l-200 -233z" />
    <glyph glyph-name="k" unicode="k" horiz-adv-x="1007" 
d="M180 1534l118 20v-1013l515 528h138l-433 -445l474 -624h-145l-410 547l-139 -121v-426h-118v1534z" />
    <glyph glyph-name="kcommaaccent" unicode="&#x137;" horiz-adv-x="1007" 
d="M180 1534l118 20v-1013l515 528h138l-433 -445l474 -624h-145l-410 547l-139 -121v-426h-118v1534zM417 -477q48 87 68 175t20 186l126 -16q0 -105 -37.5 -200.5t-93.5 -168.5z" />
    <glyph glyph-name="kgreenlandic" unicode="&#x138;" horiz-adv-x="1007" 
d="M180 1069h118v-528l515 528h138l-433 -445l474 -624h-145l-410 547l-139 -117v-430h-118v1069z" />
    <glyph glyph-name="l" unicode="l" horiz-adv-x="508" 
d="M219 40q-50 58 -50 177v1317l119 20v-1318q0 -82 22.5 -116t80.5 -34q18 0 52 9l18 -98q-20 -7 -47.5 -11t-49.5 -4q-95 0 -145 58z" />
    <glyph glyph-name="lacute" unicode="&#x13a;" horiz-adv-x="508" 
d="M219 40q-50 58 -50 177v1317l119 20v-1318q0 -82 22.5 -116t80.5 -34q18 0 52 9l18 -98q-20 -7 -47.5 -11t-49.5 -4q-95 0 -145 58zM116 1642l269 288l161 -24l-354 -286z" />
    <glyph glyph-name="lcaron" unicode="&#x13e;" horiz-adv-x="508" 
d="M219 40q-50 58 -50 177v1317l119 20v-1318q0 -82 22.5 -116t80.5 -34q18 0 52 9l18 -98q-20 -7 -47.5 -11t-49.5 -4q-95 0 -145 58zM376 1198q44 87 66 184.5t22 194.5l127 -16q0 -107 -40 -208t-95 -178z" />
    <glyph glyph-name="lcommaaccent" unicode="&#x13c;" horiz-adv-x="508" 
d="M219 40q-50 58 -50 177v1317l119 20v-1318q0 -82 22.5 -116t80.5 -34q18 0 52 9l18 -98q-20 -7 -47.5 -11t-49.5 -4q-95 0 -145 58zM172 -477q48 87 68 175t20 186l126 -16q0 -105 -37.5 -200.5t-93.5 -168.5z" />
    <glyph glyph-name="ldot" unicode="&#x140;" horiz-adv-x="519" 
d="M219 40q-50 58 -50 177v1317l119 20v-1318q0 -82 22.5 -116t80.5 -34q18 0 52 9l18 -98q-20 -7 -47.5 -11t-49.5 -4q-95 0 -145 58zM435.5 721.5q-25.5 25.5 -25.5 66.5q0 40 25.5 64.5t63.5 24.5t64.5 -24.5t26.5 -64.5t-26.5 -66t-64.5 -26t-63.5 25.5z" />
    <glyph glyph-name="lslash" unicode="&#x142;" horiz-adv-x="536" 
d="M315 847v-611q0 -82 22.5 -116t80.5 -34q18 0 52 9l18 -98q-20 -7 -48 -11t-49 -4q-95 0 -145 58t-50 177v557l-154 -95v112l154 95v648l119 20v-595l184 113v-112z" />
    <glyph glyph-name="m" unicode="m" horiz-adv-x="1806" 
d="M176 784q0 155 -7 285h107q9 -63 16 -168q80 82 171.5 135.5t199.5 53.5q103 0 176 -52t113 -147q86 91 175.5 145t207.5 54q142 0 227 -95t85 -305v-690h-118v679q0 309 -220 309q-96 0 -175 -51t-165 -147v-790h-115v723q0 91 -29.5 150.5t-78.5 87t-110 27.5
q-93 0 -185 -59t-156 -136v-793h-119v784z" />
    <glyph glyph-name="n" unicode="n" horiz-adv-x="1165" 
d="M178 795q0 136 -9 274h108q5 -36 9.5 -83.5t6.5 -83.5q81 84 176 136t214 52q164 0 243.5 -102t79.5 -304v-684h-119v678q0 310 -232 310q-98 0 -190 -55.5t-169 -140.5v-792h-118v795z" />
    <glyph glyph-name="nacute" unicode="&#x144;" horiz-adv-x="1165" 
d="M178 795q0 136 -9 274h108q5 -36 9.5 -83.5t6.5 -83.5q81 84 176 136t214 52q164 0 243.5 -102t79.5 -304v-684h-119v678q0 310 -232 310q-98 0 -190 -55.5t-169 -140.5v-792h-118v795zM442 1241l248 313l161 -24l-326 -312z" />
    <glyph glyph-name="napostrophe" unicode="&#x149;" horiz-adv-x="1369" 
d="M74 1029q61 113 93 240t32 251l127 -16q0 -137 -53 -269.5t-123 -229.5zM382 795q0 136 -9 274h108q5 -36 9.5 -83.5t6.5 -83.5q81 84 176 136t214 52q164 0 243.5 -102t79.5 -304v-684h-119v678q0 310 -232 310q-98 0 -190 -55.5t-169 -140.5v-792h-118v795z" />
    <glyph glyph-name="ncaron" unicode="&#x148;" horiz-adv-x="1165" 
d="M178 795q0 136 -9 274h108q5 -36 9.5 -83.5t6.5 -83.5q81 84 176 136t214 52q164 0 243.5 -102t79.5 -304v-684h-119v678q0 310 -232 310q-98 0 -190 -55.5t-169 -140.5v-792h-118v795zM890 1539l-242 -298h-144l-241 298l84 22l229 -228l228 228z" />
    <glyph glyph-name="ncommaaccent" unicode="&#x146;" horiz-adv-x="1165" 
d="M178 795q0 136 -9 274h108q5 -36 9.5 -83.5t6.5 -83.5q81 84 176 136t214 52q164 0 243.5 -102t79.5 -304v-684h-119v678q0 310 -232 310q-98 0 -190 -55.5t-169 -140.5v-792h-118v795zM470 -477q48 87 68 175t20 186l126 -16q0 -105 -37.5 -200.5t-93.5 -168.5z" />
    <glyph glyph-name="eng" unicode="&#x14b;" horiz-adv-x="1168" 
d="M1009 129v-254q0 -162 -61.5 -244t-176.5 -82q-22 0 -48 4t-43 10l18 98q20 -8 44 -8q81 0 114 56t33 183v108h-2v678q0 310 -232 310q-98 0 -190 -55.5t-169 -140.5v-792h-118v795q0 136 -9 274h108q5 -36 9.5 -83.5t6.5 -83.5q81 84 176 136t214 52q164 0 243.5 -102
t79.5 -304v-555h3z" />
    <glyph glyph-name="ntilde" unicode="&#xf1;" horiz-adv-x="1165" 
d="M178 795q0 136 -9 274h108q5 -36 9.5 -83.5t6.5 -83.5q81 84 176 136t214 52q164 0 243.5 -102t79.5 -304v-684h-119v678q0 310 -232 310q-98 0 -190 -55.5t-169 -140.5v-792h-118v795zM255 1292q9 89 53.5 141.5t121.5 52.5q42 0 82 -15.5t87 -46.5t75 -45.5t54 -14.5
q31 0 54.5 28t31.5 95l85 -23q-11 -95 -55 -149.5t-123 -54.5q-42 0 -76 16t-82 48q-46 32 -75 46.5t-56 14.5q-40 0 -61.5 -30t-31.5 -93z" />
    <glyph glyph-name="o" unicode="o" horiz-adv-x="1169" 
d="M329 45.5q-110 65.5 -172 189t-62 292.5t62 296.5t173.5 197t256.5 69.5q142 0 252.5 -68.5t172.5 -194.5t62 -293q0 -170 -64 -295.5t-176.5 -192t-253.5 -66.5t-251 65.5zM786 135.5q81 54.5 122 154.5t41 234q0 138 -42.5 243t-125.5 164t-201 59q-117 0 -198.5 -57.5
t-122 -160t-40.5 -235.5q0 -141 44 -243.5t127.5 -157.5t199.5 -55q115 0 196 54.5z" />
    <glyph glyph-name="oacute" unicode="&#xf3;" horiz-adv-x="1169" 
d="M329 45.5q-110 65.5 -172 189t-62 292.5t62 296.5t173.5 197t256.5 69.5q142 0 252.5 -68.5t172.5 -194.5t62 -293q0 -170 -64 -295.5t-176.5 -192t-253.5 -66.5t-251 65.5zM786 135.5q81 54.5 122 154.5t41 234q0 138 -42.5 243t-125.5 164t-201 59q-117 0 -198.5 -57.5
t-122 -160t-40.5 -235.5q0 -141 44 -243.5t127.5 -157.5t199.5 -55q115 0 196 54.5zM448 1241l248 313l161 -24l-326 -312z" />
    <glyph glyph-name="obreve" unicode="&#x14f;" horiz-adv-x="1169" 
d="M329 45.5q-110 65.5 -172 189t-62 292.5t62 296.5t173.5 197t256.5 69.5q142 0 252.5 -68.5t172.5 -194.5t62 -293q0 -170 -64 -295.5t-176.5 -192t-253.5 -66.5t-251 65.5zM786 135.5q81 54.5 122 154.5t41 234q0 138 -42.5 243t-125.5 164t-201 59q-117 0 -198.5 -57.5
t-122 -160t-40.5 -235.5q0 -141 44 -243.5t127.5 -157.5t199.5 -55q115 0 196 54.5zM421.5 1307.5q-66.5 37.5 -101 100t-37.5 135.5h98q20 -174 202 -174q94 0 144 45t57 129h98q-4 -72 -37.5 -134t-99.5 -100.5t-162 -38.5q-95 0 -161.5 37.5z" />
    <glyph glyph-name="ocircumflex" unicode="&#xf4;" horiz-adv-x="1169" 
d="M329 45.5q-110 65.5 -172 189t-62 292.5t62 296.5t173.5 197t256.5 69.5q142 0 252.5 -68.5t172.5 -194.5t62 -293q0 -170 -64 -295.5t-176.5 -192t-253.5 -66.5t-251 65.5zM786 135.5q81 54.5 122 154.5t41 234q0 138 -42.5 243t-125.5 164t-201 59q-117 0 -198.5 -57.5
t-122 -160t-40.5 -235.5q0 -141 44 -243.5t127.5 -157.5t199.5 -55q115 0 196 54.5zM270 1251l242 298h144l241 -298l-84 -22l-229 228l-228 -228z" />
    <glyph glyph-name="odieresis" unicode="&#xf6;" horiz-adv-x="1169" 
d="M329 45.5q-110 65.5 -172 189t-62 292.5t62 296.5t173.5 197t256.5 69.5q142 0 252.5 -68.5t172.5 -194.5t62 -293q0 -170 -64 -295.5t-176.5 -192t-253.5 -66.5t-251 65.5zM786 135.5q81 54.5 122 154.5t41 234q0 138 -42.5 243t-125.5 164t-201 59q-117 0 -198.5 -57.5
t-122 -160t-40.5 -235.5q0 -141 44 -243.5t127.5 -157.5t199.5 -55q115 0 196 54.5zM332.5 1316.5q-25.5 24.5 -25.5 64.5q0 38 26 63t64 25t63.5 -25t25.5 -63q0 -39 -25.5 -64t-63.5 -25q-39 0 -64.5 24.5zM704 1316.5q-25 24.5 -25 64.5q0 38 25 63t65 25
q38 0 63.5 -25.5t25.5 -62.5q0 -38 -26 -63.5t-63 -25.5q-40 0 -65 24.5z" />
    <glyph glyph-name="ograve" unicode="&#xf2;" horiz-adv-x="1169" 
d="M329 45.5q-110 65.5 -172 189t-62 292.5t62 296.5t173.5 197t256.5 69.5q142 0 252.5 -68.5t172.5 -194.5t62 -293q0 -170 -64 -295.5t-176.5 -192t-253.5 -66.5t-251 65.5zM786 135.5q81 54.5 122 154.5t41 234q0 138 -42.5 243t-125.5 164t-201 59q-117 0 -198.5 -57.5
t-122 -160t-40.5 -235.5q0 -141 44 -243.5t127.5 -157.5t199.5 -55q115 0 196 54.5zM306 1530l161 24l248 -313l-82 -23z" />
    <glyph glyph-name="ohungarumlaut" unicode="&#x151;" horiz-adv-x="1169" 
d="M329 45.5q-110 65.5 -172 189t-62 292.5t62 296.5t173.5 197t256.5 69.5q142 0 252.5 -68.5t172.5 -194.5t62 -293q0 -170 -64 -295.5t-176.5 -192t-253.5 -66.5t-251 65.5zM786 135.5q81 54.5 122 154.5t41 234q0 138 -42.5 243t-125.5 164t-201 59q-117 0 -198.5 -57.5
t-122 -160t-40.5 -235.5q0 -141 44 -243.5t127.5 -157.5t199.5 -55q115 0 196 54.5zM346 1241l215 313l153 -24l-285 -312zM665 1241l215 313l153 -24l-286 -312z" />
    <glyph glyph-name="omacron" unicode="&#x14d;" horiz-adv-x="1169" 
d="M329 45.5q-110 65.5 -172 189t-62 292.5t62 296.5t173.5 197t256.5 69.5q142 0 252.5 -68.5t172.5 -194.5t62 -293q0 -170 -64 -295.5t-176.5 -192t-253.5 -66.5t-251 65.5zM786 135.5q81 54.5 122 154.5t41 234q0 138 -42.5 243t-125.5 164t-201 59q-117 0 -198.5 -57.5
t-122 -160t-40.5 -235.5q0 -141 44 -243.5t127.5 -157.5t199.5 -55q115 0 196 54.5zM300 1429h569v-100h-569v100z" />
    <glyph glyph-name="oslash" unicode="&#xf8;" horiz-adv-x="1169" 
d="M1036 769.5q38 -105.5 38 -235.5q0 -170 -64 -295.5t-176.5 -192t-253.5 -66.5q-149 0 -262 73l-57 -84h-117l99 145q-71 71 -109.5 176t-38.5 237q0 169 62 296.5t173.5 197t256.5 69.5q153 0 268 -78l47 69h116l-90 -132q70 -74 108 -179.5zM242 353.5
q23 -82.5 68 -141.5l484 710q-88 68 -214 68q-117 0 -198.5 -57.5t-122 -160t-40.5 -235.5q0 -101 23 -183.5zM786 135.5q81 54.5 122 154.5t41 234q0 99 -22.5 182.5t-65.5 144.5l-481 -707q88 -63 210 -63q115 0 196 54.5z" />
    <glyph glyph-name="oslashacute" unicode="&#x1ff;" horiz-adv-x="1169" 
d="M1036 769.5q38 -105.5 38 -235.5q0 -170 -64 -295.5t-176.5 -192t-253.5 -66.5q-149 0 -262 73l-57 -84h-117l99 145q-71 71 -109.5 176t-38.5 237q0 169 62 296.5t173.5 197t256.5 69.5q153 0 268 -78l47 69h116l-90 -132q70 -74 108 -179.5zM242 353.5
q23 -82.5 68 -141.5l484 710q-88 68 -214 68q-117 0 -198.5 -57.5t-122 -160t-40.5 -235.5q0 -101 23 -183.5zM786 135.5q81 54.5 122 154.5t41 234q0 99 -22.5 182.5t-65.5 144.5l-481 -707q88 -63 210 -63q115 0 196 54.5zM449 1241l248 313l161 -24l-326 -312z" />
    <glyph glyph-name="otilde" unicode="&#xf5;" horiz-adv-x="1169" 
d="M329 45.5q-110 65.5 -172 189t-62 292.5t62 296.5t173.5 197t256.5 69.5q142 0 252.5 -68.5t172.5 -194.5t62 -293q0 -170 -64 -295.5t-176.5 -192t-253.5 -66.5t-251 65.5zM786 135.5q81 54.5 122 154.5t41 234q0 138 -42.5 243t-125.5 164t-201 59q-117 0 -198.5 -57.5
t-122 -160t-40.5 -235.5q0 -141 44 -243.5t127.5 -157.5t199.5 -55q115 0 196 54.5zM261 1292q9 89 53.5 141.5t121.5 52.5q42 0 82 -15.5t87 -46.5t75 -45.5t54 -14.5q31 0 54.5 28t31.5 95l85 -23q-11 -95 -55 -149.5t-123 -54.5q-42 0 -76 16t-82 48q-46 32 -75 46.5
t-56 14.5q-40 0 -61.5 -30t-31.5 -93z" />
    <glyph glyph-name="oe" unicode="&#x153;" horiz-adv-x="1910" 
d="M1074 551v-17q0 -225 100 -339t289 -114q80 0 159 18t143 51l30 -88q-66 -36 -153.5 -59t-189.5 -23q-165 0 -277 65t-167 189q-64 -122 -175.5 -188t-252.5 -66t-251 65.5t-172 189t-62 292.5t62 296.5t173.5 197t256.5 69.5q144 0 254 -68.5t171 -192.5
q55 126 156.5 193.5t233.5 67.5q136 0 229 -68t138.5 -177t45.5 -234v-60h-741zM1186 903q-84 -92 -105 -258h613q-11 168 -87.5 259t-205.5 91q-131 0 -215 -92zM786 135.5q81 54.5 122 154t41 234.5q0 138 -42.5 243t-125.5 164t-201 59q-117 0 -198.5 -57.5t-122 -160
t-40.5 -235.5q0 -141 44 -243.5t127.5 -157.5t198.5 -55q116 0 197 54.5z" />
    <glyph glyph-name="p" unicode="p" horiz-adv-x="1144" 
d="M178 816q0 126 -9 253h107q13 -75 16 -137q73 69 158.5 113.5t190.5 44.5q110 0 202.5 -55.5t149 -175t56.5 -301.5q0 -180 -58 -310t-167.5 -199t-262.5 -69q-72 0 -143 13.5t-122 33.5v-457l-118 -21v1267zM829.5 201.5q95.5 123.5 95.5 353.5q0 152 -40 249
t-108 140.5t-155 43.5q-172 0 -326 -160v-701q55 -23 120 -36t127 -13q191 0 286.5 123.5z" />
    <glyph glyph-name="thorn" unicode="&#xfe;" horiz-adv-x="1146" 
d="M180 1534l118 20v-618q70 68 155 111t195 43q107 0 198.5 -56.5t148 -176t56.5 -300.5q0 -177 -58.5 -307t-168.5 -200t-261 -70q-130 0 -265 33v-443l-118 -21v1985zM759 134q82 56 125 163t43 257q0 151 -40 248t-108.5 141.5t-154.5 44.5q-96 0 -178 -44.5
t-148 -111.5v-712q68 -21 127.5 -31.5t137.5 -10.5q114 0 196 56z" />
    <glyph glyph-name="q" unicode="q" horiz-adv-x="1146" 
d="M853 145q-48 -47 -93.5 -81t-110.5 -59t-144 -25q-113 0 -206 55t-148.5 172t-55.5 295q0 179 58 312t166.5 204.5t256.5 71.5q145 0 288 -67l13 46h100q-7 -91 -7 -207v-1292l-117 -21v596zM702.5 132q83.5 50 147.5 119v675q-61 29 -131 47.5t-135 18.5
q-111 0 -193 -55.5t-126 -164t-44 -263.5q0 -150 40 -245.5t107.5 -138.5t151.5 -43q99 0 182.5 50z" />
    <glyph glyph-name="r" unicode="r" horiz-adv-x="721" 
d="M178 797q0 61 -3 134t-4 96l-2 42h107q6 -43 10.5 -103t6.5 -103q50 75 92.5 122t98 76t127.5 29q51 0 97 -14l-19 -107q-42 11 -82 11q-61 0 -111.5 -25t-96.5 -74t-103 -130v-751h-118v797z" />
    <glyph glyph-name="racute" unicode="&#x155;" horiz-adv-x="721" 
d="M178 797q0 61 -3 134t-4 96l-2 42h107q6 -43 10.5 -103t6.5 -103q50 75 92.5 122t98 76t127.5 29q51 0 97 -14l-19 -107q-42 11 -82 11q-61 0 -111.5 -25t-96.5 -74t-103 -130v-751h-118v797zM271 1241l248 313l161 -24l-326 -312z" />
    <glyph glyph-name="rcaron" unicode="&#x159;" horiz-adv-x="721" 
d="M178 797q0 61 -3 134t-4 96l-2 42h107q6 -43 10.5 -103t6.5 -103q50 75 92.5 122t98 76t127.5 29q51 0 97 -14l-19 -107q-42 11 -82 11q-61 0 -111.5 -25t-96.5 -74t-103 -130v-751h-118v797zM693 1539l-214 -298h-145l-210 298l84 22l199 -233l200 233z" />
    <glyph glyph-name="rcommaaccent" unicode="&#x157;" horiz-adv-x="721" 
d="M178 797q0 61 -3 134t-4 96l-2 42h107q6 -43 10.5 -103t6.5 -103q50 75 92.5 122t98 76t127.5 29q51 0 97 -14l-19 -107q-42 11 -82 11q-61 0 -111.5 -25t-96.5 -74t-103 -130v-751h-118v797zM114 -477q48 87 68 175t20 186l126 -16q0 -105 -37.5 -200.5t-93.5 -168.5z
" />
    <glyph glyph-name="s" unicode="s" horiz-adv-x="838" 
d="M211 -2q-78 18 -136 46l33 99q55 -29 128 -45.5t145 -16.5q131 0 200 55t69 148q0 58 -29.5 97t-83 67.5t-157.5 70.5q-99 40 -160.5 79.5t-94 92t-32.5 127.5q0 82 38.5 143.5t114 95t182.5 33.5q147 0 300 -71l-27 -94q-132 67 -268 67q-109 0 -167 -45t-58 -120
q0 -51 28.5 -86t78 -60.5t149.5 -67.5q103 -44 162 -78.5t98 -92t39 -145.5q0 -94 -45 -165.5t-132.5 -111.5t-211.5 -40q-85 0 -163 18z" />
    <glyph glyph-name="sacute" unicode="&#x15b;" horiz-adv-x="838" 
d="M211 -2q-78 18 -136 46l33 99q55 -29 128 -45.5t145 -16.5q131 0 200 55t69 148q0 58 -29.5 97t-83 67.5t-157.5 70.5q-99 40 -160.5 79.5t-94 92t-32.5 127.5q0 82 38.5 143.5t114 95t182.5 33.5q147 0 300 -71l-27 -94q-132 67 -268 67q-109 0 -167 -45t-58 -120
q0 -51 28.5 -86t78 -60.5t149.5 -67.5q103 -44 162 -78.5t98 -92t39 -145.5q0 -94 -45 -165.5t-132.5 -111.5t-211.5 -40q-85 0 -163 18zM288 1241l248 313l161 -24l-326 -312z" />
    <glyph glyph-name="scaron" unicode="&#x161;" horiz-adv-x="838" 
d="M211 -2q-78 18 -136 46l33 99q55 -29 128 -45.5t145 -16.5q131 0 200 55t69 148q0 58 -29.5 97t-83 67.5t-157.5 70.5q-99 40 -160.5 79.5t-94 92t-32.5 127.5q0 82 38.5 143.5t114 95t182.5 33.5q147 0 300 -71l-27 -94q-132 67 -268 67q-109 0 -167 -45t-58 -120
q0 -51 28.5 -86t78 -60.5t149.5 -67.5q103 -44 162 -78.5t98 -92t39 -145.5q0 -94 -45 -165.5t-132.5 -111.5t-211.5 -40q-85 0 -163 18zM736 1539l-242 -298h-144l-241 298l84 22l229 -228l228 228z" />
    <glyph glyph-name="scedilla" unicode="&#x15f;" horiz-adv-x="838" 
d="M725.5 144q-37.5 -67 -111 -109t-178.5 -52l-25 -73q100 -23 152 -62t52 -115q0 -83 -63.5 -129t-178.5 -46q-61 0 -110.5 14t-97.5 43l35 78q86 -48 177 -48q61 0 98.5 23t37.5 67q0 36 -25 58.5t-73 35.5t-130 25l49 127q-74 4 -141 21t-118 42l33 99q55 -29 128 -45.5
t145 -16.5q131 0 200 55t69 148q0 58 -29.5 97t-83 67.5t-157.5 70.5q-99 40 -160.5 79.5t-94 92t-32.5 127.5q0 82 38.5 143.5t114 95t182.5 33.5q147 0 300 -71l-27 -94q-132 67 -268 67q-109 0 -167 -45t-58 -120q0 -51 28.5 -86t78 -60.5t149.5 -67.5q103 -44 162 -78.5
t98 -92t39 -145.5q0 -86 -37.5 -153z" />
    <glyph glyph-name="scircumflex" unicode="&#x15d;" horiz-adv-x="838" 
d="M211 -2q-78 18 -136 46l33 99q55 -29 128 -45.5t145 -16.5q131 0 200 55t69 148q0 58 -29.5 97t-83 67.5t-157.5 70.5q-99 40 -160.5 79.5t-94 92t-32.5 127.5q0 82 38.5 143.5t114 95t182.5 33.5q147 0 300 -71l-27 -94q-132 67 -268 67q-109 0 -167 -45t-58 -120
q0 -51 28.5 -86t78 -60.5t149.5 -67.5q103 -44 162 -78.5t98 -92t39 -145.5q0 -94 -45 -165.5t-132.5 -111.5t-211.5 -40q-85 0 -163 18zM110 1251l242 298h144l241 -298l-84 -22l-229 228l-228 -228z" />
    <glyph glyph-name="scommaaccent" unicode="&#x219;" horiz-adv-x="838" 
d="M211 -2q-78 18 -136 46l33 99q55 -29 128 -45.5t145 -16.5q131 0 200 55t69 148q0 58 -29.5 97t-83 67.5t-157.5 70.5q-99 40 -160.5 79.5t-94 92t-32.5 127.5q0 82 38.5 143.5t114 95t182.5 33.5q147 0 300 -71l-27 -94q-132 67 -268 67q-109 0 -167 -45t-58 -120
q0 -51 28.5 -86t78 -60.5t149.5 -67.5q103 -44 162 -78.5t98 -92t39 -145.5q0 -94 -45 -165.5t-132.5 -111.5t-211.5 -40q-85 0 -163 18zM262 -477q48 87 68 175t20 186l126 -16q0 -105 -37.5 -200.5t-93.5 -168.5z" />
    <glyph glyph-name="germandbls" unicode="&#xdf;" horiz-adv-x="1206" 
d="M578.5 -2.5q-81.5 17.5 -146.5 49.5l37 97q62 -31 135 -48t139 -17q90 0 151.5 30.5t91.5 84t30 121.5q0 66 -26.5 109.5t-72 74t-129.5 72.5q-91 46 -138.5 76.5t-76.5 73t-29 104.5q0 45 17.5 80.5t53 68.5t101.5 82q68 50 101.5 80.5t50.5 62t17 71.5
q0 86 -70.5 135.5t-190.5 49.5q-162 0 -240 -95.5t-78 -284.5v-1075h-119v1083q0 231 110.5 351t322.5 120q117 0 203 -36t131.5 -100t45.5 -147q0 -54 -20 -95.5t-57.5 -77.5t-105.5 -88q-60 -45 -92 -72t-50.5 -54.5t-18.5 -58.5q0 -32 23 -58.5t69.5 -53.5t142.5 -74
q125 -62 182.5 -133t57.5 -181q0 -102 -47.5 -180.5t-136.5 -121.5t-210 -43q-77 0 -158.5 17.5z" />
    <glyph glyph-name="longs" unicode="&#x17f;" horiz-adv-x="645" 
d="M226 1194q0 189 73 274.5t216 85.5q41 0 86 -10t78 -24l-24 -104q-66 26 -129 26q-61 0 -100.5 -24.5t-60 -83.5t-20.5 -161v-1173h-119v1194z" />
    <glyph glyph-name="t" unicode="t" horiz-adv-x="686" 
d="M268 50.5q-68 70.5 -68 231.5v688h-132l20 85l117 14l13 237l99 25v-262h319l-21 -99h-298v-676q0 -109 42.5 -159.5t129.5 -50.5q68 0 152 32l26 -89q-94 -47 -205 -47q-126 0 -194 70.5z" />
    <glyph glyph-name="tbar" unicode="&#x167;" horiz-adv-x="686" 
d="M667 27q-94 -47 -205 -47q-126 0 -194 70.5t-68 231.5v241h-132l23 84l109 13v350h-132l20 85l117 14l13 237l99 25v-262h319l-21 -99h-298v-349h296l-21 -98h-275v-229q0 -109 42.5 -159.5t129.5 -50.5q68 0 152 32z" />
    <glyph glyph-name="tcaron" unicode="&#x165;" horiz-adv-x="686" 
d="M268 50.5q-68 70.5 -68 231.5v688h-132l20 85l117 14l13 237l99 25v-262h319l-21 -99h-298v-676q0 -109 42.5 -159.5t129.5 -50.5q68 0 152 32l26 -89q-94 -47 -205 -47q-126 0 -194 70.5zM498 1198q44 87 66 184.5t22 194.5l127 -16q0 -107 -40 -208t-95 -178z" />
    <glyph glyph-name="uni0163" unicode="&#x163;" horiz-adv-x="686" 
d="M576 -152q52 -39 52 -115q0 -83 -63.5 -129t-178.5 -46q-61 0 -110.5 14t-97.5 43l35 78q86 -48 177 -48q61 0 98.5 23t37.5 67q0 36 -25 58.5t-73 35.5t-130 25l55 142q-153 53 -153 286v688h-132l20 85l117 14l13 237l99 25v-262h319l-21 -99h-298v-676
q0 -109 42.5 -159.5t129.5 -50.5q68 0 152 32l26 -89q-94 -47 -205 -47h-14l-24 -70q100 -23 152 -62z" />
    <glyph glyph-name="uni021B" unicode="&#x21b;" horiz-adv-x="686" 
d="M268 50.5q-68 70.5 -68 231.5v688h-132l20 85l117 14l13 237l99 25v-262h319l-21 -99h-298v-676q0 -109 42.5 -159.5t129.5 -50.5q68 0 152 32l26 -89q-94 -47 -205 -47q-126 0 -194 70.5zM275 -477q48 87 68 175t20 186l126 -16q0 -105 -37.5 -200.5t-93.5 -168.5z" />
    <glyph glyph-name="u" unicode="u" horiz-adv-x="1166" 
d="M237.5 81.5q-78.5 101.5 -78.5 306.5v681h117v-677q0 -160 59 -234.5t172 -74.5q101 0 195 54.5t168 135.5v796h118v-799q0 -112 9 -270h-103q-7 39 -20 164q-87 -83 -180.5 -133.5t-211.5 -50.5q-166 0 -244.5 101.5z" />
    <glyph glyph-name="uacute" unicode="&#xfa;" horiz-adv-x="1166" 
d="M237.5 81.5q-78.5 101.5 -78.5 306.5v681h117v-677q0 -160 59 -234.5t172 -74.5q101 0 195 54.5t168 135.5v796h118v-799q0 -112 9 -270h-103q-7 39 -20 164q-87 -83 -180.5 -133.5t-211.5 -50.5q-166 0 -244.5 101.5zM446 1241l248 313l161 -24l-326 -312z" />
    <glyph glyph-name="ubreve" unicode="&#x16d;" horiz-adv-x="1166" 
d="M237.5 81.5q-78.5 101.5 -78.5 306.5v681h117v-677q0 -160 59 -234.5t172 -74.5q101 0 195 54.5t168 135.5v796h118v-799q0 -112 9 -270h-103q-7 39 -20 164q-87 -83 -180.5 -133.5t-211.5 -50.5q-166 0 -244.5 101.5zM419.5 1307.5q-66.5 37.5 -101 100t-37.5 135.5h98
q20 -174 202 -174q94 0 144 45t57 129h98q-4 -72 -37.5 -134t-99.5 -100.5t-162 -38.5q-95 0 -161.5 37.5z" />
    <glyph glyph-name="ucircumflex" unicode="&#xfb;" horiz-adv-x="1166" 
d="M237.5 81.5q-78.5 101.5 -78.5 306.5v681h117v-677q0 -160 59 -234.5t172 -74.5q101 0 195 54.5t168 135.5v796h118v-799q0 -112 9 -270h-103q-7 39 -20 164q-87 -83 -180.5 -133.5t-211.5 -50.5q-166 0 -244.5 101.5zM268 1251l242 298h144l241 -298l-84 -22l-229 228
l-228 -228z" />
    <glyph glyph-name="udieresis" unicode="&#xfc;" horiz-adv-x="1166" 
d="M237.5 81.5q-78.5 101.5 -78.5 306.5v681h117v-677q0 -160 59 -234.5t172 -74.5q101 0 195 54.5t168 135.5v796h118v-799q0 -112 9 -270h-103q-7 39 -20 164q-87 -83 -180.5 -133.5t-211.5 -50.5q-166 0 -244.5 101.5zM330.5 1316.5q-25.5 24.5 -25.5 64.5q0 38 26 63
t64 25t63.5 -25t25.5 -63q0 -39 -25.5 -64t-63.5 -25q-39 0 -64.5 24.5zM702 1316.5q-25 24.5 -25 64.5q0 38 25 63t65 25q38 0 63.5 -25.5t25.5 -62.5q0 -38 -26 -63.5t-63 -25.5q-40 0 -65 24.5z" />
    <glyph glyph-name="ugrave" unicode="&#xf9;" horiz-adv-x="1166" 
d="M237.5 81.5q-78.5 101.5 -78.5 306.5v681h117v-677q0 -160 59 -234.5t172 -74.5q101 0 195 54.5t168 135.5v796h118v-799q0 -112 9 -270h-103q-7 39 -20 164q-87 -83 -180.5 -133.5t-211.5 -50.5q-166 0 -244.5 101.5zM304 1530l161 24l248 -313l-82 -23z" />
    <glyph glyph-name="uhungarumlaut" unicode="&#x171;" horiz-adv-x="1166" 
d="M237.5 81.5q-78.5 101.5 -78.5 306.5v681h117v-677q0 -160 59 -234.5t172 -74.5q101 0 195 54.5t168 135.5v796h118v-799q0 -112 9 -270h-103q-7 39 -20 164q-87 -83 -180.5 -133.5t-211.5 -50.5q-166 0 -244.5 101.5zM344 1241l215 313l153 -24l-285 -312zM663 1241
l215 313l153 -24l-286 -312z" />
    <glyph glyph-name="umacron" unicode="&#x16b;" horiz-adv-x="1166" 
d="M237.5 81.5q-78.5 101.5 -78.5 306.5v681h117v-677q0 -160 59 -234.5t172 -74.5q101 0 195 54.5t168 135.5v796h118v-799q0 -112 9 -270h-103q-7 39 -20 164q-87 -83 -180.5 -133.5t-211.5 -50.5q-166 0 -244.5 101.5zM298 1429h569v-100h-569v100z" />
    <glyph glyph-name="uogonek" unicode="&#x173;" horiz-adv-x="1166" 
d="M1025 -383q-28 -15 -67.5 -23t-84.5 -8q-72 0 -120.5 27t-71.5 71t-23 95q0 86 58.5 149t171.5 110q-5 38 -14 126q-87 -83 -180.5 -133.5t-211.5 -50.5q-166 0 -244.5 101.5t-78.5 306.5v681h117v-677q0 -160 59 -234.5t172 -74.5q101 0 195 54.5t168 135.5v796h118
v-799q0 -112 9 -270h-46q-83 -40 -131.5 -90.5t-48.5 -118.5q0 -51 32.5 -81t87.5 -30q58 0 110 21z" />
    <glyph glyph-name="uring" unicode="&#x16f;" horiz-adv-x="1166" 
d="M237.5 81.5q-78.5 101.5 -78.5 306.5v681h117v-677q0 -160 59 -234.5t172 -74.5q101 0 195 54.5t168 135.5v796h118v-799q0 -112 9 -270h-103q-7 39 -20 164q-87 -83 -180.5 -133.5t-211.5 -50.5q-166 0 -244.5 101.5zM478 1225.5q-46 25.5 -72.5 71t-26.5 103.5
t26.5 104t72.5 72t103 26q59 0 106 -26t74 -72t27 -104t-27 -103.5t-74 -71t-106 -25.5q-57 0 -103 25.5zM662.5 1320q31.5 31 31.5 82q0 49 -31.5 79.5t-81.5 30.5q-48 0 -78 -30.5t-30 -79.5q0 -51 30 -82t78 -31q50 0 81.5 31z" />
    <glyph glyph-name="utilde" unicode="&#x169;" horiz-adv-x="1166" 
d="M237.5 81.5q-78.5 101.5 -78.5 306.5v681h117v-677q0 -160 59 -234.5t172 -74.5q101 0 195 54.5t168 135.5v796h118v-799q0 -112 9 -270h-103q-7 39 -20 164q-87 -83 -180.5 -133.5t-211.5 -50.5q-166 0 -244.5 101.5zM259 1292q9 89 53.5 141.5t121.5 52.5
q42 0 82 -15.5t87 -46.5t75 -45.5t54 -14.5q31 0 54.5 28t31.5 95l85 -23q-11 -95 -55 -149.5t-123 -54.5q-42 0 -76 16t-82 48q-46 32 -75 46.5t-56 14.5q-40 0 -61.5 -30t-31.5 -93z" />
    <glyph glyph-name="v" unicode="v" horiz-adv-x="953" 
d="M13 1069h126l273 -740q42 -115 64 -211q37 129 69 212l268 739h128l-408 -1069h-115z" />
    <glyph glyph-name="w" unicode="w" horiz-adv-x="1514" 
d="M13 1069h121l223 -754q43 -142 55 -208q10 62 53 197l244 765h96l245 -755q43 -132 58 -207q7 42 21 102.5t26 104.5l223 755h123l-329 -1069h-125l-239 743q-31 100 -52 174q-24 -88 -48 -166l-236 -751h-125z" />
    <glyph glyph-name="wacute" unicode="&#x1e83;" horiz-adv-x="1514" 
d="M13 1069h121l223 -754q43 -142 55 -208q10 62 53 197l244 765h96l245 -755q43 -132 58 -207q7 42 21 102.5t26 104.5l223 755h123l-329 -1069h-125l-239 743q-31 100 -52 174q-24 -88 -48 -166l-236 -751h-125zM621 1241l248 313l161 -24l-326 -312z" />
    <glyph glyph-name="wcircumflex" unicode="&#x175;" horiz-adv-x="1514" 
d="M13 1069h121l223 -754q43 -142 55 -208q10 62 53 197l244 765h96l245 -755q43 -132 58 -207q7 42 21 102.5t26 104.5l223 755h123l-329 -1069h-125l-239 743q-31 100 -52 174q-24 -88 -48 -166l-236 -751h-125zM443 1251l242 298h144l241 -298l-84 -22l-229 228
l-228 -228z" />
    <glyph glyph-name="wdieresis" unicode="&#x1e85;" horiz-adv-x="1514" 
d="M13 1069h121l223 -754q43 -142 55 -208q10 62 53 197l244 765h96l245 -755q43 -132 58 -207q7 42 21 102.5t26 104.5l223 755h123l-329 -1069h-125l-239 743q-31 100 -52 174q-24 -88 -48 -166l-236 -751h-125zM505.5 1316.5q-25.5 24.5 -25.5 64.5q0 38 26 63t64 25
t63.5 -25t25.5 -63q0 -39 -25.5 -64t-63.5 -25q-39 0 -64.5 24.5zM877 1316.5q-25 24.5 -25 64.5q0 38 25 63t65 25q38 0 63.5 -25.5t25.5 -62.5q0 -38 -26 -63.5t-63 -25.5q-40 0 -65 24.5z" />
    <glyph glyph-name="wgrave" unicode="&#x1e81;" horiz-adv-x="1514" 
d="M13 1069h121l223 -754q43 -142 55 -208q10 62 53 197l244 765h96l245 -755q43 -132 58 -207q7 42 21 102.5t26 104.5l223 755h123l-329 -1069h-125l-239 743q-31 100 -52 174q-24 -88 -48 -166l-236 -751h-125zM479 1530l161 24l248 -313l-82 -23z" />
    <glyph glyph-name="x" unicode="x" horiz-adv-x="937" 
d="M400 549l-364 520h134l298 -438l285 438h132l-351 -519l390 -550h-133l-324 472l-321 -472h-133z" />
    <glyph glyph-name="y" unicode="y" horiz-adv-x="960" 
d="M-39 -425l25 99q22 -7 61 -14t70 -7q66 0 116 36t88 99t77 160l27 67l-409 1054h128l255 -684q65 -174 84 -254q25 77 74 216l9 26l252 696h129l-429 -1120q-54 -141 -106.5 -226t-123.5 -129.5t-173 -44.5q-82 0 -154 26z" />
    <glyph glyph-name="yacute" unicode="&#xfd;" horiz-adv-x="960" 
d="M-39 -425l25 99q22 -7 61 -14t70 -7q66 0 116 36t88 99t77 160l27 67l-409 1054h128l255 -684q65 -174 84 -254q25 77 74 216l9 26l252 696h129l-429 -1120q-54 -141 -106.5 -226t-123.5 -129.5t-173 -44.5q-82 0 -154 26zM362 1241l248 313l161 -24l-326 -312z" />
    <glyph glyph-name="ycircumflex" unicode="&#x177;" horiz-adv-x="960" 
d="M-39 -425l25 99q22 -7 61 -14t70 -7q66 0 116 36t88 99t77 160l27 67l-409 1054h128l255 -684q65 -174 84 -254q25 77 74 216l9 26l252 696h129l-429 -1120q-54 -141 -106.5 -226t-123.5 -129.5t-173 -44.5q-82 0 -154 26zM184 1251l242 298h144l241 -298l-84 -22
l-229 228l-228 -228z" />
    <glyph glyph-name="ydieresis" unicode="&#xff;" horiz-adv-x="960" 
d="M-39 -425l25 99q22 -7 61 -14t70 -7q66 0 116 36t88 99t77 160l27 67l-409 1054h128l255 -684q65 -174 84 -254q25 77 74 216l9 26l252 696h129l-429 -1120q-54 -141 -106.5 -226t-123.5 -129.5t-173 -44.5q-82 0 -154 26zM246.5 1316.5q-25.5 24.5 -25.5 64.5
q0 38 26 63t64 25t63.5 -25t25.5 -63q0 -39 -25.5 -64t-63.5 -25q-39 0 -64.5 24.5zM618 1316.5q-25 24.5 -25 64.5q0 38 25 63t65 25q38 0 63.5 -25.5t25.5 -62.5q0 -38 -26 -63.5t-63 -25.5q-40 0 -65 24.5z" />
    <glyph glyph-name="ygrave" unicode="&#x1ef3;" horiz-adv-x="960" 
d="M-39 -425l25 99q22 -7 61 -14t70 -7q66 0 116 36t88 99t77 160l27 67l-409 1054h128l255 -684q65 -174 84 -254q25 77 74 216l9 26l252 696h129l-429 -1120q-54 -141 -106.5 -226t-123.5 -129.5t-173 -44.5q-82 0 -154 26zM220 1530l161 24l248 -313l-82 -23z" />
    <glyph glyph-name="z" unicode="z" horiz-adv-x="928" 
d="M885 96l-20 -96h-811v79l635 891h-602l17 99h745l-12 -81l-633 -892h681z" />
    <glyph glyph-name="zacute" unicode="&#x17a;" horiz-adv-x="928" 
d="M885 96l-20 -96h-811v79l635 891h-602l17 99h745l-12 -81l-633 -892h681zM334 1241l248 313l161 -24l-326 -312z" />
    <glyph glyph-name="zcaron" unicode="&#x17e;" horiz-adv-x="928" 
d="M885 96l-20 -96h-811v79l635 891h-602l17 99h745l-12 -81l-633 -892h681zM782 1539l-242 -298h-144l-241 298l84 22l229 -228l228 228z" />
    <glyph glyph-name="zdotaccent" unicode="&#x17c;" horiz-adv-x="928" 
d="M885 96l-20 -96h-811v79l635 891h-602l17 99h745l-12 -81l-633 -892h681zM404.5 1309.5q-25.5 25.5 -25.5 66.5q0 40 25.5 64.5t63.5 24.5t64.5 -24.5t26.5 -64.5t-26.5 -66t-64.5 -26t-63.5 25.5z" />
    <glyph glyph-name="g.alt1" horiz-adv-x="1067" 
d="M1026 -86q0 -114 -70 -196.5t-191.5 -125.5t-272.5 -43q-132 0 -227.5 33t-146 94.5t-50.5 146.5q0 95 62 162t172 117q-57 18 -94.5 55t-37.5 89q0 50 30.5 86.5t105.5 77.5q-73 42 -124 123t-51 191q0 100 43.5 182.5t127 131t197.5 48.5q60 0 111 -12.5t87 -28.5
l337 46l-19 -120h-244q48 -40 73.5 -105t25.5 -140q0 -100 -44 -181t-128.5 -128.5t-201.5 -47.5q-53 0 -103 10q-59 -24 -86 -48t-27 -57q0 -43 44 -66t125 -27l241 -9q336 -13 336 -258zM368.5 965.5q-58.5 -31.5 -91.5 -92t-33 -145.5q0 -82 31.5 -143t89.5 -94t137 -33
q120 0 189 72t69 196q0 83 -31.5 144t-90 94t-136.5 33q-75 0 -133.5 -31.5zM713 -319.5q93 30.5 144 87t51 131.5q0 86 -59.5 120t-144.5 41q-101 11 -310 20q-101 -43 -155.5 -106.5t-54.5 -136.5q0 -87 78.5 -137t234.5 -50q123 0 216 30.5z" />
    <glyph glyph-name="f_i" horiz-adv-x="1143" 
d="M247 970h-170l21 85l149 14v125q0 190 67 275t201 85q47 0 96.5 -9.5t88.5 -24.5l-25 -93q-80 26 -148 26q-54 0 -89.5 -24t-54 -82t-18.5 -157v-121h276l-21 -99h-255v-970h-118v970zM845 1069h118v-1069h-118v1069zM839.5 1309.5q-25.5 25.5 -25.5 66.5q0 40 25.5 64.5
t63.5 24.5t64.5 -24.5t26.5 -64.5t-26.5 -66t-64.5 -26t-63.5 25.5z" />
    <glyph glyph-name="f_l" horiz-adv-x="1173" 
d="M247 970h-170l21 85l149 14v125q0 190 67 275t201 85q47 0 96.5 -9.5t88.5 -24.5l-25 -93q-80 26 -148 26q-54 0 -89.5 -24t-54 -82t-18.5 -157v-121h276l-21 -99h-255v-970h-118v970zM884 40q-50 58 -50 177v1317l119 20v-1318q0 -82 22.5 -116t80.5 -34q18 0 52 9
l18 -98q-20 -7 -47.5 -11t-49.5 -4q-95 0 -145 58z" />
    <glyph glyph-name="ordfeminine" unicode="&#xaa;" horiz-adv-x="731" 
d="M146 786.5q-61 52.5 -61 149.5q0 95 77.5 156t246.5 61q64 0 133 -10v30q0 105 -43.5 146.5t-124.5 41.5q-51 0 -112.5 -16t-102.5 -36l-16 88q36 19 106 35t133 16q132 0 199.5 -64t67.5 -225v-279q0 -66 6 -131h-99q-9 45 -9 90q-43 -46 -105.5 -75.5t-138.5 -29.5
q-96 0 -157 52.5zM447.5 852q62.5 29 96.5 66v152q-63 8 -124 8q-125 0 -175 -38.5t-50 -102.5q0 -58 34.5 -86t92.5 -28q63 0 125.5 29z" />
    <glyph glyph-name="ordmasculine" unicode="&#xba;" horiz-adv-x="812" 
d="M232 777.5q-74 42.5 -115 122.5t-41 188q0 109 41.5 190.5t116.5 125.5t172 44t171.5 -43.5t116 -123.5t41.5 -187q0 -110 -43 -191.5t-119 -124.5t-171 -43q-96 0 -170 42.5zM565.5 896.5q56.5 73.5 56.5 194.5q0 79 -25.5 140t-74.5 95.5t-117 34.5q-69 0 -118 -35.5
t-73.5 -97t-24.5 -138.5q0 -121 57.5 -194t160.5 -73q102 0 158.5 73.5z" />
    <glyph glyph-name="uni207F" unicode="&#x207f;" horiz-adv-x="851" 
d="M140 1269q0 120 -5 179h99q11 -64 11 -114q57 59 112.5 90.5t133.5 31.5q110 0 171.5 -67.5t61.5 -198.5v-441h-107v418q0 197 -150 197q-66 0 -122 -36t-98 -91v-488h-107v520z" />
    <glyph glyph-name="uni0410" unicode="&#x410;" horiz-adv-x="1294" 
d="M973 459h-658l-181 -459h-133l589 1448h99l604 -1448h-133zM565 1091l-209 -526h574l-210 521q-37 87 -80 206q-24 -68 -75 -201z" />
    <glyph glyph-name="uni0411" unicode="&#x411;" horiz-adv-x="1230" 
d="M891 767.5q107 -47.5 162.5 -135t55.5 -205.5q0 -131 -58.5 -227t-172.5 -148t-277 -52h-393v1448h755l-22 -107h-611v-526h301q153 0 260 -47.5zM886.5 182.5q99.5 77.5 99.5 235.5q0 135 -91.5 213.5t-282.5 78.5h-282v-605h272q185 0 284.5 77.5z" />
    <glyph glyph-name="uni0412" unicode="&#x412;" horiz-adv-x="1201" 
d="M915.5 720.5q77.5 -48.5 121.5 -127.5t44 -183q0 -121 -56 -214t-165 -144.5t-261 -51.5h-391v1448h349q211 0 323.5 -86t112.5 -240q0 -123 -68.5 -210.5t-188.5 -126.5q102 -16 179.5 -64.5zM330 825h211q98 0 172.5 39.5t115 106t40.5 145.5q0 113 -81.5 170
t-237.5 57h-220v-518zM867.5 185q91.5 80 91.5 226q0 150 -102.5 230.5t-291.5 80.5h-235v-617h266q180 0 271.5 80z" />
    <glyph glyph-name="uni0413" unicode="&#x413;" horiz-adv-x="1007" 
d="M208 1448h766l-22 -107h-622v-1341h-122v1448z" />
    <glyph glyph-name="uni0403" unicode="&#x403;" horiz-adv-x="1007" 
d="M208 1448h766l-22 -107h-622v-1341h-122v1448zM454 1556l269 288l161 -24l-354 -286z" />
    <glyph glyph-name="uni0490" unicode="&#x490;" horiz-adv-x="1015" 
d="M982 1775v-434h-652v-1341h-122v1448h648v309z" />
    <glyph glyph-name="uni0414" unicode="&#x414;" horiz-adv-x="1516" 
d="M1435 114v-429l-125 -19v334h-1108v-315l-125 -19v448h111q113 242 170.5 590.5t63.5 743.5h817v-1334h196zM474 664q-55 -328 -160 -550h804v1220h-581q-8 -342 -63 -670z" />
    <glyph glyph-name="uni0415" unicode="&#x415;" horiz-adv-x="1099" 
d="M208 1448h795l-24 -110h-649v-533h616v-109h-616v-585h680l-21 -111h-781v1448z" />
    <glyph glyph-name="uni0400" unicode="&#x400;" horiz-adv-x="1099" 
d="M208 1448h795l-24 -110h-649v-533h616v-109h-616v-585h680l-21 -111h-781v1448zM317 1820l161 24l269 -288l-75 -22z" />
    <glyph glyph-name="uni0401" unicode="&#x401;" horiz-adv-x="1099" 
d="M208 1448h795l-24 -110h-649v-533h616v-109h-616v-585h680l-21 -111h-781v1448zM337 1639q-25 24 -25 64q0 38 25 62t64 24q38 0 63 -24.5t25 -61.5q0 -39 -24.5 -63.5t-63.5 -24.5t-64 24zM754.5 1638.5q-24.5 23.5 -24.5 64.5q0 38 24.5 62t64.5 24q37 0 62.5 -25
t25.5 -61q0 -39 -26 -63.5t-62 -24.5q-40 0 -64.5 23.5z" />
    <glyph glyph-name="uni0416" unicode="&#x416;" horiz-adv-x="1691" 
d="M1122 793l553 -793h-151l-486 711h-131v-711h-122v711h-132l-485 -711h-151l553 793l-306 463q-37 55 -70.5 79t-79.5 24q-39 0 -72 -14l-28 102q56 18 113 18q74 0 123.5 -36.5t95.5 -106.5l340 -502h99v628h122v-628h99l340 502q46 69 95 106t124 37q57 0 113 -18
l-28 -102q-34 14 -72 14q-46 0 -80 -24.5t-70 -78.5z" />
    <glyph glyph-name="uni0417" unicode="&#x417;" horiz-adv-x="1137" 
d="M282 12.5q-116 32.5 -206 97.5l45 109q86 -64 188 -99.5t216 -35.5q115 0 198.5 39t126.5 109t43 160q0 142 -103 223t-304 81h-155v103h120q122 0 207.5 39t128.5 108.5t43 160.5q0 78 -35.5 136.5t-101.5 90t-155 31.5q-112 0 -206.5 -44t-156.5 -104l-47 95
q74 68 179.5 112t235.5 44q125 0 219 -44t144.5 -123.5t50.5 -183.5q0 -140 -82 -232t-220 -125q102 -14 183.5 -59.5t129.5 -125t48 -189.5q0 -120 -60 -212t-171 -143t-259 -51q-128 0 -244 32.5z" />
    <glyph glyph-name="uni0418" unicode="&#x418;" horiz-adv-x="1521" 
d="M1194 0v933q0 169 10 351l-868 -1284h-129v1448h120v-977q0 -170 -7 -294l860 1271h133v-1448h-119z" />
    <glyph glyph-name="uni0419" unicode="&#x419;" horiz-adv-x="1521" 
d="M1194 0v933q0 169 10 351l-868 -1284h-129v1448h120v-977q0 -170 -7 -294l860 1271h133v-1448h-119zM599 1593q-68 37 -105 95.5t-49 127.5h109q16 -83 68.5 -129.5t143.5 -46.5t144 46.5t69 129.5h107q-12 -68 -48 -126.5t-104 -96t-168 -37.5q-99 0 -167 37z" />
    <glyph glyph-name="uni040D" unicode="&#x40d;" horiz-adv-x="1521" 
d="M1194 0v933q0 169 10 351l-868 -1284h-129v1448h120v-977q0 -170 -7 -294l860 1271h133v-1448h-119zM475 1820l161 24l269 -288l-75 -22z" />
    <glyph glyph-name="uni041A" unicode="&#x41a;" horiz-adv-x="1191" 
d="M580 793l594 -793h-150l-528 711h-166v-711h-122v1448h122v-628h134l378 504q57 76 106 108.5t115 32.5q57 0 115 -18l-28 -102q-36 14 -73 14q-43 0 -77.5 -23.5t-73.5 -76.5z" />
    <glyph glyph-name="uni040C" unicode="&#x40c;" horiz-adv-x="1191" 
d="M580 793l594 -793h-150l-528 711h-166v-711h-122v1448h122v-628h134l378 504q57 76 106 108.5t115 32.5q57 0 115 -18l-28 -102q-36 14 -73 14q-43 0 -77.5 -23.5t-73.5 -76.5zM541 1556l269 288l161 -24l-354 -286z" />
    <glyph glyph-name="uni041B" unicode="&#x41b;" horiz-adv-x="1445" 
d="M21 1l18 104q13 -7 33 -12t40 -5q41 0 67.5 25.5t46 86.5t37.5 172q35 210 60 493t36 583h878v-1448h-121v1334h-643q-14 -274 -37 -535t-54 -449q-23 -140 -56 -220.5t-80.5 -116t-117.5 -35.5q-65 0 -107 23z" />
    <glyph glyph-name="uni041C" unicode="&#x41c;" horiz-adv-x="1856" 
d="M413 1035q-38 87 -100 257q3 -52 6 -155t3 -196v-941h-114v1448h147l428 -972q103 -234 139 -350q53 142 145 348l437 974h145v-1448h-121v941q0 150 13 351q-62 -161 -114 -274l-459 -1020h-97z" />
    <glyph glyph-name="uni041D" unicode="&#x41d;" horiz-adv-x="1523" 
d="M208 1448h122v-641h864v641h121v-1448h-121v698h-864v-698h-122v1448z" />
    <glyph glyph-name="uni041E" unicode="&#x41e;" horiz-adv-x="1588" 
d="M416.5 71q-151.5 91 -231.5 256t-80 383q0 228 85.5 400t246 265.5t377.5 93.5q209 0 360 -91t230 -255.5t79 -381.5q0 -232 -86.5 -403.5t-246 -264.5t-374.5 -93q-208 0 -359.5 91zM1099 170q127 82 191 226.5t64 330.5q0 179 -57 321.5t-180.5 227t-314.5 84.5
q-184 0 -312 -85t-192 -229t-64 -320q0 -181 61 -325t185.5 -228.5t308.5 -84.5q183 0 310 82z" />
    <glyph glyph-name="uni041F" unicode="&#x41f;" horiz-adv-x="1512" 
d="M208 1448h1096v-1448h-121v1334h-853v-1334h-122v1448z" />
    <glyph glyph-name="uni0420" unicode="&#x420;" horiz-adv-x="1119" 
d="M208 1448h338q252 0 384.5 -105t132.5 -308q0 -140 -64.5 -247.5t-181.5 -166.5t-271 -59q-106 0 -216 25v-587h-122v1448zM751.5 713q93.5 44 141 125.5t47.5 191.5q0 313 -398 313h-212v-656q106 -18 194 -18q134 0 227.5 44z" />
    <glyph glyph-name="uni0421" unicode="&#x421;" horiz-adv-x="1234" 
d="M402.5 68.5q-149.5 89.5 -223.5 252.5t-74 383q0 224 75 396.5t222.5 270.5t357.5 98q215 0 410 -105l-48 -103q-91 47 -176.5 72.5t-182.5 25.5q-171 0 -289.5 -80t-178.5 -225t-60 -339q0 -185 58.5 -325.5t181.5 -220.5t309 -80q95 0 186 23t185 70l37 -103
q-93 -46 -194 -73t-226 -27q-220 0 -369.5 89.5z" />
    <glyph glyph-name="uni0422" unicode="&#x422;" horiz-adv-x="1111" 
d="M494 1341h-460l21 107h1023l-22 -107h-439v-1341h-123v1341z" />
    <glyph glyph-name="uni0423" unicode="&#x423;" horiz-adv-x="1220" 
d="M1226 1448l-525 -1109l-36 -73q-50 -104 -99.5 -166.5t-108 -92.5t-133.5 -30q-77 0 -123 23l17 105q34 -17 91 -17q54 0 95 18.5t77.5 63t74.5 124.5l23 46l-578 1108h134l507 -991l458 991h126z" />
    <glyph glyph-name="uni040E" unicode="&#x40e;" horiz-adv-x="1220" 
d="M1226 1448l-525 -1109l-36 -73q-50 -104 -99.5 -166.5t-108 -92.5t-133.5 -30q-77 0 -123 23l17 105q34 -17 91 -17q54 0 95 18.5t77.5 63t74.5 124.5l23 46l-578 1108h134l507 -991l458 991h126zM461 1593q-68 37 -105 95.5t-49 127.5h109q16 -83 68.5 -129.5
t143.5 -46.5t144 46.5t69 129.5h107q-12 -68 -48 -126.5t-104 -96t-168 -37.5q-99 0 -167 37z" />
    <glyph glyph-name="uni0424" unicode="&#x424;" horiz-adv-x="1650" 
d="M1466.5 430.5q-78.5 -133.5 -226.5 -211t-354 -89.5v-130h-122v129q-210 7 -358 81t-224.5 202t-76.5 297q0 176 77.5 308.5t225.5 210t356 90.5v130h122v-129q211 -7 359 -80t224 -200.5t76 -295.5q0 -179 -78.5 -312.5zM1180 304.5q119 66.5 177.5 175t58.5 245.5
t-53.5 245.5t-171.5 176t-305 76.5v-996q175 11 294 77.5zM290.5 480.5q56.5 -109.5 175 -177t298.5 -77.5v996q-175 -12 -294 -82t-177.5 -178t-58.5 -235q0 -137 56.5 -246.5z" />
    <glyph glyph-name="uni0425" unicode="&#x425;" horiz-adv-x="1115" 
d="M488 739l-450 709h141l377 -610l385 610h136l-447 -700l484 -748h-145l-407 653l-425 -653h-136z" />
    <glyph glyph-name="uni0427" unicode="&#x427;" horiz-adv-x="1346" 
d="M1139 1448v-1448h-122v536q-70 -34 -170 -58.5t-213 -24.5q-208 0 -322.5 116t-114.5 333v546h120v-518q0 -182 86 -275.5t254 -93.5q110 0 201.5 25t158.5 60v802h122z" />
    <glyph glyph-name="uni0426" unicode="&#x426;" horiz-adv-x="1600" 
d="M1518 114v-422l-126 -20v328h-1184v1448h121v-1334h853v1334h122v-1334h214z" />
    <glyph glyph-name="uni0428" unicode="&#x428;" horiz-adv-x="2071" 
d="M1863 1448v-1448h-1655v1448h120v-1334h646v1334h122v-1334h644v1334h123z" />
    <glyph glyph-name="uni0429" unicode="&#x429;" horiz-adv-x="2156" 
d="M2074 114v-422l-126 -20v328h-1740v1448h120v-1334h646v1334h122v-1334h644v1334h123v-1334h211z" />
    <glyph glyph-name="uni040F" unicode="&#x40f;" horiz-adv-x="1512" 
d="M1304 0h-480v-308l-126 -20v328h-490v1448h121v-1334h853v1334h122v-1448z" />
    <glyph glyph-name="uni042C" unicode="&#x42c;" horiz-adv-x="1200" 
d="M208 1448h122v-633h301q153 0 260 -47.5t162.5 -135t55.5 -205.5q0 -131 -58.5 -227t-172.5 -148t-277 -52h-393v1448zM602 105q185 0 284.5 77.5t99.5 235.5q0 135 -91.5 213.5t-282.5 78.5h-282v-605h272z" />
    <glyph glyph-name="uni042A" unicode="&#x42a;" horiz-adv-x="1489" 
d="M1180 767.5q107 -47.5 162.5 -135t55.5 -205.5q0 -131 -58.5 -227t-172.5 -148t-277 -52h-393v1341h-463l21 107h564v-633h301q153 0 260 -47.5zM1175.5 182.5q99.5 77.5 99.5 235.5q0 135 -91.5 213.5t-282.5 78.5h-282v-605h272q185 0 284.5 77.5z" />
    <glyph glyph-name="uni042B" unicode="&#x42b;" horiz-adv-x="1644" 
d="M208 1448h122v-633h301q153 0 260 -47.5t162.5 -135t55.5 -205.5q0 -131 -58.5 -227t-172.5 -148t-277 -52h-393v1448zM602 105q185 0 284.5 77.5t99.5 235.5q0 135 -91.5 213.5t-282.5 78.5h-282v-605h272zM1315 1448h122v-1448h-122v1448z" />
    <glyph glyph-name="uni0409" unicode="&#x409;" horiz-adv-x="2105" 
d="M1796 767.5q107 -47.5 162.5 -135t55.5 -205.5q0 -131 -58.5 -227t-172.5 -148t-277 -52h-393v1334h-640q-14 -274 -37 -535t-54 -449q-23 -140 -56 -220.5t-80.5 -116t-117.5 -35.5q-65 0 -107 23l18 104q13 -7 33 -12t40 -5q41 0 67.5 25.5t46 86.5t37.5 172
q35 210 60 493t36 583h878v-633h299q153 0 260 -47.5zM1791.5 182.5q99.5 77.5 99.5 235.5q0 135 -91.5 213.5t-282.5 78.5h-280v-605h270q185 0 284.5 77.5z" />
    <glyph glyph-name="uni040A" unicode="&#x40a;" horiz-adv-x="2121" 
d="M1812 767.5q107 -47.5 162.5 -135t55.5 -205.5q0 -131 -58.5 -227t-172.5 -148t-277 -52h-393v698h-799v-698h-122v1448h122v-641h799v641h122v-633h301q153 0 260 -47.5zM1807.5 182.5q99.5 77.5 99.5 235.5q0 135 -91.5 213.5t-282.5 78.5h-282v-605h272
q185 0 284.5 77.5z" />
    <glyph glyph-name="uni0405" unicode="&#x405;" horiz-adv-x="1068" 
d="M293 6q-106 26 -198 74l47 106q88 -47 187.5 -73.5t191.5 -26.5q110 0 184.5 37t110.5 100.5t36 143.5q0 86 -42.5 143t-108 93t-179.5 83q-128 53 -208.5 99.5t-136 124.5t-55.5 193q0 107 50.5 190t148.5 129.5t234 46.5q102 0 199 -24t167 -62l-26 -104
q-176 83 -338 83q-145 0 -230 -64.5t-85 -186.5q0 -84 41 -140.5t110.5 -96t191.5 -89.5q131 -54 208.5 -99t128.5 -120.5t51 -191.5q0 -118 -54 -207t-159 -138t-252 -49q-109 0 -215 26z" />
    <glyph glyph-name="uni0404" unicode="&#x404;" horiz-adv-x="1245" 
d="M1192 79q-93 -46 -194 -73t-226 -27q-220 0 -369.5 89.5t-223.5 252.5t-74 383q0 224 75 396.5t222.5 270.5t357.5 98q215 0 410 -105l-48 -103q-91 47 -176.5 72.5t-182.5 25.5q-161 0 -275.5 -71t-177.5 -200.5t-73 -305.5h761v-109h-762q6 -174 67 -305t181.5 -205
t299.5 -74q95 0 186 23t185 70z" />
    <glyph glyph-name="uni042D" unicode="&#x42d;" horiz-adv-x="1245" 
d="M984 1277.5q156 -191.5 156 -534.5q0 -225 -74.5 -397t-224.5 -269.5t-371 -97.5q-124 0 -224 27t-193 73l37 103q185 -93 381 -93q175 0 293 74.5t177.5 205.5t67.5 304h-761v109h761q-12 275 -138.5 426t-369.5 151q-188 0 -377 -98l-44 103q85 46 199 75.5t232 29.5
q317 0 473 -191.5z" />
    <glyph glyph-name="uni0406" unicode="&#x406;" horiz-adv-x="537" 
d="M208 1448h122v-1448h-122v1448z" />
    <glyph glyph-name="uni0407" unicode="&#x407;" horiz-adv-x="537" 
d="M208 1448h122v-1448h-122v1448zM32.5 1639.5q-23.5 22.5 -23.5 61.5q0 36 24 58.5t60 22.5q37 0 60.5 -23t23.5 -58q0 -38 -23.5 -61t-60.5 -23t-60.5 22.5zM383.5 1639.5q-23.5 22.5 -23.5 61.5q0 36 23.5 58.5t60.5 22.5q36 0 60 -23t24 -58q0 -37 -24.5 -60.5
t-59.5 -23.5q-37 0 -60.5 22.5z" />
    <glyph glyph-name="uni0408" unicode="&#x408;" horiz-adv-x="648" 
d="M13 2l17 102q37 -11 85 -11q83 0 129.5 40t64.5 115.5t18 193.5v1006h121v-1011q0 -221 -74 -336t-249 -115q-58 0 -112 16z" />
    <glyph glyph-name="uni040B" unicode="&#x40b;" horiz-adv-x="1615" 
d="M1207.5 824q106.5 -52 164.5 -153t58 -245v-426h-121v398q0 182 -95 276t-280 94q-97 0 -179.5 -22t-145.5 -54v-692h-122v1341h-458l23 107h1002l-24 -107h-421v-539q65 31 156.5 52.5t191.5 21.5q144 0 250.5 -52z" />
    <glyph glyph-name="uni042E" unicode="&#x42e;" horiz-adv-x="2057" 
d="M1661.5 1377.5q142.5 -90.5 216.5 -254t74 -380.5q0 -233 -81 -405t-231.5 -265t-354.5 -93q-198 0 -340 89.5t-217.5 251.5t-77.5 377h-320v-698h-122v1448h122v-641h324q16 202 100.5 351t229 229.5t336.5 80.5q199 0 341.5 -90.5zM1587 170q118 82 176.5 226t58.5 329
q0 182 -51.5 324.5t-166 226.5t-295.5 84q-173 0 -292.5 -85t-178.5 -228.5t-59 -319.5q0 -186 55.5 -330t172 -226.5t290.5 -82.5q172 0 290 82z" />
    <glyph glyph-name="uni042F" unicode="&#x42f;" horiz-adv-x="1193" 
d="M449 618q-135 47 -223.5 141.5t-88.5 268.5q0 134 60 228.5t168 143t252 48.5h366v-1448h-122v609h-273l-419 -609h-150zM861 714v629h-226q-175 0 -273.5 -76.5t-98.5 -235.5q0 -146 84.5 -231.5t242.5 -85.5h271z" />
    <glyph glyph-name="uni0402" unicode="&#x402;" horiz-adv-x="1487" 
d="M1177 851q109 -57 164.5 -159t55.5 -236q0 -136 -56 -245t-160 -171t-241 -62q-93 0 -167 18l21 105q70 -20 148 -20q105 0 180 47t113 129.5t38 188.5q0 168 -96 263.5t-284 95.5q-77 0 -144 -14.5t-132 -44.5v-746h-123v1341h-460l21 107h1023l-22 -107h-439v-490
q130 57 296 57q155 0 264 -57z" />
    <glyph glyph-name="uni0430" unicode="&#x430;" horiz-adv-x="1102" 
d="M826 0q-5 27 -9 74t-5 80q-63 -73 -164.5 -123.5t-221.5 -50.5q-94 0 -166 35t-112.5 103.5t-40.5 166.5q0 154 112 247.5t367 93.5q102 0 220 -14v43q0 185 -72 260.5t-202 75.5q-81 0 -167.5 -23.5t-147.5 -54.5l-25 96q54 30 151.5 55.5t203.5 25.5q120 0 203 -42
t129 -141.5t46 -268.5v-435q0 -67 8 -203h-107zM586.5 104q70.5 24 128 63.5t91.5 84.5v274q-103 13 -206 13q-207 0 -289 -68t-82 -182q0 -106 58.5 -157.5t157.5 -51.5q71 0 141.5 24z" />
    <glyph glyph-name="uni0431" unicode="&#x431;" horiz-adv-x="1178" 
d="M325.5 51q-111.5 72 -173 222.5t-61.5 378.5q0 222 36.5 361t91 209.5t127.5 116.5q51 32 128.5 54.5t184.5 44.5q40 8 76.5 17t54.5 16q51 20 84 38.5t59 40.5l49 -98q-39 -40 -136 -80q-24 -11 -62 -20t-103 -23q-104 -23 -170 -41.5t-107 -45.5q-76 -47 -117.5 -132.5
t-58.5 -209.5q64 52 169 92t223 40q146 0 250 -63t158.5 -177t54.5 -263q0 -167 -61.5 -291t-173 -191.5t-259.5 -67.5q-152 0 -263.5 72zM786.5 134.5q83.5 53.5 129 152.5t45.5 234q0 184 -91.5 292.5t-269.5 108.5q-115 0 -212.5 -40.5t-163.5 -91.5q-6 -59 -6 -155
q0 -191 48 -315t131.5 -181.5t193.5 -57.5q112 0 195.5 53.5z" />
    <glyph glyph-name="uni0432" unicode="&#x432;" horiz-adv-x="1074" 
d="M169 1069h392q165 0 252 -65.5t87 -182.5q0 -90 -50.5 -151t-138.5 -91q122 -17 195 -85t73 -187q0 -89 -44 -158.5t-128 -109t-199 -39.5h-439v1069zM540 613q68 0 122.5 26t85 71t30.5 101q0 164 -237 164h-251v-362h250zM592 94q127 0 194.5 56.5t67.5 154.5
q0 103 -75.5 158t-211.5 55h-277v-424h302z" />
    <glyph glyph-name="uni0433" unicode="&#x433;" horiz-adv-x="824" 
d="M169 1069h609l-23 -99h-461v-970h-125v1069z" />
    <glyph glyph-name="uni0453" unicode="&#x453;" horiz-adv-x="824" 
d="M169 1069h609l-23 -99h-461v-970h-125v1069zM302 1241l248 313l161 -24l-326 -312z" />
    <glyph glyph-name="uni0491" unicode="&#x491;" horiz-adv-x="842" 
d="M795 1300v-330h-501v-970h-125v1069h509v211z" />
    <glyph glyph-name="uni0434" unicode="&#x434;" horiz-adv-x="1223" 
d="M1184 108v-397l-116 -19v308h-913v-289l-115 -19v416h115q95 197 140 438t49 523h691v-961h149zM409.5 522q-43.5 -228 -125.5 -414h631v859h-459q-3 -217 -46.5 -445z" />
    <glyph glyph-name="uni0435" unicode="&#x435;" horiz-adv-x="1052" 
d="M216 555v-22q0 -220 99.5 -336t288.5 -116q80 0 158 19t144 52l30 -90q-73 -39 -158 -60.5t-198 -21.5q-156 0 -264.5 65t-164.5 188t-56 295q0 175 57 302t159.5 193.5t237.5 66.5q136 0 228 -67t136 -175t44 -234v-59h-741zM329 906q-84 -89 -106 -255h611
q-10 169 -86 256.5t-205 87.5q-130 0 -214 -89z" />
    <glyph glyph-name="uni0450" unicode="&#x450;" horiz-adv-x="1052" 
d="M216 555v-22q0 -220 99.5 -336t288.5 -116q80 0 158 19t144 52l30 -90q-73 -39 -158 -60.5t-198 -21.5q-156 0 -264.5 65t-164.5 188t-56 295q0 175 57 302t159.5 193.5t237.5 66.5q136 0 228 -67t136 -175t44 -234v-59h-741zM329 906q-84 -89 -106 -255h611
q-10 169 -86 256.5t-205 87.5q-130 0 -214 -89zM270 1530l161 24l248 -313l-82 -23z" />
    <glyph glyph-name="uni0451" unicode="&#x451;" horiz-adv-x="1052" 
d="M216 555v-22q0 -220 99.5 -336t288.5 -116q80 0 158 19t144 52l30 -90q-73 -39 -158 -60.5t-198 -21.5q-156 0 -264.5 65t-164.5 188t-56 295q0 175 57 302t159.5 193.5t237.5 66.5q136 0 228 -67t136 -175t44 -234v-59h-741zM329 906q-84 -89 -106 -255h611
q-10 169 -86 256.5t-205 87.5q-130 0 -214 -89zM296.5 1316.5q-25.5 24.5 -25.5 64.5q0 38 26 63t64 25t63.5 -25t25.5 -63q0 -39 -25.5 -64t-63.5 -25q-39 0 -64.5 24.5zM668 1316.5q-25 24.5 -25 64.5q0 38 25 63t65 25q38 0 63.5 -25.5t25.5 -62.5q0 -38 -26 -63.5
t-63 -25.5q-40 0 -65 24.5z" />
    <glyph glyph-name="uni0436" unicode="&#x436;" horiz-adv-x="1383" 
d="M1369 0h-145l-367 506h-106v-506h-118v506h-107l-366 -506h-146l436 586l-189 285q-43 65 -75 88.5t-75 23.5q-17 0 -35.5 -3.5t-30.5 -8.5l-14 102q47 15 84 15q63 0 108.5 -29t91.5 -94l237 -345h81v449h118v-449h81l237 345q45 65 91 94t109 29q38 0 83 -15l-14 -102
q-11 5 -29.5 8.5t-35.5 3.5q-44 0 -77 -25.5t-73 -86.5l-190 -285z" />
    <glyph glyph-name="uni0437" unicode="&#x437;" horiz-adv-x="907" 
d="M46 51l40 104q149 -72 319 -72q138 0 214.5 57t76.5 157q0 103 -86.5 154.5t-250.5 51.5h-105v98h72q94 0 165 25t110.5 73t39.5 116q0 86 -62 132t-171 46q-81 0 -154.5 -29t-124.5 -68l-40 89q149 105 332 105q97 0 173.5 -32.5t119 -92t42.5 -136.5q0 -104 -63.5 -173
t-169.5 -90q131 -12 210 -78t79 -189q0 -95 -49 -167t-141.5 -112t-220.5 -40q-207 0 -355 71z" />
    <glyph glyph-name="uni0438" unicode="&#x438;" horiz-adv-x="1173" 
d="M169 1069h119v-892l597 892h119v-1069h-119v886l-597 -886h-119v1069z" />
    <glyph glyph-name="uni0439" unicode="&#x439;" horiz-adv-x="1173" 
d="M169 1069h119v-892l597 892h119v-1069h-119v886l-597 -886h-119v1069zM367 1347.5q-75 77.5 -91 195.5h109q16 -95 63.5 -144.5t137.5 -49.5q171 0 200 194h108q-15 -117 -89 -195t-219 -78q-144 0 -219 77.5z" />
    <glyph glyph-name="uni045D" unicode="&#x45d;" horiz-adv-x="1173" 
d="M169 1069h119v-892l597 892h119v-1069h-119v886l-597 -886h-119v1069zM310 1530l161 24l248 -313l-82 -23z" />
    <glyph glyph-name="uni043A" unicode="&#x43a;" horiz-adv-x="1008" 
d="M993 0h-145l-413 506h-147v-506h-119v1069h119v-449h121l275 347q51 62 97.5 91.5t104.5 29.5q40 0 85 -15l-14 -102q-11 5 -30 8.5t-34 3.5q-37 0 -72.5 -24t-82.5 -85l-222 -290z" />
    <glyph glyph-name="uni045C" unicode="&#x45c;" horiz-adv-x="1008" 
d="M993 0h-145l-413 506h-147v-506h-119v1069h119v-449h121l275 347q51 62 97.5 91.5t104.5 29.5q40 0 85 -15l-14 -102q-11 5 -30 8.5t-34 3.5q-37 0 -72.5 -24t-82.5 -85l-222 -290zM417 1241l248 313l161 -24l-326 -312z" />
    <glyph glyph-name="uni043B" unicode="&#x43b;" horiz-adv-x="1162" 
d="M4 -2l13 102q30 -14 64 -14q33 0 55 21t38.5 68.5t30.5 130.5q74 440 107 763h681v-1069h-120v967h-455q-36 -300 -103 -689q-19 -112 -47.5 -176.5t-68 -92t-95.5 -27.5q-57 0 -100 16z" />
    <glyph glyph-name="uni043C" unicode="&#x43c;" horiz-adv-x="1475" 
d="M169 1069h144l333 -701q50 -105 93 -215q48 106 100 213l336 703h131v-1069h-118v610q0 155 9 279q-54 -131 -108 -240l-312 -650h-82l-327 685q-42 86 -90 205q8 -134 8 -309v-580h-117v1069z" />
    <glyph glyph-name="uni043D" unicode="&#x43d;" horiz-adv-x="1167" 
d="M169 1069h119v-466h591v466h119v-1069h-119v495h-591v-495h-119v1069z" />
    <glyph glyph-name="uni043E" unicode="&#x43e;" horiz-adv-x="1169" 
d="M329 45.5q-110 65.5 -172 189t-62 292.5t62 296.5t173.5 197t256.5 69.5q142 0 252.5 -68.5t172.5 -194.5t62 -293q0 -170 -64 -295.5t-176.5 -192t-253.5 -66.5t-251 65.5zM786 135.5q81 54.5 122 154.5t41 234q0 138 -42.5 243t-125.5 164t-201 59q-117 0 -198.5 -57.5
t-122 -160t-40.5 -235.5q0 -141 44 -243.5t127.5 -157.5t199.5 -55q115 0 196 54.5z" />
    <glyph glyph-name="uni043F" unicode="&#x43f;" horiz-adv-x="1172" 
d="M169 1069h834v-1069h-119v961h-596v-961h-119v1069z" />
    <glyph glyph-name="uni0440" unicode="&#x440;" horiz-adv-x="1144" 
d="M178 816q0 126 -9 253h107q13 -75 16 -137q73 69 158.5 113.5t190.5 44.5q110 0 202.5 -55.5t149 -175t56.5 -301.5q0 -180 -58 -310t-167.5 -199t-262.5 -69q-72 0 -143 13.5t-122 33.5v-457l-118 -21v1267zM829.5 201.5q95.5 123.5 95.5 353.5q0 152 -40 249
t-108 140.5t-155 43.5q-172 0 -326 -160v-701q55 -23 120 -36t127 -13q191 0 286.5 123.5z" />
    <glyph glyph-name="uni0441" unicode="&#x441;" horiz-adv-x="908" 
d="M305.5 42q-102.5 62 -156.5 180t-54 283q0 172 58.5 305t167 206.5t253.5 73.5q78 0 157 -20t139 -52l-37 -95q-58 29 -127.5 47t-132.5 18q-112 0 -191.5 -59t-121 -165.5t-41.5 -249.5q0 -211 90.5 -321t262.5 -110q122 0 257 60l28 -92q-66 -32 -144.5 -51.5
t-161.5 -19.5q-143 0 -245.5 62z" />
    <glyph glyph-name="uni0442" unicode="&#x442;" horiz-adv-x="918" 
d="M399 970h-364l22 99h826l-22 -99h-343v-970h-119v970z" />
    <glyph glyph-name="uni0443" unicode="&#x443;" horiz-adv-x="960" 
d="M-39 -425l25 99q22 -7 61 -14t70 -7q66 0 116 36t88 99t77 160l27 67l-409 1054h128l255 -684q65 -174 84 -254q25 77 74 216l9 26l252 696h129l-429 -1120q-54 -141 -106.5 -226t-123.5 -129.5t-173 -44.5q-82 0 -154 26z" />
    <glyph glyph-name="uni045E" unicode="&#x45e;" horiz-adv-x="960" 
d="M-39 -425l25 99q22 -7 61 -14t70 -7q66 0 116 36t88 99t77 160l27 67l-409 1054h128l255 -684q65 -174 84 -254q25 77 74 216l9 26l252 696h129l-429 -1120q-54 -141 -106.5 -226t-123.5 -129.5t-173 -44.5q-82 0 -154 26zM265 1347.5q-75 77.5 -91 195.5h109
q16 -95 63.5 -144.5t137.5 -49.5q171 0 200 194h108q-15 -117 -89 -195t-219 -78q-144 0 -219 77.5z" />
    <glyph glyph-name="uni0444" unicode="&#x444;" horiz-adv-x="1753" 
d="M817 89q-74 -50 -150 -79.5t-179 -29.5q-107 0 -196 56t-143 175.5t-54 300.5q0 176 55.5 306.5t160.5 201t249 70.5q71 0 126.5 -20t130.5 -61v525l119 20v-575q74 51 151 81t178 30q107 0 196 -56.5t143 -176t54 -300.5q0 -177 -55.5 -307t-160 -200t-249.5 -70
q-73 0 -130 19.5t-127 58.5v-488l-119 -21v540zM674.5 110q70.5 30 142.5 80v710q-72 45 -128.5 67t-128.5 22q-109 0 -185.5 -56t-116 -163t-39.5 -257q0 -223 80.5 -328t212.5 -105q92 0 162.5 30zM1377.5 136q76.5 56 116.5 163t40 257q0 223 -81 328t-212 105
q-89 0 -160.5 -30t-144.5 -81v-711q70 -44 127.5 -65.5t129.5 -21.5q108 0 184.5 56z" />
    <glyph glyph-name="uni0445" unicode="&#x445;" horiz-adv-x="937" 
d="M400 549l-364 520h134l298 -438l285 438h132l-351 -519l390 -550h-133l-324 472l-321 -472h-133z" />
    <glyph glyph-name="uni0447" unicode="&#x447;" horiz-adv-x="1166" 
d="M238 450.5q-79 101.5 -79 306.5v312h117v-307q0 -160 59 -235t173 -75q101 0 195 54.5t167 135.5v427h119v-1069h-119v533q-87 -84 -178 -134t-209 -50q-166 0 -245 101.5z" />
    <glyph glyph-name="uni0446" unicode="&#x446;" horiz-adv-x="1225" 
d="M1185 108v-389l-116 -19v300h-900v1069h119v-961h596v961h119v-961h182z" />
    <glyph glyph-name="uni0448" unicode="&#x448;" horiz-adv-x="1683" 
d="M1514 1069v-1069h-1345v1069h119v-961h494v961h119v-961h494v961h119z" />
    <glyph glyph-name="uni0449" unicode="&#x449;" horiz-adv-x="1728" 
d="M1689 108v-389l-118 -19v300h-1402v1069h119v-961h494v961h119v-961h494v961h119v-961h175z" />
    <glyph glyph-name="uni045F" unicode="&#x45f;" horiz-adv-x="1172" 
d="M1003 0h-354v-281l-117 -19v300h-363v1069h119v-961h596v961h119v-1069z" />
    <glyph glyph-name="uni044C" unicode="&#x44c;" horiz-adv-x="1073" 
d="M290 613h340q170 0 259.5 -76t89.5 -219q0 -91 -42.5 -163t-125.5 -113.5t-199 -41.5h-443v1069h121v-456zM596 94q133 0 195.5 59t62.5 163q0 202 -249 202h-315v-424h306z" />
    <glyph glyph-name="uni044A" unicode="&#x44a;" horiz-adv-x="1360" 
d="M1176.5 537q89.5 -76 89.5 -219q0 -91 -42.5 -163t-125.5 -113.5t-199 -41.5h-443v969h-413l19 100h515v-456h340q170 0 259.5 -76zM1078.5 153q62.5 59 62.5 163q0 202 -249 202h-315v-424h306q133 0 195.5 59z" />
    <glyph glyph-name="uni044B" unicode="&#x44b;" horiz-adv-x="1458" 
d="M290 613h340q170 0 259.5 -76t89.5 -219q0 -91 -42.5 -163t-125.5 -113.5t-199 -41.5h-443v1069h121v-456zM596 94q133 0 195.5 59t62.5 163q0 202 -249 202h-315v-424h306zM1171 1069h118v-1069h-118v1069z" />
    <glyph glyph-name="uni0459" unicode="&#x459;" horiz-adv-x="1777" 
d="M1592.5 537q89.5 -76 89.5 -219q0 -91 -42.5 -163t-125.5 -113.5t-199 -41.5h-443v967h-454q-36 -300 -103 -689q-19 -112 -47.5 -176.5t-68 -92t-95.5 -27.5q-57 0 -100 16l13 102q30 -14 64 -14q33 0 55 21t38.5 68.5t30.5 130.5q74 440 107 763h681v-456h340
q170 0 259.5 -76zM1494.5 153q62.5 59 62.5 163q0 202 -249 202h-315v-424h306q133 0 195.5 59z" />
    <glyph glyph-name="uni045A" unicode="&#x45a;" horiz-adv-x="1781" 
d="M1596.5 537q89.5 -76 89.5 -219q0 -91 -42.5 -163t-125.5 -113.5t-199 -41.5h-443v495h-588v-495h-119v1069h119v-466h588v466h122v-456h339q170 0 259.5 -76zM1498.5 153q62.5 59 62.5 163q0 202 -249 202h-314v-424h305q133 0 195.5 59z" />
    <glyph glyph-name="uni0455" unicode="&#x455;" horiz-adv-x="838" 
d="M211 -2q-78 18 -136 46l33 99q55 -29 128 -45.5t145 -16.5q131 0 200 55t69 148q0 58 -29.5 97t-83 67.5t-157.5 70.5q-99 40 -160.5 79.5t-94 92t-32.5 127.5q0 82 38.5 143.5t114 95t182.5 33.5q147 0 300 -71l-27 -94q-132 67 -268 67q-109 0 -167 -45t-58 -120
q0 -51 28.5 -86t78 -60.5t149.5 -67.5q103 -44 162 -78.5t98 -92t39 -145.5q0 -94 -45 -165.5t-132.5 -111.5t-211.5 -40q-85 0 -163 18z" />
    <glyph glyph-name="uni0454" unicode="&#x454;" horiz-adv-x="909" 
d="M829 143l28 -92q-66 -32 -144.5 -51.5t-161.5 -19.5q-143 0 -245.5 62t-156.5 180t-54 283q0 172 58.5 305t167 206.5t253.5 73.5q78 0 157 -20t139 -52l-37 -95q-58 29 -127.5 47t-132.5 18q-102 0 -178 -49.5t-119.5 -140t-53.5 -213.5h492v-99h-495
q7 -198 97.5 -300.5t255.5 -102.5q122 0 257 60z" />
    <glyph glyph-name="uni044D" unicode="&#x44d;" horiz-adv-x="909" 
d="M599.5 1025.5q104.5 -64.5 159 -188t54.5 -297.5q0 -179 -55.5 -305t-159 -190.5t-246.5 -64.5q-90 0 -171.5 19.5t-141.5 51.5l36 95q59 -29 130.5 -47t143.5 -18q156 0 242.5 107t96.5 298h-494v99h494q-10 198 -100 299.5t-251 101.5q-123 0 -258 -60l-28 92
q66 32 143.5 52t153.5 20q147 0 251.5 -64.5z" />
    <glyph glyph-name="uni0456" unicode="&#x456;" horiz-adv-x="478" 
d="M180 1069h118v-1069h-118v1069zM174.5 1309.5q-25.5 25.5 -25.5 66.5q0 40 25.5 64.5t63.5 24.5t64.5 -24.5t26.5 -64.5t-26.5 -66t-64.5 -26t-63.5 25.5z" />
    <glyph glyph-name="uni0457" unicode="&#x457;" horiz-adv-x="478" 
d="M180 1069h118v-1069h-118v1069zM25 1321q-24 23 -24 60q0 36 24 59t60 23t59.5 -24t23.5 -58q0 -36 -24 -59.5t-59 -23.5q-36 0 -60 23zM335 1320.5q-23 22.5 -23 60.5q0 36 23 59t60 23q36 0 60 -23.5t24 -58.5q0 -36 -24 -59.5t-60 -23.5q-37 0 -60 22.5z" />
    <glyph glyph-name="uni0458" unicode="&#x458;" horiz-adv-x="479" 
d="M13 -447q-25 4 -44 10l20 102q20 -6 44 -6q79 0 113.5 56t34.5 182v1172h118v-1192q0 -164 -62.5 -246t-177.5 -82q-21 0 -46 4zM175.5 1309.5q-25.5 25.5 -25.5 66.5q0 40 25.5 64.5t63.5 24.5t64.5 -24.5t26.5 -64.5t-26.5 -66t-64.5 -26t-63.5 25.5z" />
    <glyph glyph-name="uni045B" unicode="&#x45b;" horiz-adv-x="1167" 
d="M928 954q81 -100 81 -300v-654h-120v644q0 159 -59 234t-175 75q-98 0 -189.5 -55.5t-167.5 -139.5v-758h-118v1224h-180l21 100h159v210l118 20v-230h358l-22 -100h-336v-355q80 81 173.5 133t209.5 52q166 0 247 -100z" />
    <glyph glyph-name="uni044E" unicode="&#x44e;" horiz-adv-x="1650" 
d="M1320.5 1021.5q110.5 -68.5 172.5 -194.5t62 -293q0 -170 -64 -295.5t-176.5 -192t-253.5 -66.5q-136 0 -243.5 61.5t-171 178t-69.5 275.5h-287v-495h-119v1069h119v-466h289q14 148 78.5 258t170.5 169.5t240 59.5q142 0 252.5 -68.5zM1267 135.5q81 54.5 122 154.5
t41 234q0 138 -42.5 243t-125.5 164t-201 59q-117 0 -198.5 -57.5t-122 -160t-40.5 -235.5q0 -141 44 -243.5t127.5 -157.5t199.5 -55q115 0 196 54.5z" />
    <glyph glyph-name="uni044F" unicode="&#x44f;" horiz-adv-x="1050" 
d="M400 456q-127 14 -205 90t-78 203q0 100 42.5 172t122.5 110t189 38h409v-1069h-120v447h-227l-338 -447h-153zM760 551v413h-264q-124 0 -186.5 -51.5t-62.5 -158.5q0 -98 65 -150.5t209 -52.5h239z" />
    <glyph glyph-name="uni0452" unicode="&#x452;" horiz-adv-x="1167" 
d="M928 954q81 -100 81 -300v-777q0 -164 -62.5 -246t-177.5 -82q-21 0 -46.5 4t-44.5 10l20 102q20 -6 44 -6q80 0 113.5 56t33.5 182v747q0 159 -59 234t-175 75q-98 0 -189.5 -55.5t-167.5 -139.5v-758h-118v1224h-180l21 100h159v210l118 20v-230h358l-22 -100h-336
v-355q80 81 173.5 133t209.5 52q166 0 247 -100z" />
    <glyph glyph-name="Alpha" unicode="&#x391;" horiz-adv-x="1294" 
d="M973 459h-658l-181 -459h-133l589 1448h99l604 -1448h-133zM565 1091l-209 -526h574l-210 521q-37 87 -80 206q-24 -68 -75 -201z" />
    <glyph glyph-name="Beta" unicode="&#x392;" horiz-adv-x="1201" 
d="M915.5 720.5q77.5 -48.5 121.5 -127.5t44 -183q0 -121 -56 -214t-165 -144.5t-261 -51.5h-391v1448h349q211 0 323.5 -86t112.5 -240q0 -123 -68.5 -210.5t-188.5 -126.5q102 -16 179.5 -64.5zM330 825h211q98 0 172.5 39.5t115 106t40.5 145.5q0 113 -81.5 170
t-237.5 57h-220v-518zM867.5 185q91.5 80 91.5 226q0 150 -102.5 230.5t-291.5 80.5h-235v-617h266q180 0 271.5 80z" />
    <glyph glyph-name="Gamma" unicode="&#x393;" horiz-adv-x="1007" 
d="M208 1448h766l-22 -107h-622v-1341h-122v1448z" />
    <glyph glyph-name="uni0394" unicode="&#x394;" horiz-adv-x="1244" 
d="M28 119l542 1329h99l548 -1333v-115h-1189v119zM1095 111l-475 1168l-472 -1168h947z" />
    <glyph glyph-name="Epsilon" unicode="&#x395;" horiz-adv-x="1099" 
d="M208 1448h795l-24 -110h-649v-533h616v-109h-616v-585h680l-21 -111h-781v1448z" />
    <glyph glyph-name="Zeta" unicode="&#x396;" horiz-adv-x="1170" 
d="M1116 113l-20 -113h-1042v87l858 1251h-815l21 110h976l-19 -87l-857 -1248h898z" />
    <glyph glyph-name="Eta" unicode="&#x397;" horiz-adv-x="1523" 
d="M208 1448h122v-641h864v641h121v-1448h-121v698h-864v-698h-122v1448z" />
    <glyph glyph-name="Theta" unicode="&#x398;" horiz-adv-x="1588" 
d="M416.5 71q-151.5 91 -231.5 256t-80 383q0 228 85.5 400t246 265.5t377.5 93.5q209 0 360 -91t230 -255.5t79 -381.5q0 -232 -86.5 -403.5t-246 -264.5t-374.5 -93q-208 0 -359.5 91zM1099 170q127 82 191 226.5t64 330.5q0 179 -57 321.5t-180.5 227t-314.5 84.5
q-184 0 -312 -85t-192 -229t-64 -320q0 -181 61 -325t185.5 -228.5t308.5 -84.5q183 0 310 82zM502 773h594v-97h-594v97z" />
    <glyph glyph-name="Iota" unicode="&#x399;" horiz-adv-x="537" 
d="M208 1448h122v-1448h-122v1448z" />
    <glyph glyph-name="Kappa" unicode="&#x39a;" horiz-adv-x="1193" 
d="M208 1448h122v-798q112 128 159 186l504 612h146l-546 -652l589 -796h-150l-519 709l-183 -190v-519h-122v1448z" />
    <glyph glyph-name="Lambda" unicode="&#x39b;" horiz-adv-x="1238" 
d="M1237 0l-134 1l-429 1131q-27 73 -56 175q-29 -90 -59 -175l-432 -1132h-126l559 1448h118z" />
    <glyph glyph-name="Mu" unicode="&#x39c;" horiz-adv-x="1856" 
d="M413 1035q-38 87 -100 257q3 -52 6 -155t3 -196v-941h-114v1448h147l428 -972q103 -234 139 -350q53 142 145 348l437 974h145v-1448h-121v941q0 150 13 351q-62 -161 -114 -274l-459 -1020h-97z" />
    <glyph glyph-name="Nu" unicode="&#x39d;" horiz-adv-x="1521" 
d="M208 1448h133l860 -1271q-7 124 -7 294v977h120v-1448h-129l-868 1284q10 -182 10 -351v-933h-119v1448z" />
    <glyph glyph-name="Xi" unicode="&#x39e;" horiz-adv-x="1074" 
d="M121 1448h856l-23 -110h-857zM212 805h649v-109h-649v109zM111 111h874l-22 -111h-874z" />
    <glyph glyph-name="Omicron" unicode="&#x39f;" horiz-adv-x="1588" 
d="M416.5 71q-151.5 91 -231.5 256t-80 383q0 228 85.5 400t246 265.5t377.5 93.5q209 0 360 -91t230 -255.5t79 -381.5q0 -232 -86.5 -403.5t-246 -264.5t-374.5 -93q-208 0 -359.5 91zM1099 170q127 82 191 226.5t64 330.5q0 179 -57 321.5t-180.5 227t-314.5 84.5
q-184 0 -312 -85t-192 -229t-64 -320q0 -181 61 -325t185.5 -228.5t308.5 -84.5q183 0 310 82z" />
    <glyph glyph-name="Pi" unicode="&#x3a0;" horiz-adv-x="1512" 
d="M208 1448h1096v-1448h-121v1334h-853v-1334h-122v1448z" />
    <glyph glyph-name="Rho" unicode="&#x3a1;" horiz-adv-x="1119" 
d="M208 1448h338q252 0 384.5 -105t132.5 -308q0 -140 -64.5 -247.5t-181.5 -166.5t-271 -59q-106 0 -216 25v-587h-122v1448zM751.5 713q93.5 44 141 125.5t47.5 191.5q0 313 -398 313h-212v-656q106 -18 194 -18q134 0 227.5 44z" />
    <glyph glyph-name="Sigma" unicode="&#x3a3;" horiz-adv-x="1170" 
d="M54 87l526 675l-473 580v106h963l-23 -107h-795l454 -549v-53l-495 -626h905l-23 -113h-1039v87z" />
    <glyph glyph-name="Tau" unicode="&#x3a4;" horiz-adv-x="1111" 
d="M494 1341h-460l21 107h1023l-22 -107h-439v-1341h-123v1341z" />
    <glyph glyph-name="Upsilon" unicode="&#x3a5;" horiz-adv-x="1099" 
d="M488 588l-487 860h134l299 -542q91 -164 114 -219q42 88 111 208l311 553h128l-490 -860v-588h-120v588z" />
    <glyph glyph-name="Phi" unicode="&#x3a6;" horiz-adv-x="1650" 
d="M1466.5 430.5q-78.5 -133.5 -226.5 -211t-354 -89.5v-130h-122v129q-210 7 -358 81t-224.5 202t-76.5 297q0 176 77.5 308.5t225.5 210t356 90.5v130h122v-129q211 -7 359 -80t224 -200.5t76 -295.5q0 -179 -78.5 -312.5zM1180 304.5q119 66.5 177.5 175t58.5 245.5
t-53.5 245.5t-171.5 176t-305 76.5v-996q175 11 294 77.5zM290.5 480.5q56.5 -109.5 175 -177t298.5 -77.5v996q-175 -12 -294 -82t-177.5 -178t-58.5 -235q0 -137 56.5 -246.5z" />
    <glyph glyph-name="Chi" unicode="&#x3a7;" horiz-adv-x="1115" 
d="M488 739l-450 709h141l377 -610l385 610h136l-447 -700l484 -748h-145l-407 653l-425 -653h-136z" />
    <glyph glyph-name="Psi" unicode="&#x3a8;" horiz-adv-x="1628" 
d="M1438 1448v-486q0 -159 -62.5 -278t-189 -188.5t-311.5 -79.5v-416h-122v417q-183 10 -309.5 79.5t-190 188t-63.5 275.5v488h121v-460q0 -206 107 -327t335 -136v923h122v-923q443 26 443 468v455h120z" />
    <glyph glyph-name="uni03A9" unicode="&#x3a9;" horiz-adv-x="1652" 
d="M105 107h431q-104 62 -192 168t-141 243.5t-53 286.5q0 188 73 338t225 237.5t378 87.5q214 0 366.5 -88t230 -238t77.5 -335q0 -149 -54 -286.5t-141.5 -243.5t-189.5 -170h432v-107h-559v107q183 148 283 316.5t100 373.5q0 144 -55.5 271.5t-178.5 208.5t-313 81
q-191 0 -312.5 -81.5t-176 -209.5t-54.5 -274q0 -201 99.5 -370t281.5 -316v-107h-557v107z" />
    <glyph glyph-name="Alphatonos" unicode="&#x386;" horiz-adv-x="1294" 
d="M973 459h-658l-181 -459h-133l589 1448h99l604 -1448h-133zM565 1091l-209 -526h574l-210 521q-37 87 -80 206q-24 -68 -75 -201zM21 1130l116 350l133 -21l-164 -347z" />
    <glyph glyph-name="Epsilontonos" unicode="&#x388;" horiz-adv-x="1280" 
d="M389 1448h795l-24 -110h-649v-533h616v-109h-616v-585h680l-21 -111h-781v1448zM-20 1130l116 350l133 -21l-164 -347z" />
    <glyph glyph-name="Etatonos" unicode="&#x389;" horiz-adv-x="1704" 
d="M389 1448h122v-641h864v641h121v-1448h-121v698h-864v-698h-122v1448zM-20 1130l116 350l133 -21l-164 -347z" />
    <glyph glyph-name="Iotatonos" unicode="&#x38a;" horiz-adv-x="719" 
d="M389 1448h122v-1448h-122v1448zM-20 1130l116 350l133 -21l-164 -347z" />
    <glyph glyph-name="Omicrontonos" unicode="&#x38c;" horiz-adv-x="1665" 
d="M493.5 71q-151.5 91 -231.5 256t-80 383q0 228 85.5 400t246 265.5t377.5 93.5q209 0 360 -91t230 -255.5t79 -381.5q0 -232 -86.5 -403.5t-246 -264.5t-374.5 -93q-208 0 -359.5 91zM1176 170q127 82 191 226.5t64 330.5q0 179 -57 321.5t-180.5 227t-314.5 84.5
q-184 0 -312 -85t-192 -229t-64 -320q0 -181 61 -325t185.5 -228.5t308.5 -84.5q183 0 310 82zM-20 1130l116 350l133 -21l-164 -347z" />
    <glyph glyph-name="Upsilontonos" unicode="&#x38e;" horiz-adv-x="1409" 
d="M799 588l-487 860h134l299 -542q91 -164 114 -219q42 88 111 208l311 553h128l-490 -860v-588h-120v588zM-20 1130l116 350l133 -21l-164 -347z" />
    <glyph glyph-name="Omegatonos" unicode="&#x38f;" horiz-adv-x="1738" 
d="M192 107h431q-104 62 -192 168t-141 243.5t-53 286.5q0 188 73 338t225 237.5t378 87.5q214 0 366.5 -88t230 -238t77.5 -335q0 -149 -54 -286.5t-141.5 -243.5t-189.5 -170h432v-107h-559v107q183 148 283 316.5t100 373.5q0 144 -55.5 271.5t-178.5 208.5t-313 81
q-191 0 -312.5 -81.5t-176 -209.5t-54.5 -274q0 -201 99.5 -370t281.5 -316v-107h-557v107zM-20 1130l116 350l133 -21l-164 -347z" />
    <glyph glyph-name="Iotadieresis" unicode="&#x3aa;" horiz-adv-x="537" 
d="M208 1448h122v-1448h-122v1448zM32.5 1639.5q-23.5 22.5 -23.5 61.5q0 36 24 58.5t60 22.5q37 0 60.5 -23t23.5 -58q0 -38 -23.5 -61t-60.5 -23t-60.5 22.5zM383.5 1639.5q-23.5 22.5 -23.5 61.5q0 36 23.5 58.5t60.5 22.5q36 0 60 -23t24 -58q0 -37 -24.5 -60.5
t-59.5 -23.5q-37 0 -60.5 22.5z" />
    <glyph glyph-name="Upsilondieresis" unicode="&#x3ab;" horiz-adv-x="1099" 
d="M488 588l-487 860h134l299 -542q91 -164 114 -219q42 88 111 208l311 553h128l-490 -860v-588h-120v588zM276 1639q-25 24 -25 64q0 38 25 62t64 24q38 0 63 -24.5t25 -61.5q0 -39 -24.5 -63.5t-63.5 -24.5t-64 24zM693.5 1638.5q-24.5 23.5 -24.5 64.5q0 38 24.5 62
t64.5 24q37 0 62.5 -25t25.5 -61q0 -39 -26 -63.5t-62 -24.5q-40 0 -64.5 23.5z" />
    <glyph glyph-name="uni03EF" unicode="&#x3ef;" horiz-adv-x="1156" 
d="M1100 1069v-413l-118 -21v327h-343v-962h-122v962h-342v-306l-119 -21v434h461v379h122v-379h461z" />
    <glyph glyph-name="alpha" unicode="&#x3b1;" horiz-adv-x="1235" 
d="M1188 6q-24 -11 -61 -18.5t-73 -7.5q-158 0 -179 173q-79 -79 -166.5 -126t-202.5 -47q-114 0 -207 56.5t-148.5 175t-55.5 295.5q0 179 61 310t177 202t278 71q86 0 153.5 -20t126.5 -51l13 51h93q-6 -82 -6 -172v-656q0 -91 25.5 -127.5t75.5 -36.5q45 0 82 15z
M869 930q-57 31 -116.5 48t-132.5 17q-196 0 -300 -125t-104 -353q0 -150 42.5 -249t113.5 -145.5t160 -46.5q97 0 183 51t154 123v680z" />
    <glyph glyph-name="beta" unicode="&#x3b2;" horiz-adv-x="1191" 
d="M904.5 786q88.5 -53 140 -144.5t51.5 -216.5q0 -131 -57 -231.5t-166.5 -157t-260.5 -56.5q-82 0 -167.5 16t-157.5 47v-473l-118 -21v1539q0 229 110.5 347.5t309.5 118.5q123 0 209 -44t129.5 -123.5t43.5 -183.5q0 -137 -71.5 -225.5t-195.5 -123.5q112 -15 200.5 -68
zM805 119q86 47 128.5 126.5t42.5 177.5q0 108 -50 193t-144 133.5t-222 48.5h-40v86h37q94 0 161.5 45.5t102 119t34.5 156.5q0 74 -29.5 133.5t-89.5 94t-148 34.5q-146 0 -223.5 -97t-77.5 -276v-954q63 -32 145 -50t161 -18q126 0 212 47z" />
    <glyph glyph-name="gamma" unicode="&#x3b3;" horiz-adv-x="1131" 
d="M594 6q10 -111 10 -229v-207l-115 -21v212q0 282 -59 569t-153 472.5t-191 185.5q-38 0 -61 -15l-14 95q37 21 99 21q111 0 207 -134.5t163 -352t99 -464.5q149 197 241 401t92 389q0 97 -23 145l121 19q11 -22 18.5 -60.5t7.5 -91.5q0 -393 -442 -934z" />
    <glyph glyph-name="delta" unicode="&#x3b4;" horiz-adv-x="1199" 
d="M909.5 899.5q88.5 -66.5 141.5 -168t53 -250.5q0 -152 -66.5 -265.5t-181.5 -174.5t-259 -61q-147 0 -261 63.5t-177.5 178t-63.5 260.5q0 192 111 326t314 189q-92 47 -149 89.5t-87.5 94.5t-30.5 121q0 119 91 185.5t264 66.5q197 0 403 -91l-32 -100q-74 37 -172.5 64
t-197.5 27q-117 0 -175 -41t-58 -112q0 -52 33 -92.5t95 -78.5t179 -96q138 -68 226.5 -134.5zM797.5 124q87.5 50 137 141t49.5 210q0 125 -44 211t-121.5 145t-201.5 119q-204 -54 -302.5 -173t-98.5 -295q0 -119 48 -211.5t135 -144.5t200 -52q111 0 198.5 50z" />
    <glyph glyph-name="epsilon" unicode="&#x3b5;" horiz-adv-x="968" 
d="M930 62q-86 -42 -186 -62t-204 -20q-145 0 -244.5 35.5t-150 101t-50.5 155.5q0 122 80.5 199t220.5 97q-113 21 -172 79t-59 165q0 81 46.5 144.5t133.5 98.5t204 35q197 0 353 -83l-33 -90q-148 79 -308 79q-126 0 -200.5 -51t-74.5 -142q0 -199 337 -199h86v-88h-114
q-189 0 -279.5 -60t-90.5 -168q0 -102 87 -158t240 -56q192 0 351 75z" />
    <glyph glyph-name="zeta" unicode="&#x3b6;" horiz-adv-x="899" 
d="M722 -346q25 55 37 94.5t12 79.5q0 69 -33 107.5t-86 57t-150 38.5q-130 27 -218.5 70.5t-142 132.5t-53.5 237q0 187 87 356.5t218 310t314 296.5h-545l31 100h684l-15 -92q-192 -160 -328.5 -298.5t-232 -308t-95.5 -349.5q0 -118 43 -189t116 -106.5t185 -57.5
q107 -22 174.5 -47t113.5 -80t46 -151q0 -106 -62 -232z" />
    <glyph glyph-name="eta" unicode="&#x3b7;" horiz-adv-x="1164" 
d="M926.5 988q79.5 -102 79.5 -304v-1114l-119 -21v1129q0 310 -232 310q-98 0 -190 -55.5t-169 -140.5v-792h-118v795q0 136 -9 274h108q5 -36 9.5 -83.5t6.5 -83.5q81 84 176 136t214 52q164 0 243.5 -102z" />
    <glyph glyph-name="theta" unicode="&#x3b8;" horiz-adv-x="1098" 
d="M887.5 1355.5q115.5 -198.5 115.5 -586.5q0 -250 -52.5 -427t-154.5 -269.5t-248 -92.5q-224 0 -338.5 198t-114.5 591q0 248 51.5 424t153 268.5t248.5 92.5q224 0 339.5 -198.5zM218 821h661q-5 320 -84 479t-247 159q-317 0 -330 -638zM793 241.5q81 166.5 86 489.5
h-661q5 -326 84 -491t246 -165q164 0 245 166.5z" />
    <glyph glyph-name="iota" unicode="&#x3b9;" horiz-adv-x="509" 
d="M213.5 35q-44.5 53 -44.5 171v863h119v-840q0 -79 24 -114t78 -35q27 0 59 10l14 -89q-55 -19 -114 -19q-91 0 -135.5 53z" />
    <glyph glyph-name="kappa" unicode="&#x3ba;" horiz-adv-x="1030" 
d="M169 1069h119v-661q95 156 194 302.5t171 236.5q59 73 108.5 103t115.5 30q55 0 100 -14l-20 -91q-25 10 -66 10q-40 0 -78.5 -24t-94.5 -95q-26 -33 -82 -108t-96 -135l475 -623h-137l-408 530q-119 -173 -182 -282v-248h-119v1069z" />
    <glyph glyph-name="lambda" unicode="&#x3bb;" horiz-adv-x="1071" 
d="M864 7q-38 20 -67 66.5t-54 129.5l-213 720l-389 -923h-128l464 1054l-52 177q-35 119 -82 173.5t-123 54.5q-61 0 -123 -27l-20 93q31 13 72.5 21t86.5 8q90 0 147.5 -34t94.5 -101t72 -182l299 -993q19 -65 35.5 -98.5t38.5 -48t56 -14.5q31 0 61 10l20 -90
q-48 -16 -102 -16q-56 0 -94 20z" />
    <glyph glyph-name="uni03BC" unicode="&#x3bc;" horiz-adv-x="1229" 
d="M1183 6q-22 -9 -52.5 -14t-61.5 -5q-80 0 -122 41.5t-53 138.5q-42 -80 -130 -133.5t-200 -53.5q-98 0 -169 41.5t-107 110.5v-562l-119 -21v1518h118v-706q0 -93 39.5 -156t103.5 -93.5t138 -30.5q80 0 154 36t120 99.5t46 142.5v710h118v-836q0 -78 24.5 -113t78.5 -35
q27 0 60 10z" />
    <glyph glyph-name="nu" unicode="&#x3bd;" horiz-adv-x="1123" 
d="M1020.5 1008.5q7.5 -35.5 7.5 -87.5q0 -194 -119 -423t-322 -498h-109q-78 406 -141 620t-120 291t-128 77q-41 0 -65 -14l-13 95q37 21 106 21q102 0 174.5 -96.5t133.5 -298.5t140 -572q150 223 246.5 420.5t96.5 363.5q0 53 -7.5 88.5t-24.5 74.5l120 19
q17 -45 24.5 -80.5z" />
    <glyph glyph-name="xi" unicode="&#x3be;" horiz-adv-x="921" 
d="M779 79.5q67 -25.5 108 -76t41 -137.5q0 -57 -17 -121t-45 -122l-100 31q24 52 35.5 92.5t11.5 81.5q0 69 -33 107.5t-85 57t-149 38.5q-142 29 -240.5 70.5t-164.5 130.5t-66 240q0 196 108.5 300.5t277.5 131.5q-72 13 -131 50.5t-95 102.5t-36 155q0 102 49.5 179.5
t140 120t208.5 42.5q87 0 164 -19.5t138 -53.5l-29 -94q-50 33 -121.5 52.5t-147.5 19.5q-87 0 -151 -32t-98 -89.5t-34 -132.5q0 -85 41 -143t110 -85.5t153 -27.5h102v-104h-118q-119 0 -210.5 -41t-143.5 -122t-52 -197q0 -117 53 -186.5t133.5 -103t206.5 -62.5
q119 -28 186 -53.5z" />
    <glyph glyph-name="omicron" unicode="&#x3bf;" horiz-adv-x="1169" 
d="M329 45.5q-110 65.5 -172 189t-62 292.5t62 296.5t173.5 197t256.5 69.5q142 0 252.5 -68.5t172.5 -194.5t62 -293q0 -170 -64 -295.5t-176.5 -192t-253.5 -66.5t-251 65.5zM786 135.5q81 54.5 122 154.5t41 234q0 138 -42.5 243t-125.5 164t-201 59q-117 0 -198.5 -57.5
t-122 -160t-40.5 -235.5q0 -141 44 -243.5t127.5 -157.5t199.5 -55q115 0 196 54.5z" />
    <glyph glyph-name="pi" unicode="&#x3c0;" horiz-adv-x="1304" 
d="M928 39q-47 57 -47 179v761h-489q0 -214 -22 -479.5t-62 -499.5h-122q44 235 69 501t26 478h-252l26 91h1224l-23 -91h-257v-747q0 -86 28 -121.5t83 -35.5q27 0 58 6.5t56 15.5l15 -84q-93 -31 -165 -31q-99 0 -146 57z" />
    <glyph glyph-name="rho" unicode="&#x3c1;" horiz-adv-x="1153" 
d="M845.5 1035q98.5 -55 155.5 -173t57 -300q0 -181 -62.5 -312t-179 -200.5t-275.5 -69.5q-66 0 -135.5 10.5t-123.5 27.5v-448l-118 -21v1037q0 157 52 270t154 173.5t249 60.5q128 0 226.5 -55zM831.5 202.5q104.5 122.5 104.5 349.5q0 153 -42.5 251t-115 143t-165.5 45
q-99 0 -173 -43t-116 -130.5t-42 -216.5v-484q54 -17 121 -27t122 -10q202 0 306.5 122.5z" />
    <glyph glyph-name="uni03C2" unicode="&#x3c2;" horiz-adv-x="924" 
d="M725 -353q23 53 35 93t12 78q0 61 -33.5 98.5t-86.5 59t-145 45.5q-143 39 -230.5 92t-134.5 147.5t-47 250.5q0 175 57 305.5t165.5 202t258.5 71.5q78 0 157.5 -19.5t141.5 -50.5l-33 -88q-58 27 -127 44.5t-131 17.5q-118 0 -201 -60t-125 -166.5t-42 -242.5
q0 -133 40.5 -212t111.5 -120.5t186 -73.5q100 -28 166.5 -55.5t115.5 -81.5t49 -139q0 -52 -17 -111.5t-45 -116.5z" />
    <glyph glyph-name="sigma" unicode="&#x3c3;" horiz-adv-x="1259" 
d="M1223 977h-283q71 -89 114.5 -209t43.5 -247q0 -166 -66 -288.5t-181 -187.5t-259 -65t-256.5 64.5t-176.5 187.5t-64 293q0 169 65.5 291.5t187.5 187.5t289 65h607zM937 758.5q-39 115.5 -112 218.5h-175q-213 0 -323.5 -118.5t-110.5 -331.5q0 -140 47 -242
t132.5 -156t199.5 -54q113 0 199.5 54t134 155.5t47.5 238.5q0 120 -39 235.5z" />
    <glyph glyph-name="tau" unicode="&#x3c4;" horiz-adv-x="830" 
d="M322 255v722h-276l25 92h740l-21 -92h-350v-698q0 -107 41.5 -153t120.5 -46q68 0 137 30l19 -86q-94 -44 -193 -44q-243 0 -243 275z" />
    <glyph glyph-name="upsilon" unicode="&#x3c5;" horiz-adv-x="1212" 
d="M263.5 112.5q-104.5 132.5 -104.5 369.5v587h117v-574q0 -197 78.5 -307t236.5 -110q163 0 253 127t90 381q0 147 -24 263t-60 216l119 15q38 -92 61 -214t23 -270q0 -205 -57.5 -343t-162 -205.5t-246.5 -67.5q-219 0 -323.5 132.5z" />
    <glyph glyph-name="phi" unicode="&#x3c6;" horiz-adv-x="1433" 
d="M1264.5 247.5q-73.5 -121.5 -203.5 -189.5t-295 -78v-410l-110 -21v432q-165 10 -292 77.5t-198 188t-71 284.5q0 161 70 283t197 192t294 81v361l110 20v-380q172 -10 301 -79t200 -191t71 -284q0 -165 -73.5 -286.5zM1003 141.5q101 56.5 156.5 156t55.5 233.5t-54 235
t-155 159.5t-240 67.5v-917q136 9 237 65.5zM269.5 300q53.5 -99 152.5 -156.5t234 -67.5v917q-137 -10 -236 -69.5t-151.5 -160t-52.5 -232.5t53.5 -231z" />
    <glyph glyph-name="chi" unicode="&#x3c7;" horiz-adv-x="1005" 
d="M1060 -434q-58 -17 -112 -17q-61 0 -99 19t-67.5 64t-65.5 135l-202 499l-334 -696h-124l409 817l-189 468q-27 69 -58 103.5t-78 34.5q-37 0 -74 -21l-24 94q62 24 119 24q55 0 93 -21t63 -58.5t49 -97.5l173 -425l274 581h121l-346 -702l227 -560q27 -66 46 -99
t42.5 -47t60.5 -14q39 0 77 9z" />
    <glyph glyph-name="psi" unicode="&#x3c8;" horiz-adv-x="1481" 
d="M1317 261q-69 -126 -196 -197t-300 -82v-412l-109 -21v432q-178 7 -302 74.5t-187.5 187.5t-63.5 285v541h117v-529q0 -137 50.5 -237t148.5 -157.5t237 -65.5v1368l109 20v-1388q137 11 237 70t154 162.5t54 244.5q0 273 -81 512l117 19q84 -232 84 -528
q0 -173 -69 -299z" />
    <glyph glyph-name="omega" unicode="&#x3c9;" horiz-adv-x="1626" 
d="M1493 849q23 -139 23 -291q0 -296 -94.5 -437t-268.5 -141q-134 0 -218.5 68.5t-121.5 207.5q-39 -138 -125.5 -207t-215.5 -69q-173 0 -267 141.5t-94 436.5q0 146 22.5 286.5t61.5 243.5l116 -19q-36 -106 -59 -242t-23 -275q0 -242 67.5 -355t187.5 -113
q130 0 201 114t71 340v253h113v-253q0 -225 70.5 -339.5t200.5 -114.5q122 0 189.5 113t67.5 356q0 141 -22.5 275.5t-59.5 241.5l117 18q38 -100 61 -239z" />
    <glyph glyph-name="iotatonos" unicode="&#x3af;" horiz-adv-x="509" 
d="M213.5 35q-44.5 53 -44.5 171v863h119v-840q0 -79 24 -114t78 -35q27 0 59 10l14 -89q-55 -19 -114 -19q-91 0 -135.5 53zM160 1241l116 350l133 -21l-164 -347z" />
    <glyph glyph-name="iotadieresis" unicode="&#x3ca;" horiz-adv-x="509" 
d="M213.5 35q-44.5 53 -44.5 171v863h119v-840q0 -79 24 -114t78 -35q27 0 59 10l14 -89q-55 -19 -114 -19q-91 0 -135.5 53zM18 1321q-24 23 -24 60q0 36 24 59t60 23t59.5 -24t23.5 -58q0 -36 -24 -59.5t-59 -23.5q-36 0 -60 23zM328 1320.5q-23 22.5 -23 60.5q0 36 23 59
t60 23q36 0 60 -23.5t24 -58.5q0 -36 -24 -59.5t-60 -23.5q-37 0 -60 22.5z" />
    <glyph glyph-name="iotadieresistonos" unicode="&#x390;" horiz-adv-x="509" 
d="M213.5 35q-44.5 53 -44.5 171v863h119v-840q0 -79 24 -114t78 -35q27 0 59 10l14 -89q-55 -19 -114 -19q-91 0 -135.5 53zM166 1515l107 327l125 -20l-155 -321zM32.5 1311q-22.5 21 -22.5 56q0 33 22.5 55t55.5 22q32 0 53.5 -22.5t21.5 -54.5q0 -34 -22 -55.5
t-53 -21.5q-33 0 -55.5 21zM320 1311q-21 21 -21 56q0 33 21.5 55t54.5 22t55 -22t22 -55q0 -34 -22.5 -55.5t-54.5 -21.5q-34 0 -55 21z" />
    <glyph glyph-name="upsilontonos" unicode="&#x3cd;" horiz-adv-x="1212" 
d="M263.5 112.5q-104.5 132.5 -104.5 369.5v587h117v-574q0 -197 78.5 -307t236.5 -110q163 0 253 127t90 381q0 147 -24 263t-60 216l119 15q38 -92 61 -214t23 -270q0 -205 -57.5 -343t-162 -205.5t-246.5 -67.5q-219 0 -323.5 132.5zM490 1241l116 350l133 -21l-164 -347
z" />
    <glyph glyph-name="upsilondieresis" unicode="&#x3cb;" horiz-adv-x="1212" 
d="M263.5 112.5q-104.5 132.5 -104.5 369.5v587h117v-574q0 -197 78.5 -307t236.5 -110q163 0 253 127t90 381q0 147 -24 263t-60 216l119 15q38 -92 61 -214t23 -270q0 -205 -57.5 -343t-162 -205.5t-246.5 -67.5q-219 0 -323.5 132.5zM311.5 1316.5q-25.5 24.5 -25.5 64.5
q0 38 26 63t64 25t63.5 -25t25.5 -63q0 -39 -25.5 -64t-63.5 -25q-39 0 -64.5 24.5zM683 1316.5q-25 24.5 -25 64.5q0 38 25 63t65 25q38 0 63.5 -25.5t25.5 -62.5q0 -38 -26 -63.5t-63 -25.5q-40 0 -65 24.5z" />
    <glyph glyph-name="upsilondieresistonos" unicode="&#x3b0;" horiz-adv-x="1212" 
d="M263.5 112.5q-104.5 132.5 -104.5 369.5v587h117v-574q0 -197 78.5 -307t236.5 -110q163 0 253 127t90 381q0 147 -24 263t-60 216l119 15q38 -92 61 -214t23 -270q0 -205 -57.5 -343t-162 -205.5t-246.5 -67.5q-219 0 -323.5 132.5zM500 1532l108 325l124 -19l-155 -321
zM335.5 1324q-23.5 23 -23.5 60q0 34 23.5 57t58.5 23q36 0 58.5 -23t22.5 -57q0 -37 -23 -60t-58 -23t-58.5 23zM680.5 1323.5q-23.5 22.5 -23.5 60.5q0 34 24 57t60 23q34 0 57 -23t23 -57q0 -36 -23.5 -59.5t-56.5 -23.5q-37 0 -60.5 22.5z" />
    <glyph glyph-name="omicrontonos" unicode="&#x3cc;" horiz-adv-x="1169" 
d="M329 45.5q-110 65.5 -172 189t-62 292.5t62 296.5t173.5 197t256.5 69.5q142 0 252.5 -68.5t172.5 -194.5t62 -293q0 -170 -64 -295.5t-176.5 -192t-253.5 -66.5t-251 65.5zM786 135.5q81 54.5 122 154.5t41 234q0 138 -42.5 243t-125.5 164t-201 59q-117 0 -198.5 -57.5
t-122 -160t-40.5 -235.5q0 -141 44 -243.5t127.5 -157.5t199.5 -55q115 0 196 54.5zM513 1241l116 350l133 -21l-164 -347z" />
    <glyph glyph-name="omegatonos" unicode="&#x3ce;" horiz-adv-x="1626" 
d="M1493 849q23 -139 23 -291q0 -296 -94.5 -437t-268.5 -141q-134 0 -218.5 68.5t-121.5 207.5q-39 -138 -125.5 -207t-215.5 -69q-173 0 -267 141.5t-94 436.5q0 146 22.5 286.5t61.5 243.5l116 -19q-36 -106 -59 -242t-23 -275q0 -242 67.5 -355t187.5 -113
q130 0 201 114t71 340v253h113v-253q0 -225 70.5 -339.5t200.5 -114.5q122 0 189.5 113t67.5 356q0 141 -22.5 275.5t-59.5 241.5l117 18q38 -100 61 -239zM744 1241l116 350l133 -21l-164 -347z" />
    <glyph glyph-name="alphatonos" unicode="&#x3ac;" horiz-adv-x="1235" 
d="M1188 6q-24 -11 -61 -18.5t-73 -7.5q-158 0 -179 173q-79 -79 -166.5 -126t-202.5 -47q-114 0 -207 56.5t-148.5 175t-55.5 295.5q0 179 61 310t177 202t278 71q86 0 153.5 -20t126.5 -51l13 51h93q-6 -82 -6 -172v-656q0 -91 25.5 -127.5t75.5 -36.5q45 0 82 15z
M869 930q-57 31 -116.5 48t-132.5 17q-196 0 -300 -125t-104 -353q0 -150 42.5 -249t113.5 -145.5t160 -46.5q97 0 183 51t154 123v680zM523 1241l116 350l133 -21l-164 -347z" />
    <glyph glyph-name="epsilontonos" unicode="&#x3ad;" horiz-adv-x="968" 
d="M930 62q-86 -42 -186 -62t-204 -20q-145 0 -244.5 35.5t-150 101t-50.5 155.5q0 122 80.5 199t220.5 97q-113 21 -172 79t-59 165q0 81 46.5 144.5t133.5 98.5t204 35q197 0 353 -83l-33 -90q-148 79 -308 79q-126 0 -200.5 -51t-74.5 -142q0 -199 337 -199h86v-88h-114
q-189 0 -279.5 -60t-90.5 -168q0 -102 87 -158t240 -56q192 0 351 75zM474 1241l116 350l133 -21l-164 -347z" />
    <glyph glyph-name="etatonos" unicode="&#x3ae;" horiz-adv-x="1164" 
d="M926.5 988q79.5 -102 79.5 -304v-1114l-119 -21v1129q0 310 -232 310q-98 0 -190 -55.5t-169 -140.5v-792h-118v795q0 136 -9 274h108q5 -36 9.5 -83.5t6.5 -83.5q81 84 176 136t214 52q164 0 243.5 -102zM523 1241l116 350l133 -21l-164 -347z" />
    <glyph glyph-name="uni2099" unicode="&#x2099;" horiz-adv-x="851" 
d="M140 275q0 120 -5 179h99q11 -64 11 -114q57 59 112.5 90.5t133.5 31.5q110 0 171.5 -67.5t61.5 -198.5v-441h-107v418q0 197 -150 197q-66 0 -122 -36t-98 -91v-488h-107v520z" />
    <glyph glyph-name="zero" unicode="0" horiz-adv-x="1121" 
d="M208 168q-114 188 -114 544q0 361 118 558.5t355 197.5q230 0 344.5 -186.5t114.5 -542.5q0 -362 -118.5 -560.5t-356.5 -198.5q-229 0 -343 188zM818 252.5q85 168.5 85 481.5q0 631 -338 631q-180 0 -263 -170.5t-83 -480.5q0 -303 80 -466.5t255 -163.5
q179 0 264 168.5z" />
    <glyph glyph-name="one" unicode="1" horiz-adv-x="1121" 
d="M549 1324l-292 -192l-52 95l354 230h111v-1457h-121v1324z" />
    <glyph glyph-name="two" unicode="2" horiz-adv-x="1121" 
d="M100 94l151 143q229 220 344.5 344t179.5 241t64 239q0 102 -41 169.5t-110.5 100t-157.5 32.5q-104 0 -190 -45t-167 -129l-53 97q80 86 184.5 134t233.5 48q117 0 213.5 -46.5t153.5 -139t57 -222.5q0 -133 -72.5 -262.5t-191.5 -256.5t-348 -346l-87 -84h760l-20 -111
h-903v94z" />
    <glyph glyph-name="three" unicode="3" horiz-adv-x="1121" 
d="M296.5 16q-115.5 36 -205.5 105l45 109q82 -68 184.5 -107t210.5 -39q111 0 191 39t122 109t42 160q0 91 -44.5 158.5t-132.5 104.5t-217 37h-146v104h104q106 0 190 39.5t131 110t47 162.5q0 77 -34.5 135.5t-97.5 90t-146 31.5q-105 0 -197.5 -46t-152.5 -108l-47 95
q73 70 176.5 116t226.5 46q119 0 209.5 -44.5t140.5 -124t50 -182.5q0 -92 -39 -165.5t-107.5 -123t-156.5 -70.5q105 -13 188 -58.5t131.5 -125t48.5 -188.5q0 -120 -59 -212t-168 -143t-254 -51q-118 0 -233.5 36z" />
    <glyph glyph-name="four" unicode="4" horiz-adv-x="1121" 
d="M733 340h-695v93l698 1031h118v-1013h226l-24 -111h-202v-340h-121v340zM733 451v839l-566 -839h566z" />
    <glyph glyph-name="five" unicode="5" horiz-adv-x="1121" 
d="M79 112l44 102q74 -57 171.5 -93.5t208.5 -36.5q113 0 194 45t123.5 128t42.5 195q0 164 -98 248.5t-279 84.5q-174 0 -337 -64l61 727h699l-21 -111h-578l-43 -483q41 14 102.5 25t134.5 11q139 0 248.5 -49t172.5 -146.5t63 -238.5q0 -142 -59.5 -249.5t-169.5 -167
t-256 -59.5q-249 0 -424 132z" />
    <glyph glyph-name="six" unicode="6" horiz-adv-x="1121" 
d="M341 59.5q-110 79.5 -171.5 239t-61.5 392.5q0 257 70.5 431.5t198.5 260t300 85.5q185 0 317 -96l-38 -101q-52 43 -127.5 68.5t-157.5 25.5q-130 0 -227.5 -67t-154.5 -204t-63 -341q65 72 170 118.5t228 46.5q126 0 218.5 -53t142 -153.5t49.5 -238.5q0 -148 -55 -260
t-154 -172.5t-228 -60.5q-146 0 -256 79.5zM760.5 127.5q70.5 44.5 111 131.5t40.5 211q0 168 -79 256t-228 88q-119 0 -219 -50.5t-159 -117.5q1 -189 51.5 -315.5t134.5 -187t188 -60.5q89 0 159.5 44.5z" />
    <glyph glyph-name="seven" unicode="7" horiz-adv-x="1121" 
d="M881 1337h-799l20 111h925l-16 -96l-571 -1352h-131z" />
    <glyph glyph-name="eight" unicode="8" horiz-adv-x="1121" 
d="M951 634q78 -96 78 -238q0 -117 -57 -211.5t-164 -149.5t-251 -55q-148 0 -253.5 52.5t-160 144t-54.5 207.5q0 145 77 243t236 153q-252 116 -252 345q0 93 50.5 171.5t144 125t218.5 46.5q118 0 210.5 -42.5t144.5 -119t52 -175.5q0 -115 -67 -202t-191 -138
q161 -61 239 -157zM340 940.5q71 -73.5 239 -112.5q274 89 274 289q0 81 -36.5 138t-101.5 86t-149 29q-91 0 -158.5 -32.5t-103 -90t-35.5 -128.5q0 -105 71 -178.5zM752 119q79 41 117.5 112t38.5 160q0 129 -95 220t-294 126q-167 -50 -238 -140t-71 -212q0 -85 39 -155
t117 -111t191 -41q116 0 195 41z" />
    <glyph glyph-name="nine" unicode="9" horiz-adv-x="1121" 
d="M124 76l38 101q54 -44 129.5 -69t159.5 -25q198 0 311.5 151.5t123.5 460.5q-65 -72 -169 -118.5t-227 -46.5q-127 0 -219.5 53t-142 154t-49.5 242q0 146 55.5 257t155.5 171.5t231 60.5q145 0 254 -79t170.5 -240t61.5 -398q0 -257 -69.5 -429.5t-195.5 -257
t-298 -84.5q-185 0 -320 96zM727 684q100 50 160 118q-2 190 -52 316t-133 186.5t-186 60.5q-91 0 -162.5 -44.5t-112.5 -131.5t-41 -209q0 -171 78.5 -258.5t230.5 -87.5q118 0 218 50z" />
    <glyph glyph-name="one.pnum" horiz-adv-x="766" 
d="M376 1324l-292 -192l-52 95l354 230h111v-1457h-121v1324z" />
    <glyph glyph-name="uni2080" unicode="&#x2080;" horiz-adv-x="803" 
d="M174.5 -149.5q-79.5 116.5 -79.5 338.5q0 227 82.5 349t247.5 122q158 0 239 -115t81 -337q0 -226 -83.5 -350t-248.5 -124q-159 0 -238.5 116.5zM579 -80.5q52 98.5 52 286.5q0 178 -49 273.5t-159 95.5q-111 0 -163.5 -97.5t-52.5 -285.5q0 -180 50 -275.5t160 -95.5
t162 98.5z" />
    <glyph glyph-name="uni2081" unicode="&#x2081;" horiz-adv-x="726" 
d="M386 539l-192 -113l-45 78l243 146h103v-896h-109v785z" />
    <glyph glyph-name="uni2082" unicode="&#x2082;" horiz-adv-x="800" 
d="M87 -173l123 103q148 122 224.5 197t111 137.5t34.5 131.5q0 90 -57 134.5t-146 44.5q-67 0 -126.5 -22t-117.5 -61l-37 81q133 88 289 88q86 0 155 -29.5t109.5 -87t40.5 -138.5q0 -87 -44 -162.5t-118 -146t-218 -189.5l-76 -64h499l-15 -90h-631v73z" />
    <glyph glyph-name="uni2083" unicode="&#x2083;" horiz-adv-x="803" 
d="M64 -203l33 87q68 -29 130.5 -44t130.5 -15q119 0 179.5 47t60.5 129q0 78 -61 121.5t-185 43.5h-110v87h70q115 0 177.5 45.5t62.5 125.5q0 70 -47.5 110t-135.5 40q-69 0 -129 -23t-106 -54l-37 79q57 36 124.5 60t157.5 24q89 0 153 -27.5t98 -77.5t34 -117
q0 -86 -50 -141t-135 -75q106 -12 169 -66.5t63 -156.5q0 -80 -40.5 -140t-119 -93t-190.5 -33q-159 0 -297 64z" />
    <glyph glyph-name="uni2084" unicode="&#x2084;" horiz-adv-x="803" 
d="M494 -41h-466v77l465 616h109v-606h155l-15 -87h-140v-205h-108v205zM494 46v476l-357 -476h357z" />
    <glyph glyph-name="uni2085" unicode="&#x2085;" horiz-adv-x="803" 
d="M56 -207l34 84q49 -23 111.5 -38t126.5 -15q121 0 184.5 54.5t63.5 150.5q0 93 -64.5 141.5t-189.5 48.5q-100 0 -217 -27l41 449h488l-14 -92h-389l-27 -260q27 5 69.5 9t82.5 4q97 0 172 -30t118 -91t43 -151t-43 -157t-124 -103.5t-193 -36.5q-151 0 -273 60z" />
    <glyph glyph-name="uni2086" unicode="&#x2086;" horiz-adv-x="803" 
d="M242 -215.5q-76 45.5 -121 144t-45 250.5q0 156 47 263.5t135 162t210 54.5q108 0 215 -41l-23 -81q-100 36 -191 36q-131 0 -205.5 -89.5t-76.5 -271.5q38 44 100.5 72.5t149.5 28.5q88 0 153 -33t99.5 -94t34.5 -144q0 -88 -38.5 -157t-108.5 -107.5t-162 -38.5
q-97 0 -173 45.5zM518.5 -149.5q44.5 25.5 69.5 74t25 114.5q0 92 -50.5 141t-143.5 49q-82 0 -142 -34t-88 -87q0 -88 30.5 -152.5t82.5 -97.5t115 -33q57 0 101.5 25.5z" />
    <glyph glyph-name="uni2087" unicode="&#x2087;" horiz-adv-x="779" 
d="M585 549h-518l13 92h632l-8 -58l-377 -829h-115z" />
    <glyph glyph-name="uni2088" unicode="&#x2088;" horiz-adv-x="834" 
d="M697 143.5q49 -55.5 49 -142.5q0 -81 -39 -141.5t-114.5 -93.5t-180.5 -33q-103 0 -176.5 31t-111 87.5t-37.5 133.5q0 88 48.5 146.5t147.5 91.5q-80 36 -117.5 88t-37.5 123q0 68 35.5 119.5t102 79.5t157.5 28q85 0 149.5 -26.5t99.5 -76t35 -116.5q0 -74 -41.5 -125
t-123.5 -81q106 -37 155 -92.5zM280 331.5q46 -40.5 153 -66.5q168 47 168 171q0 67 -48.5 104t-133.5 37q-89 0 -137 -38.5t-48 -102.5t46 -104.5zM583.5 -132.5q56.5 48.5 56.5 128.5q0 79 -59.5 124t-196.5 69q-100 -28 -144.5 -76.5t-44.5 -119.5q0 -82 56.5 -128
t165.5 -46q110 0 166.5 48.5z" />
    <glyph glyph-name="uni2089" unicode="&#x2089;" horiz-adv-x="803" 
d="M124 -230l30 83q35 -15 81 -23.5t92 -8.5q134 0 206.5 90t72.5 275q-37 -45 -99.5 -75.5t-146.5 -30.5q-83 0 -146.5 34t-99 96.5t-35.5 147.5q0 87 37.5 156t106 108t159.5 39q98 0 173.5 -48.5t118.5 -149t43 -251.5q0 -239 -102.5 -359t-285.5 -120q-104 0 -205 37z
M519.5 202q59.5 36 87.5 87q0 86 -28 150.5t-78.5 99.5t-116.5 35q-87 0 -140 -56.5t-53 -156.5q0 -95 50 -145t138 -50q81 0 140.5 36z" />
    <glyph glyph-name="zero.dnom" horiz-adv-x="803" 
d="M174.5 96.5q-79.5 116.5 -79.5 338.5q0 227 82.5 349t247.5 122q158 0 239 -115t81 -337q0 -226 -83.5 -350t-248.5 -124q-159 0 -238.5 116.5zM579 165.5q52 98.5 52 286.5q0 178 -49 273.5t-159 95.5q-111 0 -163.5 -97.5t-52.5 -285.5q0 -180 50 -275.5t160 -95.5
t162 98.5z" />
    <glyph glyph-name="one.dnom" horiz-adv-x="726" 
d="M386 785l-192 -113l-45 78l243 146h103v-896h-109v785z" />
    <glyph glyph-name="two.dnom" horiz-adv-x="800" 
d="M87 73l123 103q148 122 224.5 197t111 137.5t34.5 131.5q0 90 -57 134.5t-146 44.5q-67 0 -126.5 -22t-117.5 -61l-37 81q133 88 289 88q86 0 155 -29.5t109.5 -87t40.5 -138.5q0 -87 -44 -162.5t-118 -146t-218 -189.5l-76 -64h499l-15 -90h-631v73z" />
    <glyph glyph-name="three.dnom" horiz-adv-x="803" 
d="M64 43l33 87q68 -29 130.5 -44t130.5 -15q119 0 179.5 47t60.5 129q0 78 -61 121.5t-185 43.5h-110v87h70q115 0 177.5 45.5t62.5 125.5q0 70 -47.5 110t-135.5 40q-69 0 -129 -23t-106 -54l-37 79q57 36 124.5 60t157.5 24q89 0 153 -27.5t98 -77.5t34 -117
q0 -86 -50 -141t-135 -75q106 -12 169 -66.5t63 -156.5q0 -80 -40.5 -140t-119 -93t-190.5 -33q-159 0 -297 64z" />
    <glyph glyph-name="four.dnom" horiz-adv-x="803" 
d="M494 205h-466v77l465 616h109v-606h155l-15 -87h-140v-205h-108v205zM494 292v476l-357 -476h357z" />
    <glyph glyph-name="five.dnom" horiz-adv-x="803" 
d="M56 39l34 84q49 -23 111.5 -38t126.5 -15q121 0 184.5 54.5t63.5 150.5q0 93 -64.5 141.5t-189.5 48.5q-100 0 -217 -27l41 449h488l-14 -92h-389l-27 -260q27 5 69.5 9t82.5 4q97 0 172 -30t118 -91t43 -151t-43 -157t-124 -103.5t-193 -36.5q-151 0 -273 60z" />
    <glyph glyph-name="six.dnom" horiz-adv-x="803" 
d="M242 30.5q-76 45.5 -121 144t-45 250.5q0 156 47 263.5t135 162t210 54.5q108 0 215 -41l-23 -81q-100 36 -191 36q-131 0 -205.5 -89.5t-76.5 -271.5q38 44 100.5 72.5t149.5 28.5q88 0 153 -33t99.5 -94t34.5 -144q0 -88 -38.5 -157t-108.5 -107.5t-162 -38.5
q-97 0 -173 45.5zM518.5 96.5q44.5 25.5 69.5 74t25 114.5q0 92 -50.5 141t-143.5 49q-82 0 -142 -34t-88 -87q0 -88 30.5 -152.5t82.5 -97.5t115 -33q57 0 101.5 25.5z" />
    <glyph glyph-name="seven.dnom" horiz-adv-x="779" 
d="M585 795h-518l13 92h632l-8 -58l-377 -829h-115z" />
    <glyph glyph-name="eight.dnom" horiz-adv-x="834" 
d="M697 389.5q49 -55.5 49 -142.5q0 -81 -39 -141.5t-114.5 -93.5t-180.5 -33q-103 0 -176.5 31t-111 87.5t-37.5 133.5q0 88 48.5 146.5t147.5 91.5q-80 36 -117.5 88t-37.5 123q0 68 35.5 119.5t102 79.5t157.5 28q85 0 149.5 -26.5t99.5 -76t35 -116.5q0 -74 -41.5 -125
t-123.5 -81q106 -37 155 -92.5zM280 577.5q46 -40.5 153 -66.5q168 47 168 171q0 67 -48.5 104t-133.5 37q-89 0 -137 -38.5t-48 -102.5t46 -104.5zM583.5 113.5q56.5 48.5 56.5 128.5q0 79 -59.5 124t-196.5 69q-100 -28 -144.5 -76.5t-44.5 -119.5q0 -82 56.5 -128
t165.5 -46q110 0 166.5 48.5z" />
    <glyph glyph-name="nine.dnom" horiz-adv-x="803" 
d="M124 16l30 83q35 -15 81 -23.5t92 -8.5q134 0 206.5 90t72.5 275q-37 -45 -99.5 -75.5t-146.5 -30.5q-83 0 -146.5 34t-99 96.5t-35.5 147.5q0 87 37.5 156t106 108t159.5 39q98 0 173.5 -48.5t118.5 -149t43 -251.5q0 -239 -102.5 -359t-285.5 -120q-104 0 -205 37z
M519.5 448q59.5 36 87.5 87q0 86 -28 150.5t-78.5 99.5t-116.5 35q-87 0 -140 -56.5t-53 -156.5q0 -95 50 -145t138 -50q81 0 140.5 36z" />
    <glyph glyph-name="zero.numr" horiz-adv-x="803" 
d="M174.5 657.5q-79.5 116.5 -79.5 338.5q0 227 82.5 349t247.5 122q158 0 239 -115t81 -337q0 -226 -83.5 -350t-248.5 -124q-159 0 -238.5 116.5zM579 726.5q52 98.5 52 286.5q0 178 -49 273.5t-159 95.5q-111 0 -163.5 -97.5t-52.5 -285.5q0 -180 50 -275.5t160 -95.5
t162 98.5z" />
    <glyph glyph-name="one.numr" horiz-adv-x="726" 
d="M386 1346l-192 -113l-45 78l243 146h103v-896h-109v785z" />
    <glyph glyph-name="two.numr" horiz-adv-x="800" 
d="M87 634l123 103q148 122 224.5 197t111 137.5t34.5 131.5q0 90 -57 134.5t-146 44.5q-67 0 -126.5 -22t-117.5 -61l-37 81q133 88 289 88q86 0 155 -29.5t109.5 -87t40.5 -138.5q0 -87 -44 -162.5t-118 -146t-218 -189.5l-76 -64h499l-15 -90h-631v73z" />
    <glyph glyph-name="three.numr" horiz-adv-x="803" 
d="M64 604l33 87q68 -29 130.5 -44t130.5 -15q119 0 179.5 47t60.5 129q0 78 -61 121.5t-185 43.5h-110v87h70q115 0 177.5 45.5t62.5 125.5q0 70 -47.5 110t-135.5 40q-69 0 -129 -23t-106 -54l-37 79q57 36 124.5 60t157.5 24q89 0 153 -27.5t98 -77.5t34 -117
q0 -86 -50 -141t-135 -75q106 -12 169 -66.5t63 -156.5q0 -80 -40.5 -140t-119 -93t-190.5 -33q-159 0 -297 64z" />
    <glyph glyph-name="four.numr" horiz-adv-x="803" 
d="M494 766h-466v77l465 616h109v-606h155l-15 -87h-140v-205h-108v205zM494 853v476l-357 -476h357z" />
    <glyph glyph-name="five.numr" horiz-adv-x="803" 
d="M56 600l34 84q49 -23 111.5 -38t126.5 -15q121 0 184.5 54.5t63.5 150.5q0 93 -64.5 141.5t-189.5 48.5q-100 0 -217 -27l41 449h488l-14 -92h-389l-27 -260q27 5 69.5 9t82.5 4q97 0 172 -30t118 -91t43 -151t-43 -157t-124 -103.5t-193 -36.5q-151 0 -273 60z" />
    <glyph glyph-name="six.numr" horiz-adv-x="803" 
d="M242 591.5q-76 45.5 -121 144t-45 250.5q0 156 47 263.5t135 162t210 54.5q108 0 215 -41l-23 -81q-100 36 -191 36q-131 0 -205.5 -89.5t-76.5 -271.5q38 44 100.5 72.5t149.5 28.5q88 0 153 -33t99.5 -94t34.5 -144q0 -88 -38.5 -157t-108.5 -107.5t-162 -38.5
q-97 0 -173 45.5zM518.5 657.5q44.5 25.5 69.5 74t25 114.5q0 92 -50.5 141t-143.5 49q-82 0 -142 -34t-88 -87q0 -88 30.5 -152.5t82.5 -97.5t115 -33q57 0 101.5 25.5z" />
    <glyph glyph-name="seven.numr" horiz-adv-x="779" 
d="M585 1356h-518l13 92h632l-8 -58l-377 -829h-115z" />
    <glyph glyph-name="eight.numr" horiz-adv-x="834" 
d="M697 950.5q49 -55.5 49 -142.5q0 -81 -39 -141.5t-114.5 -93.5t-180.5 -33q-103 0 -176.5 31t-111 87.5t-37.5 133.5q0 88 48.5 146.5t147.5 91.5q-80 36 -117.5 88t-37.5 123q0 68 35.5 119.5t102 79.5t157.5 28q85 0 149.5 -26.5t99.5 -76t35 -116.5q0 -74 -41.5 -125
t-123.5 -81q106 -37 155 -92.5zM280 1138.5q46 -40.5 153 -66.5q168 47 168 171q0 67 -48.5 104t-133.5 37q-89 0 -137 -38.5t-48 -102.5t46 -104.5zM583.5 674.5q56.5 48.5 56.5 128.5q0 79 -59.5 124t-196.5 69q-100 -28 -144.5 -76.5t-44.5 -119.5q0 -82 56.5 -128
t165.5 -46q110 0 166.5 48.5z" />
    <glyph glyph-name="nine.numr" horiz-adv-x="803" 
d="M124 577l30 83q35 -15 81 -23.5t92 -8.5q134 0 206.5 90t72.5 275q-37 -45 -99.5 -75.5t-146.5 -30.5q-83 0 -146.5 34t-99 96.5t-35.5 147.5q0 87 37.5 156t106 108t159.5 39q98 0 173.5 -48.5t118.5 -149t43 -251.5q0 -239 -102.5 -359t-285.5 -120q-104 0 -205 37z
M519.5 1009q59.5 36 87.5 87q0 86 -28 150.5t-78.5 99.5t-116.5 35q-87 0 -140 -56.5t-53 -156.5q0 -95 50 -145t138 -50q81 0 140.5 36z" />
    <glyph glyph-name="uni2070" unicode="&#x2070;" horiz-adv-x="803" 
d="M174.5 903.5q-79.5 116.5 -79.5 338.5q0 227 82.5 349t247.5 122q158 0 239 -115t81 -337q0 -226 -83.5 -350t-248.5 -124q-159 0 -238.5 116.5zM579 972.5q52 98.5 52 286.5q0 178 -49 273.5t-159 95.5q-111 0 -163.5 -97.5t-52.5 -285.5q0 -180 50 -275.5t160 -95.5
t162 98.5z" />
    <glyph glyph-name="uni00B9" unicode="&#xb9;" horiz-adv-x="726" 
d="M386 1592l-192 -113l-45 78l243 146h103v-896h-109v785z" />
    <glyph glyph-name="uni00B2" unicode="&#xb2;" horiz-adv-x="800" 
d="M87 880l123 103q148 122 224.5 197t111 137.5t34.5 131.5q0 90 -57 134.5t-146 44.5q-67 0 -126.5 -22t-117.5 -61l-37 81q133 88 289 88q86 0 155 -29.5t109.5 -87t40.5 -138.5q0 -87 -44 -162.5t-118 -146t-218 -189.5l-76 -64h499l-15 -90h-631v73z" />
    <glyph glyph-name="uni00B3" unicode="&#xb3;" horiz-adv-x="803" 
d="M64 850l33 87q68 -29 130.5 -44t130.5 -15q119 0 179.5 47t60.5 129q0 78 -61 121.5t-185 43.5h-110v87h70q115 0 177.5 45.5t62.5 125.5q0 70 -47.5 110t-135.5 40q-69 0 -129 -23t-106 -54l-37 79q57 36 124.5 60t157.5 24q89 0 153 -27.5t98 -77.5t34 -117
q0 -86 -50 -141t-135 -75q106 -12 169 -66.5t63 -156.5q0 -80 -40.5 -140t-119 -93t-190.5 -33q-159 0 -297 64z" />
    <glyph glyph-name="uni2074" unicode="&#x2074;" horiz-adv-x="803" 
d="M494 1012h-466v77l465 616h109v-606h155l-15 -87h-140v-205h-108v205zM494 1099v476l-357 -476h357z" />
    <glyph glyph-name="uni2075" unicode="&#x2075;" horiz-adv-x="803" 
d="M56 846l34 84q49 -23 111.5 -38t126.5 -15q121 0 184.5 54.5t63.5 150.5q0 93 -64.5 141.5t-189.5 48.5q-100 0 -217 -27l41 449h488l-14 -92h-389l-27 -260q27 5 69.5 9t82.5 4q97 0 172 -30t118 -91t43 -151t-43 -157t-124 -103.5t-193 -36.5q-151 0 -273 60z" />
    <glyph glyph-name="uni2076" unicode="&#x2076;" horiz-adv-x="803" 
d="M242 837.5q-76 45.5 -121 144t-45 250.5q0 156 47 263.5t135 162t210 54.5q108 0 215 -41l-23 -81q-100 36 -191 36q-131 0 -205.5 -89.5t-76.5 -271.5q38 44 100.5 72.5t149.5 28.5q88 0 153 -33t99.5 -94t34.5 -144q0 -88 -38.5 -157t-108.5 -107.5t-162 -38.5
q-97 0 -173 45.5zM518.5 903.5q44.5 25.5 69.5 74t25 114.5q0 92 -50.5 141t-143.5 49q-82 0 -142 -34t-88 -87q0 -88 30.5 -152.5t82.5 -97.5t115 -33q57 0 101.5 25.5z" />
    <glyph glyph-name="uni2077" unicode="&#x2077;" horiz-adv-x="779" 
d="M585 1602h-518l13 92h632l-8 -58l-377 -829h-115z" />
    <glyph glyph-name="uni2078" unicode="&#x2078;" horiz-adv-x="834" 
d="M697 1196.5q49 -55.5 49 -142.5q0 -81 -39 -141.5t-114.5 -93.5t-180.5 -33q-103 0 -176.5 31t-111 87.5t-37.5 133.5q0 88 48.5 146.5t147.5 91.5q-80 36 -117.5 88t-37.5 123q0 68 35.5 119.5t102 79.5t157.5 28q85 0 149.5 -26.5t99.5 -76t35 -116.5q0 -74 -41.5 -125
t-123.5 -81q106 -37 155 -92.5zM280 1384.5q46 -40.5 153 -66.5q168 47 168 171q0 67 -48.5 104t-133.5 37q-89 0 -137 -38.5t-48 -102.5t46 -104.5zM583.5 920.5q56.5 48.5 56.5 128.5q0 79 -59.5 124t-196.5 69q-100 -28 -144.5 -76.5t-44.5 -119.5q0 -82 56.5 -128
t165.5 -46q110 0 166.5 48.5z" />
    <glyph glyph-name="uni2079" unicode="&#x2079;" horiz-adv-x="803" 
d="M124 823l30 83q35 -15 81 -23.5t92 -8.5q134 0 206.5 90t72.5 275q-37 -45 -99.5 -75.5t-146.5 -30.5q-83 0 -146.5 34t-99 96.5t-35.5 147.5q0 87 37.5 156t106 108t159.5 39q98 0 173.5 -48.5t118.5 -149t43 -251.5q0 -239 -102.5 -359t-285.5 -120q-104 0 -205 37z
M519.5 1255q59.5 36 87.5 87q0 86 -28 150.5t-78.5 99.5t-116.5 35q-87 0 -140 -56.5t-53 -156.5q0 -95 50 -145t138 -50q81 0 140.5 36z" />
    <glyph glyph-name="fraction" unicode="&#x2044;" horiz-adv-x="363" 
d="M550 1451h114l-850 -1449h-116z" />
    <glyph glyph-name="onehalf" unicode="&#xbd;" horiz-adv-x="1904" 
d="M386 1346l-192 -113l-45 78l243 146h103v-896h-109v785zM1276 1451h114l-850 -1449h-116zM1191 73l123 103q148 122 224.5 197t111 137.5t34.5 131.5q0 90 -57 134.5t-146 44.5q-67 0 -126.5 -22t-117.5 -61l-37 81q133 88 289 88q86 0 155 -29.5t109.5 -87t40.5 -138.5
q0 -87 -44 -162.5t-118 -146t-218 -189.5l-76 -64h499l-15 -90h-631v73z" />
    <glyph glyph-name="onequarter" unicode="&#xbc;" horiz-adv-x="1769" 
d="M386 1346l-192 -113l-45 78l243 146h103v-896h-109v785zM1276 1451h114l-850 -1449h-116zM1460 205h-466v77l465 616h109v-606h155l-15 -87h-140v-205h-108v205zM1460 292v476l-357 -476h357z" />
    <glyph glyph-name="threequarters" unicode="&#xbe;" horiz-adv-x="1846" 
d="M64 604l33 87q68 -29 130.5 -44t130.5 -15q119 0 179.5 47t60.5 129q0 78 -61 121.5t-185 43.5h-110v87h70q115 0 177.5 45.5t62.5 125.5q0 70 -47.5 110t-135.5 40q-69 0 -129 -23t-106 -54l-37 79q57 36 124.5 60t157.5 24q89 0 153 -27.5t98 -77.5t34 -117
q0 -86 -50 -141t-135 -75q106 -12 169 -66.5t63 -156.5q0 -80 -40.5 -140t-119 -93t-190.5 -33q-159 0 -297 64zM1353 1451h114l-850 -1449h-116zM1537 205h-466v77l465 616h109v-606h155l-15 -87h-140v-205h-108v205zM1537 292v476l-357 -476h357z" />
    <glyph glyph-name="oneeighth" unicode="&#x215b;" horiz-adv-x="1918" 
d="M386 1346l-192 -113l-45 78l243 146h103v-896h-109v785zM1276 1451h114l-850 -1449h-116zM1781 389.5q49 -55.5 49 -142.5q0 -81 -39 -141.5t-114.5 -93.5t-180.5 -33q-103 0 -176.5 31t-111 87.5t-37.5 133.5q0 88 48.5 146.5t147.5 91.5q-80 36 -117.5 88t-37.5 123
q0 68 35.5 119.5t102 79.5t157.5 28q85 0 149.5 -26.5t99.5 -76t35 -116.5q0 -74 -41.5 -125t-123.5 -81q106 -37 155 -92.5zM1364 577.5q46 -40.5 153 -66.5q168 47 168 171q0 67 -48.5 104t-133.5 37q-89 0 -137 -38.5t-48 -102.5t46 -104.5zM1667.5 113.5
q56.5 48.5 56.5 128.5q0 79 -59.5 124t-196.5 69q-100 -28 -144.5 -76.5t-44.5 -119.5q0 -82 56.5 -128t165.5 -46q110 0 166.5 48.5z" />
    <glyph glyph-name="threeeighths" unicode="&#x215c;" horiz-adv-x="1995" 
d="M64 604l33 87q68 -29 130.5 -44t130.5 -15q119 0 179.5 47t60.5 129q0 78 -61 121.5t-185 43.5h-110v87h70q115 0 177.5 45.5t62.5 125.5q0 70 -47.5 110t-135.5 40q-69 0 -129 -23t-106 -54l-37 79q57 36 124.5 60t157.5 24q89 0 153 -27.5t98 -77.5t34 -117
q0 -86 -50 -141t-135 -75q106 -12 169 -66.5t63 -156.5q0 -80 -40.5 -140t-119 -93t-190.5 -33q-159 0 -297 64zM1353 1451h114l-850 -1449h-116zM1858 389.5q49 -55.5 49 -142.5q0 -81 -39 -141.5t-114.5 -93.5t-180.5 -33q-103 0 -176.5 31t-111 87.5t-37.5 133.5
q0 88 48.5 146.5t147.5 91.5q-80 36 -117.5 88t-37.5 123q0 68 35.5 119.5t102 79.5t157.5 28q85 0 149.5 -26.5t99.5 -76t35 -116.5q0 -74 -41.5 -125t-123.5 -81q106 -37 155 -92.5zM1441 577.5q46 -40.5 153 -66.5q168 47 168 171q0 67 -48.5 104t-133.5 37
q-89 0 -137 -38.5t-48 -102.5t46 -104.5zM1744.5 113.5q56.5 48.5 56.5 128.5q0 79 -59.5 124t-196.5 69q-100 -28 -144.5 -76.5t-44.5 -119.5q0 -82 56.5 -128t165.5 -46q110 0 166.5 48.5z" />
    <glyph glyph-name="fiveeighths" unicode="&#x215d;" horiz-adv-x="1995" 
d="M56 600l34 84q49 -23 111.5 -38t126.5 -15q121 0 184.5 54.5t63.5 150.5q0 93 -64.5 141.5t-189.5 48.5q-100 0 -217 -27l41 449h488l-14 -92h-389l-27 -260q27 5 69.5 9t82.5 4q97 0 172 -30t118 -91t43 -151t-43 -157t-124 -103.5t-193 -36.5q-151 0 -273 60z
M1353 1451h114l-850 -1449h-116zM1858 389.5q49 -55.5 49 -142.5q0 -81 -39 -141.5t-114.5 -93.5t-180.5 -33q-103 0 -176.5 31t-111 87.5t-37.5 133.5q0 88 48.5 146.5t147.5 91.5q-80 36 -117.5 88t-37.5 123q0 68 35.5 119.5t102 79.5t157.5 28q85 0 149.5 -26.5
t99.5 -76t35 -116.5q0 -74 -41.5 -125t-123.5 -81q106 -37 155 -92.5zM1441 577.5q46 -40.5 153 -66.5q168 47 168 171q0 67 -48.5 104t-133.5 37q-89 0 -137 -38.5t-48 -102.5t46 -104.5zM1744.5 113.5q56.5 48.5 56.5 128.5q0 79 -59.5 124t-196.5 69
q-100 -28 -144.5 -76.5t-44.5 -119.5q0 -82 56.5 -128t165.5 -46q110 0 166.5 48.5z" />
    <glyph glyph-name="seveneighths" unicode="&#x215e;" horiz-adv-x="1843" 
d="M585 1356h-518l13 92h632l-8 -58l-377 -829h-115zM1201 1451h114l-850 -1449h-116zM1706 389.5q49 -55.5 49 -142.5q0 -81 -39 -141.5t-114.5 -93.5t-180.5 -33q-103 0 -176.5 31t-111 87.5t-37.5 133.5q0 88 48.5 146.5t147.5 91.5q-80 36 -117.5 88t-37.5 123
q0 68 35.5 119.5t102 79.5t157.5 28q85 0 149.5 -26.5t99.5 -76t35 -116.5q0 -74 -41.5 -125t-123.5 -81q106 -37 155 -92.5zM1289 577.5q46 -40.5 153 -66.5q168 47 168 171q0 67 -48.5 104t-133.5 37q-89 0 -137 -38.5t-48 -102.5t46 -104.5zM1592.5 113.5
q56.5 48.5 56.5 128.5q0 79 -59.5 124t-196.5 69q-100 -28 -144.5 -76.5t-44.5 -119.5q0 -82 56.5 -128t165.5 -46q110 0 166.5 48.5z" />
    <glyph glyph-name="asterisk" unicode="*" horiz-adv-x="694" 
d="M109 872l185 237l-260 46l32 103l246 -102l-24 292h116l-23 -290l249 100l29 -103l-262 -46l186 -238l-84 -59l-152 260l-153 -260z" />
    <glyph glyph-name="backslash" unicode="\" horiz-adv-x="749" 
d="M27 1549h100l596 -1881h-104z" />
    <glyph glyph-name="periodcentered" unicode="&#xb7;" horiz-adv-x="557" 
d="M215 594.5q-27 24.5 -27 63.5q0 41 27 67t65 26q40 0 66 -27t26 -66t-26 -63.5t-66 -24.5q-38 0 -65 24.5z" />
    <glyph glyph-name="bullet" unicode="&#x2022;" horiz-adv-x="897" 
d="M328.5 487.5q-55.5 32.5 -88 86.5t-32.5 116q0 63 32.5 118t88 88t120.5 33q64 0 118.5 -33t87 -88t32.5 -118q0 -62 -32.5 -116t-87 -86.5t-118.5 -32.5q-65 0 -120.5 32.5z" />
    <glyph glyph-name="colon" unicode=":" horiz-adv-x="444" 
d="M158 908.5q-26 24.5 -26 63.5q0 41 26 66t64 25q41 0 65 -25.5t24 -65.5t-24.5 -64t-64.5 -24q-38 0 -64 24.5zM158 12.5q-26 24.5 -26 63.5q0 41 26 66t64 25q41 0 65 -25.5t24 -65.5t-24.5 -64t-64.5 -24q-38 0 -64 24.5z" />
    <glyph glyph-name="comma" unicode="," horiz-adv-x="446" 
d="M66 -277q61 113 93 240t32 251l127 -16q0 -137 -53 -269.5t-123 -229.5z" />
    <glyph glyph-name="ellipsis" unicode="&#x2026;" horiz-adv-x="1332" 
d="M158 12.5q-26 24.5 -26 63.5q0 41 26 66t64 25q41 0 65 -25.5t24 -65.5t-24.5 -64t-64.5 -24q-38 0 -64 24.5zM602 12.5q-26 24.5 -26 63.5q0 41 26 66t64 25q41 0 65 -25.5t24 -65.5t-24.5 -64t-64.5 -24q-38 0 -64 24.5zM1046 12.5q-26 24.5 -26 63.5q0 41 26 66t64 25
q41 0 65 -25.5t24 -65.5t-24.5 -64t-64.5 -24q-38 0 -64 24.5z" />
    <glyph glyph-name="exclam" unicode="!" horiz-adv-x="533" 
d="M198 1448h138l-30 -1011h-78zM202 12.5q-26 24.5 -26 63.5q0 41 26 66t64 25q41 0 65 -25.5t24 -65.5t-24.5 -64t-64.5 -24q-38 0 -64 24.5z" />
    <glyph glyph-name="exclamdbl" unicode="&#x203c;" horiz-adv-x="1066" 
d="M198 1448h138l-30 -1011h-78zM202 12.5q-26 24.5 -26 63.5q0 41 26 66t64 25q41 0 65 -25.5t24 -65.5t-24.5 -64t-64.5 -24q-38 0 -64 24.5zM731 1448h138l-30 -1011h-78zM735 12.5q-26 24.5 -26 63.5q0 41 26 66t64 25q41 0 65 -25.5t24 -65.5t-24.5 -64t-64.5 -24
q-38 0 -64 24.5z" />
    <glyph glyph-name="exclamdown" unicode="&#xa1;" horiz-adv-x="533" 
d="M330 1064.5q26 -24.5 26 -63.5q0 -41 -26 -66t-64 -25q-41 0 -65 25.5t-24 65.5t24.5 64t64.5 24q38 0 64 -24.5zM334 -371h-138l30 1011h78z" />
    <glyph glyph-name="numbersign" unicode="#" horiz-adv-x="1340" 
d="M970 937l-103 -415h306l-25 -96h-305l-105 -426h-104l106 426h-290l-106 -426h-105l106 426h-299l25 96h298l104 415h-299l26 98h297l103 413h103l-102 -413h290l103 413h102l-102 -413h304l-24 -98h-304zM867 937h-291l-103 -415h291z" />
    <glyph glyph-name="uni203E" unicode="&#x203e;" horiz-adv-x="944" 
d="M-10 1748h962v-98h-962v98z" />
    <glyph glyph-name="period" unicode="." horiz-adv-x="444" 
d="M158 12.5q-26 24.5 -26 63.5q0 41 26 66t64 25q41 0 65 -25.5t24 -65.5t-24.5 -64t-64.5 -24q-38 0 -64 24.5z" />
    <glyph glyph-name="question" unicode="?" horiz-adv-x="977" 
d="M347 481q-12 47 -12 96q0 39 13 75t55 80t124 95q92 56 140 93.5t75 85t27 115.5t-32.5 122.5t-99.5 86t-168 31.5q-96 0 -179.5 -25.5t-164.5 -71.5l-44 101q91 48 184 75.5t203 27.5q134 0 227.5 -44.5t141 -123t47.5 -179.5q0 -93 -34 -157.5t-87.5 -108t-141.5 -95.5
q-65 -39 -101.5 -68t-55 -61t-18.5 -73q0 -33 9 -79t21 -82h-97q-20 37 -32 84zM371 12.5q-26 24.5 -26 63.5q0 41 26 66t64 25q41 0 65 -25.5t24 -65.5t-24.5 -64t-64.5 -24q-38 0 -64 24.5z" />
    <glyph glyph-name="questiondown" unicode="&#xbf;" horiz-adv-x="965" 
d="M594 1065.5q26 -24.5 26 -63.5q0 -41 -26 -66t-64 -25q-41 0 -65 25.5t-24 65.5t24.5 64t64.5 24q38 0 64 -24.5zM618 597q12 -47 12 -96q0 -39 -13 -75t-55 -80t-124 -95q-92 -56 -140 -93.5t-75 -85t-27 -115.5t32.5 -122.5t99.5 -86t168 -31.5q96 0 179.5 25.5
t164.5 71.5l44 -101q-91 -48 -184 -75.5t-203 -27.5q-134 0 -227.5 44.5t-141 123t-47.5 179.5q0 93 34 157.5t87.5 108t141.5 95.5q65 39 101.5 68t55 61t18.5 73q0 33 -9 79t-21 82h97q20 -37 32 -84z" />
    <glyph glyph-name="quotedbl" unicode="&#x22;" horiz-adv-x="834" 
d="M157 1448h147l-36 -510h-78zM529 1448h150l-39 -510h-79z" />
    <glyph glyph-name="quotesingle" unicode="'" horiz-adv-x="424" 
d="M144 1451l134 -3l-30 -525h-74z" />
    <glyph glyph-name="semicolon" unicode=";" horiz-adv-x="453" 
d="M172.5 908.5q-25.5 24.5 -25.5 63.5q0 41 25.5 66t65.5 25q39 0 65 -26t26 -65t-26.5 -63.5t-64.5 -24.5q-40 0 -65.5 24.5zM61 -262q61 110 93.5 233t32.5 243l131 -16q0 -133 -53 -261.5t-123 -222.5z" />
    <glyph glyph-name="slash" unicode="/" horiz-adv-x="749" 
d="M621 1534h102l-593 -1866h-103z" />
    <glyph glyph-name="underscore" unicode="_" horiz-adv-x="942" 
d="M-10 -186h962v-98h-962v98z" />
    <glyph glyph-name="underscoredbl" unicode="&#x2017;" horiz-adv-x="942" 
d="M-10 -186h962v-98h-962v98zM-10 -440h962v-98h-962v98z" />
    <glyph glyph-name="uni208D" unicode="&#x208d;" horiz-adv-x="455" 
d="M159 -100.5q-54 141.5 -54 303.5q0 160 54 301.5t165 274.5h82q-95 -130 -148 -274.5t-53 -300.5q0 -151 51 -295.5t149 -277.5h-81q-111 127 -165 268.5z" />
    <glyph glyph-name="uni208E" unicode="&#x208e;" horiz-adv-x="820" 
d="M296 514.5q54 -141.5 54 -303.5q0 -160 -54 -301.5t-165 -274.5h-82q95 130 148 274.5t53 300.5q0 151 -51 295.5t-149 277.5h81q111 -127 165 -268.5z" />
    <glyph glyph-name="braceleft" unicode="{" horiz-adv-x="778" 
d="M365.5 -255.5q-74.5 73.5 -74.5 208.5v383q0 106 -63 168t-187 69v82q127 8 188.5 69t61.5 165v376q0 134 74.5 208t232.5 74h106v-95h-119q-97 0 -139.5 -54t-42.5 -159v-315q0 -90 -20 -150t-57.5 -97.5t-95.5 -64.5q79 -25 126 -88t47 -175v-370q0 -105 42.5 -159
t139.5 -54h119v-95h-106q-158 0 -232.5 73.5z" />
    <glyph glyph-name="braceright" unicode="}" horiz-adv-x="778" 
d="M412.5 1474q74.5 -73 74.5 -208v-383q0 -106 62.5 -168t187.5 -70v-81q-127 -8 -188.5 -69.5t-61.5 -164.5v-376q0 -134 -74.5 -208.5t-232.5 -74.5h-105v96h119q96 0 138.5 53.5t42.5 159.5v316q0 90 20 149.5t57.5 96.5t96.5 64q-174 55 -174 263v371q0 106 -42 159.5
t-139 53.5h-119v94h105q158 0 232.5 -73z" />
    <glyph glyph-name="bracketleft" unicode="[" horiz-adv-x="774" 
d="M268 1548h431v-98h-318v-1687h318v-95h-431v1880z" />
    <glyph glyph-name="bracketright" unicode="]" horiz-adv-x="774" 
d="M75 -237h318v1687h-318v98h432v-1880h-432v95z" />
    <glyph glyph-name="parenleft" unicode="(" horiz-adv-x="808" 
d="M256 604q0 270 90.5 504.5t262.5 441.5h100q-332 -452 -332 -944t329 -938h-97q-353 409 -353 936z" />
    <glyph glyph-name="parenright" unicode=")" horiz-adv-x="807" 
d="M434 605q0 258 -88.5 495t-247.5 450h104q351 -415 351 -946q0 -529 -351 -936h-101q333 448 333 937z" />
    <glyph glyph-name="uni207D" unicode="&#x207d;" horiz-adv-x="455" 
d="M159 952.5q-54 141.5 -54 303.5q0 160 54 301.5t165 274.5h82q-95 -130 -148 -274.5t-53 -300.5q0 -151 51 -295.5t149 -277.5h-81q-111 127 -165 268.5z" />
    <glyph glyph-name="uni207E" unicode="&#x207e;" horiz-adv-x="455" 
d="M296 1567.5q54 -141.5 54 -303.5q0 -160 -54 -301.5t-165 -274.5h-82q95 130 148 274.5t53 300.5q0 151 -51 295.5t-149 277.5h81q111 -127 165 -268.5z" />
    <glyph glyph-name="emdash" unicode="&#x2014;" horiz-adv-x="2171" 
d="M102 601h1966v-105h-1966v105z" />
    <glyph glyph-name="endash" unicode="&#x2013;" horiz-adv-x="1085" 
d="M102 601h881v-105h-881v105z" />
    <glyph glyph-name="uni2015" unicode="&#x2015;" horiz-adv-x="2171" 
d="M102 601h1966v-105h-1966v105z" />
    <glyph glyph-name="hyphen" unicode="-" horiz-adv-x="805" 
d="M115 603h573v-104h-573v104z" />
    <glyph glyph-name="uni2011" unicode="&#x2011;" horiz-adv-x="1123" 
d="M115 603h573v-104h-573v104z" />
    <glyph glyph-name="uni00AD" unicode="&#xad;" horiz-adv-x="805" 
d="M115 603h573v-104h-573v104z" />
    <glyph glyph-name="guillemotleft" unicode="&#xab;" horiz-adv-x="1025" 
d="M529 486v115l374 411l34 -114l-289 -353l289 -353l-33 -117zM87 486v115l374 411l34 -114l-289 -353l289 -353l-33 -117z" />
    <glyph glyph-name="guillemotright" unicode="&#xbb;" horiz-adv-x="1025" 
d="M88 192l289 353l-289 353l34 114l374 -411v-115l-375 -411zM530 192l289 353l-289 353l34 114l374 -411v-115l-375 -411z" />
    <glyph glyph-name="guilsinglleft" unicode="&#x2039;" horiz-adv-x="582" 
d="M87 486v115l374 411l34 -114l-289 -353l289 -353l-33 -117z" />
    <glyph glyph-name="guilsinglright" unicode="&#x203a;" horiz-adv-x="582" 
d="M87 192l289 353l-289 353l34 114l374 -411v-115l-375 -411z" />
    <glyph glyph-name="quotedblbase" unicode="&#x201e;" horiz-adv-x="758" 
d="M378 -280q61 113 93 240t32 251l127 -16q0 -137 -53 -269.5t-123 -229.5zM66 -280q61 113 93 240t32 251l127 -16q0 -137 -53 -269.5t-123 -229.5z" />
    <glyph glyph-name="quotedblleft" unicode="&#x201c;" horiz-adv-x="757" 
d="M380 1497q-61 -113 -93 -240t-32 -251l-127 16q0 137 53 269.5t123 229.5zM691 1497q-61 -113 -93 -240t-32 -251l-127 16q0 137 53 269.5t123 229.5z" />
    <glyph glyph-name="quotedblright" unicode="&#x201d;" horiz-adv-x="758" 
d="M378 1029q61 113 93 240t32 251l127 -16q0 -137 -53 -269.5t-123 -229.5zM66 1029q61 113 93 240t32 251l127 -16q0 -137 -53 -269.5t-123 -229.5z" />
    <glyph glyph-name="quoteleft" unicode="&#x2018;" horiz-adv-x="446" 
d="M380 1497q-61 -113 -93 -240t-32 -251l-127 16q0 137 53 269.5t123 229.5z" />
    <glyph glyph-name="quotereversed" unicode="&#x201b;" horiz-adv-x="465" 
d="M192 1234.5q-53 132.5 -53 269.5l127 16q0 -124 32 -251t93 -240l-76 -24q-70 97 -123 229.5z" />
    <glyph glyph-name="quoteright" unicode="&#x2019;" horiz-adv-x="465" 
d="M74 1029q61 113 93 240t32 251l127 -16q0 -137 -53 -269.5t-123 -229.5z" />
    <glyph glyph-name="quotesinglbase" unicode="&#x201a;" horiz-adv-x="446" 
d="M66 -277q61 113 93 240t32 251l127 -16q0 -137 -53 -269.5t-123 -229.5z" />
    <glyph glyph-name="anoteleia" unicode="&#x387;" horiz-adv-x="557" 
d="M215 594.5q-27 24.5 -27 63.5q0 41 27 67t65 26q40 0 66 -27t26 -66t-26 -63.5t-66 -24.5q-38 0 -65 24.5z" />
    <glyph glyph-name="uni00A0" unicode="&#xa0;" horiz-adv-x="639" 
 />
    <glyph glyph-name="uniFEFF" unicode="&#xfeff;" horiz-adv-x="0" 
 />
    <glyph glyph-name="cent" unicode="&#xa2;" horiz-adv-x="1121" 
d="M985 286q-67 -29 -139.5 -47.5t-161.5 -23.5v-215h-99v216q-134 9 -233.5 72.5t-153 175t-53.5 261.5q0 152 53.5 273t153 196t233.5 92v160h99v-155q87 -3 169 -22.5t144 -49.5l-37 -94q-60 26 -133 43.5t-143 20.5v-871q74 2 135 16t136 42zM353 446q84 -106 232 -125
v862q-101 -17 -172 -77.5t-107.5 -156.5t-36.5 -218q0 -179 84 -285z" />
    <glyph glyph-name="currency" unicode="&#xa4;" horiz-adv-x="1227" 
d="M179 285l121 124q-41 55 -62.5 118.5t-21.5 130.5q0 121 77 242l-116 117l71 74l115 -119q116 90 255 90q66 0 130 -22.5t115 -63.5l114 113l66 -68l-107 -110q42 -57 64 -122t22 -131q0 -67 -23 -131.5t-67 -121.5l113 -115l-71 -74l-115 120q-55 -38 -117.5 -59
t-123.5 -21q-68 0 -132.5 21.5t-120.5 62.5l-120 -126zM771.5 393q69.5 40 109.5 109.5t40 155.5t-40 156.5t-109.5 111t-153.5 40.5q-83 0 -153 -40.5t-110.5 -111t-40.5 -156.5t40.5 -155.5t110 -109.5t153.5 -40t153.5 40z" />
    <glyph glyph-name="dollar" unicode="$" horiz-adv-x="1063" 
d="M922.5 214q-45.5 -75 -133.5 -121t-211 -54v-220h-95v219q-109 5 -212 31.5t-176 64.5l42 101q66 -33 158 -60t188 -33v530q-112 39 -188.5 82t-125.5 112.5t-49 171.5q0 93 45.5 162t127 108.5t190.5 48.5v177h95v-176q95 -4 188 -26t161 -55l-39 -100q-67 31 -146.5 54
t-163.5 28v-505q132 -44 216.5 -92.5t129 -116.5t44.5 -161q0 -95 -45.5 -170zM306 882.5q68 -58.5 177 -97.5v473q-113 -11 -179 -65.5t-66 -151.5q0 -100 68 -158.5zM779 214q72 63 72 165q0 65 -30 111.5t-89 81.5t-154 68v-499q129 10 201 73z" />
    <glyph glyph-name="Euro" unicode="&#x20ac;" horiz-adv-x="1121" 
d="M859.5 110q73.5 22 160.5 70l37 -98q-97 -54 -180.5 -79.5t-200.5 -25.5q-136 0 -239 64t-167.5 182.5t-88.5 281.5h-129l21 101h97q-3 50 -3 101t5 113h-120l21 98h110q27 166 97 290t178 193t248 69q115 0 204.5 -26t180.5 -78l-47 -103q-87 49 -161.5 73t-167.5 24
q-163 0 -265.5 -117t-136.5 -325h531l-20 -98h-523q-4 -49 -4 -114q0 -57 4 -100h543l-20 -101h-511q33 -193 129.5 -305t249.5 -112q94 0 167.5 22z" />
    <glyph glyph-name="florin" unicode="&#x192;" horiz-adv-x="1178" 
d="M101 -248q105 48 165.5 100.5t92.5 124t48 181.5l105 691h-196l9 95h205l24 142q34 205 130 293.5t261 88.5q91 0 177 -27l-26 -100q-31 12 -71 19.5t-80 7.5q-238 0 -279 -292l-19 -132h299l-10 -95h-306l-106 -709q-21 -142 -67.5 -229.5t-119 -143t-196.5 -113.5z" />
    <glyph glyph-name="franc" unicode="&#x20a3;" horiz-adv-x="1063" 
d="M330 1338v-531h612v-109h-612v-324h427l-21 -106h-406v-268h-122v268h-163l21 106h142v1074h794l-21 -110h-651z" />
    <glyph glyph-name="lira" unicode="&#x20a4;" horiz-adv-x="1121" 
d="M74 92q91 44 141 96t70 120t20 167v180h-201l21 95h180v247q0 212 89 317t259 105q76 0 154 -18t140 -47l-36 -94q-64 27 -121.5 40.5t-128.5 13.5q-123 0 -181 -81.5t-58 -243.5v-241h368l-21 -93h-347v-224q0 -228 -169 -326h491q90 0 146.5 21t128.5 80l63 -87
q-70 -65 -143 -92t-190 -27h-648z" />
    <glyph glyph-name="uni20BA" unicode="&#x20ba;" horiz-adv-x="1310" 
d="M326 3v462l-151 -100v116l151 100v223l-153 -101v112l153 100v533h122v-467l272 186v-114l-272 -182v-224l272 184v-112l-272 -189v-423q30 -6 84 -6q155 0 266 57.5t169.5 168.5t58.5 270v21h120v-27q0 -190 -77 -326t-219 -206.5t-335 -70.5q-101 0 -189 15z" />
    <glyph glyph-name="uni20BC" unicode="&#x20bc;" horiz-adv-x="1483" 
d="M1056 1176q109 -63 168 -174.5t59 -262.5v-739h-121v711q0 193 -92.5 303.5t-271.5 126.5v-812h-108v812q-187 -13 -278 -126.5t-91 -308.5v-706h-121v737q0 152 58.5 264.5t169 176.5t262.5 73v297h108v-298q149 -11 258 -74z" />
    <glyph glyph-name="peseta" unicode="&#x20a7;" horiz-adv-x="1119" 
d="M1201 927h-142q-15 -135 -82 -232.5t-178 -149t-253 -51.5q-106 0 -216 25v-519h-122v927h-161l20 99h141v422h338q502 0 517 -422h157zM330 1026h609q-8 168 -108.5 242.5t-288.5 74.5h-212v-317zM813 685q105 84 123 242h-606v-307q102 -19 194 -19q184 0 289 84z" />
    <glyph glyph-name="uni20BD" unicode="&#x20bd;" horiz-adv-x="1119" 
d="M376 631v-257h463l-21 -106h-442v-268h-122v268h-209l21 106h188v257h-209l21 105h188v712h305q248 0 373.5 -100t125.5 -292q0 -131 -59 -226.5t-171 -147t-266 -51.5h-186zM376 736h179q185 0 282.5 82.5t97.5 232.5q0 151 -95 221.5t-285 70.5h-179v-607z" />
    <glyph glyph-name="uni20B9" unicode="&#x20b9;" horiz-adv-x="1178" 
d="M389 609h-240l20 105h175q168 0 266 70.5t113 208.5h-574l20 105h553q-16 118 -107 181.5t-241 63.5h-225l20 105h974l-20 -105h-421q64 -39 102.5 -101t45.5 -144h293l-20 -105h-273q-17 -155 -109.5 -243t-225.5 -117l458 -633h-150z" />
    <glyph glyph-name="sterling" unicode="&#xa3;" horiz-adv-x="1121" 
d="M74 92q91 44 141 96t70 120t20 167v180h-201l21 95h180v247q0 212 89 317t259 105q76 0 154 -18t140 -47l-36 -94q-64 27 -121.5 40.5t-128.5 13.5q-123 0 -181 -81.5t-58 -243.5v-241h368l-21 -93h-347v-224q0 -228 -169 -326h491q90 0 146.5 21t128.5 80l63 -87
q-70 -65 -143 -92t-190 -27h-648z" />
    <glyph glyph-name="yen" unicode="&#xa5;" horiz-adv-x="1158" 
d="M514 295h-321l21 89h300v183h-321l21 91h253l-401 740h132l268 -503q29 -54 62.5 -123t48.5 -107q35 78 110 220l271 513h131l-407 -740h286l-20 -91h-312v-183h332l-20 -89h-312v-295h-122v295z" />
    <glyph glyph-name="uni2219" unicode="&#x2219;" horiz-adv-x="897" 
d="M328.5 487.5q-55.5 32.5 -88 86.5t-32.5 116q0 63 32.5 118t88 88t120.5 33q64 0 118.5 -33t87 -88t32.5 -118q0 -62 -32.5 -116t-87 -86.5t-118.5 -32.5q-65 0 -120.5 32.5z" />
    <glyph glyph-name="uni2215" unicode="&#x2215;" horiz-adv-x="904" 
d="M776 1448h102l-748 -1448h-103z" />
    <glyph glyph-name="uni208C" unicode="&#x208c;" horiz-adv-x="913" 
d="M93 393h725v-90h-725v90zM93 85h725v-90h-725v90z" />
    <glyph glyph-name="uni207C" unicode="&#x207c;" horiz-adv-x="935" 
d="M107 1446h725v-90h-725v90zM107 1138h725v-90h-725v90z" />
    <glyph glyph-name="equivalence" unicode="&#x2261;" horiz-adv-x="1194" 
d="M87 1373h983v-98h-983v98zM87 925h983v-100h-983v100zM87 475h983v-99h-983v99z" />
    <glyph glyph-name="integralbt" unicode="&#x2321;" horiz-adv-x="1237" 
d="M552 1108q0 99 20.5 178t63.5 141q85 123 207 123q64 0 102.5 -31t38.5 -80q0 -40 -26 -66t-66 -26q-25 0 -42.5 12.5t-51.5 47.5q-22 23 -32.5 31t-23.5 8t-24.5 -9.5t-14.5 -29.5q-6 -37 -6 -140l-5 -1822h-145z" />
    <glyph glyph-name="integraltp" unicode="&#x2320;" horiz-adv-x="1237" 
d="M300.5 -399q-38.5 31 -38.5 79q0 40 26 66t66 26q26 0 44.5 -12.5t49.5 -46.5q21 -23 32 -31t24 -8t24.5 9t14.5 30q6 37 6 139l-2 1975h145l2 -1815q0 -198 -84 -320q-85 -122 -207 -122q-64 0 -102.5 31z" />
    <glyph glyph-name="revlogicalnot" unicode="&#x2310;" horiz-adv-x="1158" 
d="M87 278v552h982v-99h-884v-453h-98z" />
    <glyph glyph-name="uni208B" unicode="&#x208b;" horiz-adv-x="913" 
d="M93 239h725v-90h-725v90z" />
    <glyph glyph-name="uni207B" unicode="&#x207b;" horiz-adv-x="935" 
d="M107 1292h725v-90h-725v90z" />
    <glyph glyph-name="plus" unicode="+" horiz-adv-x="1158" 
d="M527 605h-440v97h440v440h101v-440h444v-97h-444v-439h-101v439z" />
    <glyph glyph-name="minus" unicode="&#x2212;" horiz-adv-x="1158" 
d="M87 702h982v-99h-982v99z" />
    <glyph glyph-name="multiply" unicode="&#xd7;" horiz-adv-x="1158" 
d="M149 293l358 357l-358 359l69 72l360 -360l357 360l71 -72l-359 -359l359 -357l-71 -71l-357 357l-360 -357z" />
    <glyph glyph-name="divide" unicode="&#xf7;" horiz-adv-x="1178" 
d="M520 954.5q-28 25.5 -28 63.5q0 41 27.5 67t66.5 26q40 0 66.5 -27t26.5 -66q0 -38 -27 -63.5t-66 -25.5q-38 0 -66 25.5zM96 699h983v-97h-983v97zM519.5 214.5q-27.5 25.5 -27.5 65.5q0 41 27.5 66.5t66.5 25.5t66 -27t27 -65q0 -39 -27 -65t-66 -26t-66.5 25.5z" />
    <glyph glyph-name="equal" unicode="=" horiz-adv-x="1158" 
d="M87 923h983v-98h-983v98zM87 475h983v-99h-983v99z" />
    <glyph glyph-name="notequal" unicode="&#x2260;" horiz-adv-x="1158" 
d="M697 825l-137 -350h510v-99h-549l-115 -295h-98l116 295h-337v99h376l138 350h-514v98h553l115 293h95l-115 -293h335v-98h-373z" />
    <glyph glyph-name="greater" unicode="&#x3e;" horiz-adv-x="1158" 
d="M87 222l847 430l-847 429v114l985 -503v-79l-985 -503v112z" />
    <glyph glyph-name="less" unicode="&#x3c;" horiz-adv-x="1158" 
d="M87 613v79l985 503v-114l-846 -429l846 -430v-112z" />
    <glyph glyph-name="greaterequal" unicode="&#x2265;" horiz-adv-x="1158" 
d="M83 254l846 430l-846 429v114l985 -503v-79l-985 -503v112zM86 1v99h982v-99h-982z" />
    <glyph glyph-name="lessequal" unicode="&#x2264;" horiz-adv-x="1158" 
d="M87 100h982v-99h-982v99zM87 645v79l985 503v-114l-846 -429l846 -430v-112z" />
    <glyph glyph-name="plusminus" unicode="&#xb1;" horiz-adv-x="1158" 
d="M87 99h982v-99h-982v99zM527 605h-440v97h440v440h101v-440h444v-97h-444v-439h-101v439z" />
    <glyph glyph-name="approxequal" unicode="&#x2248;" horiz-adv-x="1199" 
d="M166.5 970.5q65.5 80.5 179.5 80.5q66 0 129 -25.5t143 -78.5q155 -103 238 -103q69 0 109.5 53t49.5 154h94q-12 -145 -75.5 -224t-180.5 -79q-67 0 -131 28t-151 85q-84 56 -132.5 77t-90.5 21q-141 0 -163 -211h-94q10 142 75.5 222.5zM166.5 548.5
q65.5 80.5 179.5 80.5q66 0 129 -25.5t143 -78.5q155 -103 238 -103q69 0 109.5 53t49.5 154h94q-12 -145 -75.5 -224t-180.5 -79q-67 0 -131 28t-151 85q-84 56 -132.5 77t-90.5 21q-141 0 -163 -211h-94q10 142 75.5 222.5z" />
    <glyph glyph-name="asciitilde" unicode="~" horiz-adv-x="1199" 
d="M166.5 759.5q65.5 80.5 179.5 80.5q66 0 129 -25.5t143 -78.5q155 -103 238 -103q69 0 109.5 53t49.5 154h94q-12 -145 -75.5 -224t-180.5 -79q-67 0 -131 28t-151 85q-84 56 -132.5 77t-90.5 21q-141 0 -163 -211h-94q10 142 75.5 222.5z" />
    <glyph glyph-name="logicalnot" unicode="&#xac;" horiz-adv-x="1158" 
d="M971 731h-884v99h982v-552h-98v453z" />
    <glyph glyph-name="infinity" unicode="&#x221e;" horiz-adv-x="1804" 
d="M1097 319q-107 69 -199 227q-183 -292 -433 -292q-102 0 -187 46.5t-134 130.5t-49 193q0 106 47.5 191t133.5 133.5t199 48.5q125 0 230.5 -70.5t192.5 -235.5q96 154 202.5 226t234.5 72q108 0 193 -47t133 -129.5t48 -185.5q0 -104 -48 -190t-135 -136.5t-200 -50.5
q-122 0 -229 69zM664 426.5q84 62.5 167 198.5q-145 264 -347 264q-78 0 -138.5 -36t-93.5 -97t-33 -132t32.5 -130.5t92.5 -94.5t139 -35q97 0 181 62.5zM1460 393.5q60 36.5 92.5 97t32.5 130.5q0 71 -33.5 130.5t-93.5 94.5t-137 35q-101 0 -187 -65t-165 -195
q76 -130 162.5 -197t190.5 -67q78 0 138 36.5z" />
    <glyph glyph-name="intersection" unicode="&#x2229;" horiz-adv-x="1473" 
d="M279 510q0 152 58.5 271t162 185t233.5 66q131 0 236 -66t165 -185t60 -271v-512h-102v514q0 127 -45.5 222t-126.5 145.5t-185 50.5q-105 0 -185 -50t-124.5 -144.5t-44.5 -225.5v-512h-102v512z" />
    <glyph glyph-name="integral" unicode="&#x222b;" horiz-adv-x="612" 
d="M-47 -313v108q82 -25 141 -25q57 0 89 34t44.5 101.5t12.5 178.5v1042q0 156 31 248.5t93 133t162 40.5q75 0 140 -20v-105q-87 20 -146 20q-57 0 -88 -33t-42.5 -98.5t-11.5 -174.5v-1049q0 -155 -31 -247t-93 -132.5t-160 -40.5q-79 0 -141 19z" />
    <glyph glyph-name="uni2126" unicode="&#x2126;" horiz-adv-x="1652" 
d="M105 107h431q-104 62 -192 168t-141 243.5t-53 286.5q0 188 73 338t225 237.5t378 87.5q214 0 366.5 -88t230 -238t77.5 -335q0 -149 -54 -286.5t-141.5 -243.5t-189.5 -170h432v-107h-559v107q183 148 283 316.5t100 373.5q0 144 -55.5 271.5t-178.5 208.5t-313 81
q-191 0 -312.5 -81.5t-176 -209.5t-54.5 -274q0 -201 99.5 -370t281.5 -316v-107h-557v107z" />
    <glyph glyph-name="uni2206" unicode="&#x2206;" horiz-adv-x="1244" 
d="M28 119l542 1329h99l548 -1333v-115h-1189v119zM1095 111l-475 1168l-472 -1168h947z" />
    <glyph glyph-name="product" unicode="&#x220f;" horiz-adv-x="1270" 
d="M190 1448h887v-1698h-125v1590h-637v-1590h-125v1698z" />
    <glyph glyph-name="summation" unicode="&#x2211;" horiz-adv-x="1155" 
d="M86 -171l586 825l-586 700v94h944v-106h-796l572 -682l-573 -805h851v-105h-998v79z" />
    <glyph glyph-name="radical" unicode="&#x221a;" horiz-adv-x="1122" 
d="M322 636h-220v106h312l186 -581l463 1516h121l-534 -1716h-92z" />
    <glyph glyph-name="uni00B5" unicode="&#xb5;" horiz-adv-x="1229" 
d="M1183 6q-22 -9 -52.5 -14t-61.5 -5q-80 0 -122 41.5t-53 138.5q-42 -80 -130 -133.5t-200 -53.5q-98 0 -169 41.5t-107 110.5v-562l-119 -21v1518h118v-706q0 -93 39.5 -156t103.5 -93.5t138 -30.5q80 0 154 36t120 99.5t46 142.5v710h118v-836q0 -78 24.5 -113t78.5 -35
q27 0 60 10z" />
    <glyph glyph-name="partialdiff" unicode="&#x2202;" horiz-adv-x="1169" 
d="M295 30q-84 53 -130 158t-46 259q0 170 62 290.5t163 182t215 61.5q84 0 166.5 -34t145.5 -85v47q0 218 -75 334.5t-229 116.5q-60 0 -99.5 -10t-87.5 -33l-34 104q55 25 108.5 37t114.5 12q116 0 208.5 -60.5t146 -178.5t53.5 -285q0 -280 -54.5 -499t-163.5 -344.5
t-264 -125.5q-116 0 -200 53zM675.5 168.5q78.5 96.5 124 254.5t60.5 344q-60 54 -142.5 90t-158.5 36q-88 0 -162.5 -49t-119.5 -151t-45 -253q0 -120 32.5 -203t91 -124t135.5 -41q106 0 184.5 96.5z" />
    <glyph glyph-name="orthogonal" unicode="&#x221f;" horiz-adv-x="2005" 
d="M408 1223h94v-1129h1130v-94h-1224v1223z" />
    <glyph glyph-name="percent" unicode="%" horiz-adv-x="1794" 
d="M174 668.5q-79 115.5 -79 333.5q0 224 82 345t246 121q158 0 238 -114t80 -333q0 -223 -82.5 -345.5t-247.5 -122.5q-158 0 -237 115.5zM1276 1451h114l-850 -1449h-116zM576.5 735.5q50.5 96.5 50.5 282.5q0 176 -48 269.5t-158 93.5q-111 0 -163 -96.5t-52 -278.5
q0 -178 49 -272.5t160 -94.5t161.5 96.5zM1131.5 95.5q-79.5 115.5 -79.5 333.5q0 224 82 345t247 121q158 0 238.5 -114t80.5 -333q0 -223 -83 -345.5t-247 -122.5q-159 0 -238.5 115.5zM1585 445q0 175 -48.5 268.5t-158.5 93.5t-161.5 -95.5t-51.5 -277.5
q0 -178 49.5 -273t159.5 -95q211 0 211 379z" />
    <glyph glyph-name="perthousand" unicode="&#x2030;" horiz-adv-x="2548" 
d="M174 668.5q-79 115.5 -79 333.5q0 224 82 345t246 121q158 0 238 -114t80 -333q0 -223 -82.5 -345.5t-247.5 -122.5q-158 0 -237 115.5zM1276 1451h114l-850 -1449h-116zM576.5 735.5q50.5 96.5 50.5 282.5q0 176 -48 269.5t-158 93.5q-111 0 -163 -96.5t-52 -278.5
q0 -178 49 -272.5t160 -94.5t161.5 96.5zM1131.5 95.5q-79.5 115.5 -79.5 333.5q0 224 82 345t247 121q158 0 238.5 -114t80.5 -333q0 -223 -83 -345.5t-247 -122.5q-159 0 -238.5 115.5zM1886 95q-79 115 -79 334q0 224 81.5 345t246.5 121q158 0 238 -114t80 -333
q0 -223 -82.5 -345.5t-246.5 -122.5q-159 0 -238 115zM1585 445q0 175 -48.5 268.5t-158.5 93.5t-161.5 -95.5t-51.5 -277.5q0 -178 49.5 -273t159.5 -95q211 0 211 379zM2339 445q0 175 -48.5 268.5t-158.5 93.5t-161.5 -95.5t-51.5 -278.5q0 -177 49 -272t158 -95
q213 0 213 379z" />
    <glyph glyph-name="uni208A" unicode="&#x208a;" horiz-adv-x="913" 
d="M412 149h-319v90h319v318h89v-318h317v-90h-317v-318h-89v318z" />
    <glyph glyph-name="uni207A" unicode="&#x207a;" horiz-adv-x="935" 
d="M426 1202h-319v90h319v318h89v-318h317v-90h-317v-318h-89v318z" />
    <glyph glyph-name="arrowup" unicode="&#x2191;" horiz-adv-x="1024" 
d="M469 928q-64 -56 -197 -119v72q72 62 127 127t95 143h36q40 -78 95 -143t127 -127v-72q-133 63 -197 119v-989h-86v989z" />
    <glyph glyph-name="arrowright" unicode="&#x2192;" horiz-adv-x="2048" 
d="M1407 297h-989v86h989q-56 64 -119 197h72q62 -72 127.5 -127t142.5 -95v-36q-77 -40 -142 -95t-128 -127h-72q63 133 119 197z" />
    <glyph glyph-name="arrowdown" unicode="&#x2193;" horiz-adv-x="1024" 
d="M399 81q-55 65 -127 128v72q133 -63 197 -119v989h86v-989q64 56 197 119v-72q-72 -63 -127 -128t-95 -142h-36q-40 77 -95 142z" />
    <glyph glyph-name="arrowleft" unicode="&#x2190;" horiz-adv-x="2048" 
d="M560 227q-65 55 -142 95v36q77 40 142.5 95t127.5 127h72q-63 -133 -119 -197h989v-86h-989q56 -64 119 -197h-72q-63 72 -128 127z" />
    <glyph glyph-name="arrowboth" unicode="&#x2194;" horiz-adv-x="2048" 
d="M560 227q-65 55 -142 95v36q77 40 142.5 95t127.5 127h72q-63 -133 -119 -197h766q-56 64 -119 197h72q62 -72 127.5 -127t142.5 -95v-36q-77 -40 -142 -95t-128 -127h-72q63 133 119 197h-766q56 -64 119 -197h-72q-63 72 -128 127z" />
    <glyph glyph-name="arrowupdn" unicode="&#x2195;" horiz-adv-x="1024" 
d="M399 81q-55 65 -127 128v72q133 -63 197 -119v766q-64 -56 -197 -119v72q72 62 127 127t95 143h36q40 -78 95 -143t127 -127v-72q-133 63 -197 119v-766q64 56 197 119v-72q-72 -63 -127 -128t-95 -142h-36q-40 77 -95 142z" />
    <glyph glyph-name="arrowupdnbse" unicode="&#x21a8;" horiz-adv-x="1024" 
d="M399 81q-55 65 -127 128v72q133 -63 197 -119v766q-64 -56 -197 -119v72q72 62 127 127t95 143h36q40 -78 95 -143t127 -127v-72q-133 63 -197 119v-766q64 56 197 119v-72q-72 -63 -127 -128t-95 -142h-36q-40 77 -95 142zM272 -104h480v-80h-480v80z" />
    <glyph glyph-name="dnblock" unicode="&#x2584;" 
d="M0 621h1450v-1174h-1450v1174z" />
    <glyph glyph-name="block" unicode="&#x2588;" 
d="M0 2159h1450v-2712h-1450v2712z" />
    <glyph glyph-name="upblock" unicode="&#x2580;" 
d="M0 2159h1450v-1538h-1450v1538z" />
    <glyph glyph-name="lfblock" unicode="&#x258c;" 
d="M0 2159h725v-2712h-725v2712z" />
    <glyph glyph-name="rtblock" unicode="&#x2590;" 
d="M725 2159h725v-2712h-725v2712z" />
    <glyph glyph-name="ltshade" unicode="&#x2591;" horiz-adv-x="1525" 
d="M102 1991h105v-97h-105v97zM516 1991h105v-97h-105v97zM934 1991h102v-97h-102v97zM1348 1991h102v-97h-102v97zM309 1796h105v-96h-105v96zM725 1796h104v-96h-104v96zM1141 1796h102v-96h-102v96zM102 1700h105v-96h-105v96zM516 1700h105v-96h-105v96zM934 1700h102
v-96h-102v96zM1348 1700h102v-96h-102v96zM309 1505h105v-96h-105v96zM725 1505h104v-96h-104v96zM1141 1505h102v-96h-102v96zM102 1315h105v-98h-105v98zM516 1315h105v-98h-105v98zM934 1315h102v-98h-102v98zM1348 1315h102v-98h-102v98zM309 1118h105v-94h-105v94z
M725 1118h104v-94h-104v94zM1141 1118h102v-94h-102v94zM102 928h105v-97h-105v97zM516 928h105v-97h-105v97zM934 928h102v-97h-102v97zM1348 928h102v-97h-102v97zM309 731h105v-94h-105v94zM725 731h104v-94h-104v94zM1141 731h102v-94h-102v94zM102 541h105v-97h-105v97
zM516 541h105v-97h-105v97zM934 541h102v-97h-102v97zM1348 541h102v-97h-102v97zM309 344h105v-94h-105v94zM725 344h104v-94h-104v94zM1141 344h102v-94h-102v94zM102 154h105v-99h-105v99zM516 154h105v-99h-105v99zM934 154h102v-99h-102v99zM1348 154h102v-99h-102v99z
M309 -43h105v-92h-105v92zM725 -43h104v-92h-104v92zM1141 -43h102v-92h-102v92zM102 -233h105v-99h-105v99zM516 -233h105v-99h-105v99zM934 -233h102v-99h-102v99zM1348 -233h102v-99h-102v99zM309 -426h105v-96h-105v96zM725 -426h104v-96h-104v96zM1141 -426h102v-96
h-102v96z" />
    </font>
</defs>
</svg>
