<?xml version="1.0" standalone="no"?>
<!DOCTYPE svg PUBLIC "-//W3C//DTD SVG 1.1//EN" "http://www.w3.org/Graphics/SVG/1.1/DTD/svg11.dtd" >
<svg>
<metadata>
Created by FontForge 20120731 at Tue Apr 23 17:58:33 2019
 By www-data
</metadata>
<defs>
<font id="HuaweiSans-Bold" horiz-adv-x="1450" >
  <font-face 
    font-family="Huawei Sans"
    font-weight="700"
    font-stretch="normal"
    units-per-em="2048"
    panose-1="2 12 8 3 3 2 3 2 2 4"
    ascent="1638"
    descent="-410"
    x-height="1082"
    cap-height="1448"
    bbox="-1057 -555 2689 2163"
    underline-thickness="50"
    underline-position="-50"
    unicode-range="U+000D-FEFF"
  />
<missing-glyph horiz-adv-x="1202" 
d="M50 1530h1102v-1909h-1102v1909zM1003 -244v1639h-803v-1639h803z" />
    <glyph glyph-name="f_f" unicode="ff" horiz-adv-x="1559" 
d="M216 874h-170l33 185l137 23v75q0 138 48 226.5t130.5 129.5t188.5 41q72 0 139 -12t116 -30l-35 -196q-87 26 -163 26q-72 0 -105.5 -50.5t-33.5 -155.5v-54h287l-32 -208h-255v-874h-285v874zM976 874h-170l33 185l137 23v75q0 138 48 226.5t130.5 129.5t188.5 41
q72 0 139 -12t116 -30l-35 -196q-87 26 -163 26q-72 0 -105.5 -50.5t-33.5 -155.5v-54h287l-32 -208h-255v-874h-285v874z" />
    <glyph glyph-name="f_f_i" unicode="ffi" horiz-adv-x="2155" 
d="M216 874h-170l33 185l137 23v75q0 138 48 226.5t130.5 129.5t188.5 41q72 0 139 -12t116 -30l-35 -196q-87 26 -163 26q-72 0 -105.5 -50.5t-33.5 -155.5v-54h287l-32 -208h-255v-874h-285v874zM976 874h-170l33 185l137 23v75q0 138 48 226.5t130.5 129.5t188.5 41
q72 0 139 -12t116 -30l-35 -196q-87 26 -163 26q-72 0 -105.5 -50.5t-33.5 -155.5v-54h287l-32 -208h-255v-874h-285v874zM1713 1082h287v-1082h-287v1082zM1773 1241.5q-37 20.5 -57.5 57t-20.5 81.5q0 70 45.5 114.5t116.5 44.5q46 0 83.5 -20.5t59 -56.5t21.5 -82
q0 -45 -21.5 -81t-59.5 -57t-83 -21q-47 0 -84 20.5z" />
    <glyph glyph-name="f_f_l" unicode="ffl" horiz-adv-x="2211" 
d="M216 874h-170l33 185l137 23v75q0 138 48 226.5t130.5 129.5t188.5 41q72 0 139 -12t116 -30l-35 -196q-87 26 -163 26q-72 0 -105.5 -50.5t-33.5 -155.5v-54h287l-32 -208h-255v-874h-285v874zM976 874h-170l33 185l137 23v75q0 138 48 226.5t130.5 129.5t188.5 41
q72 0 139 -12t116 -30l-35 -196q-87 26 -163 26q-72 0 -105.5 -50.5t-33.5 -155.5v-54h287l-32 -208h-255v-874h-285v874zM1772.5 50.5q-69.5 70.5 -69.5 221.5v1262l287 20v-1230q0 -65 24.5 -91.5t71.5 -26.5q31 0 71 13l33 -202q-40 -17 -99.5 -27t-113.5 -10
q-135 0 -204.5 70.5z" />
    <glyph glyph-name="fi" unicode="fi" horiz-adv-x="1395" 
d="M216 874h-170l33 185l137 23v75q0 138 48 226.5t130.5 129.5t188.5 41q72 0 139 -12t116 -30l-35 -196q-87 26 -163 26q-72 0 -105.5 -50.5t-33.5 -155.5v-54h287l-32 -208h-255v-874h-285v874zM953 1082h287v-1082h-287v1082zM1013 1241.5q-37 20.5 -57.5 57t-20.5 81.5
q0 70 45.5 114.5t116.5 44.5q46 0 83.5 -20.5t59 -56.5t21.5 -82q0 -45 -21.5 -81t-59.5 -57t-83 -21q-47 0 -84 20.5z" />
    <glyph glyph-name="fl" unicode="fl" horiz-adv-x="1451" 
d="M216 874h-170l33 185l137 23v75q0 138 48 226.5t130.5 129.5t188.5 41q72 0 139 -12t116 -30l-35 -196q-87 26 -163 26q-72 0 -105.5 -50.5t-33.5 -155.5v-54h287l-32 -208h-255v-874h-285v874zM1012.5 50.5q-69.5 70.5 -69.5 221.5v1262l287 20v-1230q0 -65 24.5 -91.5
t71.5 -26.5q31 0 71 13l33 -202q-40 -17 -99.5 -27t-113.5 -10q-135 0 -204.5 70.5z" />
    <glyph glyph-name=".notdef" horiz-adv-x="1202" 
d="M50 1530h1102v-1909h-1102v1909zM1003 -244v1639h-803v-1639h803z" />
    <glyph glyph-name="nonmarkingreturn" unicode="&#xd;" horiz-adv-x="639" 
 />
    <glyph glyph-name="space" unicode=" " horiz-adv-x="639" 
 />
    <glyph glyph-name="uni0000" horiz-adv-x="0" 
 />
    <glyph glyph-name="uni0000" horiz-adv-x="0" 
 />
    <glyph glyph-name="A" unicode="A" horiz-adv-x="1417" 
d="M975 367h-554l-131 -367h-293l562 1449h286l574 -1449h-311zM501 591h393l-139 383q-30 79 -59 185q-24 -88 -57 -184z" />
    <glyph glyph-name="Aacute" unicode="&#xc1;" horiz-adv-x="1417" 
d="M975 367h-554l-131 -367h-293l562 1449h286l574 -1449h-311zM501 591h393l-139 383q-30 79 -59 185q-24 -88 -57 -184zM511 1556l262 313l289 -25l-369 -310z" />
    <glyph glyph-name="Abreve" unicode="&#x102;" horiz-adv-x="1417" 
d="M975 367h-554l-131 -367h-293l562 1449h286l574 -1449h-311zM501 591h393l-139 383q-30 79 -59 185q-24 -88 -57 -184zM507.5 1576.5q-77.5 43.5 -118.5 111.5t-52 147h168q29 -137 195 -137q167 0 196 137h168q-10 -78 -50.5 -146t-119.5 -112t-194 -44t-192.5 43.5z
" />
    <glyph glyph-name="Acircumflex" unicode="&#xc2;" horiz-adv-x="1417" 
d="M975 367h-554l-131 -367h-293l562 1449h286l574 -1449h-311zM501 591h393l-139 383q-30 79 -59 185q-24 -88 -57 -184zM301 1555l242 300h319l243 -302l-175 -22l-228 185l-225 -185z" />
    <glyph glyph-name="Adieresis" unicode="&#xc4;" horiz-adv-x="1417" 
d="M975 367h-554l-131 -367h-293l562 1449h286l574 -1449h-311zM501 591h393l-139 383q-30 79 -59 185q-24 -88 -57 -184zM374.5 1618q-40.5 38 -40.5 102q0 61 41 99.5t102 38.5q63 0 104 -39t41 -99q0 -63 -41.5 -101.5t-103.5 -38.5t-102.5 38zM824.5 1618
q-40.5 38 -40.5 102q0 61 40.5 99.5t102.5 38.5t103.5 -39.5t41.5 -98.5q0 -62 -42 -101t-103 -39q-62 0 -102.5 38z" />
    <glyph glyph-name="Agrave" unicode="&#xc0;" horiz-adv-x="1417" 
d="M975 367h-554l-131 -367h-293l562 1449h286l574 -1449h-311zM501 591h393l-139 383q-30 79 -59 185q-24 -88 -57 -184zM331 1844l289 25l262 -313l-176 -22z" />
    <glyph glyph-name="Amacron" unicode="&#x100;" horiz-adv-x="1417" 
d="M975 367h-554l-131 -367h-293l562 1449h286l574 -1449h-311zM501 591h393l-139 383q-30 79 -59 185q-24 -88 -57 -184zM372 1806h658v-189h-658v189z" />
    <glyph glyph-name="Aogonek" unicode="&#x104;" horiz-adv-x="1417" 
d="M1300 -264q21 4 48 16l33 -146q-65 -30 -163 -30q-85 0 -141.5 27.5t-84 75t-27.5 106.5q0 139 153 215h-10l-133 367h-554l-131 -367h-293l562 1449h286l574 -1449h-102q-71 -29 -113 -72t-42 -98q0 -45 25 -71.5t67 -26.5q25 0 46 4zM501 591h393l-139 383
q-30 79 -59 185q-24 -88 -57 -184z" />
    <glyph glyph-name="Aring" unicode="&#xc5;" horiz-adv-x="1417" 
d="M975 367h-554l-131 -367h-293l562 1449h286l574 -1449h-311zM501 591h393l-139 383q-30 79 -59 185q-24 -88 -57 -184zM575.5 1540q-56.5 31 -88.5 85.5t-32 123.5t32 124t88.5 86t127.5 31q72 0 129 -31t89.5 -86t32.5 -124t-32.5 -123.5t-89.5 -85.5t-129 -31
q-71 0 -127.5 31zM777 1676q28 28 28 75q0 45 -28 72t-74 27q-45 0 -72 -27t-27 -72q0 -47 27 -75t72 -28q46 0 74 28z" />
    <glyph glyph-name="Aringacute" unicode="&#x1fa;" horiz-adv-x="1417" 
d="M975 367h-554l-131 -367h-293l534 1376q-36 33 -55.5 78.5t-19.5 98.5q0 63 27 114.5t75 84.5l187 223l289 -25l-215 -180q63 -30 99.5 -87t36.5 -130q0 -55 -21 -101.5t-59 -78.5l544 -1373h-311zM679 1651l-14 -11l-13 2q-23 -12 -35 -34.5t-12 -52.5q0 -47 27 -75
t72 -28q46 0 74 28t28 75q0 45 -28 72t-74 27q-13 0 -25 -3zM755 974q-30 79 -59 185q-24 -88 -57 -184l-138 -384h393z" />
    <glyph glyph-name="Atilde" unicode="&#xc3;" horiz-adv-x="1417" 
d="M975 367h-554l-131 -367h-293l562 1449h286l574 -1449h-311zM501 591h393l-139 383q-30 79 -59 185q-24 -88 -57 -184zM287 1611q10 127 66 198.5t154 71.5q55 0 105.5 -19t114.5 -52q45 -24 75 -35t64 -11q47 0 73 26t38 93l146 -45q-13 -124 -66.5 -197.5t-157.5 -73.5
q-52 0 -100 16.5t-119 51.5q-59 30 -90 42t-61 12q-45 0 -69 -29.5t-37 -92.5z" />
    <glyph glyph-name="AE" unicode="&#xc6;" horiz-adv-x="1902" 
d="M1803 235l-18 -235h-867v357l-473 2l-146 -359h-302l625 1447h1169l-22 -232h-565v-355h533v-224h-533v-401h599zM544 595h373v615h-128z" />
    <glyph glyph-name="AEacute" unicode="&#x1fc;" horiz-adv-x="1902" 
d="M1803 235l-18 -235h-867v357l-473 2l-146 -359h-302l625 1447h1169l-22 -232h-565v-355h533v-224h-533v-401h599zM544 595h373v615h-128zM911 1556l262 313l289 -25l-369 -310z" />
    <glyph glyph-name="B" unicode="B" horiz-adv-x="1278" 
d="M1039 712.5q77 -46.5 121 -123.5t44 -180q0 -121 -61.5 -213.5t-181 -144t-285.5 -51.5h-497v1448h486q236 0 351 -89.5t115 -246.5q0 -131 -75 -217.5t-193 -120.5q99 -15 176 -61.5zM461 865h138q73 0 127.5 28t84 76t29.5 106q0 82 -60 123.5t-171 41.5h-148v-375z
M842.5 267.5q72.5 57.5 72.5 161.5q0 111 -79 168t-229 57h-146v-444h163q146 0 218.5 57.5z" />
    <glyph glyph-name="C" unicode="C" horiz-adv-x="1288" 
d="M428 64.5q-164 84.5 -251.5 247.5t-87.5 393q0 238 92 410t257 262.5t378 90.5q118 0 226.5 -27t198.5 -75l-67 -215q-177 91 -344 91q-141 0 -240.5 -64t-150.5 -182t-51 -278q0 -151 48 -266t150.5 -180.5t260.5 -65.5q168 0 351 82l62 -211q-92 -46 -199 -71.5
t-242 -25.5q-227 0 -391 84.5z" />
    <glyph glyph-name="Cacute" unicode="&#x106;" horiz-adv-x="1288" 
d="M428 64.5q-164 84.5 -251.5 247.5t-87.5 393q0 238 92 410t257 262.5t378 90.5q118 0 226.5 -27t198.5 -75l-67 -215q-177 91 -344 91q-141 0 -240.5 -64t-150.5 -182t-51 -278q0 -151 48 -266t150.5 -180.5t260.5 -65.5q168 0 351 82l62 -211q-92 -46 -199 -71.5
t-242 -25.5q-227 0 -391 84.5zM601 1556l262 313l289 -25l-369 -310z" />
    <glyph glyph-name="Ccaron" unicode="&#x10c;" horiz-adv-x="1288" 
d="M428 64.5q-164 84.5 -251.5 247.5t-87.5 393q0 238 92 410t257 262.5t378 90.5q118 0 226.5 -27t198.5 -75l-67 -215q-177 91 -344 91q-141 0 -240.5 -64t-150.5 -182t-51 -278q0 -151 48 -266t150.5 -180.5t260.5 -65.5q168 0 351 82l62 -211q-92 -46 -199 -71.5
t-242 -25.5q-227 0 -391 84.5zM1193 1837l-242 -300h-319l-243 302l175 22l228 -185l225 185z" />
    <glyph glyph-name="Ccedilla" unicode="&#xc7;" horiz-adv-x="1288" 
d="M947.5 -130.5q51.5 -44.5 51.5 -124.5q0 -95 -68.5 -147.5t-204.5 -52.5q-133 0 -238 57l47 127q94 -47 177 -47q48 0 76.5 16.5t28.5 48.5q0 30 -25.5 48t-70 28.5t-122.5 22.5l58 146q-179 28 -306 119.5t-194.5 242t-67.5 351.5q0 238 92 410t257 262.5t378 90.5
q118 0 226.5 -27t198.5 -75l-67 -215q-177 91 -344 91q-141 0 -240.5 -64t-150.5 -182t-51 -278q0 -151 48 -266t150.5 -180.5t260.5 -65.5q168 0 351 82l62 -211q-92 -46 -199 -71.5t-242 -25.5h-3l-19 -44q99 -22 150.5 -66.5z" />
    <glyph glyph-name="Ccircumflex" unicode="&#x108;" horiz-adv-x="1288" 
d="M428 64.5q-164 84.5 -251.5 247.5t-87.5 393q0 238 92 410t257 262.5t378 90.5q118 0 226.5 -27t198.5 -75l-67 -215q-177 91 -344 91q-141 0 -240.5 -64t-150.5 -182t-51 -278q0 -151 48 -266t150.5 -180.5t260.5 -65.5q168 0 351 82l62 -211q-92 -46 -199 -71.5
t-242 -25.5q-227 0 -391 84.5zM391 1555l242 300h319l243 -302l-175 -22l-228 185l-225 -185z" />
    <glyph glyph-name="Cdotaccent" unicode="&#x10a;" horiz-adv-x="1288" 
d="M428 64.5q-164 84.5 -251.5 247.5t-87.5 393q0 238 92 410t257 262.5t378 90.5q118 0 226.5 -27t198.5 -75l-67 -215q-177 91 -344 91q-141 0 -240.5 -64t-150.5 -182t-51 -278q0 -151 48 -266t150.5 -180.5t260.5 -65.5q168 0 351 82l62 -211q-92 -46 -199 -71.5
t-242 -25.5q-227 0 -391 84.5zM704 1582.5q-37 20.5 -57.5 57t-20.5 81.5q0 70 45.5 114.5t116.5 44.5q46 0 83.5 -20.5t59 -56.5t21.5 -82q0 -45 -21.5 -81t-59.5 -57t-83 -21q-47 0 -84 20.5z" />
    <glyph glyph-name="D" unicode="D" horiz-adv-x="1513" 
d="M179 1448h501q234 0 400.5 -77t255 -228.5t88.5 -369.5q0 -223 -92.5 -398.5t-266.5 -275t-409 -99.5h-477v1448zM640 225q157 0 266 69.5t163 191t54 278.5q0 227 -116.5 343t-346.5 116h-190v-998h170z" />
    <glyph glyph-name="Eth" unicode="&#xd0;" horiz-adv-x="1513" 
d="M1080.5 1371q166.5 -77 255 -228.5t88.5 -369.5q0 -223 -92.5 -398.5t-266.5 -275t-409 -99.5h-477v639h-151l20 212h131v597h501q234 0 400.5 -77zM906 294.5q109 69.5 163 191t54 278.5q0 227 -116.5 343t-346.5 116h-190v-372h330l-21 -212h-309v-414h170
q157 0 266 69.5z" />
    <glyph glyph-name="Dcaron" unicode="&#x10e;" horiz-adv-x="1513" 
d="M179 1448h501q234 0 400.5 -77t255 -228.5t88.5 -369.5q0 -223 -92.5 -398.5t-266.5 -275t-409 -99.5h-477v1448zM640 225q157 0 266 69.5t163 191t54 278.5q0 227 -116.5 343t-346.5 116h-190v-998h170zM1140 1837l-242 -300h-319l-243 302l175 22l228 -185l225 185z
" />
    <glyph glyph-name="Dcroat" unicode="&#x110;" horiz-adv-x="1513" 
d="M1080.5 1371q166.5 -77 255 -228.5t88.5 -369.5q0 -223 -92.5 -398.5t-266.5 -275t-409 -99.5h-477v639h-151l20 212h131v597h501q234 0 400.5 -77zM906 294.5q109 69.5 163 191t54 278.5q0 227 -116.5 343t-346.5 116h-190v-372h330l-21 -212h-309v-414h170
q157 0 266 69.5z" />
    <glyph glyph-name="E" unicode="E" horiz-adv-x="1155" 
d="M179 1448h871l-24 -235h-556v-359h523v-219h-523v-398h587l-21 -237h-857v1448z" />
    <glyph glyph-name="Eacute" unicode="&#xc9;" horiz-adv-x="1155" 
d="M179 1448h871l-24 -235h-556v-359h523v-219h-523v-398h587l-21 -237h-857v1448zM429 1556l262 313l289 -25l-369 -310z" />
    <glyph glyph-name="Ebreve" unicode="&#x114;" horiz-adv-x="1155" 
d="M179 1448h871l-24 -235h-556v-359h523v-219h-523v-398h587l-21 -237h-857v1448zM425.5 1576.5q-77.5 43.5 -118.5 111.5t-52 147h168q29 -137 195 -137q167 0 196 137h168q-10 -78 -50.5 -146t-119.5 -112t-194 -44t-192.5 43.5z" />
    <glyph glyph-name="Ecaron" unicode="&#x11a;" horiz-adv-x="1155" 
d="M179 1448h871l-24 -235h-556v-359h523v-219h-523v-398h587l-21 -237h-857v1448zM1021 1837l-242 -300h-319l-243 302l175 22l228 -185l225 185z" />
    <glyph glyph-name="Ecircumflex" unicode="&#xca;" horiz-adv-x="1155" 
d="M179 1448h871l-24 -235h-556v-359h523v-219h-523v-398h587l-21 -237h-857v1448zM219 1555l242 300h319l243 -302l-175 -22l-228 185l-225 -185z" />
    <glyph glyph-name="Edieresis" unicode="&#xcb;" horiz-adv-x="1155" 
d="M179 1448h871l-24 -235h-556v-359h523v-219h-523v-398h587l-21 -237h-857v1448zM292.5 1618q-40.5 38 -40.5 102q0 61 41 99.5t102 38.5q63 0 104 -39t41 -99q0 -63 -41.5 -101.5t-103.5 -38.5t-102.5 38zM742.5 1618q-40.5 38 -40.5 102q0 61 40.5 99.5t102.5 38.5
t103.5 -39.5t41.5 -98.5q0 -62 -42 -101t-103 -39q-62 0 -102.5 38z" />
    <glyph glyph-name="Edotaccent" unicode="&#x116;" horiz-adv-x="1155" 
d="M179 1448h871l-24 -235h-556v-359h523v-219h-523v-398h587l-21 -237h-857v1448zM532 1582.5q-37 20.5 -57.5 57t-20.5 81.5q0 70 45.5 114.5t116.5 44.5q46 0 83.5 -20.5t59 -56.5t21.5 -82q0 -45 -21.5 -81t-59.5 -57t-83 -21q-47 0 -84 20.5z" />
    <glyph glyph-name="Egrave" unicode="&#xc8;" horiz-adv-x="1155" 
d="M179 1448h871l-24 -235h-556v-359h523v-219h-523v-398h587l-21 -237h-857v1448zM249 1844l289 25l262 -313l-176 -22z" />
    <glyph glyph-name="Emacron" unicode="&#x112;" horiz-adv-x="1155" 
d="M179 1448h871l-24 -235h-556v-359h523v-219h-523v-398h587l-21 -237h-857v1448zM290 1806h658v-189h-658v189z" />
    <glyph glyph-name="Eogonek" unicode="&#x118;" horiz-adv-x="1155" 
d="M832 -72q-42 -43 -42 -98q0 -45 25 -71.5t67 -26.5q25 0 46 4t48 16l33 -146q-65 -30 -163 -30q-85 0 -141.5 27.5t-84 75t-27.5 106.5q0 139 153 215h-567v1448h871l-24 -235h-556v-359h523v-219h-523v-398h587l-21 -237h-91q-71 -29 -113 -72z" />
    <glyph glyph-name="F" unicode="F" horiz-adv-x="1110" 
d="M179 1448h870l-22 -235h-557v-365h519v-219h-519v-629h-291v1448z" />
    <glyph glyph-name="G" unicode="G" horiz-adv-x="1485" 
d="M428.5 67.5q-162.5 87.5 -251 252.5t-88.5 392q0 247 101.5 417t274 254.5t386.5 84.5q239 0 453 -100l-66 -218q-193 92 -372 92q-145 0 -252.5 -61t-166.5 -179.5t-59 -287.5q0 -148 45.5 -262.5t142.5 -180.5t247 -66q132 0 250 41v267h-318v216h596v-629
q-126 -58 -264.5 -89t-276.5 -31q-219 0 -381.5 87.5z" />
    <glyph glyph-name="Gbreve" unicode="&#x11e;" horiz-adv-x="1485" 
d="M428.5 67.5q-162.5 87.5 -251 252.5t-88.5 392q0 247 101.5 417t274 254.5t386.5 84.5q239 0 453 -100l-66 -218q-193 92 -372 92q-145 0 -252.5 -61t-166.5 -179.5t-59 -287.5q0 -148 45.5 -262.5t142.5 -180.5t247 -66q132 0 250 41v267h-318v216h596v-629
q-126 -58 -264.5 -89t-276.5 -31q-219 0 -381.5 87.5zM619.5 1576.5q-77.5 43.5 -118.5 111.5t-52 147h168q29 -137 195 -137q167 0 196 137h168q-10 -78 -50.5 -146t-119.5 -112t-194 -44t-192.5 43.5z" />
    <glyph glyph-name="Gcircumflex" unicode="&#x11c;" horiz-adv-x="1485" 
d="M428.5 67.5q-162.5 87.5 -251 252.5t-88.5 392q0 247 101.5 417t274 254.5t386.5 84.5q239 0 453 -100l-66 -218q-193 92 -372 92q-145 0 -252.5 -61t-166.5 -179.5t-59 -287.5q0 -148 45.5 -262.5t142.5 -180.5t247 -66q132 0 250 41v267h-318v216h596v-629
q-126 -58 -264.5 -89t-276.5 -31q-219 0 -381.5 87.5zM413 1555l242 300h319l243 -302l-175 -22l-228 185l-225 -185z" />
    <glyph glyph-name="Gcommaaccent" unicode="&#x122;" horiz-adv-x="1485" 
d="M428.5 67.5q-162.5 87.5 -251 252.5t-88.5 392q0 247 101.5 417t274 254.5t386.5 84.5q239 0 453 -100l-66 -218q-193 92 -372 92q-145 0 -252.5 -61t-166.5 -179.5t-59 -287.5q0 -148 45.5 -262.5t142.5 -180.5t247 -66q132 0 250 41v267h-318v216h596v-629
q-126 -58 -264.5 -89t-276.5 -31q-219 0 -381.5 87.5zM647 -503q39 89 56.5 179t17.5 201l237 -16q0 -109 -38 -209.5t-91 -179.5z" />
    <glyph glyph-name="Gdotaccent" unicode="&#x120;" horiz-adv-x="1485" 
d="M428.5 67.5q-162.5 87.5 -251 252.5t-88.5 392q0 247 101.5 417t274 254.5t386.5 84.5q239 0 453 -100l-66 -218q-193 92 -372 92q-145 0 -252.5 -61t-166.5 -179.5t-59 -287.5q0 -148 45.5 -262.5t142.5 -180.5t247 -66q132 0 250 41v267h-318v216h596v-629
q-126 -58 -264.5 -89t-276.5 -31q-219 0 -381.5 87.5zM726 1582.5q-37 20.5 -57.5 57t-20.5 81.5q0 70 45.5 114.5t116.5 44.5q46 0 83.5 -20.5t59 -56.5t21.5 -82q0 -45 -21.5 -81t-59.5 -57t-83 -21q-47 0 -84 20.5z" />
    <glyph glyph-name="H" unicode="H" horiz-adv-x="1587" 
d="M179 1448h291v-580h648v580h291v-1448h-291v636h-648v-636h-291v1448z" />
    <glyph glyph-name="Hbar" unicode="&#x126;" horiz-adv-x="1587" 
d="M1409 1448v-1448h-291v636h-648v-636h-291v1448h291v-204h648v204h291zM1118 868v188h-648v-188h648z" />
    <glyph glyph-name="Hcircumflex" unicode="&#x124;" horiz-adv-x="1587" 
d="M179 1448h291v-580h648v580h291v-1448h-291v636h-648v-636h-291v1448zM392 1555l242 300h319l243 -302l-175 -22l-228 185l-225 -185z" />
    <glyph glyph-name="I" unicode="I" horiz-adv-x="649" 
d="M179 1448h291v-1448h-291v1448z" />
    <glyph glyph-name="IJ" unicode="&#x132;" horiz-adv-x="1412" 
d="M179 1448h291v-1448h-291v1448zM653 2l18 228q47 -10 87 -10q81 0 127 35t64.5 101t18.5 168v924h289v-943q0 -253 -109.5 -386t-346.5 -133q-81 0 -148 16z" />
    <glyph glyph-name="Iacute" unicode="&#xcd;" horiz-adv-x="649" 
d="M179 1448h291v-1448h-291v1448zM133 1556l262 313l289 -25l-369 -310z" />
    <glyph glyph-name="Ibreve" unicode="&#x12c;" horiz-adv-x="649" 
d="M179 1448h291v-1448h-291v1448zM141 1576.5q-73 43.5 -112 111.5t-49 147h164q27 -141 178 -141q152 0 179 141h165q-9 -78 -48 -146t-113 -112t-183 -44q-108 0 -181 43.5z" />
    <glyph glyph-name="Icircumflex" unicode="&#xce;" horiz-adv-x="649" 
d="M179 1448h291v-1448h-291v1448zM-40 1551l205 302h319l204 -302l-174 -22l-190 186l-188 -186z" />
    <glyph glyph-name="Idieresis" unicode="&#xcf;" horiz-adv-x="649" 
d="M179 1448h291v-1448h-291v1448zM23 1619.5q-40 37.5 -40 100.5q0 60 40.5 98t100.5 38q63 0 103 -38.5t40 -97.5q0 -62 -41 -100t-102 -38t-101 37.5zM424 1619.5q-40 37.5 -40 100.5q0 60 40.5 98t100.5 38q62 0 102.5 -39t40.5 -97q0 -62 -41 -100t-102 -38t-101 37.5z
" />
    <glyph glyph-name="Idotaccent" unicode="&#x130;" horiz-adv-x="649" 
d="M179 1448h291v-1448h-291v1448zM236 1582.5q-37 20.5 -57.5 57t-20.5 81.5q0 70 45.5 114.5t116.5 44.5q46 0 83.5 -20.5t59 -56.5t21.5 -82q0 -45 -21.5 -81t-59.5 -57t-83 -21q-47 0 -84 20.5z" />
    <glyph glyph-name="Igrave" unicode="&#xcc;" horiz-adv-x="649" 
d="M179 1448h291v-1448h-291v1448zM-47 1844l289 25l262 -313l-176 -22z" />
    <glyph glyph-name="Imacron" unicode="&#x12a;" horiz-adv-x="649" 
d="M179 1448h291v-1448h-291v1448zM23 1806h604v-189h-604v189z" />
    <glyph glyph-name="Iogonek" unicode="&#x12e;" horiz-adv-x="649" 
d="M498 -394q-65 -30 -163 -30q-85 0 -141.5 27.5t-84 75t-27.5 106.5q0 139 153 215h-56v1448h291v-1448h-36q-71 -29 -113 -72t-42 -98q0 -45 25 -71.5t67 -26.5q25 0 46 4t48 16z" />
    <glyph glyph-name="Itilde" unicode="&#x128;" horiz-adv-x="649" 
d="M179 1448h291v-1448h-291v1448zM-23 1621q7 118 57 181.5t132 63.5q45 0 85.5 -17t92.5 -50q34 -22 59 -32t53 -10q38 0 59 24.5t30 87.5l131 -41q-9 -115 -57.5 -180.5t-135.5 -65.5q-43 0 -79.5 15t-96.5 49q-43 26 -70 38t-51 12q-36 0 -56 -28t-29 -86z" />
    <glyph glyph-name="J" unicode="J" horiz-adv-x="763" 
d="M4 2l18 228q47 -10 87 -10q81 0 127 35t64.5 101t18.5 168v924h289v-943q0 -253 -109.5 -386t-346.5 -133q-81 0 -148 16z" />
    <glyph glyph-name="Jcircumflex" unicode="&#x134;" horiz-adv-x="763" 
d="M4 2l18 228q47 -10 87 -10q81 0 127 35t64.5 101t18.5 168v924h289v-943q0 -253 -109.5 -386t-346.5 -133q-81 0 -148 16zM102 1551l205 302h319l204 -302l-174 -22l-190 186l-188 -186z" />
    <glyph glyph-name="K" unicode="K" horiz-adv-x="1348" 
d="M179 1448h291v-708l24 31q19 25 44.5 59t57.5 78l393 540h320l-488 -634l531 -814h-324l-389 616l-169 -182v-434h-291v1448z" />
    <glyph glyph-name="Kcommaaccent" unicode="&#x136;" horiz-adv-x="1348" 
d="M179 1448h291v-708l24 31q19 25 44.5 59t57.5 78l393 540h320l-488 -634l531 -814h-324l-389 616l-169 -182v-434h-291v1448zM564 -503q39 89 56.5 179t17.5 201l237 -16q0 -109 -38 -209.5t-91 -179.5z" />
    <glyph glyph-name="L" unicode="L" horiz-adv-x="1098" 
d="M179 1448h291v-1203h580l-21 -245h-850v1448z" />
    <glyph glyph-name="Lacute" unicode="&#x139;" horiz-adv-x="1098" 
d="M179 1448h291v-1203h580l-21 -245h-850v1448zM189 1556l262 313l289 -25l-369 -310z" />
    <glyph glyph-name="Lcaron" unicode="&#x13d;" horiz-adv-x="1098" 
d="M179 1448h291v-1203h580l-21 -245h-850v1448zM661 1130q32 87 49 186.5t17 200.5l239 -19q0 -99 -36.5 -205t-85.5 -188z" />
    <glyph glyph-name="Lcommaaccent" unicode="&#x13b;" horiz-adv-x="1098" 
d="M179 1448h291v-1203h580l-21 -245h-850v1448zM450 -503q39 89 56.5 179t17.5 201l237 -16q0 -109 -38 -209.5t-91 -179.5z" />
    <glyph glyph-name="Ldot" unicode="&#x13f;" horiz-adv-x="1098" 
d="M179 1448h291v-1203h580l-21 -245h-850v1448zM784 670.5q-37 20.5 -57.5 57t-20.5 81.5q0 70 45.5 114.5t116.5 44.5q46 0 83.5 -20.5t59 -56.5t21.5 -82q0 -45 -21.5 -81t-59.5 -57t-83 -21q-47 0 -84 20.5z" />
    <glyph glyph-name="Lslash" unicode="&#x141;" horiz-adv-x="1098" 
d="M1050 245l-21 -245h-850v535l-158 -91v244l158 91v669h291v-501l300 173v-244l-300 -173v-458h580z" />
    <glyph glyph-name="M" unicode="M" horiz-adv-x="1956" 
d="M533 846q-27 71 -55 159t-46 150q11 -159 11 -351v-804h-264v1448h411l303 -803q59 -156 85 -275q36 143 88 276l313 802h398v-1448h-289v804q0 137 14 351q-62 -225 -115 -358l-314 -799h-220z" />
    <glyph glyph-name="N" unicode="N" horiz-adv-x="1620" 
d="M179 1448h335l670 -1074q-10 180 -10 295v779h267v-1448h-325l-681 1091q11 -189 11 -340v-751h-267v1448z" />
    <glyph glyph-name="Nacute" unicode="&#x143;" horiz-adv-x="1620" 
d="M179 1448h335l670 -1074q-10 180 -10 295v779h267v-1448h-325l-681 1091q11 -189 11 -340v-751h-267v1448zM652 1556l262 313l289 -25l-369 -310z" />
    <glyph glyph-name="Ncaron" unicode="&#x147;" horiz-adv-x="1620" 
d="M179 1448h335l670 -1074q-10 180 -10 295v779h267v-1448h-325l-681 1091q11 -189 11 -340v-751h-267v1448zM1244 1837l-242 -300h-319l-243 302l175 22l228 -185l225 185z" />
    <glyph glyph-name="Ncommaaccent" unicode="&#x145;" horiz-adv-x="1620" 
d="M179 1448h335l670 -1074q-10 180 -10 295v779h267v-1448h-325l-681 1091q11 -189 11 -340v-751h-267v1448zM628 -503q39 89 56.5 179t17.5 201l237 -16q0 -109 -38 -209.5t-91 -179.5z" />
    <glyph glyph-name="Eng" unicode="&#x14a;" horiz-adv-x="1620" 
d="M908.5 -446.5q-38.5 4.5 -70.5 12.5l18 212q45 -10 88 -10q110 0 156.5 56t50.5 171l-716 1096q11 -189 11 -340v-751h-267v1448h336l669 -1024q-4 53 -7 138t-3 157v729h267v-1437q0 -227 -110.5 -344.5t-352.5 -117.5q-31 0 -69.5 4.5z" />
    <glyph glyph-name="Ntilde" unicode="&#xd1;" horiz-adv-x="1620" 
d="M179 1448h335l670 -1074q-10 180 -10 295v779h267v-1448h-325l-681 1091q11 -189 11 -340v-751h-267v1448zM428 1611q10 127 66 198.5t154 71.5q55 0 105.5 -19t114.5 -52q45 -24 75 -35t64 -11q47 0 73 26t38 93l146 -45q-13 -124 -66.5 -197.5t-157.5 -73.5
q-52 0 -100 16.5t-119 51.5q-59 30 -90 42t-61 12q-45 0 -69 -29.5t-37 -92.5z" />
    <glyph glyph-name="O" unicode="O" horiz-adv-x="1647" 
d="M420.5 71q-161.5 91 -246.5 255.5t-85 382.5q0 229 91 400.5t261.5 265t403.5 93.5q223 0 383.5 -90.5t245 -254.5t84.5 -380q0 -232 -92 -404.5t-262.5 -265.5t-399.5 -93q-222 0 -383.5 91zM1058.5 272q97.5 67 146.5 184.5t49 268.5q0 148 -43 264t-137.5 185
t-242.5 69q-142 0 -241 -70t-148.5 -187.5t-49.5 -258.5q0 -149 47 -267t143 -186.5t237 -68.5q142 0 239.5 67z" />
    <glyph glyph-name="Oacute" unicode="&#xd3;" horiz-adv-x="1647" 
d="M420.5 71q-161.5 91 -246.5 255.5t-85 382.5q0 229 91 400.5t261.5 265t403.5 93.5q223 0 383.5 -90.5t245 -254.5t84.5 -380q0 -232 -92 -404.5t-262.5 -265.5t-399.5 -93q-222 0 -383.5 91zM1058.5 272q97.5 67 146.5 184.5t49 268.5q0 148 -43 264t-137.5 185
t-242.5 69q-142 0 -241 -70t-148.5 -187.5t-49.5 -258.5q0 -149 47 -267t143 -186.5t237 -68.5q142 0 239.5 67zM636 1556l262 313l289 -25l-369 -310z" />
    <glyph glyph-name="Obreve" unicode="&#x14e;" horiz-adv-x="1647" 
d="M420.5 71q-161.5 91 -246.5 255.5t-85 382.5q0 229 91 400.5t261.5 265t403.5 93.5q223 0 383.5 -90.5t245 -254.5t84.5 -380q0 -232 -92 -404.5t-262.5 -265.5t-399.5 -93q-222 0 -383.5 91zM1058.5 272q97.5 67 146.5 184.5t49 268.5q0 148 -43 264t-137.5 185
t-242.5 69q-142 0 -241 -70t-148.5 -187.5t-49.5 -258.5q0 -149 47 -267t143 -186.5t237 -68.5q142 0 239.5 67zM632.5 1576.5q-77.5 43.5 -118.5 111.5t-52 147h168q29 -137 195 -137q167 0 196 137h168q-10 -78 -50.5 -146t-119.5 -112t-194 -44t-192.5 43.5z" />
    <glyph glyph-name="Ocircumflex" unicode="&#xd4;" horiz-adv-x="1647" 
d="M420.5 71q-161.5 91 -246.5 255.5t-85 382.5q0 229 91 400.5t261.5 265t403.5 93.5q223 0 383.5 -90.5t245 -254.5t84.5 -380q0 -232 -92 -404.5t-262.5 -265.5t-399.5 -93q-222 0 -383.5 91zM1058.5 272q97.5 67 146.5 184.5t49 268.5q0 148 -43 264t-137.5 185
t-242.5 69q-142 0 -241 -70t-148.5 -187.5t-49.5 -258.5q0 -149 47 -267t143 -186.5t237 -68.5q142 0 239.5 67zM426 1555l242 300h319l243 -302l-175 -22l-228 185l-225 -185z" />
    <glyph glyph-name="Odieresis" unicode="&#xd6;" horiz-adv-x="1647" 
d="M420.5 71q-161.5 91 -246.5 255.5t-85 382.5q0 229 91 400.5t261.5 265t403.5 93.5q223 0 383.5 -90.5t245 -254.5t84.5 -380q0 -232 -92 -404.5t-262.5 -265.5t-399.5 -93q-222 0 -383.5 91zM1058.5 272q97.5 67 146.5 184.5t49 268.5q0 148 -43 264t-137.5 185
t-242.5 69q-142 0 -241 -70t-148.5 -187.5t-49.5 -258.5q0 -149 47 -267t143 -186.5t237 -68.5q142 0 239.5 67zM499.5 1618q-40.5 38 -40.5 102q0 61 41 99.5t102 38.5q63 0 104 -39t41 -99q0 -63 -41.5 -101.5t-103.5 -38.5t-102.5 38zM949.5 1618q-40.5 38 -40.5 102
q0 61 40.5 99.5t102.5 38.5t103.5 -39.5t41.5 -98.5q0 -62 -42 -101t-103 -39q-62 0 -102.5 38z" />
    <glyph glyph-name="Ograve" unicode="&#xd2;" horiz-adv-x="1647" 
d="M420.5 71q-161.5 91 -246.5 255.5t-85 382.5q0 229 91 400.5t261.5 265t403.5 93.5q223 0 383.5 -90.5t245 -254.5t84.5 -380q0 -232 -92 -404.5t-262.5 -265.5t-399.5 -93q-222 0 -383.5 91zM1058.5 272q97.5 67 146.5 184.5t49 268.5q0 148 -43 264t-137.5 185
t-242.5 69q-142 0 -241 -70t-148.5 -187.5t-49.5 -258.5q0 -149 47 -267t143 -186.5t237 -68.5q142 0 239.5 67zM456 1844l289 25l262 -313l-176 -22z" />
    <glyph glyph-name="Ohungarumlaut" unicode="&#x150;" horiz-adv-x="1647" 
d="M420.5 71q-161.5 91 -246.5 255.5t-85 382.5q0 229 91 400.5t261.5 265t403.5 93.5q223 0 383.5 -90.5t245 -254.5t84.5 -380q0 -232 -92 -404.5t-262.5 -265.5t-399.5 -93q-222 0 -383.5 91zM1058.5 272q97.5 67 146.5 184.5t49 268.5q0 148 -43 264t-137.5 185
t-242.5 69q-142 0 -241 -70t-148.5 -187.5t-49.5 -258.5q0 -149 47 -267t143 -186.5t237 -68.5q142 0 239.5 67zM861 1564l262 313l289 -25l-369 -310zM457 1564l262 313l289 -25l-369 -310z" />
    <glyph glyph-name="Omacron" unicode="&#x14c;" horiz-adv-x="1647" 
d="M420.5 71q-161.5 91 -246.5 255.5t-85 382.5q0 229 91 400.5t261.5 265t403.5 93.5q223 0 383.5 -90.5t245 -254.5t84.5 -380q0 -232 -92 -404.5t-262.5 -265.5t-399.5 -93q-222 0 -383.5 91zM1058.5 272q97.5 67 146.5 184.5t49 268.5q0 148 -43 264t-137.5 185
t-242.5 69q-142 0 -241 -70t-148.5 -187.5t-49.5 -258.5q0 -149 47 -267t143 -186.5t237 -68.5q142 0 239.5 67zM497 1806h658v-189h-658v189z" />
    <glyph glyph-name="Oslash" unicode="&#xd8;" horiz-adv-x="1647" 
d="M1499.5 1065.5q58.5 -144.5 58.5 -322.5q0 -232 -92 -404.5t-262.5 -265.5t-399.5 -93q-174 0 -310 56l-50 -77h-244l120 182q-113 96 -172 241.5t-59 326.5q0 229 91 400.5t261.5 265t403.5 93.5q172 0 312 -56l51 77h243l-120 -183q110 -96 168.5 -240.5zM414 538
q22 -88 65 -156l542 823q-84 38 -190 38q-142 0 -241 -70t-148.5 -187.5t-49.5 -258.5q0 -101 22 -189zM1058.5 272q97.5 67 146.5 184.5t49 268.5q0 211 -81 342l-541 -823q83 -39 187 -39q142 0 239.5 67z" />
    <glyph glyph-name="Oslashacute" unicode="&#x1fe;" horiz-adv-x="1647" 
d="M1499.5 1065.5q58.5 -144.5 58.5 -322.5q0 -232 -92 -404.5t-262.5 -265.5t-399.5 -93q-174 0 -310 56l-50 -77h-244l120 182q-113 96 -172 241.5t-59 326.5q0 229 91 400.5t261.5 265t403.5 93.5q172 0 312 -56l51 77h243l-120 -183q110 -96 168.5 -240.5zM414 538
q22 -88 65 -156l542 823q-84 38 -190 38q-142 0 -241 -70t-148.5 -187.5t-49.5 -258.5q0 -101 22 -189zM1058.5 272q97.5 67 146.5 184.5t49 268.5q0 211 -81 342l-541 -823q83 -39 187 -39q142 0 239.5 67zM642 1556l262 313l289 -25l-369 -310z" />
    <glyph glyph-name="Otilde" unicode="&#xd5;" horiz-adv-x="1647" 
d="M420.5 71q-161.5 91 -246.5 255.5t-85 382.5q0 229 91 400.5t261.5 265t403.5 93.5q223 0 383.5 -90.5t245 -254.5t84.5 -380q0 -232 -92 -404.5t-262.5 -265.5t-399.5 -93q-222 0 -383.5 91zM1058.5 272q97.5 67 146.5 184.5t49 268.5q0 148 -43 264t-137.5 185
t-242.5 69q-142 0 -241 -70t-148.5 -187.5t-49.5 -258.5q0 -149 47 -267t143 -186.5t237 -68.5q142 0 239.5 67zM412 1611q10 127 66 198.5t154 71.5q55 0 105.5 -19t114.5 -52q45 -24 75 -35t64 -11q47 0 73 26t38 93l146 -45q-13 -124 -66.5 -197.5t-157.5 -73.5
q-52 0 -100 16.5t-119 51.5q-59 30 -90 42t-61 12q-45 0 -69 -29.5t-37 -92.5z" />
    <glyph glyph-name="OE" unicode="&#x152;" horiz-adv-x="2000" 
d="M423.5 75.5q-165.5 90.5 -250 254t-84.5 380.5q0 226 91.5 396.5t263 263.5t406.5 93q87 0 211 -15h833l-23 -235h-558v-359h525v-219h-525v-398h589l-21 -237h-850q-41 -7 -100.5 -11t-107.5 -4q-234 0 -399.5 90.5zM1021 231v987q-92 23 -181 23q-150 0 -251 -69.5
t-149 -187.5t-48 -265q0 -146 47 -261.5t145 -183t244 -67.5q97 0 193 24z" />
    <glyph glyph-name="P" unicode="P" horiz-adv-x="1231" 
d="M179 1448h406q283 0 434 -114.5t151 -330.5q0 -144 -65.5 -251t-182.5 -164t-268 -57q-89 0 -184 18v-549h-291v1448zM807.5 812.5q70.5 64.5 70.5 186.5q0 125 -75 179t-222 54h-111v-471q76 -13 129 -13q138 0 208.5 64.5z" />
    <glyph glyph-name="Thorn" unicode="&#xde;" horiz-adv-x="1231" 
d="M179 1448h291v-241h129q180 0 308 -51t195.5 -150.5t67.5 -243.5q0 -145 -65.5 -251.5t-183 -163.5t-270.5 -57q-79 0 -181 18v-308h-291v1448zM808.5 573q69.5 65 69.5 186q0 123 -73 177.5t-210 54.5h-125v-471q65 -12 140 -12q129 0 198.5 65z" />
    <glyph glyph-name="Q" unicode="Q" horiz-adv-x="1647" 
d="M1124.5 -210q-195.5 103 -310.5 193q-25 -3 -47 -3q-204 0 -357.5 92t-237 258.5t-83.5 383.5q0 225 91.5 396t261.5 265t399 94q226 0 387.5 -91t245.5 -255.5t84 -382.5q0 -171 -51 -310.5t-148 -239.5t-232 -153q266 -119 545 -184l-169 -225q-183 59 -378.5 162z
M1059.5 271q97.5 68 146 187t48.5 273q0 143 -43 258t-137 184.5t-239 69.5t-244.5 -69t-149 -187.5t-49.5 -267.5q0 -144 47 -261t143.5 -186t238.5 -69q141 0 238.5 68z" />
    <glyph glyph-name="R" unicode="R" horiz-adv-x="1332" 
d="M179 1448h475q259 0 389 -100.5t130 -285.5q0 -114 -45 -201.5t-111 -141.5t-134 -80l441 -639h-334l-359 563h-161v-563h-291v1448zM593 778q83 0 147.5 32.5t100 91.5t35.5 137q0 100 -62 146.5t-182 46.5h-162v-454h123z" />
    <glyph glyph-name="Racute" unicode="&#x154;" horiz-adv-x="1332" 
d="M179 1448h475q259 0 389 -100.5t130 -285.5q0 -114 -45 -201.5t-111 -141.5t-134 -80l441 -639h-334l-359 563h-161v-563h-291v1448zM593 778q83 0 147.5 32.5t100 91.5t35.5 137q0 100 -62 146.5t-182 46.5h-162v-454h123zM473 1556l262 313l289 -25l-369 -310z" />
    <glyph glyph-name="Rcaron" unicode="&#x158;" horiz-adv-x="1332" 
d="M179 1448h475q259 0 389 -100.5t130 -285.5q0 -114 -45 -201.5t-111 -141.5t-134 -80l441 -639h-334l-359 563h-161v-563h-291v1448zM593 778q83 0 147.5 32.5t100 91.5t35.5 137q0 100 -62 146.5t-182 46.5h-162v-454h123zM1065 1837l-242 -300h-319l-243 302l175 22
l228 -185l225 185z" />
    <glyph glyph-name="Rcommaaccent" unicode="&#x156;" horiz-adv-x="1332" 
d="M179 1448h475q259 0 389 -100.5t130 -285.5q0 -114 -45 -201.5t-111 -141.5t-134 -80l441 -639h-334l-359 563h-161v-563h-291v1448zM593 778q83 0 147.5 32.5t100 91.5t35.5 137q0 100 -62 146.5t-182 46.5h-162v-454h123zM545 -503q39 89 56.5 179t17.5 201l237 -16
q0 -109 -38 -209.5t-91 -179.5z" />
    <glyph glyph-name="S" unicode="S" horiz-adv-x="1141" 
d="M299.5 7.5q-122.5 27.5 -213.5 72.5l86 224q82 -41 185.5 -67.5t184.5 -26.5q109 0 166.5 48t57.5 126q0 61 -38 105.5t-97.5 77t-169.5 80.5q-114 50 -189 103.5t-117 128t-42 177.5q0 129 63 222t175 141.5t257 48.5q107 0 219 -24.5t180 -61.5l-56 -233
q-180 88 -341 88q-95 0 -152 -35t-57 -110q0 -49 30 -84.5t90 -68.5t189 -91q119 -54 193.5 -110t113 -131.5t38.5 -180.5q0 -144 -63 -244t-178.5 -151t-272.5 -51q-119 0 -241.5 27.5z" />
    <glyph glyph-name="Sacute" unicode="&#x15a;" horiz-adv-x="1141" 
d="M299.5 7.5q-122.5 27.5 -213.5 72.5l86 224q82 -41 185.5 -67.5t184.5 -26.5q109 0 166.5 48t57.5 126q0 61 -38 105.5t-97.5 77t-169.5 80.5q-114 50 -189 103.5t-117 128t-42 177.5q0 129 63 222t175 141.5t257 48.5q107 0 219 -24.5t180 -61.5l-56 -233
q-180 88 -341 88q-95 0 -152 -35t-57 -110q0 -49 30 -84.5t90 -68.5t189 -91q119 -54 193.5 -110t113 -131.5t38.5 -180.5q0 -144 -63 -244t-178.5 -151t-272.5 -51q-119 0 -241.5 27.5zM416 1556l262 313l289 -25l-369 -310z" />
    <glyph glyph-name="Scaron" unicode="&#x160;" horiz-adv-x="1141" 
d="M299.5 7.5q-122.5 27.5 -213.5 72.5l86 224q82 -41 185.5 -67.5t184.5 -26.5q109 0 166.5 48t57.5 126q0 61 -38 105.5t-97.5 77t-169.5 80.5q-114 50 -189 103.5t-117 128t-42 177.5q0 129 63 222t175 141.5t257 48.5q107 0 219 -24.5t180 -61.5l-56 -233
q-180 88 -341 88q-95 0 -152 -35t-57 -110q0 -49 30 -84.5t90 -68.5t189 -91q119 -54 193.5 -110t113 -131.5t38.5 -180.5q0 -144 -63 -244t-178.5 -151t-272.5 -51q-119 0 -241.5 27.5zM1008 1837l-242 -300h-319l-243 302l175 22l228 -185l225 185z" />
    <glyph glyph-name="Scedilla" unicode="&#x15e;" horiz-adv-x="1141" 
d="M942 118.5q-113 -113.5 -313 -134.5l-20 -48q99 -22 150.5 -66.5t51.5 -124.5q0 -95 -68.5 -147.5t-204.5 -52.5q-133 0 -238 57l47 127q94 -47 177 -47q48 0 76.5 16.5t28.5 48.5q0 30 -25.5 48t-70 28.5t-122.5 22.5l54 137q-102 7 -202 33t-177 64l86 224
q82 -41 185.5 -67.5t184.5 -26.5q109 0 166.5 48t57.5 126q0 61 -38 105.5t-97.5 77t-169.5 80.5q-114 50 -189 103.5t-117 128t-42 177.5q0 129 63 222t175 141.5t257 48.5q107 0 219 -24.5t180 -61.5l-56 -233q-180 88 -341 88q-95 0 -152 -35t-57 -110q0 -49 30 -84.5
t90 -68.5t189 -91q119 -54 193.5 -110t113 -131.5t38.5 -180.5q0 -194 -113 -307.5z" />
    <glyph glyph-name="Scircumflex" unicode="&#x15c;" horiz-adv-x="1141" 
d="M299.5 7.5q-122.5 27.5 -213.5 72.5l86 224q82 -41 185.5 -67.5t184.5 -26.5q109 0 166.5 48t57.5 126q0 61 -38 105.5t-97.5 77t-169.5 80.5q-114 50 -189 103.5t-117 128t-42 177.5q0 129 63 222t175 141.5t257 48.5q107 0 219 -24.5t180 -61.5l-56 -233
q-180 88 -341 88q-95 0 -152 -35t-57 -110q0 -49 30 -84.5t90 -68.5t189 -91q119 -54 193.5 -110t113 -131.5t38.5 -180.5q0 -144 -63 -244t-178.5 -151t-272.5 -51q-119 0 -241.5 27.5zM206 1555l242 300h319l243 -302l-175 -22l-228 185l-225 -185z" />
    <glyph glyph-name="Scommaaccent" unicode="&#x218;" horiz-adv-x="1141" 
d="M299.5 7.5q-122.5 27.5 -213.5 72.5l86 224q82 -41 185.5 -67.5t184.5 -26.5q109 0 166.5 48t57.5 126q0 61 -38 105.5t-97.5 77t-169.5 80.5q-114 50 -189 103.5t-117 128t-42 177.5q0 129 63 222t175 141.5t257 48.5q107 0 219 -24.5t180 -61.5l-56 -233
q-180 88 -341 88q-95 0 -152 -35t-57 -110q0 -49 30 -84.5t90 -68.5t189 -91q119 -54 193.5 -110t113 -131.5t38.5 -180.5q0 -144 -63 -244t-178.5 -151t-272.5 -51q-119 0 -241.5 27.5zM376 -503q39 89 56.5 179t17.5 201l237 -16q0 -109 -38 -209.5t-91 -179.5z" />
    <glyph glyph-name="uni1E9E" unicode="&#x1e9e;" horiz-adv-x="1621" 
d="M1350 725q90 -58 137.5 -137.5t47.5 -191.5q0 -128 -60.5 -221.5t-174.5 -144t-272 -50.5q-119 0 -235 27t-205 72l86 225q78 -41 176.5 -67.5t178.5 -26.5q105 0 161.5 46t56.5 124q0 49 -29 89.5t-98.5 78.5t-189.5 77l-184 62v220l299 312h-575v-1219h-291v1448h1149
v-235l-328 -333l117 -44q143 -53 233 -111z" />
    <glyph glyph-name="uni018F" unicode="&#x18f;" horiz-adv-x="1496" 
d="M1075 1384.5q163 -83.5 247.5 -245t84.5 -392.5q0 -234 -86 -407.5t-241.5 -266.5t-359.5 -93q-207 0 -348.5 89t-212 253t-70.5 390v85h1018q-9 146 -66 246t-152.5 150.5t-219.5 50.5q-120 0 -236.5 -29t-196.5 -72l-80 210q121 53 249 84t276 31q231 0 394 -83.5z
M895 251q79 48 131 136t72 208h-723q0 -112 37.5 -200.5t114 -140t188.5 -51.5q101 0 180 48z" />
    <glyph glyph-name="T" unicode="T" horiz-adv-x="1230" 
d="M470 1206h-446l23 242h1160l-23 -242h-424v-1206h-290v1206z" />
    <glyph glyph-name="Tbar" unicode="&#x166;" horiz-adv-x="1230" 
d="M760 1206v-352h287l-21 -212h-266v-642h-290v642h-286l22 212h264v352h-446l23 242h1160l-23 -242h-424z" />
    <glyph glyph-name="Tcaron" unicode="&#x164;" horiz-adv-x="1230" 
d="M470 1206h-446l23 242h1160l-23 -242h-424v-1206h-290v1206zM1016 1837l-242 -300h-319l-243 302l175 22l228 -185l225 185z" />
    <glyph glyph-name="uni0162" unicode="&#x162;" horiz-adv-x="1230" 
d="M684 0l-27 -64q99 -22 150.5 -66.5t51.5 -124.5q0 -95 -68.5 -147.5t-204.5 -52.5q-133 0 -238 57l47 127q94 -47 177 -47q48 0 76.5 16.5t28.5 48.5q0 30 -25.5 48t-70 28.5t-122.5 22.5l61 154h-50v1206h-446l23 242h1160l-23 -242h-424v-1206h-76z" />
    <glyph glyph-name="uni021A" unicode="&#x21a;" horiz-adv-x="1230" 
d="M470 1206h-446l23 242h1160l-23 -242h-424v-1206h-290v1206zM424 -503q39 89 56.5 179t17.5 201l237 -16q0 -109 -38 -209.5t-91 -179.5z" />
    <glyph glyph-name="U" unicode="U" horiz-adv-x="1515" 
d="M439.5 41q-136.5 63 -210 182t-73.5 284v941h288v-900q0 -161 80 -245.5t237 -84.5q310 0 310 336v894h289v-939q0 -167 -72.5 -286.5t-207 -182t-319.5 -62.5t-321.5 63z" />
    <glyph glyph-name="Uacute" unicode="&#xda;" horiz-adv-x="1515" 
d="M439.5 41q-136.5 63 -210 182t-73.5 284v941h288v-900q0 -161 80 -245.5t237 -84.5q310 0 310 336v894h289v-939q0 -167 -72.5 -286.5t-207 -182t-319.5 -62.5t-321.5 63zM567 1556l262 313l289 -25l-369 -310z" />
    <glyph glyph-name="Ubreve" unicode="&#x16c;" horiz-adv-x="1515" 
d="M439.5 41q-136.5 63 -210 182t-73.5 284v941h288v-900q0 -161 80 -245.5t237 -84.5q310 0 310 336v894h289v-939q0 -167 -72.5 -286.5t-207 -182t-319.5 -62.5t-321.5 63zM563.5 1576.5q-77.5 43.5 -118.5 111.5t-52 147h168q29 -137 195 -137q167 0 196 137h168
q-10 -78 -50.5 -146t-119.5 -112t-194 -44t-192.5 43.5z" />
    <glyph glyph-name="Ucircumflex" unicode="&#xdb;" horiz-adv-x="1515" 
d="M439.5 41q-136.5 63 -210 182t-73.5 284v941h288v-900q0 -161 80 -245.5t237 -84.5q310 0 310 336v894h289v-939q0 -167 -72.5 -286.5t-207 -182t-319.5 -62.5t-321.5 63zM357 1555l242 300h319l243 -302l-175 -22l-228 185l-225 -185z" />
    <glyph glyph-name="Udieresis" unicode="&#xdc;" horiz-adv-x="1515" 
d="M439.5 41q-136.5 63 -210 182t-73.5 284v941h288v-900q0 -161 80 -245.5t237 -84.5q310 0 310 336v894h289v-939q0 -167 -72.5 -286.5t-207 -182t-319.5 -62.5t-321.5 63zM430.5 1618q-40.5 38 -40.5 102q0 61 41 99.5t102 38.5q63 0 104 -39t41 -99q0 -63 -41.5 -101.5
t-103.5 -38.5t-102.5 38zM880.5 1618q-40.5 38 -40.5 102q0 61 40.5 99.5t102.5 38.5t103.5 -39.5t41.5 -98.5q0 -62 -42 -101t-103 -39q-62 0 -102.5 38z" />
    <glyph glyph-name="Ugrave" unicode="&#xd9;" horiz-adv-x="1515" 
d="M439.5 41q-136.5 63 -210 182t-73.5 284v941h288v-900q0 -161 80 -245.5t237 -84.5q310 0 310 336v894h289v-939q0 -167 -72.5 -286.5t-207 -182t-319.5 -62.5t-321.5 63zM387 1844l289 25l262 -313l-176 -22z" />
    <glyph glyph-name="Uhungarumlaut" unicode="&#x170;" horiz-adv-x="1515" 
d="M439.5 41q-136.5 63 -210 182t-73.5 284v941h288v-900q0 -161 80 -245.5t237 -84.5q310 0 310 336v894h289v-939q0 -167 -72.5 -286.5t-207 -182t-319.5 -62.5t-321.5 63zM792 1564l262 313l289 -25l-369 -310zM388 1564l262 313l289 -25l-369 -310z" />
    <glyph glyph-name="Umacron" unicode="&#x16a;" horiz-adv-x="1515" 
d="M439.5 41q-136.5 63 -210 182t-73.5 284v941h288v-900q0 -161 80 -245.5t237 -84.5q310 0 310 336v894h289v-939q0 -167 -72.5 -286.5t-207 -182t-319.5 -62.5t-321.5 63zM428 1806h658v-189h-658v189z" />
    <glyph glyph-name="Uogonek" unicode="&#x172;" horiz-adv-x="1515" 
d="M1328 304q-32 -82 -94 -152q-47 -53 -76 -93.5t-47.5 -89t-18.5 -105.5q0 -66 31 -98.5t89 -32.5q51 0 111 25l33 -146q-78 -35 -183 -35q-143 0 -210.5 63.5t-67.5 166.5q0 58 22 106t66 92q-99 -27 -217 -27q-188 0 -325.5 62.5t-211 182t-73.5 284.5v941h288v-900
q0 -161 80 -245.5t237 -84.5q310 0 310 336v894h289v-939q0 -123 -32 -205z" />
    <glyph glyph-name="Uring" unicode="&#x16e;" horiz-adv-x="1515" 
d="M439.5 41q-136.5 63 -210 182t-73.5 284v941h288v-900q0 -161 80 -245.5t237 -84.5q310 0 310 336v894h289v-939q0 -167 -72.5 -286.5t-207 -182t-319.5 -62.5t-321.5 63zM631.5 1540q-56.5 31 -88.5 85.5t-32 123.5t32 124t88.5 86t127.5 31q72 0 129 -31t89.5 -86
t32.5 -124t-32.5 -123.5t-89.5 -85.5t-129 -31q-71 0 -127.5 31zM833 1676q28 28 28 75q0 45 -28 72t-74 27q-45 0 -72 -27t-27 -72q0 -47 27 -75t72 -28q46 0 74 28z" />
    <glyph glyph-name="Utilde" unicode="&#x168;" horiz-adv-x="1515" 
d="M439.5 41q-136.5 63 -210 182t-73.5 284v941h288v-900q0 -161 80 -245.5t237 -84.5q310 0 310 336v894h289v-939q0 -167 -72.5 -286.5t-207 -182t-319.5 -62.5t-321.5 63zM343 1611q10 127 66 198.5t154 71.5q55 0 105.5 -19t114.5 -52q45 -24 75 -35t64 -11q47 0 73 26
t38 93l146 -45q-13 -124 -66.5 -197.5t-157.5 -73.5q-52 0 -100 16.5t-119 51.5q-59 30 -90 42t-61 12q-45 0 -69 -29.5t-37 -92.5z" />
    <glyph glyph-name="V" unicode="V" horiz-adv-x="1398" 
d="M-3 1448h318l352 -976q11 -30 25.5 -81t23.5 -92q25 99 50 173l339 976h296l-558 -1448h-289z" />
    <glyph glyph-name="W" unicode="W" horiz-adv-x="2134" 
d="M21 1448h308l232 -872q32 -117 51 -240q33 146 62 244l247 868h303l261 -874q43 -145 57 -238q18 96 54 228l225 884h291l-429 -1448h-301l-244 820q-25 81 -41 150t-31 154q-16 -83 -32 -150t-40 -150l-238 -824h-299z" />
    <glyph glyph-name="Wacute" unicode="&#x1e82;" horiz-adv-x="2134" 
d="M21 1448h308l232 -872q32 -117 51 -240q33 146 62 244l247 868h303l261 -874q43 -145 57 -238q18 96 54 228l225 884h291l-429 -1448h-301l-244 820q-25 81 -41 150t-31 154q-16 -83 -32 -150t-40 -150l-238 -824h-299zM876 1556l262 313l289 -25l-369 -310z" />
    <glyph glyph-name="Wcircumflex" unicode="&#x174;" horiz-adv-x="2134" 
d="M21 1448h308l232 -872q32 -117 51 -240q33 146 62 244l247 868h303l261 -874q43 -145 57 -238q18 96 54 228l225 884h291l-429 -1448h-301l-244 820q-25 81 -41 150t-31 154q-16 -83 -32 -150t-40 -150l-238 -824h-299zM666 1555l242 300h319l243 -302l-175 -22l-228 185
l-225 -185z" />
    <glyph glyph-name="Wdieresis" unicode="&#x1e84;" horiz-adv-x="2134" 
d="M21 1448h308l232 -872q32 -117 51 -240q33 146 62 244l247 868h303l261 -874q43 -145 57 -238q18 96 54 228l225 884h291l-429 -1448h-301l-244 820q-25 81 -41 150t-31 154q-16 -83 -32 -150t-40 -150l-238 -824h-299zM739.5 1618q-40.5 38 -40.5 102q0 61 41 99.5
t102 38.5q63 0 104 -39t41 -99q0 -63 -41.5 -101.5t-103.5 -38.5t-102.5 38zM1189.5 1618q-40.5 38 -40.5 102q0 61 40.5 99.5t102.5 38.5t103.5 -39.5t41.5 -98.5q0 -62 -42 -101t-103 -39q-62 0 -102.5 38z" />
    <glyph glyph-name="Wgrave" unicode="&#x1e80;" horiz-adv-x="2134" 
d="M21 1448h308l232 -872q32 -117 51 -240q33 146 62 244l247 868h303l261 -874q43 -145 57 -238q18 96 54 228l225 884h291l-429 -1448h-301l-244 820q-25 81 -41 150t-31 154q-16 -83 -32 -150t-40 -150l-238 -824h-299zM696 1844l289 25l262 -313l-176 -22z" />
    <glyph glyph-name="X" unicode="X" horiz-adv-x="1303" 
d="M484 739l-450 709h329l284 -494l301 494h321l-447 -700l484 -748h-333l-327 545l-328 -545h-321z" />
    <glyph glyph-name="Y" unicode="Y" horiz-adv-x="1228" 
d="M470 558l-473 890h311l218 -431q74 -149 93 -219q31 72 100 209l230 441h282l-475 -890v-558h-286v558z" />
    <glyph glyph-name="Yacute" unicode="&#xdd;" horiz-adv-x="1228" 
d="M470 558l-473 890h311l218 -431q74 -149 93 -219q31 72 100 209l230 441h282l-475 -890v-558h-286v558zM422 1556l262 313l289 -25l-369 -310z" />
    <glyph glyph-name="Ycircumflex" unicode="&#x176;" horiz-adv-x="1228" 
d="M470 558l-473 890h311l218 -431q74 -149 93 -219q31 72 100 209l230 441h282l-475 -890v-558h-286v558zM212 1555l242 300h319l243 -302l-175 -22l-228 185l-225 -185z" />
    <glyph glyph-name="Ydieresis" unicode="&#x178;" horiz-adv-x="1228" 
d="M470 558l-473 890h311l218 -431q74 -149 93 -219q31 72 100 209l230 441h282l-475 -890v-558h-286v558zM285.5 1618q-40.5 38 -40.5 102q0 61 41 99.5t102 38.5q63 0 104 -39t41 -99q0 -63 -41.5 -101.5t-103.5 -38.5t-102.5 38zM735.5 1618q-40.5 38 -40.5 102
q0 61 40.5 99.5t102.5 38.5t103.5 -39.5t41.5 -98.5q0 -62 -42 -101t-103 -39q-62 0 -102.5 38z" />
    <glyph glyph-name="Ygrave" unicode="&#x1ef2;" horiz-adv-x="1228" 
d="M470 558l-473 890h311l218 -431q74 -149 93 -219q31 72 100 209l230 441h282l-475 -890v-558h-286v558zM242 1844l289 25l262 -313l-176 -22z" />
    <glyph glyph-name="Z" unicode="Z" horiz-adv-x="1197" 
d="M1152 239l-20 -239h-1087v184l712 1029h-669l20 235h1009l-20 -183l-713 -1026h768z" />
    <glyph glyph-name="Zacute" unicode="&#x179;" horiz-adv-x="1197" 
d="M1152 239l-20 -239h-1087v184l712 1029h-669l20 235h1009l-20 -183l-713 -1026h768zM405 1556l262 313l289 -25l-369 -310z" />
    <glyph glyph-name="Zcaron" unicode="&#x17d;" horiz-adv-x="1197" 
d="M1152 239l-20 -239h-1087v184l712 1029h-669l20 235h1009l-20 -183l-713 -1026h768zM997 1837l-242 -300h-319l-243 302l175 22l228 -185l225 185z" />
    <glyph glyph-name="Zdotaccent" unicode="&#x17b;" horiz-adv-x="1197" 
d="M1152 239l-20 -239h-1087v184l712 1029h-669l20 235h1009l-20 -183l-713 -1026h768zM508 1582.5q-37 20.5 -57.5 57t-20.5 81.5q0 70 45.5 114.5t116.5 44.5q46 0 83.5 -20.5t59 -56.5t21.5 -82q0 -45 -21.5 -81t-59.5 -57t-83 -21q-47 0 -84 20.5z" />
    <glyph glyph-name="a" unicode="a" horiz-adv-x="1184" 
d="M780 0q-15 65 -18 138q-56 -66 -144 -112t-200 -46q-94 0 -171.5 37t-124 112t-46.5 184q0 344 494 344q96 0 188 -13v18q0 127 -58 180t-166 53q-79 0 -170.5 -23t-161.5 -55l-42 206q69 31 180.5 55.5t235.5 24.5q224 0 346 -105.5t122 -361.5v-433q0 -67 8 -203h-272z
M643 222q69 32 115 81v179q-92 10 -151 10q-136 0 -188 -44t-52 -118q0 -71 38 -105.5t104 -34.5q65 0 134 32z" />
    <glyph glyph-name="aacute" unicode="&#xe1;" horiz-adv-x="1184" 
d="M780 0q-15 65 -18 138q-56 -66 -144 -112t-200 -46q-94 0 -171.5 37t-124 112t-46.5 184q0 344 494 344q96 0 188 -13v18q0 127 -58 180t-166 53q-79 0 -170.5 -23t-161.5 -55l-42 206q69 31 180.5 55.5t235.5 24.5q224 0 346 -105.5t122 -361.5v-433q0 -67 8 -203h-272z
M643 222q69 32 115 81v179q-92 10 -151 10q-136 0 -188 -44t-52 -118q0 -71 38 -105.5t104 -34.5q65 0 134 32zM408 1232l235 322l295 -21l-338 -324z" />
    <glyph glyph-name="abreve" unicode="&#x103;" horiz-adv-x="1184" 
d="M780 0q-15 65 -18 138q-56 -66 -144 -112t-200 -46q-94 0 -171.5 37t-124 112t-46.5 184q0 344 494 344q96 0 188 -13v18q0 127 -58 180t-166 53q-79 0 -170.5 -23t-161.5 -55l-42 206q69 31 180.5 55.5t235.5 24.5q224 0 346 -105.5t122 -361.5v-433q0 -67 8 -203h-272z
M643 222q69 32 115 81v179q-92 10 -151 10q-136 0 -188 -44t-52 -118q0 -71 38 -105.5t104 -34.5q65 0 134 32zM395.5 1276q-80.5 45 -121.5 118t-45 159h183q7 -74 53.5 -112.5t125.5 -38.5t125.5 38.5t55.5 112.5h182q-4 -85 -45 -158.5t-121.5 -118.5t-196.5 -45
q-115 0 -195.5 45z" />
    <glyph glyph-name="acircumflex" unicode="&#xe2;" horiz-adv-x="1184" 
d="M780 0q-15 65 -18 138q-56 -66 -144 -112t-200 -46q-94 0 -171.5 37t-124 112t-46.5 184q0 344 494 344q96 0 188 -13v18q0 127 -58 180t-166 53q-79 0 -170.5 -23t-161.5 -55l-42 206q69 31 180.5 55.5t235.5 24.5q224 0 346 -105.5t122 -361.5v-433q0 -67 8 -203h-272z
M643 222q69 32 115 81v179q-92 10 -151 10q-136 0 -188 -44t-52 -118q0 -71 38 -105.5t104 -34.5q65 0 134 32zM205 1233l236 329h305l236 -329l-179 -22l-210 207l-207 -207z" />
    <glyph glyph-name="adieresis" unicode="&#xe4;" horiz-adv-x="1184" 
d="M780 0q-15 65 -18 138q-56 -66 -144 -112t-200 -46q-94 0 -171.5 37t-124 112t-46.5 184q0 344 494 344q96 0 188 -13v18q0 127 -58 180t-166 53q-79 0 -170.5 -23t-161.5 -55l-42 206q69 31 180.5 55.5t235.5 24.5q224 0 346 -105.5t122 -361.5v-433q0 -67 8 -203h-272z
M643 222q69 32 115 81v179q-92 10 -151 10q-136 0 -188 -44t-52 -118q0 -71 38 -105.5t104 -34.5q65 0 134 32zM266 1266q-43 41 -43 110q0 67 43.5 108.5t109.5 41.5q68 0 111.5 -42.5t43.5 -107.5q0 -67 -44 -109t-111 -42t-110 41zM699.5 1266q-43.5 41 -43.5 110
q0 67 43.5 108.5t113.5 41.5q43 0 78 -19.5t55.5 -53.5t20.5 -77q0 -44 -21 -78.5t-56 -53.5t-77 -19q-70 0 -113.5 41z" />
    <glyph glyph-name="agrave" unicode="&#xe0;" horiz-adv-x="1184" 
d="M780 0q-15 65 -18 138q-56 -66 -144 -112t-200 -46q-94 0 -171.5 37t-124 112t-46.5 184q0 344 494 344q96 0 188 -13v18q0 127 -58 180t-166 53q-79 0 -170.5 -23t-161.5 -55l-42 206q69 31 180.5 55.5t235.5 24.5q224 0 346 -105.5t122 -361.5v-433q0 -67 8 -203h-272z
M643 222q69 32 115 81v179q-92 10 -151 10q-136 0 -188 -44t-52 -118q0 -71 38 -105.5t104 -34.5q65 0 134 32zM247 1533l296 21l234 -322l-192 -23z" />
    <glyph glyph-name="amacron" unicode="&#x101;" horiz-adv-x="1184" 
d="M780 0q-15 65 -18 138q-56 -66 -144 -112t-200 -46q-94 0 -171.5 37t-124 112t-46.5 184q0 344 494 344q96 0 188 -13v18q0 127 -58 180t-166 53q-79 0 -170.5 -23t-161.5 -55l-42 206q69 31 180.5 55.5t235.5 24.5q224 0 346 -105.5t122 -361.5v-433q0 -67 8 -203h-272z
M643 222q69 32 115 81v179q-92 10 -151 10q-136 0 -188 -44t-52 -118q0 -71 38 -105.5t104 -34.5q65 0 134 32zM272 1468h644v-190h-644v190z" />
    <glyph glyph-name="aogonek" unicode="&#x105;" horiz-adv-x="1184" 
d="M962 -264q21 4 48 16l33 -146q-64 -30 -163 -30q-85 0 -141.5 27.5t-84 75t-27.5 106.5q0 139 153 215q-15 65 -18 138q-56 -66 -144 -112t-200 -46q-94 0 -171.5 37t-124 112t-46.5 184q0 344 494 344q96 0 188 -13v18q0 127 -58 180t-166 53q-79 0 -170.5 -23
t-161.5 -55l-42 206q69 31 180.5 55.5t235.5 24.5q224 0 346 -105.5t122 -361.5v-433q0 -67 8 -203h-73q-71 -29 -113 -72t-42 -98q0 -45 25 -71.5t67 -26.5q25 0 46 4zM643 222q69 32 115 81v179q-92 10 -151 10q-136 0 -188 -44t-52 -118q0 -71 38 -105.5t104 -34.5
q65 0 134 32z" />
    <glyph glyph-name="aring" unicode="&#xe5;" horiz-adv-x="1184" 
d="M780 0q-15 65 -18 138q-56 -66 -144 -112t-200 -46q-94 0 -171.5 37t-124 112t-46.5 184q0 344 494 344q96 0 188 -13v18q0 127 -58 180t-166 53q-79 0 -170.5 -23t-161.5 -55l-42 206q69 31 180.5 55.5t235.5 24.5q224 0 346 -105.5t122 -361.5v-433q0 -67 8 -203h-272z
M643 222q69 32 115 81v179q-92 10 -151 10q-136 0 -188 -44t-52 -118q0 -71 38 -105.5t104 -34.5q65 0 134 32zM464.5 1214q-56.5 31 -88.5 85.5t-32 123.5t32 124t88.5 86t127.5 31q72 0 129 -31t89.5 -86t32.5 -124t-32.5 -123.5t-89.5 -85.5t-129 -31q-71 0 -127.5 31z
M666 1350q28 28 28 75q0 45 -28 72t-74 27q-45 0 -72 -27t-27 -72q0 -47 27 -75t72 -28q46 0 74 28z" />
    <glyph glyph-name="aringacute" unicode="&#x1fb;" horiz-adv-x="1184" 
d="M780 0q-15 65 -18 138q-56 -66 -144 -112t-200 -46q-94 0 -171.5 37t-124 112t-46.5 184q0 344 494 344q96 0 188 -13v18q0 127 -58 180t-166 53q-79 0 -170.5 -23t-161.5 -55l-42 206q69 31 180.5 55.5t235.5 24.5q224 0 346 -105.5t122 -361.5v-433q0 -67 8 -203h-272z
M643 222q69 32 115 81v179q-92 10 -151 10q-136 0 -188 -44t-52 -118q0 -71 38 -105.5t104 -34.5q65 0 134 32zM464.5 1214q-56.5 31 -88.5 85.5t-32 123.5t32 124t88.5 86t127.5 31q72 0 129 -31t89.5 -86t32.5 -124t-32.5 -123.5t-89.5 -85.5t-129 -31q-71 0 -127.5 31z
M666 1350q28 28 28 75q0 45 -28 72t-74 27q-45 0 -72 -27t-27 -72q0 -47 27 -75t72 -28q46 0 74 28zM406 1762l235 322l295 -21l-338 -324z" />
    <glyph glyph-name="atilde" unicode="&#xe3;" horiz-adv-x="1184" 
d="M780 0q-15 65 -18 138q-56 -66 -144 -112t-200 -46q-94 0 -171.5 37t-124 112t-46.5 184q0 344 494 344q96 0 188 -13v18q0 127 -58 180t-166 53q-79 0 -170.5 -23t-161.5 -55l-42 206q69 31 180.5 55.5t235.5 24.5q224 0 346 -105.5t122 -361.5v-433q0 -67 8 -203h-272z
M643 222q69 32 115 81v179q-92 10 -151 10q-136 0 -188 -44t-52 -118q0 -71 38 -105.5t104 -34.5q65 0 134 32zM197 1269q13 128 67 196t160 68q55 0 96 -15t86 -44q43 -28 73 -40.5t61 -12.5q39 0 65 26t34 92l149 -42q-14 -122 -67 -194t-161 -72q-49 0 -89.5 15.5
t-94.5 46.5q-54 30 -80.5 41t-51.5 11q-44 0 -67.5 -30t-32.5 -90z" />
    <glyph glyph-name="ae" unicode="&#xe6;" horiz-adv-x="1821" 
d="M1742 492h-702q14 -295 307 -295q76 0 156 16t154 45l65 -188q-193 -90 -421 -90q-159 0 -264.5 46.5t-178.5 144.5q-74 -85 -183.5 -138t-236.5 -53q-106 0 -187.5 37t-128 111t-46.5 180q0 157 111 253t367 96q101 0 212 -15v20q0 233 -236 233q-78 0 -167.5 -23
t-160.5 -55l-42 206q65 30 179 55t224 25q121 0 216 -43.5t146 -137.5q60 87 150.5 134t197.5 47q152 0 257.5 -74.5t158.5 -198.5t53 -273v-65zM1464 666q-5 116 -58 175.5t-142 59.5t-146 -65t-72 -170h418zM407 224.5q40 -34.5 110 -34.5t148.5 35.5t132.5 88.5
q-24 66 -27 168q-93 10 -169 10q-133 0 -184 -43.5t-51 -117.5q0 -72 40 -106.5z" />
    <glyph glyph-name="aeacute" unicode="&#x1fd;" horiz-adv-x="1821" 
d="M1742 492h-702q14 -295 307 -295q76 0 156 16t154 45l65 -188q-193 -90 -421 -90q-159 0 -264.5 46.5t-178.5 144.5q-74 -85 -183.5 -138t-236.5 -53q-106 0 -187.5 37t-128 111t-46.5 180q0 157 111 253t367 96q101 0 212 -15v20q0 233 -236 233q-78 0 -167.5 -23
t-160.5 -55l-42 206q65 30 179 55t224 25q121 0 216 -43.5t146 -137.5q60 87 150.5 134t197.5 47q152 0 257.5 -74.5t158.5 -198.5t53 -273v-65zM1464 666q-5 116 -58 175.5t-142 59.5t-146 -65t-72 -170h418zM407 224.5q40 -34.5 110 -34.5t148.5 35.5t132.5 88.5
q-24 66 -27 168q-93 10 -169 10q-133 0 -184 -43.5t-51 -117.5q0 -72 40 -106.5zM756 1232l235 322l295 -21l-338 -324z" />
    <glyph glyph-name="b" unicode="b" horiz-adv-x="1248" 
d="M965 1049.5q92 -53.5 148 -171.5t56 -300q0 -187 -63.5 -321.5t-189 -206.5t-306.5 -72q-90 0 -221 19.5t-235 51.5v1485l288 20v-610q59 70 136.5 114.5t183.5 44.5q111 0 203 -53.5zM807 283.5q69 97.5 69 277.5q0 168 -54 242t-145 74q-68 0 -128.5 -32.5
t-107.5 -81.5v-549q81 -28 166 -28q131 0 200 97.5z" />
    <glyph glyph-name="c" unicode="c" horiz-adv-x="983" 
d="M324.5 38q-114.5 58 -180 179t-65.5 303q0 183 66.5 314.5t186 200t274.5 68.5q95 0 187.5 -23.5t162.5 -58.5l-73 -198q-57 30 -125.5 49t-124.5 19q-128 0 -194.5 -95.5t-66.5 -262.5q0 -174 70.5 -256.5t199.5 -82.5q59 0 117.5 15.5t125.5 43.5l59 -185
q-68 -37 -158 -62.5t-198 -25.5q-149 0 -263.5 58z" />
    <glyph glyph-name="cacute" unicode="&#x107;" horiz-adv-x="983" 
d="M324.5 38q-114.5 58 -180 179t-65.5 303q0 183 66.5 314.5t186 200t274.5 68.5q95 0 187.5 -23.5t162.5 -58.5l-73 -198q-57 30 -125.5 49t-124.5 19q-128 0 -194.5 -95.5t-66.5 -262.5q0 -174 70.5 -256.5t199.5 -82.5q59 0 117.5 15.5t125.5 43.5l59 -185
q-68 -37 -158 -62.5t-198 -25.5q-149 0 -263.5 58zM391 1232l235 322l295 -21l-338 -324z" />
    <glyph glyph-name="ccaron" unicode="&#x10d;" horiz-adv-x="983" 
d="M324.5 38q-114.5 58 -180 179t-65.5 303q0 183 66.5 314.5t186 200t274.5 68.5q95 0 187.5 -23.5t162.5 -58.5l-73 -198q-57 30 -125.5 49t-124.5 19q-128 0 -194.5 -95.5t-66.5 -262.5q0 -174 70.5 -256.5t199.5 -82.5q59 0 117.5 15.5t125.5 43.5l59 -185
q-68 -37 -158 -62.5t-198 -25.5q-149 0 -263.5 58zM964 1546l-236 -329h-305l-236 329l179 22l210 -207l207 207z" />
    <glyph glyph-name="ccedilla" unicode="&#xe7;" horiz-adv-x="983" 
d="M807 11.5q-78 -24.5 -171 -30.5l-19 -45q99 -22 150.5 -66.5t51.5 -124.5q0 -95 -68.5 -147.5t-204.5 -52.5q-133 0 -238 57l47 127q94 -47 177 -47q48 0 76.5 16.5t28.5 48.5q0 30 -25.5 48t-70 28.5t-122.5 22.5l57 143q-183 31 -290 164t-107 367q0 183 66.5 314.5
t186 200t274.5 68.5q95 0 187.5 -23.5t162.5 -58.5l-73 -198q-57 30 -125.5 49t-124.5 19q-128 0 -194.5 -95.5t-66.5 -262.5q0 -174 70.5 -256.5t199.5 -82.5q59 0 117.5 15.5t125.5 43.5l59 -185q-59 -32 -137 -56.5z" />
    <glyph glyph-name="ccircumflex" unicode="&#x109;" horiz-adv-x="983" 
d="M324.5 38q-114.5 58 -180 179t-65.5 303q0 183 66.5 314.5t186 200t274.5 68.5q95 0 187.5 -23.5t162.5 -58.5l-73 -198q-57 30 -125.5 49t-124.5 19q-128 0 -194.5 -95.5t-66.5 -262.5q0 -174 70.5 -256.5t199.5 -82.5q59 0 117.5 15.5t125.5 43.5l59 -185
q-68 -37 -158 -62.5t-198 -25.5q-149 0 -263.5 58zM188 1233l236 329h305l236 -329l-179 -22l-210 207l-207 -207z" />
    <glyph glyph-name="cdotaccent" unicode="&#x10b;" horiz-adv-x="983" 
d="M324.5 38q-114.5 58 -180 179t-65.5 303q0 183 66.5 314.5t186 200t274.5 68.5q95 0 187.5 -23.5t162.5 -58.5l-73 -198q-57 30 -125.5 49t-124.5 19q-128 0 -194.5 -95.5t-66.5 -262.5q0 -174 70.5 -256.5t199.5 -82.5q59 0 117.5 15.5t125.5 43.5l59 -185
q-68 -37 -158 -62.5t-198 -25.5q-149 0 -263.5 58zM491 1241.5q-37 20.5 -57.5 57t-20.5 81.5q0 70 45.5 114.5t116.5 44.5q46 0 83.5 -20.5t59 -56.5t21.5 -82q0 -45 -21.5 -81t-59.5 -57t-83 -21q-47 0 -84 20.5z" />
    <glyph glyph-name="d" unicode="d" horiz-adv-x="1246" 
d="M829 0q-13 61 -20 137q-64 -75 -141 -116t-182 -41q-114 0 -205.5 53.5t-146.5 170t-55 297.5q0 186 62 321.5t182 208t290 72.5q93 0 194 -30v461l286 20v-1286q0 -133 9 -268h-273zM705 239q65 36 102 83v542q-87 33 -175 33q-121 0 -191 -99.5t-70 -292.5
q0 -157 55 -229.5t141 -72.5q73 0 138 36z" />
    <glyph glyph-name="eth" unicode="&#xf0;" horiz-adv-x="1218" 
d="M1052 959q87 -191 87 -405q0 -186 -65 -314.5t-185.5 -194t-284.5 -65.5q-154 0 -272.5 58.5t-185.5 175.5t-67 288q0 172 63 293.5t178 184.5t269 63q96 0 163 -39q-69 99 -175 191l-257 -124l-70 147l181 87q-55 37 -115 71l125 171q116 -55 222 -130l249 120l73 -146
l-183 -88q163 -153 250 -344zM784.5 272q59.5 77 59.5 237q0 159 -59.5 240.5t-173.5 81.5t-176.5 -82.5t-62.5 -240.5t64.5 -235.5t178.5 -77.5q110 0 169.5 77z" />
    <glyph glyph-name="dcaron" unicode="&#x10f;" horiz-adv-x="1246" 
d="M829 0q-13 61 -20 137q-64 -75 -141 -116t-182 -41q-114 0 -205.5 53.5t-146.5 170t-55 297.5q0 186 62 321.5t182 208t290 72.5q93 0 194 -30v461l286 20v-1286q0 -133 9 -268h-273zM705 239q65 36 102 83v542q-87 33 -175 33q-121 0 -191 -99.5t-70 -292.5
q0 -157 55 -229.5t141 -72.5q73 0 138 36zM1172 1214q32 87 49 186.5t17 200.5l239 -19q0 -99 -36.5 -205t-85.5 -188z" />
    <glyph glyph-name="dcroat" unicode="&#x111;" horiz-adv-x="1248" 
d="M1093 1177v-909q0 -133 9 -268h-273q-13 61 -20 137q-63 -75 -140 -116t-184 -41q-113 0 -204.5 52t-146.5 165.5t-55 290.5q0 169 62 295.5t182.5 196.5t290.5 70q49 0 100.5 -9t92.5 -21v157h-316l22 189h294v168l286 20v-188h155l-23 -189h-132zM705.5 239
q64.5 36 101.5 84v488q-85 33 -175 33q-79 0 -137.5 -40.5t-91 -120t-32.5 -193.5q0 -149 55 -218t141 -69q74 0 138.5 36z" />
    <glyph glyph-name="e" unicode="e" horiz-adv-x="1147" 
d="M1069 493h-698q13 -156 90.5 -226t212.5 -70q76 0 156.5 18t155.5 49l62 -194q-190 -90 -423 -90q-269 0 -407.5 142.5t-138.5 402.5q0 180 65 310.5t181.5 199t268.5 68.5q159 0 265.5 -73.5t158 -197.5t51.5 -275v-64zM791 668q-6 116 -58.5 174.5t-140.5 58.5
q-86 0 -142 -58t-74 -175h415z" />
    <glyph glyph-name="eacute" unicode="&#xe9;" horiz-adv-x="1147" 
d="M1069 493h-698q13 -156 90.5 -226t212.5 -70q76 0 156.5 18t155.5 49l62 -194q-190 -90 -423 -90q-269 0 -407.5 142.5t-138.5 402.5q0 180 65 310.5t181.5 199t268.5 68.5q159 0 265.5 -73.5t158 -197.5t51.5 -275v-64zM791 668q-6 116 -58.5 174.5t-140.5 58.5
q-86 0 -142 -58t-74 -175h415zM403 1232l235 322l295 -21l-338 -324z" />
    <glyph glyph-name="ebreve" unicode="&#x115;" horiz-adv-x="1147" 
d="M1069 493h-698q13 -156 90.5 -226t212.5 -70q76 0 156.5 18t155.5 49l62 -194q-190 -90 -423 -90q-269 0 -407.5 142.5t-138.5 402.5q0 180 65 310.5t181.5 199t268.5 68.5q159 0 265.5 -73.5t158 -197.5t51.5 -275v-64zM791 668q-6 116 -58.5 174.5t-140.5 58.5
q-86 0 -142 -58t-74 -175h415zM390.5 1276q-80.5 45 -121.5 118t-45 159h183q7 -74 53.5 -112.5t125.5 -38.5t125.5 38.5t55.5 112.5h182q-4 -85 -45 -158.5t-121.5 -118.5t-196.5 -45q-115 0 -195.5 45z" />
    <glyph glyph-name="ecaron" unicode="&#x11b;" horiz-adv-x="1147" 
d="M1069 493h-698q13 -156 90.5 -226t212.5 -70q76 0 156.5 18t155.5 49l62 -194q-190 -90 -423 -90q-269 0 -407.5 142.5t-138.5 402.5q0 180 65 310.5t181.5 199t268.5 68.5q159 0 265.5 -73.5t158 -197.5t51.5 -275v-64zM791 668q-6 116 -58.5 174.5t-140.5 58.5
q-86 0 -142 -58t-74 -175h415zM976 1546l-236 -329h-305l-236 329l179 22l210 -207l207 207z" />
    <glyph glyph-name="ecircumflex" unicode="&#xea;" horiz-adv-x="1147" 
d="M1069 493h-698q13 -156 90.5 -226t212.5 -70q76 0 156.5 18t155.5 49l62 -194q-190 -90 -423 -90q-269 0 -407.5 142.5t-138.5 402.5q0 180 65 310.5t181.5 199t268.5 68.5q159 0 265.5 -73.5t158 -197.5t51.5 -275v-64zM791 668q-6 116 -58.5 174.5t-140.5 58.5
q-86 0 -142 -58t-74 -175h415zM200 1233l236 329h305l236 -329l-179 -22l-210 207l-207 -207z" />
    <glyph glyph-name="edieresis" unicode="&#xeb;" horiz-adv-x="1147" 
d="M1069 493h-698q13 -156 90.5 -226t212.5 -70q76 0 156.5 18t155.5 49l62 -194q-190 -90 -423 -90q-269 0 -407.5 142.5t-138.5 402.5q0 180 65 310.5t181.5 199t268.5 68.5q159 0 265.5 -73.5t158 -197.5t51.5 -275v-64zM791 668q-6 116 -58.5 174.5t-140.5 58.5
q-86 0 -142 -58t-74 -175h415zM261 1266q-43 41 -43 110q0 67 43.5 108.5t109.5 41.5q68 0 111.5 -42.5t43.5 -107.5q0 -67 -44 -109t-111 -42t-110 41zM694.5 1266q-43.5 41 -43.5 110q0 67 43.5 108.5t113.5 41.5q43 0 78 -19.5t55.5 -53.5t20.5 -77q0 -44 -21 -78.5
t-56 -53.5t-77 -19q-70 0 -113.5 41z" />
    <glyph glyph-name="edotaccent" unicode="&#x117;" horiz-adv-x="1147" 
d="M1069 493h-698q13 -156 90.5 -226t212.5 -70q76 0 156.5 18t155.5 49l62 -194q-190 -90 -423 -90q-269 0 -407.5 142.5t-138.5 402.5q0 180 65 310.5t181.5 199t268.5 68.5q159 0 265.5 -73.5t158 -197.5t51.5 -275v-64zM791 668q-6 116 -58.5 174.5t-140.5 58.5
q-86 0 -142 -58t-74 -175h415zM503 1241.5q-37 20.5 -57.5 57t-20.5 81.5q0 70 45.5 114.5t116.5 44.5q46 0 83.5 -20.5t59 -56.5t21.5 -82q0 -45 -21.5 -81t-59.5 -57t-83 -21q-47 0 -84 20.5z" />
    <glyph glyph-name="egrave" unicode="&#xe8;" horiz-adv-x="1147" 
d="M1069 493h-698q13 -156 90.5 -226t212.5 -70q76 0 156.5 18t155.5 49l62 -194q-190 -90 -423 -90q-269 0 -407.5 142.5t-138.5 402.5q0 180 65 310.5t181.5 199t268.5 68.5q159 0 265.5 -73.5t158 -197.5t51.5 -275v-64zM791 668q-6 116 -58.5 174.5t-140.5 58.5
q-86 0 -142 -58t-74 -175h415zM242 1533l296 21l234 -322l-192 -23z" />
    <glyph glyph-name="emacron" unicode="&#x113;" horiz-adv-x="1147" 
d="M1069 493h-698q13 -156 90.5 -226t212.5 -70q76 0 156.5 18t155.5 49l62 -194q-190 -90 -423 -90q-269 0 -407.5 142.5t-138.5 402.5q0 180 65 310.5t181.5 199t268.5 68.5q159 0 265.5 -73.5t158 -197.5t51.5 -275v-64zM791 668q-6 116 -58.5 174.5t-140.5 58.5
q-86 0 -142 -58t-74 -175h415zM267 1468h644v-190h-644v190z" />
    <glyph glyph-name="eogonek" unicode="&#x119;" horiz-adv-x="1148" 
d="M1069 493h-698q13 -156 90.5 -226t212.5 -70q76 0 156.5 18t155.5 49l62 -194q-43 -21 -99 -40q-149 -79 -149 -196q0 -48 24.5 -75t67.5 -27q25 0 46.5 4.5t47.5 15.5l32 -146q-63 -30 -163 -30q-125 0 -188 58.5t-63 150.5q0 62 26.5 109.5t81.5 88.5q-42 -3 -87 -3
q-269 0 -407.5 142.5t-138.5 402.5q0 180 65 310.5t181.5 199t268.5 68.5q159 0 265.5 -73.5t158 -197.5t51.5 -275v-64zM791 668q-6 116 -58.5 174.5t-140.5 58.5q-86 0 -142 -58t-74 -175h415z" />
    <glyph glyph-name="uni0259" unicode="&#x259;" horiz-adv-x="1147" 
d="M929.5 959.5q138.5 -142.5 138.5 -402.5q0 -180 -65 -310.5t-181.5 -199t-268.5 -68.5q-159 0 -265.5 73.5t-158 197.5t-51.5 275v64h698q-13 156 -90.5 226t-212.5 70q-76 0 -156.5 -18t-155.5 -49l-62 194q190 90 423 90q269 0 407.5 -142.5zM697 239q56 58 74 175
h-415q6 -116 58.5 -174.5t140.5 -58.5q86 0 142 58z" />
    <glyph glyph-name="f" unicode="f" horiz-adv-x="799" 
d="M216 874h-170l33 185l137 23v75q0 138 48 226.5t130.5 129.5t188.5 41q72 0 139 -12t116 -30l-35 -196q-87 26 -163 26q-72 0 -105.5 -50.5t-33.5 -155.5v-54h287l-32 -208h-255v-874h-285v874z" />
    <glyph glyph-name="g" unicode="g" horiz-adv-x="1246" 
d="M331.5 -425q-100.5 26 -185.5 64l60 207q170 -84 327 -84q134 0 204 65t70 212v100q-64 -74 -139 -116.5t-183 -42.5q-110 0 -202 54t-148 171t-56 297q0 185 63 320.5t182 208t283 72.5q67 0 133 -18.5t112 -48.5l67 46h183q-8 -148 -8 -282v-773q0 -153 -68.5 -261
t-185.5 -162.5t-262 -54.5q-146 0 -246.5 26zM703 238.5q64 34.5 104 81.5v531q-37 22 -83.5 34t-93.5 12q-78 0 -136.5 -43.5t-90.5 -131.5t-32 -217q0 -156 55 -228.5t141 -72.5q72 0 136 34.5z" />
    <glyph glyph-name="gbreve" unicode="&#x11f;" horiz-adv-x="1246" 
d="M331.5 -425q-100.5 26 -185.5 64l60 207q170 -84 327 -84q134 0 204 65t70 212v100q-64 -74 -139 -116.5t-183 -42.5q-110 0 -202 54t-148 171t-56 297q0 185 63 320.5t182 208t283 72.5q67 0 133 -18.5t112 -48.5l67 46h183q-8 -148 -8 -282v-773q0 -153 -68.5 -261
t-185.5 -162.5t-262 -54.5q-146 0 -246.5 26zM703 238.5q64 34.5 104 81.5v531q-37 22 -83.5 34t-93.5 12q-78 0 -136.5 -43.5t-90.5 -131.5t-32 -217q0 -156 55 -228.5t141 -72.5q72 0 136 34.5zM422.5 1276q-80.5 45 -121.5 118t-45 159h183q7 -74 53.5 -112.5
t125.5 -38.5t125.5 38.5t55.5 112.5h182q-4 -85 -45 -158.5t-121.5 -118.5t-196.5 -45q-115 0 -195.5 45z" />
    <glyph glyph-name="gcircumflex" unicode="&#x11d;" horiz-adv-x="1246" 
d="M331.5 -425q-100.5 26 -185.5 64l60 207q170 -84 327 -84q134 0 204 65t70 212v100q-64 -74 -139 -116.5t-183 -42.5q-110 0 -202 54t-148 171t-56 297q0 185 63 320.5t182 208t283 72.5q67 0 133 -18.5t112 -48.5l67 46h183q-8 -148 -8 -282v-773q0 -153 -68.5 -261
t-185.5 -162.5t-262 -54.5q-146 0 -246.5 26zM703 238.5q64 34.5 104 81.5v531q-37 22 -83.5 34t-93.5 12q-78 0 -136.5 -43.5t-90.5 -131.5t-32 -217q0 -156 55 -228.5t141 -72.5q72 0 136 34.5zM232 1233l236 329h305l236 -329l-179 -22l-210 207l-207 -207z" />
    <glyph glyph-name="gcommaaccent" unicode="&#x123;" horiz-adv-x="1246" 
d="M331.5 -425q-100.5 26 -185.5 64l60 207q170 -84 327 -84q134 0 204 65t70 212v100q-64 -74 -139 -116.5t-183 -42.5q-110 0 -202 54t-148 171t-56 297q0 185 63 320.5t182 208t283 72.5q67 0 133 -18.5t112 -48.5l67 46h183q-8 -148 -8 -282v-773q0 -153 -68.5 -261
t-185.5 -162.5t-262 -54.5q-146 0 -246.5 26zM703 238.5q64 34.5 104 81.5v531q-37 22 -83.5 34t-93.5 12q-78 0 -136.5 -43.5t-90.5 -131.5t-32 -217q0 -156 55 -228.5t141 -72.5q72 0 136 34.5zM473 1197q0 99 41 206t95 189l189 -24q-43 -99 -62.5 -193t-19.5 -196z" />
    <glyph glyph-name="gdotaccent" unicode="&#x121;" horiz-adv-x="1246" 
d="M331.5 -425q-100.5 26 -185.5 64l60 207q170 -84 327 -84q134 0 204 65t70 212v100q-64 -74 -139 -116.5t-183 -42.5q-110 0 -202 54t-148 171t-56 297q0 185 63 320.5t182 208t283 72.5q67 0 133 -18.5t112 -48.5l67 46h183q-8 -148 -8 -282v-773q0 -153 -68.5 -261
t-185.5 -162.5t-262 -54.5q-146 0 -246.5 26zM703 238.5q64 34.5 104 81.5v531q-37 22 -83.5 34t-93.5 12q-78 0 -136.5 -43.5t-90.5 -131.5t-32 -217q0 -156 55 -228.5t141 -72.5q72 0 136 34.5zM535 1241.5q-37 20.5 -57.5 57t-20.5 81.5q0 70 45.5 114.5t116.5 44.5
q46 0 83.5 -20.5t59 -56.5t21.5 -82q0 -45 -21.5 -81t-59.5 -57t-83 -21q-47 0 -84 20.5z" />
    <glyph glyph-name="h" unicode="h" horiz-adv-x="1273" 
d="M1048.5 1000q90.5 -103 90.5 -300v-700h-285v677q0 104 -39 152t-119 48q-73 0 -135 -33t-120 -90v-754h-287v1534l285 20v-632q71 80 158 130.5t201 50.5q160 0 250.5 -103z" />
    <glyph glyph-name="hbar" unicode="&#x127;" horiz-adv-x="1273" 
d="M1048.5 946q90.5 -103 90.5 -300v-646h-285v622q0 104 -39.5 153t-119.5 49q-72 0 -134 -33.5t-120 -90.5v-700h-287v1177h-154l23 189h131v168l284 20v-188h299l-23 -189h-276v-308q72 79 158.5 129.5t201.5 50.5q160 0 250.5 -103z" />
    <glyph glyph-name="hcircumflex" unicode="&#x125;" horiz-adv-x="1273" 
d="M1048.5 1000q90.5 -103 90.5 -300v-700h-285v677q0 104 -39 152t-119 48q-73 0 -135 -33t-120 -90v-754h-287v1534l285 20v-632q71 80 158 130.5t201 50.5q160 0 250.5 -103zM-103 1641l242 300h319l243 -302l-175 -22l-228 185l-225 -185z" />
    <glyph glyph-name="i" unicode="i" horiz-adv-x="596" 
d="M154 1082h287v-1082h-287v1082zM214 1241.5q-37 20.5 -57.5 57t-20.5 81.5q0 70 45.5 114.5t116.5 44.5q46 0 83.5 -20.5t59 -56.5t21.5 -82q0 -45 -21.5 -81t-59.5 -57t-83 -21q-47 0 -84 20.5z" />
    <glyph glyph-name="dotlessi" unicode="&#x131;" horiz-adv-x="596" 
d="M154 1082h287v-1082h-287v1082z" />
    <glyph glyph-name="iacute" unicode="&#xed;" horiz-adv-x="596" 
d="M154 1082h287v-1082h-287v1082zM114 1232l235 322l295 -21l-338 -324z" />
    <glyph glyph-name="ibreve" unicode="&#x12d;" horiz-adv-x="596" 
d="M154 1082h287v-1082h-287v1082zM63 1333q-79 89 -99 220h179q28 -148 154 -148q129 0 156 148h180q-19 -130 -99 -219.5t-237 -89.5q-155 0 -234 89z" />
    <glyph glyph-name="icircumflex" unicode="&#xee;" horiz-adv-x="596" 
d="M154 1082h287v-1082h-287v1082zM-52 1233l198 329h306l197 -329l-179 -22l-171 209l-170 -209z" />
    <glyph glyph-name="idieresis" unicode="&#xef;" horiz-adv-x="596" 
d="M154 1082h287v-1082h-287v1082zM11.5 1275.5q-39.5 37.5 -39.5 100.5q0 61 40 99t100 38q62 0 101.5 -39t39.5 -98q0 -61 -40.5 -99.5t-100.5 -38.5q-61 0 -100.5 37.5zM384 1275.5q-39 37.5 -39 100.5q0 62 39 99.5t103 37.5q59 0 99.5 -39.5t40.5 -97.5
q0 -40 -19 -71.5t-51 -49t-70 -17.5q-64 0 -103 37.5z" />
    <glyph glyph-name="igrave" unicode="&#xec;" horiz-adv-x="596" 
d="M154 1082h287v-1082h-287v1082zM-47 1533l296 21l234 -322l-192 -23z" />
    <glyph glyph-name="ij" unicode="&#x133;" horiz-adv-x="1192" 
d="M154 1082h287v-1082h-287v1082zM214 1241.5q-37 20.5 -57.5 57t-20.5 81.5q0 70 45.5 114.5t116.5 44.5q46 0 83.5 -20.5t59 -56.5t21.5 -82q0 -45 -21.5 -81t-59.5 -57t-83 -21q-47 0 -84 20.5zM610 -443.5q-50 7.5 -73 15.5l32 211q29 -8 57 -8q67 0 96.5 40.5
t29.5 123.5v1143h286v-1146q0 -199 -84.5 -293t-246.5 -94q-47 0 -97 7.5zM811 1241.5q-37 20.5 -57.5 57t-20.5 81.5q0 70 45.5 114.5t116.5 44.5q46 0 83.5 -20.5t59 -56.5t21.5 -82q0 -45 -21.5 -81t-59.5 -57t-83 -21q-47 0 -84 20.5z" />
    <glyph glyph-name="imacron" unicode="&#x12b;" horiz-adv-x="596" 
d="M154 1082h287v-1082h-287v1082zM29 1467h542v-184h-542v184z" />
    <glyph glyph-name="iogonek" unicode="&#x12f;" horiz-adv-x="596" 
d="M214 1241.5q-37 20.5 -57.5 57t-20.5 81.5q0 70 45.5 114.5t116.5 44.5q46 0 83.5 -20.5t59 -56.5t21.5 -82q0 -45 -21.5 -81t-59.5 -57t-83 -21q-47 0 -84 20.5zM471 -394q-65 -30 -163 -30q-85 0 -141.5 27.5t-84 75t-27.5 106.5q0 139 153 215h-54v1082h287v-1082h-34
q-71 -29 -113 -72t-42 -98q0 -45 25 -71.5t67 -26.5q25 0 46 4t48 16z" />
    <glyph glyph-name="itilde" unicode="&#x129;" horiz-adv-x="596" 
d="M154 1082h287v-1082h-287v1082zM-19 1278q9 106 55 168t130 62q63 0 151 -56q35 -24 55 -34t44 -10q30 0 49.5 22t27.5 82l125 -36q-10 -105 -56.5 -166t-129.5 -61q-38 0 -71 13t-76 40q-41 27 -61.5 36.5t-40.5 9.5q-36 0 -53.5 -25.5t-24.5 -77.5z" />
    <glyph glyph-name="j" unicode="j" horiz-adv-x="596" 
d="M14 -443.5q-50 7.5 -73 15.5l32 211q29 -8 57 -8q67 0 96.5 40.5t29.5 123.5v1143h286v-1146q0 -199 -84.5 -293t-246.5 -94q-47 0 -97 7.5zM215 1241.5q-37 20.5 -57.5 57t-20.5 81.5q0 70 45.5 114.5t116.5 44.5q46 0 83.5 -20.5t59 -56.5t21.5 -82q0 -45 -21.5 -81
t-59.5 -57t-83 -21q-47 0 -84 20.5z" />
    <glyph glyph-name="uni0237" unicode="&#x237;" horiz-adv-x="596" 
d="M14 -443.5q-50 7.5 -73 15.5l32 211q29 -8 57 -8q67 0 96.5 40.5t29.5 123.5v1143h286v-1146q0 -199 -84.5 -293t-246.5 -94q-47 0 -97 7.5z" />
    <glyph glyph-name="jcircumflex" unicode="&#x135;" horiz-adv-x="596" 
d="M14 -443.5q-50 7.5 -73 15.5l32 211q29 -8 57 -8q67 0 96.5 40.5t29.5 123.5v1143h286v-1146q0 -199 -84.5 -293t-246.5 -94q-47 0 -97 7.5zM-51 1233l198 329h306l197 -329l-179 -22l-171 209l-170 -209z" />
    <glyph glyph-name="k" unicode="k" horiz-adv-x="1206" 
d="M154 1534l287 20v-943l391 471h322l-403 -448l444 -634h-332l-308 456l-114 -105v-351h-287v1534z" />
    <glyph glyph-name="kcommaaccent" unicode="&#x137;" horiz-adv-x="1206" 
d="M154 1534l287 20v-943l391 471h322l-403 -448l444 -634h-332l-308 456l-114 -105v-351h-287v1534zM468 -503q39 89 56.5 179t17.5 201l237 -16q0 -109 -38 -209.5t-91 -179.5z" />
    <glyph glyph-name="kgreenlandic" unicode="&#x138;" horiz-adv-x="1222" 
d="M154 1082h287v-471l406 471h323l-403 -448l444 -634h-333l-307 465l-130 -104v-361h-287v1082z" />
    <glyph glyph-name="l" unicode="l" horiz-adv-x="652" 
d="M213.5 50.5q-69.5 70.5 -69.5 221.5v1262l287 20v-1230q0 -65 24.5 -91.5t71.5 -26.5q31 0 71 13l33 -202q-40 -17 -99.5 -27t-113.5 -10q-135 0 -204.5 70.5z" />
    <glyph glyph-name="lacute" unicode="&#x13a;" horiz-adv-x="652" 
d="M213.5 50.5q-69.5 70.5 -69.5 221.5v1262l287 20v-1230q0 -65 24.5 -91.5t71.5 -26.5q31 0 71 13l33 -202q-40 -17 -99.5 -27t-113.5 -10q-135 0 -204.5 70.5zM123 1642l262 313l289 -25l-369 -310z" />
    <glyph glyph-name="lcaron" unicode="&#x13e;" horiz-adv-x="652" 
d="M213.5 50.5q-69.5 70.5 -69.5 221.5v1262l287 20v-1230q0 -65 24.5 -91.5t71.5 -26.5q31 0 71 13l33 -202q-40 -17 -99.5 -27t-113.5 -10q-135 0 -204.5 70.5zM503 1214q32 87 49 186.5t17 200.5l239 -19q0 -99 -36.5 -205t-85.5 -188z" />
    <glyph glyph-name="lcommaaccent" unicode="&#x13c;" horiz-adv-x="652" 
d="M213.5 50.5q-69.5 70.5 -69.5 221.5v1262l287 20v-1230q0 -65 24.5 -91.5t71.5 -26.5q31 0 71 13l33 -202q-40 -17 -99.5 -27t-113.5 -10q-135 0 -204.5 70.5zM193 -503q39 89 56.5 179t17.5 201l237 -16q0 -109 -38 -209.5t-91 -179.5z" />
    <glyph glyph-name="ldot" unicode="&#x140;" horiz-adv-x="730" 
d="M213.5 50.5q-69.5 70.5 -69.5 221.5v1262l287 20v-1230q0 -65 24.5 -91.5t71.5 -26.5q31 0 71 13l33 -202q-40 -17 -99.5 -27t-113.5 -10q-135 0 -204.5 70.5zM568 674.5q-37 20.5 -57.5 57t-20.5 81.5q0 70 45.5 114.5t116.5 44.5q46 0 83.5 -20.5t59 -56.5t21.5 -82
q0 -45 -21.5 -81t-59.5 -57t-83 -21q-47 0 -84 20.5z" />
    <glyph glyph-name="lslash" unicode="&#x142;" horiz-adv-x="665" 
d="M644 17q-40 -17 -99.5 -27t-113.5 -10q-135 0 -204.5 70.5t-69.5 221.5v324l-141 -83v237l141 83v701l287 20v-552l182 107v-235l-182 -108v-442q0 -65 24.5 -91.5t71.5 -26.5q31 0 71 13z" />
    <glyph glyph-name="m" unicode="m" horiz-adv-x="1927" 
d="M150 799q0 141 -6 283h272q5 -29 10 -81.5t7 -86.5q80 81 171 135t196 54q203 0 292 -198q81 88 172 143t208 55q147 0 234 -97t87 -312v-694h-287v700q0 177 -145 177q-65 0 -128 -36t-120 -96v-745h-283v712q0 87 -37.5 126t-99.5 39q-66 0 -138 -41t-118 -93v-743
h-287v799z" />
    <glyph glyph-name="n" unicode="n" horiz-adv-x="1271" 
d="M152 808q0 151 -8 274h272q6 -33 11.5 -83.5t7.5 -84.5q51 57 97.5 96.5t113 66t152.5 26.5q105 0 181 -46.5t117 -138.5t41 -224v-694h-285v673q0 104 -39 154t-118 50q-73 0 -134.5 -36.5t-121.5 -98.5v-742h-287v808z" />
    <glyph glyph-name="nacute" unicode="&#x144;" horiz-adv-x="1271" 
d="M152 808q0 151 -8 274h272q6 -33 11.5 -83.5t7.5 -84.5q51 57 97.5 96.5t113 66t152.5 26.5q105 0 181 -46.5t117 -138.5t41 -224v-694h-285v673q0 104 -39 154t-118 50q-73 0 -134.5 -36.5t-121.5 -98.5v-742h-287v808zM453 1232l235 322l295 -21l-338 -324z" />
    <glyph glyph-name="napostrophe" unicode="&#x149;" horiz-adv-x="1612" 
d="M71 924q53 134 81 286t28 305l268 -18q0 -165 -52.5 -327.5t-117.5 -269.5zM493 808q0 151 -8 274h272q6 -33 11.5 -83.5t7.5 -84.5q51 57 97.5 96.5t113 66t152.5 26.5q105 0 181 -46.5t117 -138.5t41 -224v-694h-285v673q0 104 -39 154t-118 50q-73 0 -134.5 -36.5
t-121.5 -98.5v-742h-287v808z" />
    <glyph glyph-name="ncaron" unicode="&#x148;" horiz-adv-x="1271" 
d="M152 808q0 151 -8 274h272q6 -33 11.5 -83.5t7.5 -84.5q51 57 97.5 96.5t113 66t152.5 26.5q105 0 181 -46.5t117 -138.5t41 -224v-694h-285v673q0 104 -39 154t-118 50q-73 0 -134.5 -36.5t-121.5 -98.5v-742h-287v808zM1026 1546l-236 -329h-305l-236 329l179 22
l210 -207l207 207z" />
    <glyph glyph-name="ncommaaccent" unicode="&#x146;" horiz-adv-x="1271" 
d="M152 808q0 151 -8 274h272q6 -33 11.5 -83.5t7.5 -84.5q51 57 97.5 96.5t113 66t152.5 26.5q105 0 181 -46.5t117 -138.5t41 -224v-694h-285v673q0 104 -39 154t-118 50q-73 0 -134.5 -36.5t-121.5 -98.5v-742h-287v808zM481 -503q39 89 56.5 179t17.5 201l237 -16
q0 -109 -38 -209.5t-91 -179.5z" />
    <glyph glyph-name="eng" unicode="&#x14b;" horiz-adv-x="1273" 
d="M1139 150v-215q0 -201 -82 -293.5t-239 -92.5q-46 0 -100.5 7t-77.5 16l33 203q26 -9 59 -9q66 0 94 39t28 125v70h-2v673q0 104 -39 154t-118 50q-73 0 -134.5 -36.5t-121.5 -98.5v-742h-287v808q0 151 -8 274h272q6 -33 11.5 -83.5t7.5 -84.5q51 57 97.5 96.5t113 66
t152.5 26.5q105 0 181 -46.5t117 -138.5t41 -224v-544h2z" />
    <glyph glyph-name="ntilde" unicode="&#xf1;" horiz-adv-x="1271" 
d="M152 808q0 151 -8 274h272q6 -33 11.5 -83.5t7.5 -84.5q51 57 97.5 96.5t113 66t152.5 26.5q105 0 181 -46.5t117 -138.5t41 -224v-694h-285v673q0 104 -39 154t-118 50q-73 0 -134.5 -36.5t-121.5 -98.5v-742h-287v808zM242 1269q13 128 67 196t160 68q55 0 96 -15
t86 -44q43 -28 73 -40.5t61 -12.5q39 0 65 26t34 92l149 -42q-14 -122 -67 -194t-161 -72q-49 0 -89.5 15.5t-94.5 46.5q-54 30 -80.5 41t-51.5 11q-44 0 -67.5 -30t-32.5 -90z" />
    <glyph glyph-name="o" unicode="o" horiz-adv-x="1217" 
d="M333.5 42q-118.5 62 -186.5 185t-68 300q0 179 68 309t189 198.5t279 68.5q155 0 273.5 -67.5t184.5 -195t66 -302.5q0 -178 -68.5 -303.5t-190 -190t-277.5 -64.5q-151 0 -269.5 62zM844 527q0 173 -59 267t-177 94q-120 0 -178 -95t-58 -262q0 -161 63 -248.5
t183 -87.5q226 0 226 332z" />
    <glyph glyph-name="oacute" unicode="&#xf3;" horiz-adv-x="1217" 
d="M333.5 42q-118.5 62 -186.5 185t-68 300q0 179 68 309t189 198.5t279 68.5q155 0 273.5 -67.5t184.5 -195t66 -302.5q0 -178 -68.5 -303.5t-190 -190t-277.5 -64.5q-151 0 -269.5 62zM844 527q0 173 -59 267t-177 94q-120 0 -178 -95t-58 -262q0 -161 63 -248.5
t183 -87.5q226 0 226 332zM424 1232l235 322l295 -21l-338 -324z" />
    <glyph glyph-name="obreve" unicode="&#x14f;" horiz-adv-x="1217" 
d="M333.5 42q-118.5 62 -186.5 185t-68 300q0 179 68 309t189 198.5t279 68.5q155 0 273.5 -67.5t184.5 -195t66 -302.5q0 -178 -68.5 -303.5t-190 -190t-277.5 -64.5q-151 0 -269.5 62zM844 527q0 173 -59 267t-177 94q-120 0 -178 -95t-58 -262q0 -161 63 -248.5
t183 -87.5q226 0 226 332zM411.5 1276q-80.5 45 -121.5 118t-45 159h183q7 -74 53.5 -112.5t125.5 -38.5t125.5 38.5t55.5 112.5h182q-4 -85 -45 -158.5t-121.5 -118.5t-196.5 -45q-115 0 -195.5 45z" />
    <glyph glyph-name="ocircumflex" unicode="&#xf4;" horiz-adv-x="1217" 
d="M333.5 42q-118.5 62 -186.5 185t-68 300q0 179 68 309t189 198.5t279 68.5q155 0 273.5 -67.5t184.5 -195t66 -302.5q0 -178 -68.5 -303.5t-190 -190t-277.5 -64.5q-151 0 -269.5 62zM844 527q0 173 -59 267t-177 94q-120 0 -178 -95t-58 -262q0 -161 63 -248.5
t183 -87.5q226 0 226 332zM221 1233l236 329h305l236 -329l-179 -22l-210 207l-207 -207z" />
    <glyph glyph-name="odieresis" unicode="&#xf6;" horiz-adv-x="1217" 
d="M333.5 42q-118.5 62 -186.5 185t-68 300q0 179 68 309t189 198.5t279 68.5q155 0 273.5 -67.5t184.5 -195t66 -302.5q0 -178 -68.5 -303.5t-190 -190t-277.5 -64.5q-151 0 -269.5 62zM844 527q0 173 -59 267t-177 94q-120 0 -178 -95t-58 -262q0 -161 63 -248.5
t183 -87.5q226 0 226 332zM282 1266q-43 41 -43 110q0 67 43.5 108.5t109.5 41.5q68 0 111.5 -42.5t43.5 -107.5q0 -67 -44 -109t-111 -42t-110 41zM715.5 1266q-43.5 41 -43.5 110q0 67 43.5 108.5t113.5 41.5q43 0 78 -19.5t55.5 -53.5t20.5 -77q0 -44 -21 -78.5
t-56 -53.5t-77 -19q-70 0 -113.5 41z" />
    <glyph glyph-name="ograve" unicode="&#xf2;" horiz-adv-x="1217" 
d="M333.5 42q-118.5 62 -186.5 185t-68 300q0 179 68 309t189 198.5t279 68.5q155 0 273.5 -67.5t184.5 -195t66 -302.5q0 -178 -68.5 -303.5t-190 -190t-277.5 -64.5q-151 0 -269.5 62zM844 527q0 173 -59 267t-177 94q-120 0 -178 -95t-58 -262q0 -161 63 -248.5
t183 -87.5q226 0 226 332zM263 1533l296 21l234 -322l-192 -23z" />
    <glyph glyph-name="ohungarumlaut" unicode="&#x151;" horiz-adv-x="1217" 
d="M333.5 42q-118.5 62 -186.5 185t-68 300q0 179 68 309t189 198.5t279 68.5q155 0 273.5 -67.5t184.5 -195t66 -302.5q0 -178 -68.5 -303.5t-190 -190t-277.5 -64.5q-151 0 -269.5 62zM844 527q0 173 -59 267t-177 94q-120 0 -178 -95t-58 -262q0 -161 63 -248.5
t183 -87.5q226 0 226 332zM289 1235l209 319l274 -21l-305 -324zM685 1232l210 322l273 -21l-305 -329z" />
    <glyph glyph-name="omacron" unicode="&#x14d;" horiz-adv-x="1217" 
d="M333.5 42q-118.5 62 -186.5 185t-68 300q0 179 68 309t189 198.5t279 68.5q155 0 273.5 -67.5t184.5 -195t66 -302.5q0 -178 -68.5 -303.5t-190 -190t-277.5 -64.5q-151 0 -269.5 62zM844 527q0 173 -59 267t-177 94q-120 0 -178 -95t-58 -262q0 -161 63 -248.5
t183 -87.5q226 0 226 332zM288 1468h644v-190h-644v190z" />
    <glyph glyph-name="oslash" unicode="&#xf8;" horiz-adv-x="1217" 
d="M1101.5 774q37.5 -105 37.5 -236q0 -178 -68.5 -303.5t-190 -190t-277.5 -64.5q-131 0 -239 47l-39 -58h-192l99 145q-73 71 -113 175t-40 238q0 179 68 309t189 198.5t279 68.5q142 0 252 -56l38 57h193l-103 -152q69 -73 106.5 -178zM397 357l336 494q-52 37 -125 37
q-120 0 -178 -95t-58 -262q0 -102 25 -174zM844 527q0 98 -20 175l-325 -478q50 -29 119 -29q226 0 226 332z" />
    <glyph glyph-name="oslashacute" unicode="&#x1ff;" horiz-adv-x="1217" 
d="M1101.5 774q37.5 -105 37.5 -236q0 -178 -68.5 -303.5t-190 -190t-277.5 -64.5q-131 0 -239 47l-39 -58h-192l99 145q-73 71 -113 175t-40 238q0 179 68 309t189 198.5t279 68.5q142 0 252 -56l38 57h193l-103 -152q69 -73 106.5 -178zM397 357l336 494q-52 37 -125 37
q-120 0 -178 -95t-58 -262q0 -102 25 -174zM844 527q0 98 -20 175l-325 -478q50 -29 119 -29q226 0 226 332zM431 1232l235 322l295 -21l-338 -324z" />
    <glyph glyph-name="otilde" unicode="&#xf5;" horiz-adv-x="1217" 
d="M333.5 42q-118.5 62 -186.5 185t-68 300q0 179 68 309t189 198.5t279 68.5q155 0 273.5 -67.5t184.5 -195t66 -302.5q0 -178 -68.5 -303.5t-190 -190t-277.5 -64.5q-151 0 -269.5 62zM844 527q0 173 -59 267t-177 94q-120 0 -178 -95t-58 -262q0 -161 63 -248.5
t183 -87.5q226 0 226 332zM213 1269q13 128 67 196t160 68q55 0 96 -15t86 -44q43 -28 73 -40.5t61 -12.5q39 0 65 26t34 92l149 -42q-14 -122 -67 -194t-161 -72q-49 0 -89.5 15.5t-94.5 46.5q-54 30 -80.5 41t-51.5 11q-44 0 -67.5 -30t-32.5 -90z" />
    <glyph glyph-name="oe" unicode="&#x153;" horiz-adv-x="1915" 
d="M1837 492h-710q13 -150 86.5 -222.5t209.5 -72.5q79 0 168.5 16t162.5 45l62 -188q-86 -41 -192.5 -65.5t-222.5 -24.5q-275 0 -417 145q-69 -72 -166 -108.5t-215 -36.5q-152 0 -270 61.5t-186 184.5t-68 301q0 179 68 309t189 198.5t279 68.5q117 0 212.5 -38.5
t163.5 -113.5q68 74 162.5 113t206.5 39q158 0 265.5 -74t159.5 -197.5t52 -274.5v-65zM1559 666q-6 116 -59 175.5t-142 59.5q-88 0 -147 -58.5t-78 -176.5h426zM844 527q0 173 -59 267t-177 94q-120 0 -178 -95t-58 -262q0 -162 63 -249t182 -87q227 0 227 332z" />
    <glyph glyph-name="p" unicode="p" horiz-adv-x="1246" 
d="M152 815q0 123 -8 267h274q14 -59 19 -140q64 74 145 117.5t180 43.5q109 0 200.5 -54.5t148 -171.5t56.5 -296q0 -193 -67.5 -329t-186.5 -205t-272 -69q-93 0 -201 33v-441l-288 -21v1266zM803.5 284q70.5 95 70.5 279q0 166 -56.5 240t-150.5 74q-64 0 -118.5 -30.5
t-108.5 -84.5v-539q31 -15 75.5 -24.5t88.5 -9.5q129 0 199.5 95z" />
    <glyph glyph-name="thorn" unicode="&#xfe;" horiz-adv-x="1248" 
d="M154 1534l287 20v-608q133 157 323 157q110 0 201.5 -54t147.5 -172t56 -301q0 -185 -64 -319t-189 -205.5t-302 -71.5q-71 0 -173 15v-425l-287 -21v1985zM807 285.5q69 97.5 69 275.5q0 167 -54 241.5t-144 74.5q-68 0 -128.5 -31.5t-108.5 -79.5v-549q46 -15 84.5 -22
t89.5 -7q123 0 192 97.5z" />
    <glyph glyph-name="q" unicode="q" horiz-adv-x="1246" 
d="M808 139q-64 -73 -139.5 -116t-181.5 -43q-114 0 -206 54t-147 169.5t-55 291.5q0 186 63 323t180 211t275 74q145 0 255 -67l67 46h183q-8 -148 -8 -282v-1230l-286 -21v590zM703.5 238.5q62.5 34.5 103.5 80.5v532q-37 21 -83.5 33.5t-89.5 12.5q-80 0 -139 -43
t-91.5 -128t-32.5 -209q0 -165 55.5 -239t146.5 -74q68 0 130.5 34.5z" />
    <glyph glyph-name="r" unicode="r" horiz-adv-x="841" 
d="M152 812q0 90 -8 270h272q6 -44 11.5 -107t7.5 -102q43 72 84 120.5t95.5 79t125.5 30.5q54 0 98 -13l-36 -246q-37 10 -80 10q-85 0 -148.5 -40.5t-134.5 -135.5v-678h-287v812z" />
    <glyph glyph-name="racute" unicode="&#x155;" horiz-adv-x="841" 
d="M152 812q0 90 -8 270h272q6 -44 11.5 -107t7.5 -102q43 72 84 120.5t95.5 79t125.5 30.5q54 0 98 -13l-36 -246q-37 10 -80 10q-85 0 -148.5 -40.5t-134.5 -135.5v-678h-287v812zM265 1232l235 322l295 -21l-338 -324z" />
    <glyph glyph-name="rcaron" unicode="&#x159;" horiz-adv-x="841" 
d="M152 812q0 90 -8 270h272q6 -44 11.5 -107t7.5 -102q43 72 84 120.5t95.5 79t125.5 30.5q54 0 98 -13l-36 -246q-37 10 -80 10q-85 0 -148.5 -40.5t-134.5 -135.5v-678h-287v812zM802 1546l-198 -329h-306l-197 329l179 22l171 -209l170 209z" />
    <glyph glyph-name="rcommaaccent" unicode="&#x157;" horiz-adv-x="841" 
d="M152 812q0 90 -8 270h272q6 -44 11.5 -107t7.5 -102q43 72 84 120.5t95.5 79t125.5 30.5q54 0 98 -13l-36 -246q-37 10 -80 10q-85 0 -148.5 -40.5t-134.5 -135.5v-678h-287v812zM133 -503q39 89 56.5 179t17.5 201l237 -16q0 -109 -38 -209.5t-91 -179.5z" />
    <glyph glyph-name="s" unicode="s" horiz-adv-x="910" 
d="M208 1.5q-94 21.5 -149 51.5l62 187q54 -26 132.5 -44t151.5 -18q93 0 137 31t44 88q0 38 -21 62.5t-63 45t-129 53.5q-91 34 -153.5 72t-103.5 101t-41 156q0 97 46 168t134.5 109.5t212.5 38.5q91 0 180.5 -20t162.5 -55l-49 -183q-71 30 -149.5 48t-136.5 18
q-65 0 -100.5 -24.5t-35.5 -66.5q0 -30 19.5 -50.5t60 -39t128.5 -52.5q100 -40 160.5 -76t102 -101t41.5 -167q0 -108 -49.5 -187.5t-149 -123t-245.5 -43.5q-106 0 -200 21.5z" />
    <glyph glyph-name="sacute" unicode="&#x15b;" horiz-adv-x="910" 
d="M208 1.5q-94 21.5 -149 51.5l62 187q54 -26 132.5 -44t151.5 -18q93 0 137 31t44 88q0 38 -21 62.5t-63 45t-129 53.5q-91 34 -153.5 72t-103.5 101t-41 156q0 97 46 168t134.5 109.5t212.5 38.5q91 0 180.5 -20t162.5 -55l-49 -183q-71 30 -149.5 48t-136.5 18
q-65 0 -100.5 -24.5t-35.5 -66.5q0 -30 19.5 -50.5t60 -39t128.5 -52.5q100 -40 160.5 -76t102 -101t41.5 -167q0 -108 -49.5 -187.5t-149 -123t-245.5 -43.5q-106 0 -200 21.5zM278 1232l235 322l295 -21l-338 -324z" />
    <glyph glyph-name="scaron" unicode="&#x161;" horiz-adv-x="910" 
d="M208 1.5q-94 21.5 -149 51.5l62 187q54 -26 132.5 -44t151.5 -18q93 0 137 31t44 88q0 38 -21 62.5t-63 45t-129 53.5q-91 34 -153.5 72t-103.5 101t-41 156q0 97 46 168t134.5 109.5t212.5 38.5q91 0 180.5 -20t162.5 -55l-49 -183q-71 30 -149.5 48t-136.5 18
q-65 0 -100.5 -24.5t-35.5 -66.5q0 -30 19.5 -50.5t60 -39t128.5 -52.5q100 -40 160.5 -76t102 -101t41.5 -167q0 -108 -49.5 -187.5t-149 -123t-245.5 -43.5q-106 0 -200 21.5zM851 1546l-236 -329h-305l-236 329l179 22l210 -207l207 207z" />
    <glyph glyph-name="scedilla" unicode="&#x15f;" horiz-adv-x="910" 
d="M764 98.5q-88 -91.5 -259 -112.5l-21 -50q99 -22 150.5 -66.5t51.5 -124.5q0 -95 -68.5 -147.5t-204.5 -52.5q-133 0 -238 57l47 127q94 -47 177 -47q48 0 76.5 16.5t28.5 48.5q0 30 -25.5 48t-70 28.5t-122.5 22.5l54 136q-87 6 -161 26t-120 45l62 187
q54 -26 132.5 -44t151.5 -18q93 0 137 31t44 88q0 38 -21 62.5t-63 45t-129 53.5q-91 34 -153.5 72t-103.5 101t-41 156q0 97 46 168t134.5 109.5t212.5 38.5q91 0 180.5 -20t162.5 -55l-49 -183q-71 30 -149.5 48t-136.5 18q-65 0 -100.5 -24.5t-35.5 -66.5
q0 -30 19.5 -50.5t60 -39t128.5 -52.5q100 -40 160.5 -76t102 -101t41.5 -167q0 -144 -88 -235.5z" />
    <glyph glyph-name="scircumflex" unicode="&#x15d;" horiz-adv-x="910" 
d="M208 1.5q-94 21.5 -149 51.5l62 187q54 -26 132.5 -44t151.5 -18q93 0 137 31t44 88q0 38 -21 62.5t-63 45t-129 53.5q-91 34 -153.5 72t-103.5 101t-41 156q0 97 46 168t134.5 109.5t212.5 38.5q91 0 180.5 -20t162.5 -55l-49 -183q-71 30 -149.5 48t-136.5 18
q-65 0 -100.5 -24.5t-35.5 -66.5q0 -30 19.5 -50.5t60 -39t128.5 -52.5q100 -40 160.5 -76t102 -101t41.5 -167q0 -108 -49.5 -187.5t-149 -123t-245.5 -43.5q-106 0 -200 21.5zM75 1233l236 329h305l236 -329l-179 -22l-210 207l-207 -207z" />
    <glyph glyph-name="scommaaccent" unicode="&#x219;" horiz-adv-x="910" 
d="M208 1.5q-94 21.5 -149 51.5l62 187q54 -26 132.5 -44t151.5 -18q93 0 137 31t44 88q0 38 -21 62.5t-63 45t-129 53.5q-91 34 -153.5 72t-103.5 101t-41 156q0 97 46 168t134.5 109.5t212.5 38.5q91 0 180.5 -20t162.5 -55l-49 -183q-71 30 -149.5 48t-136.5 18
q-65 0 -100.5 -24.5t-35.5 -66.5q0 -30 19.5 -50.5t60 -39t128.5 -52.5q100 -40 160.5 -76t102 -101t41.5 -167q0 -108 -49.5 -187.5t-149 -123t-245.5 -43.5q-106 0 -200 21.5zM251 -503q39 89 56.5 179t17.5 201l237 -16q0 -109 -38 -209.5t-91 -179.5z" />
    <glyph glyph-name="germandbls" unicode="&#xdf;" horiz-adv-x="1346" 
d="M673 -1.5q-86 18.5 -161 52.5l67 187q68 -32 129.5 -47t126.5 -15q94 0 140.5 35.5t46.5 95.5q0 41 -23 71t-64 54.5t-125 64.5q-83 40 -132.5 79t-73.5 88t-24 116q0 59 17.5 103t52.5 82.5t97 88.5q48 37 75.5 62t46 55t18.5 64q0 56 -48.5 90.5t-137.5 34.5
q-127 0 -190.5 -78t-63.5 -246v-1036h-287v1039q0 259 139.5 387t395.5 128q154 0 257.5 -43t153.5 -116.5t50 -164.5q0 -75 -38.5 -132.5t-129.5 -122.5q-64 -47 -96 -78.5t-32 -64.5q0 -24 20.5 -45t59.5 -43t115 -59q117 -58 174.5 -132.5t57.5 -196.5q0 -118 -54 -203
t-153 -129t-233 -44q-88 0 -174 18.5z" />
    <glyph glyph-name="longs" unicode="&#x17f;" horiz-adv-x="780" 
d="M197 1157q0 208 107 302.5t282 94.5q65 0 126.5 -12t107.5 -30l-35 -228q-38 11 -72 18.5t-71 7.5q-78 0 -119 -50t-41 -160v-1100h-285v1157z" />
    <glyph glyph-name="t" unicode="t" horiz-adv-x="843" 
d="M281 69.5q-90 89.5 -90 301.5v503h-157l32 185l131 23l14 268l264 26v-294h323l-33 -208h-290v-473q0 -78 17 -122.5t51 -63.5t89 -19q72 0 157 31l37 -188q-55 -25 -129.5 -42t-156.5 -17q-169 0 -259 89.5z" />
    <glyph glyph-name="tbar" unicode="&#x167;" horiz-adv-x="843" 
d="M826 39q-55 -25 -129.5 -42t-156.5 -17q-169 0 -259 89.5t-90 301.5v76h-157l33 182l124 13v232h-157l32 185l131 23l14 268l264 26v-294h323l-33 -208h-290v-231h284l-31 -196h-253v-46q0 -78 17 -122.5t51 -63.5t89 -19q72 0 157 31z" />
    <glyph glyph-name="tcaron" unicode="&#x165;" horiz-adv-x="843" 
d="M281 69.5q-90 89.5 -90 301.5v503h-157l32 185l131 23l14 268l264 26v-294h323l-33 -208h-290v-473q0 -78 17 -122.5t51 -63.5t89 -19q72 0 157 31l37 -188q-55 -25 -129.5 -42t-156.5 -17q-169 0 -259 89.5zM610 1214q32 87 49 186.5t17 200.5l239 -19q0 -99 -36.5 -205
t-85.5 -188z" />
    <glyph glyph-name="uni0163" unicode="&#x163;" horiz-adv-x="843" 
d="M694.5 -130.5q51.5 -44.5 51.5 -124.5q0 -95 -68.5 -147.5t-204.5 -52.5q-134 0 -238 57l47 127q94 -47 177 -47q48 0 76.5 16.5t28.5 48.5q0 30 -25.5 48t-70 28.5t-122.5 22.5l60 151q-105 29 -160 119t-55 255v503h-157l32 185l131 23l14 268l264 26v-294h323
l-33 -208h-290v-473q0 -78 17 -122.5t51 -63.5t89 -19q72 0 157 31l37 -188q-51 -23 -119.5 -39.5t-143.5 -19.5l-19 -44q99 -22 150.5 -66.5z" />
    <glyph glyph-name="uni021B" unicode="&#x21b;" horiz-adv-x="843" 
d="M281 69.5q-90 89.5 -90 301.5v503h-157l32 185l131 23l14 268l264 26v-294h323l-33 -208h-290v-473q0 -78 17 -122.5t51 -63.5t89 -19q72 0 157 31l37 -188q-55 -25 -129.5 -42t-156.5 -17q-169 0 -259 89.5zM311 -503q39 89 56.5 179t17.5 201l237 -16
q0 -109 -38 -209.5t-91 -179.5z" />
    <glyph glyph-name="u" unicode="u" horiz-adv-x="1272" 
d="M224 83q-90 103 -90 303v696h284v-676q0 -104 39 -152.5t118 -48.5q72 0 136 36.5t122 96.5v744h286v-810q0 -137 9 -272h-270q-6 32 -12.5 82t-8.5 84q-49 -54 -96 -93t-113.5 -66t-150.5 -27q-163 0 -253 103z" />
    <glyph glyph-name="uacute" unicode="&#xfa;" horiz-adv-x="1272" 
d="M224 83q-90 103 -90 303v696h284v-676q0 -104 39 -152.5t118 -48.5q72 0 136 36.5t122 96.5v744h286v-810q0 -137 9 -272h-270q-6 32 -12.5 82t-8.5 84q-49 -54 -96 -93t-113.5 -66t-150.5 -27q-163 0 -253 103zM446 1232l235 322l295 -21l-338 -324z" />
    <glyph glyph-name="ubreve" unicode="&#x16d;" horiz-adv-x="1272" 
d="M224 83q-90 103 -90 303v696h284v-676q0 -104 39 -152.5t118 -48.5q72 0 136 36.5t122 96.5v744h286v-810q0 -137 9 -272h-270q-6 32 -12.5 82t-8.5 84q-49 -54 -96 -93t-113.5 -66t-150.5 -27q-163 0 -253 103zM433.5 1276q-80.5 45 -121.5 118t-45 159h183
q7 -74 53.5 -112.5t125.5 -38.5t125.5 38.5t55.5 112.5h182q-4 -85 -45 -158.5t-121.5 -118.5t-196.5 -45q-115 0 -195.5 45z" />
    <glyph glyph-name="ucircumflex" unicode="&#xfb;" horiz-adv-x="1272" 
d="M224 83q-90 103 -90 303v696h284v-676q0 -104 39 -152.5t118 -48.5q72 0 136 36.5t122 96.5v744h286v-810q0 -137 9 -272h-270q-6 32 -12.5 82t-8.5 84q-49 -54 -96 -93t-113.5 -66t-150.5 -27q-163 0 -253 103zM243 1233l236 329h305l236 -329l-179 -22l-210 207
l-207 -207z" />
    <glyph glyph-name="udieresis" unicode="&#xfc;" horiz-adv-x="1272" 
d="M224 83q-90 103 -90 303v696h284v-676q0 -104 39 -152.5t118 -48.5q72 0 136 36.5t122 96.5v744h286v-810q0 -137 9 -272h-270q-6 32 -12.5 82t-8.5 84q-49 -54 -96 -93t-113.5 -66t-150.5 -27q-163 0 -253 103zM304 1266q-43 41 -43 110q0 67 43.5 108.5t109.5 41.5
q68 0 111.5 -42.5t43.5 -107.5q0 -67 -44 -109t-111 -42t-110 41zM737.5 1266q-43.5 41 -43.5 110q0 67 43.5 108.5t113.5 41.5q43 0 78 -19.5t55.5 -53.5t20.5 -77q0 -44 -21 -78.5t-56 -53.5t-77 -19q-70 0 -113.5 41z" />
    <glyph glyph-name="ugrave" unicode="&#xf9;" horiz-adv-x="1272" 
d="M224 83q-90 103 -90 303v696h284v-676q0 -104 39 -152.5t118 -48.5q72 0 136 36.5t122 96.5v744h286v-810q0 -137 9 -272h-270q-6 32 -12.5 82t-8.5 84q-49 -54 -96 -93t-113.5 -66t-150.5 -27q-163 0 -253 103zM285 1533l296 21l234 -322l-192 -23z" />
    <glyph glyph-name="uhungarumlaut" unicode="&#x171;" horiz-adv-x="1272" 
d="M224 83q-90 103 -90 303v696h284v-676q0 -104 39 -152.5t118 -48.5q72 0 136 36.5t122 96.5v744h286v-810q0 -137 9 -272h-270q-6 32 -12.5 82t-8.5 84q-49 -54 -96 -93t-113.5 -66t-150.5 -27q-163 0 -253 103zM311 1235l209 319l274 -21l-305 -324zM707 1232l210 322
l273 -21l-305 -329z" />
    <glyph glyph-name="umacron" unicode="&#x16b;" horiz-adv-x="1272" 
d="M224 83q-90 103 -90 303v696h284v-676q0 -104 39 -152.5t118 -48.5q72 0 136 36.5t122 96.5v744h286v-810q0 -137 9 -272h-270q-6 32 -12.5 82t-8.5 84q-49 -54 -96 -93t-113.5 -66t-150.5 -27q-163 0 -253 103zM310 1468h644v-190h-644v190z" />
    <glyph glyph-name="uogonek" unicode="&#x173;" horiz-adv-x="1272" 
d="M1038 -264q21 4 48 16l33 -146q-64 -30 -163 -30q-85 0 -141.5 27.5t-84 75t-27.5 106.5q0 140 155 216q-6 33 -12.5 82t-8.5 83q-49 -54 -96 -93t-113.5 -66t-150.5 -27q-163 0 -253 103t-90 303v696h284v-676q0 -104 39 -152.5t118 -48.5q72 0 136 36.5t122 96.5v744
h286v-810q0 -137 9 -272h-73q-71 -29 -113 -72t-42 -98q0 -45 25 -71.5t67 -26.5q25 0 46 4z" />
    <glyph glyph-name="uring" unicode="&#x16f;" horiz-adv-x="1272" 
d="M224 83q-90 103 -90 303v696h284v-676q0 -104 39 -152.5t118 -48.5q72 0 136 36.5t122 96.5v744h286v-810q0 -137 9 -272h-270q-6 32 -12.5 82t-8.5 84q-49 -54 -96 -93t-113.5 -66t-150.5 -27q-163 0 -253 103zM502.5 1214q-56.5 31 -88.5 85.5t-32 123.5t32 124
t88.5 86t127.5 31q72 0 129 -31t89.5 -86t32.5 -124t-32.5 -123.5t-89.5 -85.5t-129 -31q-71 0 -127.5 31zM704 1350q28 28 28 75q0 45 -28 72t-74 27q-45 0 -72 -27t-27 -72q0 -47 27 -75t72 -28q46 0 74 28z" />
    <glyph glyph-name="utilde" unicode="&#x169;" horiz-adv-x="1272" 
d="M224 83q-90 103 -90 303v696h284v-676q0 -104 39 -152.5t118 -48.5q72 0 136 36.5t122 96.5v744h286v-810q0 -137 9 -272h-270q-6 32 -12.5 82t-8.5 84q-49 -54 -96 -93t-113.5 -66t-150.5 -27q-163 0 -253 103zM235 1269q13 128 67 196t160 68q55 0 96 -15t86 -44
q43 -28 73 -40.5t61 -12.5q39 0 65 26t34 92l149 -42q-14 -122 -67 -194t-161 -72q-49 0 -89.5 15.5t-94.5 46.5q-54 30 -80.5 41t-51.5 11q-44 0 -67.5 -30t-32.5 -90z" />
    <glyph glyph-name="v" unicode="v" horiz-adv-x="1093" 
d="M4 1082h304l199 -623q29 -88 49 -191q16 78 54 193l196 621h284l-388 -1082h-314z" />
    <glyph glyph-name="w" unicode="w" horiz-adv-x="1762" 
d="M4 1082h299l167 -615q33 -120 46 -201q10 69 49 199l186 617h281l176 -617q35 -124 46 -199q9 67 46 202l180 614h278l-362 -1082h-305l-173 588q-28 97 -43 192q-12 -83 -44 -189l-176 -591h-305z" />
    <glyph glyph-name="wacute" unicode="&#x1e83;" horiz-adv-x="1762" 
d="M4 1082h299l167 -615q33 -120 46 -201q10 69 49 199l186 617h281l176 -617q35 -124 46 -199q9 67 46 202l180 614h278l-362 -1082h-305l-173 588q-28 97 -43 192q-12 -83 -44 -189l-176 -591h-305zM696 1232l235 322l295 -21l-338 -324z" />
    <glyph glyph-name="wcircumflex" unicode="&#x175;" horiz-adv-x="1762" 
d="M4 1082h299l167 -615q33 -120 46 -201q10 69 49 199l186 617h281l176 -617q35 -124 46 -199q9 67 46 202l180 614h278l-362 -1082h-305l-173 588q-28 97 -43 192q-12 -83 -44 -189l-176 -591h-305zM493 1233l236 329h305l236 -329l-179 -22l-210 207l-207 -207z" />
    <glyph glyph-name="wdieresis" unicode="&#x1e85;" horiz-adv-x="1762" 
d="M4 1082h299l167 -615q33 -120 46 -201q10 69 49 199l186 617h281l176 -617q35 -124 46 -199q9 67 46 202l180 614h278l-362 -1082h-305l-173 588q-28 97 -43 192q-12 -83 -44 -189l-176 -591h-305zM554 1266q-43 41 -43 110q0 67 43.5 108.5t109.5 41.5q68 0 111.5 -42.5
t43.5 -107.5q0 -67 -44 -109t-111 -42t-110 41zM987.5 1266q-43.5 41 -43.5 110q0 67 43.5 108.5t113.5 41.5q43 0 78 -19.5t55.5 -53.5t20.5 -77q0 -44 -21 -78.5t-56 -53.5t-77 -19q-70 0 -113.5 41z" />
    <glyph glyph-name="wgrave" unicode="&#x1e81;" horiz-adv-x="1762" 
d="M4 1082h299l167 -615q33 -120 46 -201q10 69 49 199l186 617h281l176 -617q35 -124 46 -199q9 67 46 202l180 614h278l-362 -1082h-305l-173 588q-28 97 -43 192q-12 -83 -44 -189l-176 -591h-305zM535 1533l296 21l234 -322l-192 -23z" />
    <glyph glyph-name="x" unicode="x" horiz-adv-x="1077" 
d="M382 566l-353 516h313l205 -333l192 333h295l-336 -523l375 -559h-310l-235 372l-229 -372h-295z" />
    <glyph glyph-name="y" unicode="y" horiz-adv-x="1088" 
d="M55.5 -441q-59.5 10 -94.5 22l51 206q21 -6 61.5 -13t74.5 -7q81 0 140.5 47.5t94.5 137.5l13 32l-395 1098h310l182 -583q42 -142 56 -233q29 128 61 231l188 585h286l-387 -1085q-56 -160 -125 -257.5t-163.5 -144t-225.5 -46.5q-68 0 -127.5 10z" />
    <glyph glyph-name="yacute" unicode="&#xfd;" horiz-adv-x="1088" 
d="M55.5 -441q-59.5 10 -94.5 22l51 206q21 -6 61.5 -13t74.5 -7q81 0 140.5 47.5t94.5 137.5l13 32l-395 1098h310l182 -583q42 -142 56 -233q29 128 61 231l188 585h286l-387 -1085q-56 -160 -125 -257.5t-163.5 -144t-225.5 -46.5q-68 0 -127.5 10zM380 1232l235 322
l295 -21l-338 -324z" />
    <glyph glyph-name="ycircumflex" unicode="&#x177;" horiz-adv-x="1088" 
d="M55.5 -441q-59.5 10 -94.5 22l51 206q21 -6 61.5 -13t74.5 -7q81 0 140.5 47.5t94.5 137.5l13 32l-395 1098h310l182 -583q42 -142 56 -233q29 128 61 231l188 585h286l-387 -1085q-56 -160 -125 -257.5t-163.5 -144t-225.5 -46.5q-68 0 -127.5 10zM177 1233l236 329h305
l236 -329l-179 -22l-210 207l-207 -207z" />
    <glyph glyph-name="ydieresis" unicode="&#xff;" horiz-adv-x="1088" 
d="M55.5 -441q-59.5 10 -94.5 22l51 206q21 -6 61.5 -13t74.5 -7q81 0 140.5 47.5t94.5 137.5l13 32l-395 1098h310l182 -583q42 -142 56 -233q29 128 61 231l188 585h286l-387 -1085q-56 -160 -125 -257.5t-163.5 -144t-225.5 -46.5q-68 0 -127.5 10zM238 1266
q-43 41 -43 110q0 67 43.5 108.5t109.5 41.5q68 0 111.5 -42.5t43.5 -107.5q0 -67 -44 -109t-111 -42t-110 41zM671.5 1266q-43.5 41 -43.5 110q0 67 43.5 108.5t113.5 41.5q43 0 78 -19.5t55.5 -53.5t20.5 -77q0 -44 -21 -78.5t-56 -53.5t-77 -19q-70 0 -113.5 41z" />
    <glyph glyph-name="ygrave" unicode="&#x1ef3;" horiz-adv-x="1088" 
d="M55.5 -441q-59.5 10 -94.5 22l51 206q21 -6 61.5 -13t74.5 -7q81 0 140.5 47.5t94.5 137.5l13 32l-395 1098h310l182 -583q42 -142 56 -233q29 128 61 231l188 585h286l-387 -1085q-56 -160 -125 -257.5t-163.5 -144t-225.5 -46.5q-68 0 -127.5 10zM219 1533l296 21
l234 -322l-192 -23z" />
    <glyph glyph-name="z" unicode="z" horiz-adv-x="1005" 
d="M973 205l-35 -205h-893v187l519 688h-491l33 207h813l-17 -187l-515 -690h586z" />
    <glyph glyph-name="zacute" unicode="&#x17a;" horiz-adv-x="1005" 
d="M973 205l-35 -205h-893v187l519 688h-491l33 207h813l-17 -187l-515 -690h586zM328 1232l235 322l295 -21l-338 -324z" />
    <glyph glyph-name="zcaron" unicode="&#x17e;" horiz-adv-x="1005" 
d="M973 205l-35 -205h-893v187l519 688h-491l33 207h813l-17 -187l-515 -690h586zM901 1546l-236 -329h-305l-236 329l179 22l210 -207l207 207z" />
    <glyph glyph-name="zdotaccent" unicode="&#x17c;" horiz-adv-x="1005" 
d="M973 205l-35 -205h-893v187l519 688h-491l33 207h813l-17 -187l-515 -690h586zM428 1241.5q-37 20.5 -57.5 57t-20.5 81.5q0 70 45.5 114.5t116.5 44.5q46 0 83.5 -20.5t59 -56.5t21.5 -82q0 -45 -21.5 -81t-59.5 -57t-83 -21q-47 0 -84 20.5z" />
    <glyph glyph-name="g.alt1" horiz-adv-x="1173" 
d="M1028.5 159.5q93.5 -74.5 93.5 -214.5q0 -128 -77 -217t-211.5 -134t-306.5 -45q-143 0 -249.5 31t-164 89t-57.5 138q0 87 61.5 143t173.5 98q-55 23 -96.5 70.5t-41.5 108.5q0 59 40 105.5t128 89.5q-52 22 -98.5 64.5t-75.5 105t-29 140.5q0 102 49 186t145.5 133.5
t232.5 49.5q70 0 133.5 -12t106.5 -28l353 48l-33 -200h-196q27 -29 41 -73.5t14 -97.5q0 -98 -49.5 -178.5t-144 -128t-222.5 -47.5q-64 0 -105 6q-33 -17 -48.5 -34.5t-15.5 -40.5q0 -30 28.5 -45.5t87.5 -17.5l242 -10q198 -8 291.5 -82.5zM417.5 892.5
q-47.5 -52.5 -47.5 -148.5q0 -95 48.5 -150t128.5 -55q79 0 123 53t44 143q0 98 -47 154t-127 56q-75 0 -122.5 -52.5zM712 -247.5q75 20.5 118.5 58.5t43.5 89q0 45 -33.5 67.5t-89.5 25.5l-88 5q-164 8 -238 15q-53 -26 -83.5 -67t-30.5 -88q0 -60 56.5 -93t176.5 -33
q93 0 168 20.5z" />
    <glyph glyph-name="f_i" horiz-adv-x="1395" 
d="M216 874h-170l33 185l137 23v75q0 138 48 226.5t130.5 129.5t188.5 41q72 0 139 -12t116 -30l-35 -196q-87 26 -163 26q-72 0 -105.5 -50.5t-33.5 -155.5v-54h287l-32 -208h-255v-874h-285v874zM953 1082h287v-1082h-287v1082zM1013 1241.5q-37 20.5 -57.5 57t-20.5 81.5
q0 70 45.5 114.5t116.5 44.5q46 0 83.5 -20.5t59 -56.5t21.5 -82q0 -45 -21.5 -81t-59.5 -57t-83 -21q-47 0 -84 20.5z" />
    <glyph glyph-name="f_l" horiz-adv-x="1451" 
d="M216 874h-170l33 185l137 23v75q0 138 48 226.5t130.5 129.5t188.5 41q72 0 139 -12t116 -30l-35 -196q-87 26 -163 26q-72 0 -105.5 -50.5t-33.5 -155.5v-54h287l-32 -208h-255v-874h-285v874zM1012.5 50.5q-69.5 70.5 -69.5 221.5v1262l287 20v-1230q0 -65 24.5 -91.5
t71.5 -26.5q31 0 71 13l33 -202q-40 -17 -99.5 -27t-113.5 -10q-135 0 -204.5 70.5z" />
    <glyph glyph-name="ordfeminine" unicode="&#xaa;" horiz-adv-x="764" 
d="M166 749q-49 24 -77 72t-28 115q0 102 75 165t243 63q64 0 121 -10v14q0 76 -35.5 106.5t-107.5 30.5q-47 0 -110 -15t-106 -35l-24 141q41 19 118 35.5t149 16.5q99 0 167 -26t106.5 -92t38.5 -180v-275q0 -75 5 -135h-185q-8 33 -12 83q-100 -98 -228 -98
q-61 0 -110 24zM428.5 892q42.5 19 71.5 47v106q-48 8 -98 8q-76 0 -109 -27.5t-33 -72.5q0 -38 22.5 -59t62.5 -21q41 0 83.5 19z" />
    <glyph glyph-name="ordmasculine" unicode="&#xba;" horiz-adv-x="850" 
d="M237 766q-81 40 -127 119.5t-46 193.5q0 115 46 198.5t127.5 127t187.5 43.5q108 0 189.5 -43t126.5 -124.5t45 -193.5q0 -115 -46.5 -196.5t-128.5 -123t-188 -41.5q-105 0 -186 40zM534 937.5q35 50.5 35 144.5q0 97 -36 151t-108 54q-73 0 -109.5 -56t-36.5 -151
q0 -93 38.5 -143t107.5 -50q74 0 109 50.5z" />
    <glyph glyph-name="uni207F" unicode="&#x207f;" horiz-adv-x="895" 
d="M120 1269q0 121 -5 179h192q5 -24 8.5 -57t3.5 -53q50 56 101.5 87t132.5 31q109 0 172 -67t63 -196v-453h-205v420q0 65 -25.5 96.5t-76.5 31.5q-84 0 -159 -86v-462h-202v529z" />
    <glyph glyph-name="uni0410" unicode="&#x410;" horiz-adv-x="1417" 
d="M975 367h-554l-131 -367h-293l562 1449h286l574 -1449h-311zM501 591h393l-139 383q-30 79 -59 185q-24 -88 -57 -184z" />
    <glyph glyph-name="uni0411" unicode="&#x411;" horiz-adv-x="1318" 
d="M1005 843q114 -48 177 -143t63 -232q0 -148 -68 -253t-199 -160t-318 -55h-481v1448h894l-22 -242h-581v-315h269q152 0 266 -48zM871.5 271.5q80.5 55.5 80.5 180.5q0 110 -69 167t-207 57h-206v-460h173q148 0 228.5 55.5z" />
    <glyph glyph-name="uni0412" unicode="&#x412;" horiz-adv-x="1278" 
d="M1039 712.5q77 -46.5 121 -123.5t44 -180q0 -121 -61.5 -213.5t-181 -144t-285.5 -51.5h-497v1448h486q236 0 351 -89.5t115 -246.5q0 -131 -75 -217.5t-193 -120.5q99 -15 176 -61.5zM461 865h138q73 0 127.5 28t84 76t29.5 106q0 82 -60 123.5t-171 41.5h-148v-375z
M842.5 267.5q72.5 57.5 72.5 161.5q0 111 -79 168t-229 57h-146v-444h163q146 0 218.5 57.5z" />
    <glyph glyph-name="uni0413" unicode="&#x413;" horiz-adv-x="1067" 
d="M179 1448h864l-21 -235h-552v-1213h-291v1448z" />
    <glyph glyph-name="uni0403" unicode="&#x403;" horiz-adv-x="1067" 
d="M179 1448h864l-21 -235h-552v-1213h-291v1448zM413 1556l262 313l289 -25l-369 -310z" />
    <glyph glyph-name="uni0490" unicode="&#x490;" horiz-adv-x="1074" 
d="M1051 1776v-563h-581v-1213h-291v1448h598v307z" />
    <glyph glyph-name="uni0414" unicode="&#x414;" horiz-adv-x="1654" 
d="M1601 253v-565l-274 -16v328h-995v-312l-275 -16v581h124q98 220 154 532t63 663h980v-1195h223zM602.5 702.5q-49.5 -260.5 -127.5 -449.5h613v942h-427q-9 -232 -58.5 -492.5z" />
    <glyph glyph-name="uni0415" unicode="&#x415;" horiz-adv-x="1155" 
d="M179 1448h871l-24 -235h-556v-359h523v-219h-523v-398h587l-21 -237h-857v1448z" />
    <glyph glyph-name="uni0400" unicode="&#x400;" horiz-adv-x="1155" 
d="M179 1448h871l-24 -235h-556v-359h523v-219h-523v-398h587l-21 -237h-857v1448zM249 1844l289 25l262 -313l-176 -22z" />
    <glyph glyph-name="uni0401" unicode="&#x401;" horiz-adv-x="1155" 
d="M179 1448h871l-24 -235h-556v-359h523v-219h-523v-398h587l-21 -237h-857v1448zM292.5 1618q-40.5 38 -40.5 102q0 61 41 99.5t102 38.5q63 0 104 -39t41 -99q0 -63 -41.5 -101.5t-103.5 -38.5t-102.5 38zM742.5 1618q-40.5 38 -40.5 102q0 61 40.5 99.5t102.5 38.5
t103.5 -39.5t41.5 -98.5q0 -62 -42 -101t-103 -39q-62 0 -102.5 38z" />
    <glyph glyph-name="uni0416" unicode="&#x416;" horiz-adv-x="1942" 
d="M1943 0h-324l-375 613h-127v-613h-291v613h-129l-374 -613h-324l496 784l-219 357q-30 48 -61 68.5t-71 20.5q-38 0 -77 -17l-61 224q72 31 161 31q113 0 185.5 -48.5t131.5 -148.5l254 -412h88v589h291v-589h87l254 412q59 100 131 148.5t186 48.5q91 0 160 -31
l-60 -224q-41 17 -77 17q-40 0 -71 -20.5t-61 -68.5l-219 -357z" />
    <glyph glyph-name="uni0417" unicode="&#x417;" horiz-adv-x="1171" 
d="M280 12q-126 32 -225 92l76 224q83 -57 188.5 -91t214.5 -34q137 0 204 55t67 152q0 110 -85 169t-260 59h-158v215h111q111 0 186.5 28t112.5 77.5t37 114.5q0 86 -56.5 131t-162.5 45q-99 0 -188 -39.5t-144 -90.5l-87 195q85 68 198.5 111t275.5 43q137 0 239 -43.5
t157 -122.5t55 -181q0 -137 -82.5 -226t-221.5 -127q166 -24 266 -116.5t100 -253.5q0 -127 -66 -221.5t-190.5 -145.5t-295.5 -51q-140 0 -266 32z" />
    <glyph glyph-name="uni0418" unicode="&#x418;" horiz-adv-x="1620" 
d="M1174 0v751q0 151 11 340l-681 -1091h-325v1448h267v-779q0 -115 -10 -295l670 1074h335v-1448h-267z" />
    <glyph glyph-name="uni0419" unicode="&#x419;" horiz-adv-x="1620" 
d="M1174 0v751q0 151 11 340l-681 -1091h-325v1448h267v-779q0 -115 -10 -295l670 1074h335v-1448h-267zM622 1568.5q-83 43.5 -126 112t-53 147.5h201q28 -159 182 -159q153 0 183 159h201q-10 -78 -53 -147t-126 -112.5t-205 -43.5q-121 0 -204 43.5z" />
    <glyph glyph-name="uni040D" unicode="&#x40d;" horiz-adv-x="1620" 
d="M1174 0v751q0 151 11 340l-681 -1091h-325v1448h267v-779q0 -115 -10 -295l670 1074h335v-1448h-267zM457 1844l289 25l262 -313l-176 -22z" />
    <glyph glyph-name="uni041A" unicode="&#x41a;" horiz-adv-x="1364" 
d="M1365 0h-324l-403 613h-168v-613h-291v1448h291v-589h128l279 414q44 68 88 110t101 63.5t134 21.5q86 0 158 -31l-61 -224q-41 17 -77 17q-43 0 -72.5 -20.5t-60.5 -66.5l-245 -359z" />
    <glyph glyph-name="uni040C" unicode="&#x40c;" horiz-adv-x="1364" 
d="M1365 0h-324l-403 613h-168v-613h-291v1448h291v-589h128l279 414q44 68 88 110t101 63.5t134 21.5q86 0 158 -31l-61 -224q-41 17 -77 17q-43 0 -72.5 -20.5t-60.5 -66.5l-245 -359zM588 1556l262 313l289 -25l-369 -310z" />
    <glyph glyph-name="uni041B" unicode="&#x41b;" horiz-adv-x="1555" 
d="M86.5 -20q-41.5 7 -70.5 18l30 231q39 -15 81 -15t69 23.5t45 72.5t32 131q58 339 84 1007h1019v-1448h-291v1195h-466q-31 -533 -80 -819q-25 -149 -72 -237.5t-118 -127t-173 -38.5q-48 0 -89.5 7z" />
    <glyph glyph-name="uni041C" unicode="&#x41c;" horiz-adv-x="1956" 
d="M533 846q-27 71 -55 159t-46 150q11 -159 11 -351v-804h-264v1448h411l303 -803q59 -156 85 -275q36 143 88 276l313 802h398v-1448h-289v804q0 137 14 351q-62 -225 -115 -358l-314 -799h-220z" />
    <glyph glyph-name="uni041D" unicode="&#x41d;" horiz-adv-x="1587" 
d="M179 1448h291v-580h648v580h291v-1448h-291v636h-648v-636h-291v1448z" />
    <glyph glyph-name="uni041E" unicode="&#x41e;" horiz-adv-x="1647" 
d="M420.5 71q-161.5 91 -246.5 255.5t-85 382.5q0 229 91 400.5t261.5 265t403.5 93.5q223 0 383.5 -90.5t245 -254.5t84.5 -380q0 -232 -92 -404.5t-262.5 -265.5t-399.5 -93q-222 0 -383.5 91zM1058.5 272q97.5 67 146.5 184.5t49 268.5q0 148 -43 264t-137.5 185
t-242.5 69q-142 0 -241 -70t-148.5 -187.5t-49.5 -258.5q0 -149 47 -267t143 -186.5t237 -68.5q142 0 239.5 67z" />
    <glyph glyph-name="uni041F" unicode="&#x41f;" horiz-adv-x="1587" 
d="M179 1448h1230v-1448h-291v1195h-648v-1195h-291v1448z" />
    <glyph glyph-name="uni0420" unicode="&#x420;" horiz-adv-x="1231" 
d="M179 1448h406q283 0 434 -114.5t151 -330.5q0 -144 -65.5 -251t-182.5 -164t-268 -57q-89 0 -184 18v-549h-291v1448zM807.5 812.5q70.5 64.5 70.5 186.5q0 125 -75 179t-222 54h-111v-471q76 -13 129 -13q138 0 208.5 64.5z" />
    <glyph glyph-name="uni0421" unicode="&#x421;" horiz-adv-x="1288" 
d="M428 64.5q-164 84.5 -251.5 247.5t-87.5 393q0 238 92 410t257 262.5t378 90.5q118 0 226.5 -27t198.5 -75l-67 -215q-177 91 -344 91q-141 0 -240.5 -64t-150.5 -182t-51 -278q0 -151 48 -266t150.5 -180.5t260.5 -65.5q168 0 351 82l62 -211q-92 -46 -199 -71.5
t-242 -25.5q-227 0 -391 84.5z" />
    <glyph glyph-name="uni0422" unicode="&#x422;" horiz-adv-x="1230" 
d="M470 1206h-446l23 242h1160l-23 -242h-424v-1206h-290v1206z" />
    <glyph glyph-name="uni0423" unicode="&#x423;" horiz-adv-x="1360" 
d="M1368 1448l-523 -1091l-34 -72q-58 -117 -117.5 -184.5t-130 -97.5t-163.5 -30q-98 0 -165 25l29 221q47 -18 97 -18q62 0 103 24t76 95l17 33l-560 1095h318l391 -813l367 813h295z" />
    <glyph glyph-name="uni040E" unicode="&#x40e;" horiz-adv-x="1360" 
d="M1368 1448l-523 -1091l-34 -72q-58 -117 -117.5 -184.5t-130 -97.5t-163.5 -30q-98 0 -165 25l29 221q47 -18 97 -18q62 0 103 24t76 95l17 33l-560 1095h318l391 -813l367 813h295zM504 1568.5q-83 43.5 -126 112t-53 147.5h201q28 -159 182 -159q153 0 183 159h201
q-10 -78 -53 -147t-126 -112.5t-205 -43.5q-121 0 -204 43.5z" />
    <glyph glyph-name="uni0424" unicode="&#x424;" horiz-adv-x="1772" 
d="M1607.5 440.5q-75.5 -130.5 -222 -210.5t-354.5 -102v-128h-291v125q-212 18 -357.5 94.5t-219.5 202.5t-74 290q0 171 74.5 300t220 208.5t356.5 101.5v126h291v-122q213 -17 359 -92.5t219.5 -200.5t73.5 -290q0 -172 -75.5 -302.5zM1378 728q0 156 -80 255.5
t-267 125.5v-764q347 53 347 383zM475.5 471q83.5 -100 264.5 -127v762q-178 -31 -263 -131.5t-85 -246.5q0 -157 83.5 -257z" />
    <glyph glyph-name="uni0425" unicode="&#x425;" horiz-adv-x="1303" 
d="M484 739l-450 709h329l284 -494l301 494h321l-447 -700l484 -748h-333l-327 545l-328 -545h-321z" />
    <glyph glyph-name="uni0427" unicode="&#x427;" horiz-adv-x="1457" 
d="M1278 1448v-1448h-291v476q-64 -27 -150.5 -46.5t-192.5 -19.5q-149 0 -259 55.5t-169.5 160.5t-59.5 250v572h288v-517q0 -143 64.5 -215t206.5 -72q78 0 150 17.5t122 41.5v745h291z" />
    <glyph glyph-name="uni0426" unicode="&#x426;" horiz-adv-x="1698" 
d="M1645 253v-565l-274 -16v328h-1193v1448h291v-1195h648v1195h291v-1195h237z" />
    <glyph glyph-name="uni0428" unicode="&#x428;" horiz-adv-x="2176" 
d="M1997 1448v-1448h-1818v1448h290v-1203h474v1203h291v-1203h473v1203h290z" />
    <glyph glyph-name="uni0429" unicode="&#x429;" horiz-adv-x="2282" 
d="M2229 253v-565l-274 -16v328h-1776v1448h290v-1203h474v1203h291v-1203h473v1203h290v-1195h232z" />
    <glyph glyph-name="uni040F" unicode="&#x40f;" horiz-adv-x="1587" 
d="M1408 0h-469v-312l-274 -16v328h-487v1448h291v-1195h648v1195h291v-1448z" />
    <glyph glyph-name="uni042C" unicode="&#x42c;" horiz-adv-x="1323" 
d="M179 1448h291v-557h269q152 0 266 -48t177 -143t63 -232q0 -148 -68 -253t-199 -160t-318 -55h-481v1448zM643 216q148 0 228.5 55.5t80.5 180.5q0 110 -69 167t-207 57h-206v-460h173z" />
    <glyph glyph-name="uni042A" unicode="&#x42a;" horiz-adv-x="1611" 
d="M1293 843q114 -48 177 -143t63 -232q0 -148 -68 -253t-199 -160t-318 -55h-481v1206h-443l23 242h711v-557h269q152 0 266 -48zM1159.5 271.5q80.5 55.5 80.5 180.5q0 110 -69 167t-207 57h-206v-460h173q148 0 228.5 55.5z" />
    <glyph glyph-name="uni042B" unicode="&#x42b;" horiz-adv-x="1874" 
d="M179 1448h291v-557h269q152 0 266 -48t177 -143t63 -232q0 -148 -68 -253t-199 -160t-318 -55h-481v1448zM643 216q148 0 228.5 55.5t80.5 180.5q0 110 -69 167t-207 57h-206v-460h173zM1405 1448h291v-1448h-291v1448z" />
    <glyph glyph-name="uni0409" unicode="&#x409;" horiz-adv-x="2230" 
d="M1911 843q114 -48 177 -143t63 -232q0 -148 -68 -253t-199 -160t-318 -55h-481v1195h-466q-31 -533 -80 -819q-25 -149 -72 -237.5t-118 -127t-173 -38.5q-48 0 -89.5 7t-70.5 18l30 231q39 -15 81 -15t69 23.5t45 72.5t32 131q58 339 84 1007h1019v-557h269
q152 0 266 -48zM1777.5 271.5q80.5 55.5 80.5 180.5q0 110 -69 167t-207 57h-206v-460h173q148 0 228.5 55.5z" />
    <glyph glyph-name="uni040A" unicode="&#x40a;" horiz-adv-x="2201" 
d="M1882 843q114 -48 177 -143t63 -232q0 -148 -68 -253t-199 -160t-318 -55h-481v636h-586v-636h-291v1448h291v-580h586v580h291v-557h269q152 0 266 -48zM1748.5 271.5q80.5 55.5 80.5 180.5q0 110 -69 167t-207 57h-206v-460h173q148 0 228.5 55.5z" />
    <glyph glyph-name="uni0405" unicode="&#x405;" horiz-adv-x="1141" 
d="M299.5 7.5q-122.5 27.5 -213.5 72.5l86 224q82 -41 185.5 -67.5t184.5 -26.5q109 0 166.5 48t57.5 126q0 61 -38 105.5t-97.5 77t-169.5 80.5q-114 50 -189 103.5t-117 128t-42 177.5q0 129 63 222t175 141.5t257 48.5q107 0 219 -24.5t180 -61.5l-56 -233
q-180 88 -341 88q-95 0 -152 -35t-57 -110q0 -49 30 -84.5t90 -68.5t189 -91q119 -54 193.5 -110t113 -131.5t38.5 -180.5q0 -144 -63 -244t-178.5 -151t-272.5 -51q-119 0 -241.5 27.5z" />
    <glyph glyph-name="uni0404" unicode="&#x404;" horiz-adv-x="1305" 
d="M1260 77q-92 -46 -199 -71.5t-242 -25.5q-227 0 -391 84.5t-251.5 247.5t-87.5 393q0 238 92 410t257 262.5t378 90.5q118 0 226.5 -27t198.5 -75l-67 -215q-177 91 -344 91q-184 0 -296 -108t-138 -299h638v-219h-640q23 -190 135 -300t318 -110q168 0 351 82z" />
    <glyph glyph-name="uni042D" unicode="&#x42d;" horiz-adv-x="1305" 
d="M889.5 1389q156.5 -79 241.5 -239t85 -398q0 -234 -86.5 -408t-250 -269t-388.5 -95q-136 0 -245 25.5t-201 71.5l63 211q181 -82 356 -82q205 0 314 109t133 301h-644v219h644q-23 197 -131.5 302t-297.5 105q-88 0 -177.5 -24t-172.5 -67l-66 215q93 46 212.5 74
t238.5 28q216 0 372.5 -79z" />
    <glyph glyph-name="uni0406" unicode="&#x406;" horiz-adv-x="649" 
d="M179 1448h291v-1448h-291v1448z" />
    <glyph glyph-name="uni0407" unicode="&#x407;" horiz-adv-x="649" 
d="M179 1448h291v-1448h-291v1448zM23 1619.5q-40 37.5 -40 100.5q0 60 40.5 98t100.5 38q63 0 103 -38.5t40 -97.5q0 -62 -41 -100t-102 -38t-101 37.5zM424 1619.5q-40 37.5 -40 100.5q0 60 40.5 98t100.5 38q62 0 102.5 -39t40.5 -97q0 -62 -41 -100t-102 -38t-101 37.5z
" />
    <glyph glyph-name="uni0408" unicode="&#x408;" horiz-adv-x="763" 
d="M4 2l18 228q47 -10 87 -10q81 0 127 35t64.5 101t18.5 168v924h289v-943q0 -253 -109.5 -386t-346.5 -133q-81 0 -148 16z" />
    <glyph glyph-name="uni040B" unicode="&#x40b;" horiz-adv-x="1723" 
d="M1339.5 852q112.5 -56 174 -161t61.5 -250v-441h-289v387q0 143 -67.5 215.5t-214.5 72.5q-73 0 -142.5 -17t-118.5 -40v-618h-291v1206h-433l27 242h1120l-28 -242h-395v-361q59 27 144 45t189 18q151 0 263.5 -56z" />
    <glyph glyph-name="uni042E" unicode="&#x42e;" horiz-adv-x="2180" 
d="M1779 1377.5q153 -90.5 232.5 -254t79.5 -380.5q0 -233 -87 -405t-248.5 -265t-380.5 -93q-199 0 -345 81t-228.5 229t-95.5 346h-236v-636h-291v1448h291v-580h245q28 185 118 320t237.5 207.5t340.5 72.5q215 0 368 -90.5zM1610.5 272q89.5 67 133 184.5t43.5 268.5
q0 232 -91 375t-293 143q-133 0 -222 -70t-131.5 -186.5t-42.5 -259.5q0 -151 40 -268t126 -185.5t217 -68.5t220.5 67z" />
    <glyph glyph-name="uni042F" unicode="&#x42f;" horiz-adv-x="1332" 
d="M432 590q-115 47 -195 141.5t-80 261.5q0 134 59.5 237t178 160.5t288.5 57.5h470v-1448h-292v563h-161l-358 -563h-335zM861 778v454h-151q-121 0 -188.5 -58t-67.5 -172q0 -108 58.5 -166t177.5 -58h171z" />
    <glyph glyph-name="uni0402" unicode="&#x402;" horiz-adv-x="1656" 
d="M1332 866.5q116 -54.5 180.5 -158.5t64.5 -248q0 -154 -66 -263.5t-183.5 -166t-269.5 -56.5q-98 0 -182 21l35 218q58 -16 127 -16q118 0 181.5 69.5t63.5 183.5q0 122 -75.5 185.5t-215.5 63.5q-66 0 -121.5 -10.5t-110.5 -31.5v-657h-290v1206h-446l23 242h1160
l-23 -242h-424v-337q142 52 304 52q152 0 268 -54.5z" />
    <glyph glyph-name="uni0430" unicode="&#x430;" horiz-adv-x="1184" 
d="M780 0q-15 65 -18 138q-56 -66 -144 -112t-200 -46q-94 0 -171.5 37t-124 112t-46.5 184q0 344 494 344q96 0 188 -13v18q0 127 -58 180t-166 53q-79 0 -170.5 -23t-161.5 -55l-42 206q69 31 180.5 55.5t235.5 24.5q224 0 346 -105.5t122 -361.5v-433q0 -67 8 -203h-272z
M643 222q69 32 115 81v179q-92 10 -151 10q-136 0 -188 -44t-52 -118q0 -71 38 -105.5t104 -34.5q65 0 134 32z" />
    <glyph glyph-name="uni0431" unicode="&#x431;" horiz-adv-x="1219" 
d="M210.5 144.5q-138.5 164.5 -138.5 503.5q0 225 38.5 368t96 217t132.5 121q55 34 140 58t214 52q50 11 94 21.5t65 19.5q66 27 103 60l105 -221q-18 -18 -49 -38t-70 -35q-30 -11 -68.5 -19.5t-109.5 -22.5q-102 -19 -166.5 -36t-101.5 -43q-49 -33 -75 -89t-38 -136
q55 43 138.5 71.5t185.5 28.5q130 0 228 -59.5t152 -172t54 -266.5q0 -164 -65 -287.5t-187 -191.5t-288 -68q-251 0 -389.5 164.5zM741 234q56 39 86 110.5t30 167.5q0 138 -63 212t-179 74q-75 0 -137.5 -25t-108.5 -60q-5 -52 -5 -113q0 -207 65.5 -306t178.5 -99
q77 0 133 39z" />
    <glyph glyph-name="uni0432" unicode="&#x432;" horiz-adv-x="1210" 
d="M144 1082h572q178 0 267.5 -68.5t89.5 -186.5q0 -96 -55 -158t-144 -90q115 -17 186.5 -86.5t71.5 -184.5q0 -90 -47.5 -159.5t-138.5 -109t-217 -39.5h-585v1082zM617 657q79 0 120 34t41 93q0 54 -40 81.5t-119 27.5h-187v-236h185zM639 187q100 0 148.5 38t48.5 107
t-51.5 102.5t-155.5 33.5h-197v-281h207z" />
    <glyph glyph-name="uni0433" unicode="&#x433;" horiz-adv-x="892" 
d="M144 1082h720l-41 -237h-389v-845h-290v1082z" />
    <glyph glyph-name="uni0453" unicode="&#x453;" horiz-adv-x="892" 
d="M144 1082h720l-41 -237h-389v-845h-290v1082zM292 1232l235 322l295 -21l-338 -324z" />
    <glyph glyph-name="uni0491" unicode="&#x491;" horiz-adv-x="936" 
d="M908 1326v-481h-474v-845h-290v1082h506v224z" />
    <glyph glyph-name="uni0434" unicode="&#x434;" horiz-adv-x="1329" 
d="M1300 230v-531l-263 -16v317h-745v-301l-263 -16v547h137q75 172 115.5 386.5t41.5 465.5h812v-852h165zM525.5 539q-33.5 -171 -88.5 -309h414v624h-286q-6 -144 -39.5 -315z" />
    <glyph glyph-name="uni0435" unicode="&#x435;" horiz-adv-x="1147" 
d="M1069 493h-698q13 -156 90.5 -226t212.5 -70q76 0 156.5 18t155.5 49l62 -194q-190 -90 -423 -90q-269 0 -407.5 142.5t-138.5 402.5q0 180 65 310.5t181.5 199t268.5 68.5q159 0 265.5 -73.5t158 -197.5t51.5 -275v-64zM791 668q-6 116 -58.5 174.5t-140.5 58.5
q-86 0 -142 -58t-74 -175h415z" />
    <glyph glyph-name="uni0450" unicode="&#x450;" horiz-adv-x="1147" 
d="M1069 493h-698q13 -156 90.5 -226t212.5 -70q76 0 156.5 18t155.5 49l62 -194q-190 -90 -423 -90q-269 0 -407.5 142.5t-138.5 402.5q0 180 65 310.5t181.5 199t268.5 68.5q159 0 265.5 -73.5t158 -197.5t51.5 -275v-64zM791 668q-6 116 -58.5 174.5t-140.5 58.5
q-86 0 -142 -58t-74 -175h415zM242 1533l296 21l234 -322l-192 -23z" />
    <glyph glyph-name="uni0451" unicode="&#x451;" horiz-adv-x="1147" 
d="M1069 493h-698q13 -156 90.5 -226t212.5 -70q76 0 156.5 18t155.5 49l62 -194q-190 -90 -423 -90q-269 0 -407.5 142.5t-138.5 402.5q0 180 65 310.5t181.5 199t268.5 68.5q159 0 265.5 -73.5t158 -197.5t51.5 -275v-64zM791 668q-6 116 -58.5 174.5t-140.5 58.5
q-86 0 -142 -58t-74 -175h415zM261 1266q-43 41 -43 110q0 67 43.5 108.5t109.5 41.5q68 0 111.5 -42.5t43.5 -107.5q0 -67 -44 -109t-111 -42t-110 41zM694.5 1266q-43.5 41 -43.5 110q0 67 43.5 108.5t113.5 41.5q43 0 78 -19.5t55.5 -53.5t20.5 -77q0 -44 -21 -78.5
t-56 -53.5t-77 -19q-70 0 -113.5 41z" />
    <glyph glyph-name="uni0436" unicode="&#x436;" horiz-adv-x="1682" 
d="M1670 0h-318l-292 454h-83v-454h-276v454h-79l-292 -454h-319l414 602l-134 189q-37 53 -67.5 73.5t-72.5 20.5q-45 0 -84 -15l-28 210q62 23 144 23q72 0 123.5 -18t92 -54.5t82.5 -99.5l178 -263h42v414h276v-414h46l178 263q41 62 81.5 99t92.5 55t123 18
q82 0 144 -23l-27 -210q-15 6 -38 10.5t-46 4.5q-43 0 -73 -20.5t-68 -73.5l-134 -190z" />
    <glyph glyph-name="uni0437" unicode="&#x437;" horiz-adv-x="964" 
d="M35 47l57 206q146 -68 306 -68q98 0 150 37t52 102q0 70 -62 101t-193 31h-101v191h65q248 0 248 133q0 114 -165 114q-65 0 -129.5 -21t-121.5 -52l-68 192q170 92 384 92q113 0 199.5 -33.5t134 -95.5t47.5 -145q0 -99 -54.5 -164t-157.5 -91q119 -16 189.5 -80
t70.5 -178q0 -103 -56 -180t-158.5 -118.5t-238.5 -41.5q-235 0 -398 69z" />
    <glyph glyph-name="uni0438" unicode="&#x438;" horiz-adv-x="1293" 
d="M144 1082h272v-699l461 699h272v-1082h-272v691l-461 -691h-272v1082z" />
    <glyph glyph-name="uni0439" unicode="&#x439;" horiz-adv-x="1293" 
d="M144 1082h272v-699l461 699h272v-1082h-272v691l-461 -691h-272v1082zM381 1329.5q-88 85.5 -108 223.5h213q11 -85 48.5 -126t110.5 -41t111.5 41.5t48.5 125.5h214q-19 -137 -108 -223t-266 -86q-176 0 -264 85.5z" />
    <glyph glyph-name="uni045D" unicode="&#x45d;" horiz-adv-x="1293" 
d="M144 1082h272v-699l461 699h272v-1082h-272v691l-461 -691h-272v1082zM301 1533l296 21l234 -322l-192 -23z" />
    <glyph glyph-name="uni043A" unicode="&#x43a;" horiz-adv-x="1200" 
d="M1189 0h-321l-308 454h-129v-454h-287v1082h287v-414h80l206 267q46 61 87.5 97t92 53.5t119.5 17.5q85 0 145 -23l-27 -210q-41 15 -84 15q-40 0 -72 -20.5t-71 -72.5l-145 -193z" />
    <glyph glyph-name="uni045C" unicode="&#x45c;" horiz-adv-x="1200" 
d="M1189 0h-321l-308 454h-129v-454h-287v1082h287v-414h80l206 267q46 61 87.5 97t92 53.5t119.5 17.5q85 0 145 -23l-27 -210q-41 15 -84 15q-40 0 -72 -20.5t-71 -72.5l-145 -193zM470 1232l235 322l295 -21l-338 -324z" />
    <glyph glyph-name="uni043B" unicode="&#x43b;" horiz-adv-x="1272" 
d="M68.5 -15.5q-33.5 4.5 -58.5 12.5l22 211q29 -11 63 -11q47 0 74 39t42 121q46 250 94 725h822v-1082h-284v854h-299q-14 -125 -35.5 -280.5t-42.5 -280.5q-28 -166 -104.5 -239.5t-202.5 -73.5q-57 0 -90.5 4.5z" />
    <glyph glyph-name="uni043C" unicode="&#x43c;" horiz-adv-x="1561" 
d="M144 1082h354l203 -486q45 -113 81 -224q33 101 86 223l208 487h341v-1082h-262v497q0 152 8 248q-38 -120 -87 -235l-215 -510h-169l-216 523q-49 125 -78 222q8 -96 8 -263v-482h-262v1082z" />
    <glyph glyph-name="uni043D" unicode="&#x43d;" horiz-adv-x="1276" 
d="M144 1082h286v-416h417v416h285v-1082h-285v437h-417v-437h-286v1082z" />
    <glyph glyph-name="uni043E" unicode="&#x43e;" horiz-adv-x="1217" 
d="M333.5 42q-118.5 62 -186.5 185t-68 300q0 179 68 309t189 198.5t279 68.5q155 0 273.5 -67.5t184.5 -195t66 -302.5q0 -178 -68.5 -303.5t-190 -190t-277.5 -64.5q-151 0 -269.5 62zM844 527q0 173 -59 267t-177 94q-120 0 -178 -95t-58 -262q0 -161 63 -248.5
t183 -87.5q226 0 226 332z" />
    <glyph glyph-name="uni043F" unicode="&#x43f;" horiz-adv-x="1276" 
d="M144 1082h988v-1082h-285v853h-417v-853h-286v1082z" />
    <glyph glyph-name="uni0440" unicode="&#x440;" horiz-adv-x="1246" 
d="M152 815q0 123 -8 267h274q14 -59 19 -140q64 74 145 117.5t180 43.5q109 0 200.5 -54.5t148 -171.5t56.5 -296q0 -193 -67.5 -329t-186.5 -205t-272 -69q-93 0 -201 33v-441l-288 -21v1266zM803.5 284q70.5 95 70.5 279q0 166 -56.5 240t-150.5 74q-64 0 -118.5 -30.5
t-108.5 -84.5v-539q31 -15 75.5 -24.5t88.5 -9.5q129 0 199.5 95z" />
    <glyph glyph-name="uni0441" unicode="&#x441;" horiz-adv-x="983" 
d="M324.5 38q-114.5 58 -180 179t-65.5 303q0 183 66.5 314.5t186 200t274.5 68.5q95 0 187.5 -23.5t162.5 -58.5l-73 -198q-57 30 -125.5 49t-124.5 19q-128 0 -194.5 -95.5t-66.5 -262.5q0 -174 70.5 -256.5t199.5 -82.5q59 0 117.5 15.5t125.5 43.5l59 -185
q-68 -37 -158 -62.5t-198 -25.5q-149 0 -263.5 58z" />
    <glyph glyph-name="uni0442" unicode="&#x442;" horiz-adv-x="1002" 
d="M358 874h-338l32 208h929l-32 -208h-306v-874h-285v874z" />
    <glyph glyph-name="uni0443" unicode="&#x443;" horiz-adv-x="1088" 
d="M55.5 -441q-59.5 10 -94.5 22l51 206q21 -6 61.5 -13t74.5 -7q81 0 140.5 47.5t94.5 137.5l13 32l-395 1098h310l182 -583q42 -142 56 -233q29 128 61 231l188 585h286l-387 -1085q-56 -160 -125 -257.5t-163.5 -144t-225.5 -46.5q-68 0 -127.5 10z" />
    <glyph glyph-name="uni045E" unicode="&#x45e;" horiz-adv-x="1088" 
d="M55.5 -441q-59.5 10 -94.5 22l51 206q21 -6 61.5 -13t74.5 -7q81 0 140.5 47.5t94.5 137.5l13 32l-395 1098h310l182 -583q42 -142 56 -233q29 128 61 231l188 585h286l-387 -1085q-56 -160 -125 -257.5t-163.5 -144t-225.5 -46.5q-68 0 -127.5 10zM286 1329.5
q-88 85.5 -108 223.5h213q11 -85 48.5 -126t110.5 -41t111.5 41.5t48.5 125.5h214q-19 -137 -108 -223t-266 -86q-176 0 -264 85.5z" />
    <glyph glyph-name="uni0444" unicode="&#x444;" horiz-adv-x="1874" 
d="M794 64q-138 -84 -300 -84q-110 0 -204 55t-152.5 175.5t-58.5 308.5q0 179 53.5 310.5t158 202.5t254.5 71q68 0 129 -17.5t120 -46.5v495l287 20v-536q139 85 299 85q110 0 204.5 -55t153 -176t58.5 -309q0 -179 -53 -310t-157.5 -202t-253.5 -71q-121 0 -251 63v-473
l-287 -21v515zM691 213.5q50 17.5 103 47.5v567q-95 58 -184 58q-117 0 -177.5 -94.5t-60.5 -266.5q0 -174 58.5 -251.5t149.5 -77.5q61 0 111 17.5zM1442.5 290.5q60.5 94.5 60.5 265.5q0 175 -58.5 252.5t-150.5 77.5q-61 0 -111.5 -17.5t-101.5 -47.5v-567
q95 -58 184 -58q117 0 177.5 94.5z" />
    <glyph glyph-name="uni0445" unicode="&#x445;" horiz-adv-x="1077" 
d="M382 566l-353 516h313l205 -333l192 333h295l-336 -523l375 -559h-310l-235 372l-229 -372h-295z" />
    <glyph glyph-name="uni0447" unicode="&#x447;" horiz-adv-x="1272" 
d="M224 411q-90 103 -90 303v368h284v-348q0 -104 39 -152.5t118 -48.5q73 0 136 36.5t122 96.5v416h287v-1082h-287v494q-51 -56 -96 -94t-110 -65t-150 -27q-163 0 -253 103z" />
    <glyph glyph-name="uni0446" unicode="&#x446;" horiz-adv-x="1355" 
d="M1327 230v-531l-263 -16v317h-920v1082h285v-853h417v853h286v-852h195z" />
    <glyph glyph-name="uni0448" unicode="&#x448;" horiz-adv-x="1832" 
d="M1688 1082v-1082h-1544v1082h286v-852h343v852h286v-852h343v852h286z" />
    <glyph glyph-name="uni0449" unicode="&#x449;" horiz-adv-x="1903" 
d="M1874 230v-531l-263 -16v317h-1467v1082h286v-852h343v852h286v-852h343v852h286v-852h186z" />
    <glyph glyph-name="uni045F" unicode="&#x45f;" horiz-adv-x="1276" 
d="M1132 0h-360v-301l-263 -16v317h-365v1082h285v-853h417v853h286v-1082z" />
    <glyph glyph-name="uni044C" unicode="&#x44c;" horiz-adv-x="1211" 
d="M432 656h275q211 0 318 -75.5t107 -240.5q0 -103 -46.5 -180t-136.5 -118.5t-217 -41.5h-588v1082h288v-426zM651 187q98 0 141.5 38.5t43.5 109.5q0 66 -43.5 99.5t-127.5 33.5h-233v-281h219z" />
    <glyph glyph-name="uni044A" unicode="&#x44a;" horiz-adv-x="1498" 
d="M1312 580.5q107 -75.5 107 -240.5q0 -103 -46.5 -180t-136.5 -118.5t-217 -41.5h-588v859h-403l35 223h656v-426h275q211 0 318 -75.5zM1079.5 225.5q43.5 38.5 43.5 109.5q0 66 -43.5 99.5t-127.5 33.5h-233v-281h219q98 0 141.5 38.5z" />
    <glyph glyph-name="uni044B" unicode="&#x44b;" horiz-adv-x="1712" 
d="M432 656h275q211 0 318 -75.5t107 -240.5q0 -103 -46.5 -180t-136.5 -118.5t-217 -41.5h-588v1082h288v-426zM651 187q98 0 141.5 38.5t43.5 109.5q0 66 -43.5 99.5t-127.5 33.5h-233v-281h219zM1280 1082h287v-1082h-287v1082z" />
    <glyph glyph-name="uni0459" unicode="&#x459;" horiz-adv-x="1907" 
d="M1720 580.5q107 -75.5 107 -240.5q0 -103 -46.5 -180t-136.5 -118.5t-217 -41.5h-588v854h-295q-14 -125 -35.5 -280.5t-42.5 -280.5q-28 -166 -104.5 -239.5t-202.5 -73.5q-57 0 -90.5 4.5t-58.5 12.5l22 211q29 -11 63 -11q47 0 74 39t42 121q46 250 94 725h822v-426
h275q211 0 318 -75.5zM1487.5 225.5q43.5 38.5 43.5 109.5q0 66 -43.5 99.5t-127.5 33.5h-233v-281h219q98 0 141.5 38.5z" />
    <glyph glyph-name="uni045A" unicode="&#x45a;" horiz-adv-x="1911" 
d="M1725 580.5q107 -75.5 107 -240.5q0 -103 -46.5 -180t-136.5 -118.5t-217 -41.5h-588v437h-414v-437h-286v1082h286v-416h414v416h288v-426h275q211 0 318 -75.5zM1492.5 225.5q43.5 38.5 43.5 109.5q0 66 -43.5 99.5t-127.5 33.5h-233v-281h219q98 0 141.5 38.5z" />
    <glyph glyph-name="uni0455" unicode="&#x455;" horiz-adv-x="910" 
d="M208 1.5q-94 21.5 -149 51.5l62 187q54 -26 132.5 -44t151.5 -18q93 0 137 31t44 88q0 38 -21 62.5t-63 45t-129 53.5q-91 34 -153.5 72t-103.5 101t-41 156q0 97 46 168t134.5 109.5t212.5 38.5q91 0 180.5 -20t162.5 -55l-49 -183q-71 30 -149.5 48t-136.5 18
q-65 0 -100.5 -24.5t-35.5 -66.5q0 -30 19.5 -50.5t60 -39t128.5 -52.5q100 -40 160.5 -76t102 -101t41.5 -167q0 -108 -49.5 -187.5t-149 -123t-245.5 -43.5q-106 0 -200 21.5z" />
    <glyph glyph-name="uni0454" unicode="&#x454;" horiz-adv-x="984" 
d="M759.5 209.5q58.5 15.5 125.5 43.5l59 -185q-68 -37 -158 -62.5t-198 -25.5q-149 0 -263.5 58t-180 179t-65.5 303q0 183 66.5 314.5t186 200t274.5 68.5q95 0 187.5 -23.5t162.5 -58.5l-73 -198q-57 30 -125.5 49t-124.5 19q-107 0 -171.5 -68t-82.5 -191h398v-188h-399
q33 -250 264 -250q59 0 117.5 15.5z" />
    <glyph glyph-name="uni044D" unicode="&#x44d;" horiz-adv-x="984" 
d="M657.5 1041.5q115.5 -61.5 181 -187.5t65.5 -313q0 -184 -64.5 -310t-179.5 -188.5t-266 -62.5q-106 0 -201.5 23t-165.5 58l73 197q59 -30 129 -48t135 -18q104 0 165.5 65t76.5 187h-401v188h399q-18 131 -85.5 194t-176.5 63q-59 0 -117.5 -15.5t-126.5 -44.5l-58 186
q68 37 157 62.5t194 25.5q151 0 266.5 -61.5z" />
    <glyph glyph-name="uni0456" unicode="&#x456;" horiz-adv-x="596" 
d="M154 1082h287v-1082h-287v1082zM214 1241.5q-37 20.5 -57.5 57t-20.5 81.5q0 70 45.5 114.5t116.5 44.5q46 0 83.5 -20.5t59 -56.5t21.5 -82q0 -45 -21.5 -81t-59.5 -57t-83 -21q-47 0 -84 20.5z" />
    <glyph glyph-name="uni0457" unicode="&#x457;" horiz-adv-x="596" 
d="M154 1082h287v-1082h-287v1082zM11.5 1275.5q-39.5 37.5 -39.5 100.5q0 61 40 99t100 38q62 0 101.5 -39t39.5 -98q0 -61 -40.5 -99.5t-100.5 -38.5q-61 0 -100.5 37.5zM384 1275.5q-39 37.5 -39 100.5q0 62 39 99.5t103 37.5q59 0 99.5 -39.5t40.5 -97.5
q0 -40 -19 -71.5t-51 -49t-70 -17.5q-64 0 -103 37.5z" />
    <glyph glyph-name="uni0458" unicode="&#x458;" horiz-adv-x="596" 
d="M14 -443.5q-50 7.5 -73 15.5l32 211q29 -8 57 -8q67 0 96.5 40.5t29.5 123.5v1143h286v-1146q0 -199 -84.5 -293t-246.5 -94q-47 0 -97 7.5zM215 1241.5q-37 20.5 -57.5 57t-20.5 81.5q0 70 45.5 114.5t116.5 44.5q46 0 83.5 -20.5t59 -56.5t21.5 -82q0 -45 -21.5 -81
t-59.5 -57t-83 -21q-47 0 -84 20.5z" />
    <glyph glyph-name="uni045B" unicode="&#x45b;" horiz-adv-x="1273" 
d="M1048.5 946q90.5 -103 90.5 -300v-646h-285v622q0 104 -39.5 153t-119.5 49q-72 0 -134 -33.5t-120 -90.5v-700h-287v1177h-154l23 189h131v168l284 20v-188h299l-23 -189h-276v-308q72 79 158.5 129.5t201.5 50.5q160 0 250.5 -103z" />
    <glyph glyph-name="uni044E" unicode="&#x44e;" horiz-adv-x="1762" 
d="M1433.5 1035.5q118.5 -67.5 184.5 -195t66 -302.5q0 -178 -68.5 -303.5t-190 -190t-277.5 -64.5q-138 0 -249 51.5t-182 154t-88 251.5h-199v-437h-286v1082h286v-416h206q24 138 96 236.5t182 149.5t246 51q155 0 273.5 -67.5zM1389 527q0 173 -59 267t-177 94
q-120 0 -178 -95t-58 -262q0 -161 63 -248.5t183 -87.5q226 0 226 332z" />
    <glyph glyph-name="uni044F" unicode="&#x44f;" horiz-adv-x="1169" 
d="M323 421q-64 15 -117 54t-85 102.5t-32 148.5q0 110 52 190t149.5 123t232.5 43h502v-1082h-287v388h-143l-241 -388h-331zM738 593v264h-169q-90 0 -134 -32.5t-44 -100.5q0 -64 44.5 -97.5t141.5 -33.5h161z" />
    <glyph glyph-name="uni0452" unicode="&#x452;" horiz-adv-x="1273" 
d="M1048.5 946q90.5 -103 90.5 -300v-710q0 -199 -84.5 -293t-246.5 -94q-47 0 -97 7.5t-73 15.5l32 211q29 -8 57 -8q67 0 97 40.5t30 123.5v683q0 104 -39.5 153t-119.5 49q-72 0 -134 -33.5t-120 -90.5v-700h-287v1177h-154l23 189h131v168l284 20v-188h299l-23 -189
h-276v-308q72 79 158.5 129.5t201.5 50.5q160 0 250.5 -103z" />
    <glyph glyph-name="Alpha" unicode="&#x391;" horiz-adv-x="1417" 
d="M975 367h-554l-131 -367h-293l562 1449h286l574 -1449h-311zM501 591h393l-139 383q-30 79 -59 185q-24 -88 -57 -184z" />
    <glyph glyph-name="Beta" unicode="&#x392;" horiz-adv-x="1278" 
d="M1039 712.5q77 -46.5 121 -123.5t44 -180q0 -121 -61.5 -213.5t-181 -144t-285.5 -51.5h-497v1448h486q236 0 351 -89.5t115 -246.5q0 -131 -75 -217.5t-193 -120.5q99 -15 176 -61.5zM461 865h138q73 0 127.5 28t84 76t29.5 106q0 82 -60 123.5t-171 41.5h-148v-375z
M842.5 267.5q72.5 57.5 72.5 161.5q0 111 -79 168t-229 57h-146v-444h163q146 0 218.5 57.5z" />
    <glyph glyph-name="Gamma" unicode="&#x393;" horiz-adv-x="1067" 
d="M179 1448h864l-21 -235h-552v-1213h-291v1448z" />
    <glyph glyph-name="uni0394" unicode="&#x394;" horiz-adv-x="1330" 
d="M44 240l479 1208h295l468 -1204v-244h-1242v240zM995 249l-332 875l-340 -875h672z" />
    <glyph glyph-name="Epsilon" unicode="&#x395;" horiz-adv-x="1155" 
d="M179 1448h871l-24 -235h-556v-359h523v-219h-523v-398h587l-21 -237h-857v1448z" />
    <glyph glyph-name="Zeta" unicode="&#x396;" horiz-adv-x="1197" 
d="M1152 239l-20 -239h-1087v184l712 1029h-669l20 235h1009l-20 -183l-713 -1026h768z" />
    <glyph glyph-name="Eta" unicode="&#x397;" horiz-adv-x="1587" 
d="M179 1448h291v-580h648v580h291v-1448h-291v636h-648v-636h-291v1448z" />
    <glyph glyph-name="Theta" unicode="&#x398;" horiz-adv-x="1647" 
d="M420.5 71q-161.5 91 -246.5 255.5t-85 382.5q0 229 91 400.5t261.5 265t403.5 93.5q223 0 383.5 -90.5t245 -254.5t84.5 -380q0 -232 -92 -404.5t-262.5 -265.5t-399.5 -93q-222 0 -383.5 91zM1058.5 272q97.5 67 146.5 184.5t49 268.5q0 148 -43 264t-137.5 185
t-242.5 69q-142 0 -241 -70t-148.5 -187.5t-49.5 -258.5q0 -149 47 -267t143 -186.5t237 -68.5q142 0 239.5 67zM566 826h525v-201h-525v201z" />
    <glyph glyph-name="Iota" unicode="&#x399;" horiz-adv-x="649" 
d="M179 1448h291v-1448h-291v1448z" />
    <glyph glyph-name="Kappa" unicode="&#x39a;" horiz-adv-x="1348" 
d="M179 1448h291v-708l24 31q19 25 44.5 59t57.5 78l393 540h320l-488 -634l531 -814h-324l-389 616l-169 -182v-434h-291v1448z" />
    <glyph glyph-name="Lambda" unicode="&#x39b;" horiz-adv-x="1398" 
d="M1401 0h-318l-352 976q-11 30 -25.5 81t-23.5 92q-25 -99 -50 -173l-339 -976h-296l558 1448h289z" />
    <glyph glyph-name="Mu" unicode="&#x39c;" horiz-adv-x="1956" 
d="M533 846q-27 71 -55 159t-46 150q11 -159 11 -351v-804h-264v1448h411l303 -803q59 -156 85 -275q36 143 88 276l313 802h398v-1448h-289v804q0 137 14 351q-62 -225 -115 -358l-314 -799h-220z" />
    <glyph glyph-name="Nu" unicode="&#x39d;" horiz-adv-x="1620" 
d="M179 1448h335l670 -1074q-10 180 -10 295v779h267v-1448h-325l-681 1091q11 -189 11 -340v-751h-267v1448z" />
    <glyph glyph-name="Xi" unicode="&#x39e;" horiz-adv-x="1183" 
d="M145 1448h915l-23 -235h-914zM223 854h737v-219h-737v219zM120 237h965l-22 -237h-965z" />
    <glyph glyph-name="Omicron" unicode="&#x39f;" horiz-adv-x="1647" 
d="M420.5 71q-161.5 91 -246.5 255.5t-85 382.5q0 229 91 400.5t261.5 265t403.5 93.5q223 0 383.5 -90.5t245 -254.5t84.5 -380q0 -232 -92 -404.5t-262.5 -265.5t-399.5 -93q-222 0 -383.5 91zM1058.5 272q97.5 67 146.5 184.5t49 268.5q0 148 -43 264t-137.5 185
t-242.5 69q-142 0 -241 -70t-148.5 -187.5t-49.5 -258.5q0 -149 47 -267t143 -186.5t237 -68.5q142 0 239.5 67z" />
    <glyph glyph-name="Pi" unicode="&#x3a0;" horiz-adv-x="1587" 
d="M179 1448h1230v-1448h-291v1195h-648v-1195h-291v1448z" />
    <glyph glyph-name="Rho" unicode="&#x3a1;" horiz-adv-x="1231" 
d="M179 1448h406q283 0 434 -114.5t151 -330.5q0 -144 -65.5 -251t-182.5 -164t-268 -57q-89 0 -184 18v-549h-291v1448zM807.5 812.5q70.5 64.5 70.5 186.5q0 125 -75 179t-222 54h-111v-471q76 -13 129 -13q138 0 208.5 64.5z" />
    <glyph glyph-name="Sigma" unicode="&#x3a3;" horiz-adv-x="1197" 
d="M34 184l486 569l-440 504v191h1006l-21 -234h-641l364 -408v-102l-392 -465h756l-21 -239h-1097v184z" />
    <glyph glyph-name="Tau" unicode="&#x3a4;" horiz-adv-x="1230" 
d="M470 1206h-446l23 242h1160l-23 -242h-424v-1206h-290v1206z" />
    <glyph glyph-name="Upsilon" unicode="&#x3a5;" horiz-adv-x="1228" 
d="M470 558l-473 890h311l218 -431q74 -149 93 -219q31 72 100 209l230 441h282l-475 -890v-558h-286v558z" />
    <glyph glyph-name="Phi" unicode="&#x3a6;" horiz-adv-x="1772" 
d="M1607.5 440.5q-75.5 -130.5 -222 -210.5t-354.5 -102v-128h-291v125q-212 18 -357.5 94.5t-219.5 202.5t-74 290q0 171 74.5 300t220 208.5t356.5 101.5v126h291v-122q213 -17 359 -92.5t219.5 -200.5t73.5 -290q0 -172 -75.5 -302.5zM1378 728q0 156 -80 255.5
t-267 125.5v-764q347 53 347 383zM475.5 471q83.5 -100 264.5 -127v762q-178 -31 -263 -131.5t-85 -246.5q0 -157 83.5 -257z" />
    <glyph glyph-name="Chi" unicode="&#x3a7;" horiz-adv-x="1303" 
d="M484 739l-450 709h329l284 -494l301 494h321l-447 -700l484 -748h-333l-327 545l-328 -545h-321z" />
    <glyph glyph-name="Psi" unicode="&#x3a8;" horiz-adv-x="1704" 
d="M1563 1448v-516q0 -248 -141.5 -393.5t-424.5 -174.5v-364h-291v365q-280 30 -422.5 175.5t-142.5 388.5v519h288v-490q0 -160 63.5 -245.5t213.5 -109.5v845h291v-846q105 17 166 62.5t86 118.5t25 181v484h289z" />
    <glyph glyph-name="uni03A9" unicode="&#x3a9;" horiz-adv-x="1699" 
d="M89 235h355q-85 57 -156.5 146t-114.5 203t-43 238q0 186 77.5 331.5t239 230t402.5 84.5q229 0 391.5 -85t245.5 -231.5t83 -329.5q0 -124 -44 -237.5t-115.5 -203t-155.5 -146.5h356v-235h-612v235q131 124 201.5 259.5t70.5 302.5q0 115 -43 217t-138 167t-242 65
q-146 0 -240 -65t-136 -168t-42 -220q0 -164 70 -299t199 -259v-235h-609v235z" />
    <glyph glyph-name="Alphatonos" unicode="&#x386;" horiz-adv-x="1417" 
d="M975 367h-554l-131 -367h-293l562 1449h286l574 -1449h-311zM501 591h393l-139 383q-30 79 -59 185q-24 -88 -57 -184zM-35 1095l142 378l253 -26l-212 -374z" />
    <glyph glyph-name="Epsilontonos" unicode="&#x388;" horiz-adv-x="1443" 
d="M467 1448h871l-24 -235h-556v-359h523v-219h-523v-398h587l-21 -237h-857v1448zM-48 1095l142 378l253 -26l-212 -374z" />
    <glyph glyph-name="Etatonos" unicode="&#x389;" horiz-adv-x="1876" 
d="M467 1448h291v-580h648v580h291v-1448h-291v636h-648v-636h-291v1448zM-48 1095l142 378l253 -26l-212 -374z" />
    <glyph glyph-name="Iotatonos" unicode="&#x38a;" horiz-adv-x="937" 
d="M467 1448h291v-1448h-291v1448zM-48 1095l142 378l253 -26l-212 -374z" />
    <glyph glyph-name="Omicrontonos" unicode="&#x38c;" horiz-adv-x="1807" 
d="M580.5 71q-161.5 91 -246.5 255.5t-85 382.5q0 229 91 400.5t261.5 265t403.5 93.5q223 0 383.5 -90.5t245 -254.5t84.5 -380q0 -232 -92 -404.5t-262.5 -265.5t-399.5 -93q-222 0 -383.5 91zM1218.5 272q97.5 67 146.5 184.5t49 268.5q0 148 -43 264t-137.5 185
t-242.5 69q-142 0 -241 -70t-148.5 -187.5t-49.5 -258.5q0 -149 47 -267t143 -186.5t237 -68.5q142 0 239.5 67zM-48 1095l142 378l253 -26l-212 -374z" />
    <glyph glyph-name="Upsilontonos" unicode="&#x38e;" horiz-adv-x="1645" 
d="M887 558l-473 890h311l218 -431q74 -149 93 -219q31 72 100 209l230 441h282l-475 -890v-558h-286v558zM-48 1095l142 378l253 -26l-212 -374z" />
    <glyph glyph-name="Omegatonos" unicode="&#x38f;" horiz-adv-x="1855" 
d="M245 235h355q-85 57 -156.5 146t-114.5 203t-43 238q0 186 77.5 331.5t239 230t402.5 84.5q229 0 391.5 -85t245.5 -231.5t83 -329.5q0 -124 -44 -237.5t-115.5 -203t-155.5 -146.5h356v-235h-612v235q131 124 201.5 259.5t70.5 302.5q0 115 -43 217t-138 167t-242 65
q-146 0 -240 -65t-136 -168t-42 -220q0 -164 70 -299t199 -259v-235h-609v235zM-48 1095l142 378l253 -26l-212 -374z" />
    <glyph glyph-name="Iotadieresis" unicode="&#x3aa;" horiz-adv-x="649" 
d="M179 1448h291v-1448h-291v1448zM23 1619.5q-40 37.5 -40 100.5q0 60 40.5 98t100.5 38q63 0 103 -38.5t40 -97.5q0 -62 -41 -100t-102 -38t-101 37.5zM424 1619.5q-40 37.5 -40 100.5q0 60 40.5 98t100.5 38q62 0 102.5 -39t40.5 -97q0 -62 -41 -100t-102 -38t-101 37.5z
" />
    <glyph glyph-name="Upsilondieresis" unicode="&#x3ab;" horiz-adv-x="1228" 
d="M470 558l-473 890h311l218 -431q74 -149 93 -219q31 72 100 209l230 441h282l-475 -890v-558h-286v558zM285.5 1618q-40.5 38 -40.5 102q0 61 41 99.5t102 38.5q63 0 104 -39t41 -99q0 -63 -41.5 -101.5t-103.5 -38.5t-102.5 38zM735.5 1618q-40.5 38 -40.5 102
q0 61 40.5 99.5t102.5 38.5t103.5 -39.5t41.5 -98.5q0 -62 -42 -101t-103 -39q-62 0 -102.5 38z" />
    <glyph glyph-name="uni03EF" unicode="&#x3ef;" horiz-adv-x="1334" 
d="M1276 1082v-542l-257 -21v328h-207v-847h-291v847h-206v-307l-258 -21v563h464v366h291v-366h464z" />
    <glyph glyph-name="alpha" unicode="&#x3b1;" horiz-adv-x="1325" 
d="M1304 21q-44 -19 -99.5 -30t-114.5 -11q-199 0 -249 155q-66 -71 -152 -113t-203 -42q-114 0 -206 54.5t-146.5 171.5t-54.5 297q0 183 64.5 318.5t187 208.5t292.5 73q131 0 255 -63l22 42h216q-7 -97 -7 -204v-552q0 -69 21.5 -96t64.5 -27q46 0 78 15zM816 862
q-81 36 -170 36q-130 0 -203.5 -97.5t-73.5 -277.5q0 -168 58.5 -245t154.5 -77q65 0 128.5 35.5t105.5 82.5v543z" />
    <glyph glyph-name="beta" unicode="&#x3b2;" horiz-adv-x="1277" 
d="M1103 723q95 -97 95 -274q0 -143 -64.5 -249t-181.5 -163t-272 -57q-130 0 -262 44v-454l-280 -21v1492q0 258 133 385.5t371 127.5q149 0 249.5 -48t149 -131.5t48.5 -191.5q0 -132 -65.5 -213t-176.5 -118q161 -32 256 -129zM772.5 218q64.5 32 99 90t34.5 135
q0 95 -45.5 159t-121.5 95t-170 31h-27v188h21q82 0 138.5 35.5t84.5 93t28 125.5q0 87 -46.5 141.5t-137.5 54.5q-103 0 -157.5 -80t-54.5 -240v-819q97 -41 202 -41q88 0 152.5 32z" />
    <glyph glyph-name="gamma" unicode="&#x3b3;" horiz-adv-x="1253" 
d="M1066 509q-108 -236 -342 -507q1 -25 1 -75v-357l-281 -21v348q0 296 -43.5 516t-117 337t-159.5 117q-37 0 -67 -14l-48 218q31 15 76.5 23.5t94.5 8.5q144 0 249.5 -105t171 -279.5t96.5 -392.5q83 129 129.5 280.5t46.5 307.5q0 99 -22 169l304 22q19 -68 19 -150
q0 -210 -108 -446z" />
    <glyph glyph-name="delta" unicode="&#x3b4;" horiz-adv-x="1256" 
d="M951 949q99 -61 163 -167.5t64 -271.5q0 -168 -69 -287.5t-195 -181t-293 -61.5q-166 0 -288.5 60.5t-188 172.5t-65.5 263q0 171 84.5 286.5t241.5 172.5q-109 51 -166 120.5t-57 177.5q0 150 112 235.5t343 85.5q129 0 246.5 -29.5t205.5 -70.5l-61 -224
q-75 39 -176.5 69t-203.5 30q-87 0 -128 -27t-41 -76q0 -31 22.5 -56t71 -50t135.5 -58q144 -52 243 -113zM763.5 222.5q58.5 34.5 91.5 103t33 166.5q0 91 -28 156t-84.5 112t-147.5 86q-260 -91 -260 -359q0 -94 33 -161.5t91.5 -102.5t134.5 -35q78 0 136.5 34.5z" />
    <glyph glyph-name="epsilon" unicode="&#x3b5;" horiz-adv-x="1003" 
d="M976 56q-86 -36 -194 -56t-232 -20q-225 0 -348 78t-123 224q0 118 69.5 190.5t196.5 97.5q-97 24 -146 84t-49 154q0 89 51 156t147.5 104t229.5 37q202 0 366 -68l-54 -201q-146 60 -278 60q-86 0 -131.5 -31t-45.5 -88q0 -68 60 -99t187 -31h72v-186h-106
q-136 0 -199.5 -35t-63.5 -106q0 -62 58 -97.5t163 -35.5q88 0 173 16.5t157 47.5z" />
    <glyph glyph-name="zeta" unicode="&#x3b6;" horiz-adv-x="991" 
d="M661 -346q28 51 44 94.5t16 90.5q0 64 -31 101t-79 54t-134 36q-132 28 -222 77.5t-141 140t-51 233.5q0 221 134.5 423.5t395.5 402.5h-486l57 227h807l-26 -206q-177 -131 -308 -254t-213.5 -260t-82.5 -277q0 -86 32.5 -140.5t91 -85t147.5 -48.5q125 -27 199.5 -56.5
t124 -96.5t49.5 -186q0 -88 -26.5 -165.5t-74.5 -160.5z" />
    <glyph glyph-name="eta" unicode="&#x3b7;" horiz-adv-x="1271" 
d="M979 1056.5q76 -46.5 117 -138.5t41 -224v-1124l-285 -21v1124q0 104 -39 154t-118 50q-73 0 -134.5 -36.5t-121.5 -98.5v-742h-287v808q0 151 -8 274h272q6 -33 11.5 -83.5t7.5 -84.5q51 57 97.5 96.5t113 66t152.5 26.5q105 0 181 -46.5z" />
    <glyph glyph-name="theta" unicode="&#x3b8;" horiz-adv-x="1198" 
d="M878.5 1467.5q115.5 -86.5 178 -263t62.5 -442.5q0 -263 -64.5 -438t-180.5 -259.5t-273 -84.5q-245 0 -383.5 188.5t-138.5 593.5q0 262 64 439t180.5 265t277.5 88q162 0 277.5 -86.5zM477.5 1293.5q-48.5 -49.5 -74 -155t-30.5 -275.5h451q-5 177 -30.5 282
t-72.5 151.5t-120 46.5q-75 0 -123.5 -49.5zM721.5 237q46.5 44 72 147.5t30.5 280.5h-452q5 -173 32 -276.5t75 -149.5t122 -46t120.5 44z" />
    <glyph glyph-name="iota" unicode="&#x3b9;" horiz-adv-x="653" 
d="M210.5 48.5q-66.5 68.5 -66.5 217.5v816h287v-761q0 -64 25 -91t70 -27q33 0 75 13l30 -197q-42 -18 -101.5 -28.5t-118.5 -10.5q-134 0 -200.5 68.5z" />
    <glyph glyph-name="kappa" unicode="&#x3ba;" horiz-adv-x="1223" 
d="M144 1082h287v-549q161 269 279 419q63 81 129.5 114t159.5 33q42 0 86 -6.5t71 -16.5l-38 -200q-31 12 -77 12q-35 0 -68 -20t-79 -73q-45 -49 -126 -160l444 -635h-329l-295 442q-99 -126 -157 -217v-225h-287v1082z" />
    <glyph glyph-name="lambda" unicode="&#x3bb;" horiz-adv-x="1246" 
d="M921 5q-58 23 -102 80t-72 158l-148 520l-288 -764h-307l470 1098l-21 73q-25 86 -75 123t-134 37q-35 0 -71.5 -7t-61.5 -15l-40 203q33 13 96 23t130 10q123 0 209 -40t146 -127t103 -232l233 -787q19 -61 35.5 -94.5t40 -49t60.5 -15.5q31 0 69 14l43 -194
q-38 -19 -79.5 -28t-97.5 -9q-80 0 -138 23z" />
    <glyph glyph-name="uni03BC" unicode="&#x3bc;" horiz-adv-x="1363" 
d="M1342 21q-43 -17 -103 -28t-117 -11q-95 0 -155 35.5t-87 112.5q-42 -73 -106.5 -111.5t-149.5 -38.5q-64 0 -113 23.5t-80 67.5v-501l-287 -21v1531h285v-660q0 -103 51.5 -154t138.5 -51q63 0 117 26.5t86 75t32 111.5v654h287v-759q0 -64 25 -91t71 -27q35 0 74 14z
" />
    <glyph glyph-name="nu" unicode="&#x3bd;" horiz-adv-x="1218" 
d="M1133.5 1032.5q5.5 -34.5 5.5 -84.5q0 -214 -110.5 -459t-322.5 -489h-278q-36 483 -117 673t-193 190q-42 0 -70 -15l-39 223q31 15 76.5 23.5t96.5 8.5q154 0 247 -106t141 -271.5t89 -421.5q82 149 135.5 305.5t53.5 294.5q0 100 -25 179l295 20q10 -36 15.5 -70.5z
" />
    <glyph glyph-name="xi" unicode="&#x3be;" horiz-adv-x="1038" 
d="M882.5 203q73.5 -30 122.5 -95.5t49 -181.5q0 -88 -26.5 -167.5t-73.5 -160.5l-224 56q28 50 43.5 94t15.5 91q0 64 -31.5 101.5t-80.5 55t-131 34.5q-154 32 -253 70.5t-166.5 124.5t-67.5 237q0 189 105 286.5t280 131.5q-118 26 -194.5 101.5t-76.5 211.5
q0 115 58 196t164 123t248 42q89 0 180.5 -16.5t160.5 -45.5l-46 -218q-130 66 -273 66q-102 0 -155.5 -47.5t-53.5 -129.5q0 -93 67.5 -136t179.5 -43h114v-238h-123q-157 0 -244.5 -57t-87.5 -180q0 -81 38 -126.5t100.5 -69t181.5 -50.5q127 -30 200.5 -60z" />
    <glyph glyph-name="omicron" unicode="&#x3bf;" horiz-adv-x="1217" 
d="M333.5 42q-118.5 62 -186.5 185t-68 300q0 179 68 309t189 198.5t279 68.5q155 0 273.5 -67.5t184.5 -195t66 -302.5q0 -178 -68.5 -303.5t-190 -190t-277.5 -64.5q-151 0 -269.5 62zM844 527q0 173 -59 267t-177 94q-120 0 -178 -95t-58 -262q0 -161 63 -248.5
t183 -87.5q226 0 226 332z" />
    <glyph glyph-name="pi" unicode="&#x3c0;" horiz-adv-x="1440" 
d="M917 51q-68 71 -68 214v613h-303q-2 -204 -24.5 -441t-62.5 -437h-295q50 199 80 436t35 442h-250l40 205h1330l-30 -205h-238v-565q0 -64 25.5 -94t74.5 -30q37 0 102 19l31 -186q-131 -42 -239 -42q-140 0 -208 71z" />
    <glyph glyph-name="rho" unicode="&#x3c1;" horiz-adv-x="1240" 
d="M1026 970.5q135 -132.5 135 -403.5q0 -188 -69.5 -321t-191.5 -200.5t-278 -67.5q-100 0 -197 30v-438l-289 -21v999q0 251 122 403t399 152q234 0 369 -132.5zM795 285q75 93 75 275q0 168 -59.5 244.5t-159.5 76.5q-99 0 -162.5 -68t-63.5 -216v-384q37 -10 77.5 -15.5
t72.5 -5.5q145 0 220 93z" />
    <glyph glyph-name="uni03C2" unicode="&#x3c2;" horiz-adv-x="1012" 
d="M662 -373q59 106 59 178q0 50 -31.5 85t-80.5 57.5t-131 51.5q-130 45 -213 96.5t-134.5 151t-51.5 264.5q0 187 67 320t188.5 202.5t282.5 69.5q98 0 191 -23t164 -58l-71 -194q-60 29 -127 47.5t-127 18.5q-137 0 -207 -97.5t-70 -260.5q0 -103 29 -163t78 -91t135 -63
q125 -48 197.5 -85.5t124 -99.5t51.5 -155q0 -74 -29.5 -156t-71.5 -152z" />
    <glyph glyph-name="sigma" unicode="&#x3c3;" horiz-adv-x="1316" 
d="M1269 877h-235q55 -69 88.5 -161.5t33.5 -185.5q0 -176 -70 -300t-193.5 -187t-281.5 -63q-154 0 -274 61t-189 183.5t-69 298.5q0 178 71 303.5t197.5 190.5t292.5 65h658zM837.5 718.5q-24.5 82.5 -77.5 158.5h-89q-301 0 -301 -345q0 -164 65 -251.5t185 -87.5
q119 0 180.5 88.5t61.5 260.5q0 94 -24.5 176.5z" />
    <glyph glyph-name="tau" unicode="&#x3c4;" horiz-adv-x="875" 
d="M351 53q-73 73 -73 230v594h-250l28 205h802l-29 -205h-265v-536q0 -79 30 -110.5t85 -31.5q47 0 101 19l32 -190q-48 -21 -114.5 -34.5t-131.5 -13.5q-142 0 -215 73z" />
    <glyph glyph-name="upsilon" unicode="&#x3c5;" horiz-adv-x="1274" 
d="M254 114.5q-120 134.5 -120 377.5v590h283v-584q0 -138 53.5 -216.5t157.5 -78.5q111 0 171 95.5t60 287.5q0 150 -24 270t-60 225l281 18q37 -93 60.5 -222t23.5 -281q0 -308 -137 -462t-383 -154t-366 134.5z" />
    <glyph glyph-name="phi" unicode="&#x3c6;" horiz-adv-x="1575" 
d="M1421.5 256.5q-74.5 -118.5 -207.5 -186.5t-310 -85v-415l-239 -21v437q-176 16 -307.5 82t-205 184t-73.5 286q0 161 72 280.5t204 190t310 88.5v351l239 20v-370q184 -17 317 -86.5t204 -189t71 -283.5t-74.5 -282.5zM1202 538q0 145 -74.5 232.5t-223.5 111.5v-681
q298 44 298 337zM445 310.5q75 -84.5 220 -108.5v679q-148 -26 -221.5 -114.5t-73.5 -228.5q0 -143 75 -227.5z" />
    <glyph glyph-name="chi" unicode="&#x3c7;" horiz-adv-x="1067" 
d="M1141 -421q-74 -30 -176 -30q-81 0 -134.5 25t-92.5 80.5t-80 154.5l-129 317l-230 -556h-291l407 837l-133 328q-33 84 -63.5 117t-81.5 33q-44 0 -82 -18l-31 204q81 32 175 32q77 0 129 -24t91 -76.5t77 -146.5l93 -230l199 456h286l-374 -731l172 -426q25 -62 44 -95
t43 -49t60 -16q46 0 85 13z" />
    <glyph glyph-name="psi" unicode="&#x3c8;" horiz-adv-x="1601" 
d="M1374.5 165q-147.5 -152 -431.5 -179v-416l-240 -21v435q-283 24 -426 167t-143 392v539h283v-499q0 -165 71.5 -256.5t214.5 -115.5v1237l240 20v-1254q146 27 222 122.5t76 260.5q0 244 -83 485l280 21q37 -97 60.5 -228.5t23.5 -277.5q0 -280 -147.5 -432z" />
    <glyph glyph-name="omega" unicode="&#x3c9;" horiz-adv-x="1741" 
d="M1626 874q24 -137 24 -282q0 -311 -114.5 -461.5t-320.5 -150.5q-128 0 -212.5 52t-132.5 160q-49 -108 -135 -160t-212 -52q-204 0 -318 150.5t-114 461.5q0 143 24 281t60 230l280 -21q-35 -102 -60.5 -231t-25.5 -267q0 -193 48.5 -285.5t139.5 -92.5q85 0 133.5 76
t48.5 223v369h263v-369q0 -147 47.5 -223t133.5 -76q188 0 188 378q0 139 -25 268.5t-61 230.5l281 20q36 -92 60 -229z" />
    <glyph glyph-name="iotatonos" unicode="&#x3af;" horiz-adv-x="653" 
d="M210.5 48.5q-66.5 68.5 -66.5 217.5v816h287v-761q0 -64 25 -91t70 -27q33 0 75 13l30 -197q-42 -18 -101.5 -28.5t-118.5 -10.5q-134 0 -200.5 68.5zM161 1232l142 378l253 -26l-212 -374z" />
    <glyph glyph-name="iotadieresis" unicode="&#x3ca;" horiz-adv-x="653" 
d="M210.5 48.5q-66.5 68.5 -66.5 217.5v816h287v-761q0 -64 25 -91t70 -27q33 0 75 13l30 -197q-42 -18 -101.5 -28.5t-118.5 -10.5q-134 0 -200.5 68.5zM8.5 1275.5q-39.5 37.5 -39.5 100.5q0 61 40 99t100 38q62 0 101.5 -39t39.5 -98q0 -61 -40.5 -99.5t-100.5 -38.5
q-61 0 -100.5 37.5zM381 1275.5q-39 37.5 -39 100.5q0 62 39 99.5t103 37.5q59 0 99.5 -39.5t40.5 -97.5q0 -40 -19 -71.5t-51 -49t-70 -17.5q-64 0 -103 37.5z" />
    <glyph glyph-name="iotadieresistonos" unicode="&#x390;" horiz-adv-x="653" 
d="M210.5 48.5q-66.5 68.5 -66.5 217.5v816h287v-761q0 -64 25 -91t70 -27q33 0 75 13l30 -197q-42 -18 -101.5 -28.5t-118.5 -10.5q-134 0 -200.5 68.5zM174 1571l126 344l231 -24l-194 -339zM16 1275q-37 35 -37 94q0 57 37 93t93 36q58 0 96 -36.5t38 -92.5
q0 -58 -38 -93.5t-96 -35.5q-56 0 -93 35zM376.5 1274.5q-36.5 34.5 -36.5 94.5q0 58 37 93.5t96 35.5q56 0 93.5 -36.5t37.5 -92.5q0 -58 -38 -93.5t-93 -35.5q-60 0 -96.5 34.5z" />
    <glyph glyph-name="upsilontonos" unicode="&#x3cd;" horiz-adv-x="1274" 
d="M254 114.5q-120 134.5 -120 377.5v590h283v-584q0 -138 53.5 -216.5t157.5 -78.5q111 0 171 95.5t60 287.5q0 150 -24 270t-60 225l281 18q37 -93 60.5 -222t23.5 -281q0 -308 -137 -462t-383 -154t-366 134.5zM462 1232l142 378l253 -26l-212 -374z" />
    <glyph glyph-name="upsilondieresis" unicode="&#x3cb;" horiz-adv-x="1274" 
d="M254 114.5q-120 134.5 -120 377.5v590h283v-584q0 -138 53.5 -216.5t157.5 -78.5q111 0 171 95.5t60 287.5q0 150 -24 270t-60 225l281 18q37 -93 60.5 -222t23.5 -281q0 -308 -137 -462t-383 -154t-366 134.5zM270 1266q-43 41 -43 110q0 67 43.5 108.5t109.5 41.5
q68 0 111.5 -42.5t43.5 -107.5q0 -67 -44 -109t-111 -42t-110 41zM703.5 1266q-43.5 41 -43.5 110q0 67 43.5 108.5t113.5 41.5q43 0 78 -19.5t55.5 -53.5t20.5 -77q0 -44 -21 -78.5t-56 -53.5t-77 -19q-70 0 -113.5 41z" />
    <glyph glyph-name="upsilondieresistonos" unicode="&#x3b0;" horiz-adv-x="1274" 
d="M254 114.5q-120 134.5 -120 377.5v590h283v-584q0 -138 53.5 -216.5t157.5 -78.5q111 0 171 95.5t60 287.5q0 150 -24 270t-60 225l281 18q37 -93 60.5 -222t23.5 -281q0 -308 -137 -462t-383 -154t-366 134.5zM503 1580l126 343l231 -24l-194 -339zM297.5 1277.5
q-39.5 37.5 -39.5 100.5q0 59 39.5 97t99.5 38q62 0 101.5 -38.5t39.5 -96.5q0 -61 -40.5 -99.5t-100.5 -38.5t-99.5 37.5zM717.5 1277.5q-39.5 37.5 -39.5 100.5q0 60 39.5 97.5t103.5 37.5q38 0 70 -17.5t50.5 -48.5t18.5 -69q0 -40 -19 -71.5t-51 -49t-69 -17.5
q-64 0 -103.5 37.5z" />
    <glyph glyph-name="omicrontonos" unicode="&#x3cc;" horiz-adv-x="1217" 
d="M333.5 42q-118.5 62 -186.5 185t-68 300q0 179 68 309t189 198.5t279 68.5q155 0 273.5 -67.5t184.5 -195t66 -302.5q0 -178 -68.5 -303.5t-190 -190t-277.5 -64.5q-151 0 -269.5 62zM844 527q0 173 -59 267t-177 94q-120 0 -178 -95t-58 -262q0 -161 63 -248.5
t183 -87.5q226 0 226 332zM475 1232l142 378l253 -26l-212 -374z" />
    <glyph glyph-name="omegatonos" unicode="&#x3ce;" horiz-adv-x="1741" 
d="M1626 874q24 -137 24 -282q0 -311 -114.5 -461.5t-320.5 -150.5q-128 0 -212.5 52t-132.5 160q-49 -108 -135 -160t-212 -52q-204 0 -318 150.5t-114 461.5q0 143 24 281t60 230l280 -21q-35 -102 -60.5 -231t-25.5 -267q0 -193 48.5 -285.5t139.5 -92.5q85 0 133.5 76
t48.5 223v369h263v-369q0 -147 47.5 -223t133.5 -76q188 0 188 378q0 139 -25 268.5t-61 230.5l281 20q36 -92 60 -229zM740 1232l142 378l253 -26l-212 -374z" />
    <glyph glyph-name="alphatonos" unicode="&#x3ac;" horiz-adv-x="1325" 
d="M1304 21q-44 -19 -99.5 -30t-114.5 -11q-199 0 -249 155q-66 -71 -152 -113t-203 -42q-114 0 -206 54.5t-146.5 171.5t-54.5 297q0 183 64.5 318.5t187 208.5t292.5 73q131 0 255 -63l22 42h216q-7 -97 -7 -204v-552q0 -69 21.5 -96t64.5 -27q46 0 78 15zM816 862
q-81 36 -170 36q-130 0 -203.5 -97.5t-73.5 -277.5q0 -168 58.5 -245t154.5 -77q65 0 128.5 35.5t105.5 82.5v543zM510 1232l142 378l253 -26l-212 -374z" />
    <glyph glyph-name="epsilontonos" unicode="&#x3ad;" horiz-adv-x="1003" 
d="M976 56q-86 -36 -194 -56t-232 -20q-225 0 -348 78t-123 224q0 118 69.5 190.5t196.5 97.5q-97 24 -146 84t-49 154q0 89 51 156t147.5 104t229.5 37q202 0 366 -68l-54 -201q-146 60 -278 60q-86 0 -131.5 -31t-45.5 -88q0 -68 60 -99t187 -31h72v-186h-106
q-136 0 -199.5 -35t-63.5 -106q0 -62 58 -97.5t163 -35.5q88 0 173 16.5t157 47.5zM430 1232l142 378l253 -26l-212 -374z" />
    <glyph glyph-name="etatonos" unicode="&#x3ae;" horiz-adv-x="1271" 
d="M979 1056.5q76 -46.5 117 -138.5t41 -224v-1124l-285 -21v1124q0 104 -39 154t-118 50q-73 0 -134.5 -36.5t-121.5 -98.5v-742h-287v808q0 151 -8 274h272q6 -33 11.5 -83.5t7.5 -84.5q51 57 97.5 96.5t113 66t152.5 26.5q105 0 181 -46.5zM508 1232l142 378l253 -26
l-212 -374z" />
    <glyph glyph-name="uni2099" unicode="&#x2099;" horiz-adv-x="895" 
d="M120 284q0 121 -5 179h192q5 -24 8.5 -57t3.5 -53q50 56 101.5 87t132.5 31q109 0 172 -67t63 -196v-453h-205v420q0 65 -25.5 96.5t-76.5 31.5q-84 0 -159 -86v-462h-202v529z" />
    <glyph glyph-name="zero" unicode="0" horiz-adv-x="1181" 
d="M204.5 167.5q-125.5 187.5 -125.5 543.5q0 362 129.5 559.5t389.5 197.5q252 0 378 -187t126 -545q0 -361 -129 -558.5t-391 -197.5q-252 0 -377.5 187.5zM755.5 331q53.5 135 53.5 404q0 252 -49.5 385.5t-164.5 133.5q-116 0 -169.5 -139t-53.5 -405q0 -254 50.5 -384
t163.5 -130q116 0 169.5 135z" />
    <glyph glyph-name="one" unicode="1" horiz-adv-x="1181" 
d="M505 1190l-268 -177l-112 193l391 250h278v-1456h-289v1190z" />
    <glyph glyph-name="two" unicode="2" horiz-adv-x="1181" 
d="M85 193l147 127q194 170 299.5 277.5t161.5 208t56 206.5q0 118 -64 176.5t-172 58.5q-87 0 -171.5 -36t-160.5 -97l-96 198q80 68 201 112t261 44q135 0 246.5 -48.5t178.5 -146.5t67 -240q0 -124 -58.5 -239t-168.5 -230.5t-290 -267.5l-85 -72l665 3l-22 -227h-995
v193z" />
    <glyph glyph-name="three" unicode="3" horiz-adv-x="1181" 
d="M305.5 12.5q-123.5 32.5 -221.5 91.5l75 224q83 -56 186 -90.5t202 -34.5q123 0 187 55.5t64 151.5q0 109 -82.5 168.5t-243.5 59.5h-142v215h94q101 0 173 28t108.5 78.5t36.5 117.5q0 81 -54 126.5t-145 45.5q-89 0 -175.5 -39.5t-141.5 -90.5l-86 195q77 64 191 109
t258 45q135 0 234.5 -44t153 -123.5t53.5 -183.5q0 -132 -83 -221.5t-221 -127.5q166 -24 265.5 -117t99.5 -253q0 -127 -65.5 -221.5t-186 -145.5t-282.5 -51q-128 0 -251.5 32.5z" />
    <glyph glyph-name="four" unicode="4" horiz-adv-x="1181" 
d="M664 299h-635v192l636 966h286v-948h198l-24 -210h-174v-299h-287v299zM664 509v621l-397 -621h397z" />
    <glyph glyph-name="five" unicode="5" horiz-adv-x="1181" 
d="M273 10.5q-111 30.5 -194 86.5l72 220q72 -52 164 -85t189 -33q136 0 207.5 70.5t71.5 189.5q0 122 -80.5 184.5t-231.5 62.5q-83 0 -169 -15t-142 -37l55 794h782l-20 -225h-551l-27 -335q96 20 180 20q142 0 255 -49t178 -148.5t65 -245.5q0 -149 -67.5 -258.5
t-193.5 -168t-298 -58.5q-134 0 -245 30.5z" />
    <glyph glyph-name="six" unicode="6" horiz-adv-x="1181" 
d="M335.5 59.5q-122.5 79.5 -190.5 239.5t-68 394q0 250 76 424t216.5 262.5t332.5 88.5q106 0 200.5 -26t163.5 -73l-63 -207q-59 42 -132.5 67t-151.5 25q-161 0 -251.5 -115.5t-100.5 -349.5q56 59 145 97.5t192 38.5q115 0 206.5 -52.5t144 -153.5t52.5 -241
q0 -150 -61 -263t-171 -174t-254 -61q-163 0 -285.5 79.5zM717 226q46 32 72.5 94.5t26.5 150.5q0 239 -197 239q-77 0 -142 -34t-109 -88q0 -129 33.5 -218t88.5 -132.5t123 -43.5q58 0 104 32z" />
    <glyph glyph-name="seven" unicode="7" horiz-adv-x="1181" 
d="M775 1237h-693l20 211h1002l-20 -111l-549 -1337h-300z" />
    <glyph glyph-name="eight" unicode="8" horiz-adv-x="1181" 
d="M1049 646q64 -91 64 -220t-63 -230t-183 -158.5t-283 -57.5t-280 54t-177.5 148t-60.5 212q0 127 67.5 217t200.5 148q-206 127 -206 340q0 106 56 190t161 131.5t246 47.5q136 0 241.5 -45t163.5 -124.5t58 -181.5q0 -100 -53.5 -180.5t-150.5 -135.5q135 -64 199 -155z
M452.5 1216q-52.5 -44 -52.5 -115q0 -73 58 -134.5t184 -95.5q78 46 109.5 104t31.5 113q0 82 -54 127t-138 45q-86 0 -138.5 -44zM775.5 247.5q62.5 59.5 62.5 156.5t-76 165t-244 109q-87 -46 -131.5 -115t-44.5 -152q0 -63 28 -113.5t84.5 -80t138.5 -29.5
q120 0 182.5 59.5z" />
    <glyph glyph-name="nine" unicode="9" horiz-adv-x="1181" 
d="M272 6q-93 26 -162 73l62 207q59 -42 132.5 -67t152.5 -25q163 0 253 114.5t100 349.5q-56 -58 -145.5 -97t-190.5 -39q-116 0 -208 52.5t-145 153.5t-53 241q0 150 61 263t171 174.5t255 61.5q163 0 285.5 -80t191 -240.5t68.5 -396.5q0 -249 -76.5 -422t-217.5 -261
t-334 -88q-107 0 -200 26zM700 770.5q65 34.5 109 88.5q0 130 -33.5 219t-89.5 132.5t-123 43.5q-58 0 -104.5 -32.5t-73 -95.5t-26.5 -151q0 -120 51 -179.5t147 -59.5q78 0 143 34.5z" />
    <glyph glyph-name="one.pnum" horiz-adv-x="952" 
d="M416 1190l-268 -177l-112 193l391 250h278v-1456h-289v1190z" />
    <glyph glyph-name="uni2080" unicode="&#x2080;" horiz-adv-x="855" 
d="M167.5 -149q-88.5 117 -88.5 339q0 226 92 348t277 122q178 0 268 -115.5t90 -335.5q0 -226 -93.5 -350.5t-278.5 -124.5q-178 0 -266.5 117zM535 -19q31 70 31 227q0 145 -28.5 210t-91.5 65q-65 0 -96 -68t-31 -223q0 -148 29 -214.5t92 -66.5q64 0 95 70z" />
    <glyph glyph-name="uni2081" unicode="&#x2081;" horiz-adv-x="814" 
d="M365 421l-183 -103l-91 158l289 168h235v-890h-250v667z" />
    <glyph glyph-name="uni2082" unicode="&#x2082;" horiz-adv-x="832" 
d="M78 -92l95 72q118 89 184 147.5t100.5 112t34.5 108.5q0 62 -39 93.5t-107 31.5q-54 0 -105 -17.5t-105 -47.5l-64 169q55 32 142.5 58t184.5 26t173.5 -30t121 -92t44.5 -152q0 -112 -75.5 -209.5t-233.5 -204.5l-55 -38l410 3l-21 -184h-685v154z" />
    <glyph glyph-name="uni2083" unicode="&#x2083;" horiz-adv-x="855" 
d="M198.5 -257.5q-87.5 17.5 -154.5 50.5l66 179q127 -60 247 -60q84 0 122 28t38 76q0 51 -48.5 77t-153.5 26h-92v170h61q100 0 149 26.5t49 77.5q0 41 -31.5 62.5t-91.5 21.5q-58 0 -114 -17t-98 -40l-65 164q52 29 134.5 52.5t187.5 23.5q154 0 239.5 -59t85.5 -166
q0 -87 -54 -144t-142 -74q238 -24 238 -214q0 -84 -45.5 -146.5t-134.5 -97t-216 -34.5q-89 0 -176.5 17.5z" />
    <glyph glyph-name="uni2084" unicode="&#x2084;" horiz-adv-x="855" 
d="M433 -50h-413v158l413 537h247v-529h126l-15 -166h-111v-196h-247v196zM433 116v283l-206 -283h206z" />
    <glyph glyph-name="uni2085" unicode="&#x2085;" horiz-adv-x="855" 
d="M65 -215l53 172q42 -18 99.5 -30t114.5 -12q92 0 135.5 33t43.5 88q0 58 -47 87t-146 29q-48 0 -105.5 -6t-97.5 -14l36 509h558l-14 -183h-365l-15 -151q48 6 108 6q99 0 175.5 -30.5t120.5 -93t44 -154.5q0 -143 -109 -222.5t-309 -79.5q-159 0 -280 52z" />
    <glyph glyph-name="uni2086" unicode="&#x2086;" horiz-adv-x="855" 
d="M245 -214.5q-85 49.5 -132 149.5t-47 245q0 153 53.5 260.5t155.5 163.5t246 56q109 0 218 -32l-38 -162q-89 29 -169 29q-219 0 -228 -250q34 34 90.5 55.5t126.5 21.5q127 0 197 -73t70 -195q0 -96 -44 -168t-122 -111t-179 -39q-113 0 -198 49.5zM528.5 -63
q32.5 35 32.5 99q0 59 -30.5 91.5t-87.5 32.5q-44 0 -80 -18t-57 -45q2 -90 39 -142.5t100 -52.5q51 0 83.5 35z" />
    <glyph glyph-name="uni2087" unicode="&#x2087;" horiz-adv-x="814" 
d="M488 450h-440l23 191h695l-9 -76l-347 -811h-254z" />
    <glyph glyph-name="uni2088" unicode="&#x2088;" horiz-adv-x="874" 
d="M760.5 144.5q44.5 -50.5 44.5 -135.5q0 -82 -41.5 -144t-125 -97t-206.5 -35q-117 0 -198.5 32t-123 90.5t-41.5 137.5q0 82 43.5 136t127.5 87q-65 35 -97.5 81t-32.5 115q0 117 89.5 183t248.5 66q156 0 240 -62t84 -169q0 -69 -37.5 -118t-111.5 -80
q93 -37 137.5 -87.5zM359.5 475.5q-30.5 -24.5 -30.5 -68.5q0 -43 29.5 -70.5t89.5 -47.5q103 40 103 118q0 44 -29.5 68.5t-79.5 24.5q-52 0 -82.5 -24.5zM549.5 -72.5q35.5 31.5 35.5 83.5q0 53 -38 83.5t-119 52.5q-127 -40 -127 -135q0 -54 38 -85t106 -31
q69 0 104.5 31.5z" />
    <glyph glyph-name="uni2089" unicode="&#x2089;" horiz-adv-x="855" 
d="M220.5 -258q-57.5 9 -105.5 23l37 163q29 -11 77.5 -20t92.5 -9q110 0 167.5 60.5t60.5 190.5q-34 -34 -90.5 -56t-125.5 -22q-84 0 -144.5 33.5t-92 94.5t-31.5 141q0 96 43 168.5t121.5 112t183.5 39.5q176 0 275 -112.5t99 -330.5q0 -234 -118 -359.5t-336 -125.5
q-56 0 -113.5 9zM492.5 253q35.5 18 56.5 44q-1 91 -37 144t-101 53q-52 0 -84.5 -34.5t-32.5 -99.5q0 -60 30.5 -92.5t88.5 -32.5q44 0 79.5 18z" />
    <glyph glyph-name="zero.dnom" horiz-adv-x="855" 
d="M167.5 97q-88.5 117 -88.5 339q0 226 92 348t277 122q178 0 268 -115.5t90 -335.5q0 -226 -93.5 -350.5t-278.5 -124.5q-178 0 -266.5 117zM535 227q31 70 31 227q0 145 -28.5 210t-91.5 65q-65 0 -96 -68t-31 -223q0 -148 29 -214.5t92 -66.5q64 0 95 70z" />
    <glyph glyph-name="one.dnom" horiz-adv-x="814" 
d="M365 667l-183 -103l-91 158l289 168h235v-890h-250v667z" />
    <glyph glyph-name="two.dnom" horiz-adv-x="832" 
d="M78 154l95 72q118 89 184 147.5t100.5 112t34.5 108.5q0 62 -39 93.5t-107 31.5q-54 0 -105 -17.5t-105 -47.5l-64 169q55 32 142.5 58t184.5 26t173.5 -30t121 -92t44.5 -152q0 -112 -75.5 -209.5t-233.5 -204.5l-55 -38l410 3l-21 -184h-685v154z" />
    <glyph glyph-name="three.dnom" horiz-adv-x="855" 
d="M198.5 -11.5q-87.5 17.5 -154.5 50.5l66 179q127 -60 247 -60q84 0 122 28t38 76q0 51 -48.5 77t-153.5 26h-92v170h61q100 0 149 26.5t49 77.5q0 41 -31.5 62.5t-91.5 21.5q-58 0 -114 -17t-98 -40l-65 164q52 29 134.5 52.5t187.5 23.5q154 0 239.5 -59t85.5 -166
q0 -87 -54 -144t-142 -74q238 -24 238 -214q0 -84 -45.5 -146.5t-134.5 -97t-216 -34.5q-89 0 -176.5 17.5z" />
    <glyph glyph-name="four.dnom" horiz-adv-x="855" 
d="M433 196h-413v158l413 537h247v-529h126l-15 -166h-111v-196h-247v196zM433 362v283l-206 -283h206z" />
    <glyph glyph-name="five.dnom" horiz-adv-x="855" 
d="M65 31l53 172q42 -18 99.5 -30t114.5 -12q92 0 135.5 33t43.5 88q0 58 -47 87t-146 29q-48 0 -105.5 -6t-97.5 -14l36 509h558l-14 -183h-365l-15 -151q48 6 108 6q99 0 175.5 -30.5t120.5 -93t44 -154.5q0 -143 -109 -222.5t-309 -79.5q-159 0 -280 52z" />
    <glyph glyph-name="six.dnom" horiz-adv-x="855" 
d="M245 31.5q-85 49.5 -132 149.5t-47 245q0 153 53.5 260.5t155.5 163.5t246 56q109 0 218 -32l-38 -162q-89 29 -169 29q-219 0 -228 -250q34 34 90.5 55.5t126.5 21.5q127 0 197 -73t70 -195q0 -96 -44 -168t-122 -111t-179 -39q-113 0 -198 49.5zM528.5 183
q32.5 35 32.5 99q0 59 -30.5 91.5t-87.5 32.5q-44 0 -80 -18t-57 -45q2 -90 39 -142.5t100 -52.5q51 0 83.5 35z" />
    <glyph glyph-name="seven.dnom" horiz-adv-x="814" 
d="M488 696h-440l23 191h695l-9 -76l-347 -811h-254z" />
    <glyph glyph-name="eight.dnom" horiz-adv-x="874" 
d="M760.5 390.5q44.5 -50.5 44.5 -135.5q0 -82 -41.5 -144t-125 -97t-206.5 -35q-117 0 -198.5 32t-123 90.5t-41.5 137.5q0 82 43.5 136t127.5 87q-65 35 -97.5 81t-32.5 115q0 117 89.5 183t248.5 66q156 0 240 -62t84 -169q0 -69 -37.5 -118t-111.5 -80
q93 -37 137.5 -87.5zM359.5 721.5q-30.5 -24.5 -30.5 -68.5q0 -43 29.5 -70.5t89.5 -47.5q103 40 103 118q0 44 -29.5 68.5t-79.5 24.5q-52 0 -82.5 -24.5zM549.5 173.5q35.5 31.5 35.5 83.5q0 53 -38 83.5t-119 52.5q-127 -40 -127 -135q0 -54 38 -85t106 -31
q69 0 104.5 31.5z" />
    <glyph glyph-name="nine.dnom" horiz-adv-x="855" 
d="M220.5 -12q-57.5 9 -105.5 23l37 163q29 -11 77.5 -20t92.5 -9q110 0 167.5 60.5t60.5 190.5q-34 -34 -90.5 -56t-125.5 -22q-84 0 -144.5 33.5t-92 94.5t-31.5 141q0 96 43 168.5t121.5 112t183.5 39.5q176 0 275 -112.5t99 -330.5q0 -234 -118 -359.5t-336 -125.5
q-56 0 -113.5 9zM492.5 499q35.5 18 56.5 44q-1 91 -37 144t-101 53q-52 0 -84.5 -34.5t-32.5 -99.5q0 -60 30.5 -92.5t88.5 -32.5q44 0 79.5 18z" />
    <glyph glyph-name="zero.numr" horiz-adv-x="855" 
d="M167.5 658q-88.5 117 -88.5 339q0 226 92 348t277 122q178 0 268 -115.5t90 -335.5q0 -226 -93.5 -350.5t-278.5 -124.5q-178 0 -266.5 117zM535 788q31 70 31 227q0 145 -28.5 210t-91.5 65q-65 0 -96 -68t-31 -223q0 -148 29 -214.5t92 -66.5q64 0 95 70z" />
    <glyph glyph-name="one.numr" horiz-adv-x="814" 
d="M365 1228l-183 -103l-91 158l289 168h235v-890h-250v667z" />
    <glyph glyph-name="two.numr" horiz-adv-x="832" 
d="M78 715l95 72q118 89 184 147.5t100.5 112t34.5 108.5q0 62 -39 93.5t-107 31.5q-54 0 -105 -17.5t-105 -47.5l-64 169q55 32 142.5 58t184.5 26t173.5 -30t121 -92t44.5 -152q0 -112 -75.5 -209.5t-233.5 -204.5l-55 -38l410 3l-21 -184h-685v154z" />
    <glyph glyph-name="three.numr" horiz-adv-x="855" 
d="M198.5 549.5q-87.5 17.5 -154.5 50.5l66 179q127 -60 247 -60q84 0 122 28t38 76q0 51 -48.5 77t-153.5 26h-92v170h61q100 0 149 26.5t49 77.5q0 41 -31.5 62.5t-91.5 21.5q-58 0 -114 -17t-98 -40l-65 164q52 29 134.5 52.5t187.5 23.5q154 0 239.5 -59t85.5 -166
q0 -87 -54 -144t-142 -74q238 -24 238 -214q0 -84 -45.5 -146.5t-134.5 -97t-216 -34.5q-89 0 -176.5 17.5z" />
    <glyph glyph-name="four.numr" horiz-adv-x="855" 
d="M433 757h-413v158l413 537h247v-529h126l-15 -166h-111v-196h-247v196zM433 923v283l-206 -283h206z" />
    <glyph glyph-name="five.numr" horiz-adv-x="855" 
d="M65 592l53 172q42 -18 99.5 -30t114.5 -12q92 0 135.5 33t43.5 88q0 58 -47 87t-146 29q-48 0 -105.5 -6t-97.5 -14l36 509h558l-14 -183h-365l-15 -151q48 6 108 6q99 0 175.5 -30.5t120.5 -93t44 -154.5q0 -143 -109 -222.5t-309 -79.5q-159 0 -280 52z" />
    <glyph glyph-name="six.numr" horiz-adv-x="855" 
d="M245 592.5q-85 49.5 -132 149.5t-47 245q0 153 53.5 260.5t155.5 163.5t246 56q109 0 218 -32l-38 -162q-89 29 -169 29q-219 0 -228 -250q34 34 90.5 55.5t126.5 21.5q127 0 197 -73t70 -195q0 -96 -44 -168t-122 -111t-179 -39q-113 0 -198 49.5zM528.5 744
q32.5 35 32.5 99q0 59 -30.5 91.5t-87.5 32.5q-44 0 -80 -18t-57 -45q2 -90 39 -142.5t100 -52.5q51 0 83.5 35z" />
    <glyph glyph-name="seven.numr" horiz-adv-x="814" 
d="M488 1257h-440l23 191h695l-9 -76l-347 -811h-254z" />
    <glyph glyph-name="eight.numr" horiz-adv-x="874" 
d="M760.5 951.5q44.5 -50.5 44.5 -135.5q0 -82 -41.5 -144t-125 -97t-206.5 -35q-117 0 -198.5 32t-123 90.5t-41.5 137.5q0 82 43.5 136t127.5 87q-65 35 -97.5 81t-32.5 115q0 117 89.5 183t248.5 66q156 0 240 -62t84 -169q0 -69 -37.5 -118t-111.5 -80
q93 -37 137.5 -87.5zM359.5 1282.5q-30.5 -24.5 -30.5 -68.5q0 -43 29.5 -70.5t89.5 -47.5q103 40 103 118q0 44 -29.5 68.5t-79.5 24.5q-52 0 -82.5 -24.5zM549.5 734.5q35.5 31.5 35.5 83.5q0 53 -38 83.5t-119 52.5q-127 -40 -127 -135q0 -54 38 -85t106 -31
q69 0 104.5 31.5z" />
    <glyph glyph-name="nine.numr" horiz-adv-x="855" 
d="M220.5 549q-57.5 9 -105.5 23l37 163q29 -11 77.5 -20t92.5 -9q110 0 167.5 60.5t60.5 190.5q-34 -34 -90.5 -56t-125.5 -22q-84 0 -144.5 33.5t-92 94.5t-31.5 141q0 96 43 168.5t121.5 112t183.5 39.5q176 0 275 -112.5t99 -330.5q0 -234 -118 -359.5t-336 -125.5
q-56 0 -113.5 9zM492.5 1060q35.5 18 56.5 44q-1 91 -37 144t-101 53q-52 0 -84.5 -34.5t-32.5 -99.5q0 -60 30.5 -92.5t88.5 -32.5q44 0 79.5 18z" />
    <glyph glyph-name="uni2070" unicode="&#x2070;" horiz-adv-x="855" 
d="M167.5 904q-88.5 117 -88.5 339q0 226 92 348t277 122q178 0 268 -115.5t90 -335.5q0 -226 -93.5 -350.5t-278.5 -124.5q-178 0 -266.5 117zM535 1034q31 70 31 227q0 145 -28.5 210t-91.5 65q-65 0 -96 -68t-31 -223q0 -148 29 -214.5t92 -66.5q64 0 95 70z" />
    <glyph glyph-name="uni00B9" unicode="&#xb9;" horiz-adv-x="814" 
d="M365 1474l-183 -103l-91 158l289 168h235v-890h-250v667z" />
    <glyph glyph-name="uni00B2" unicode="&#xb2;" horiz-adv-x="832" 
d="M78 961l95 72q118 89 184 147.5t100.5 112t34.5 108.5q0 62 -39 93.5t-107 31.5q-54 0 -105 -17.5t-105 -47.5l-64 169q55 32 142.5 58t184.5 26t173.5 -30t121 -92t44.5 -152q0 -112 -75.5 -209.5t-233.5 -204.5l-55 -38l410 3l-21 -184h-685v154z" />
    <glyph glyph-name="uni00B3" unicode="&#xb3;" horiz-adv-x="855" 
d="M198.5 795.5q-87.5 17.5 -154.5 50.5l66 179q127 -60 247 -60q84 0 122 28t38 76q0 51 -48.5 77t-153.5 26h-92v170h61q100 0 149 26.5t49 77.5q0 41 -31.5 62.5t-91.5 21.5q-58 0 -114 -17t-98 -40l-65 164q52 29 134.5 52.5t187.5 23.5q154 0 239.5 -59t85.5 -166
q0 -87 -54 -144t-142 -74q238 -24 238 -214q0 -84 -45.5 -146.5t-134.5 -97t-216 -34.5q-89 0 -176.5 17.5z" />
    <glyph glyph-name="uni2074" unicode="&#x2074;" horiz-adv-x="855" 
d="M433 1003h-413v158l413 537h247v-529h126l-15 -166h-111v-196h-247v196zM433 1169v283l-206 -283h206z" />
    <glyph glyph-name="uni2075" unicode="&#x2075;" horiz-adv-x="855" 
d="M65 838l53 172q42 -18 99.5 -30t114.5 -12q92 0 135.5 33t43.5 88q0 58 -47 87t-146 29q-48 0 -105.5 -6t-97.5 -14l36 509h558l-14 -183h-365l-15 -151q48 6 108 6q99 0 175.5 -30.5t120.5 -93t44 -154.5q0 -143 -109 -222.5t-309 -79.5q-159 0 -280 52z" />
    <glyph glyph-name="uni2076" unicode="&#x2076;" horiz-adv-x="855" 
d="M245 838.5q-85 49.5 -132 149.5t-47 245q0 153 53.5 260.5t155.5 163.5t246 56q109 0 218 -32l-38 -162q-89 29 -169 29q-219 0 -228 -250q34 34 90.5 55.5t126.5 21.5q127 0 197 -73t70 -195q0 -96 -44 -168t-122 -111t-179 -39q-113 0 -198 49.5zM528.5 990
q32.5 35 32.5 99q0 59 -30.5 91.5t-87.5 32.5q-44 0 -80 -18t-57 -45q2 -90 39 -142.5t100 -52.5q51 0 83.5 35z" />
    <glyph glyph-name="uni2077" unicode="&#x2077;" horiz-adv-x="814" 
d="M488 1503h-440l23 191h695l-9 -76l-347 -811h-254z" />
    <glyph glyph-name="uni2078" unicode="&#x2078;" horiz-adv-x="874" 
d="M760.5 1197.5q44.5 -50.5 44.5 -135.5q0 -82 -41.5 -144t-125 -97t-206.5 -35q-117 0 -198.5 32t-123 90.5t-41.5 137.5q0 82 43.5 136t127.5 87q-65 35 -97.5 81t-32.5 115q0 117 89.5 183t248.5 66q156 0 240 -62t84 -169q0 -69 -37.5 -118t-111.5 -80
q93 -37 137.5 -87.5zM359.5 1528.5q-30.5 -24.5 -30.5 -68.5q0 -43 29.5 -70.5t89.5 -47.5q103 40 103 118q0 44 -29.5 68.5t-79.5 24.5q-52 0 -82.5 -24.5zM549.5 980.5q35.5 31.5 35.5 83.5q0 53 -38 83.5t-119 52.5q-127 -40 -127 -135q0 -54 38 -85t106 -31
q69 0 104.5 31.5z" />
    <glyph glyph-name="uni2079" unicode="&#x2079;" horiz-adv-x="855" 
d="M220.5 795q-57.5 9 -105.5 23l37 163q29 -11 77.5 -20t92.5 -9q110 0 167.5 60.5t60.5 190.5q-34 -34 -90.5 -56t-125.5 -22q-84 0 -144.5 33.5t-92 94.5t-31.5 141q0 96 43 168.5t121.5 112t183.5 39.5q176 0 275 -112.5t99 -330.5q0 -234 -118 -359.5t-336 -125.5
q-56 0 -113.5 9zM492.5 1306q35.5 18 56.5 44q-1 91 -37 144t-101 53q-52 0 -84.5 -34.5t-32.5 -99.5q0 -60 30.5 -92.5t88.5 -32.5q44 0 79.5 18z" />
    <glyph glyph-name="fraction" unicode="&#x2044;" horiz-adv-x="357" 
d="M493 1448h223l-850 -1447h-225z" />
    <glyph glyph-name="onehalf" unicode="&#xbd;" horiz-adv-x="2037" 
d="M365 1228l-183 -103l-91 158l289 168h235v-890h-250v667zM1307 1448h223l-850 -1447h-225zM1283 154l95 72q118 89 184 147.5t100.5 112t34.5 108.5q0 62 -39 93.5t-107 31.5q-54 0 -105 -17.5t-105 -47.5l-64 169q55 32 142.5 58t184.5 26t173.5 -30t121 -92t44.5 -152
q0 -112 -75.5 -209.5t-233.5 -204.5l-55 -38l410 3l-21 -184h-685v154z" />
    <glyph glyph-name="onequarter" unicode="&#xbc;" horiz-adv-x="1942" 
d="M365 1228l-183 -103l-91 158l289 168h235v-890h-250v667zM1307 1448h223l-850 -1447h-225zM1520 196h-413v158l413 537h247v-529h126l-15 -166h-111v-196h-247v196zM1520 362v283l-206 -283h206z" />
    <glyph glyph-name="threequarters" unicode="&#xbe;" horiz-adv-x="1996" 
d="M198.5 549.5q-87.5 17.5 -154.5 50.5l66 179q127 -60 247 -60q84 0 122 28t38 76q0 51 -48.5 77t-153.5 26h-92v170h61q100 0 149 26.5t49 77.5q0 41 -31.5 62.5t-91.5 21.5q-58 0 -114 -17t-98 -40l-65 164q52 29 134.5 52.5t187.5 23.5q154 0 239.5 -59t85.5 -166
q0 -87 -54 -144t-142 -74q238 -24 238 -214q0 -84 -45.5 -146.5t-134.5 -97t-216 -34.5q-89 0 -176.5 17.5zM1361 1448h223l-850 -1447h-225zM1574 196h-413v158l413 537h247v-529h126l-15 -166h-111v-196h-247v196zM1574 362v283l-206 -283h206z" />
    <glyph glyph-name="oneeighth" unicode="&#x215b;" horiz-adv-x="2045" 
d="M365 1228l-183 -103l-91 158l289 168h235v-890h-250v667zM1307 1448h223l-850 -1447h-225zM1931.5 390.5q44.5 -50.5 44.5 -135.5q0 -82 -41.5 -144t-125 -97t-206.5 -35q-117 0 -198.5 32t-123 90.5t-41.5 137.5q0 82 43.5 136t127.5 87q-65 35 -97.5 81t-32.5 115
q0 117 89.5 183t248.5 66q156 0 240 -62t84 -169q0 -69 -37.5 -118t-111.5 -80q93 -37 137.5 -87.5zM1530.5 721.5q-30.5 -24.5 -30.5 -68.5q0 -43 29.5 -70.5t89.5 -47.5q103 40 103 118q0 44 -29.5 68.5t-79.5 24.5q-52 0 -82.5 -24.5zM1720.5 173.5q35.5 31.5 35.5 83.5
q0 53 -38 83.5t-119 52.5q-127 -40 -127 -135q0 -54 38 -85t106 -31q69 0 104.5 31.5z" />
    <glyph glyph-name="threeeighths" unicode="&#x215c;" horiz-adv-x="2099" 
d="M198.5 549.5q-87.5 17.5 -154.5 50.5l66 179q127 -60 247 -60q84 0 122 28t38 76q0 51 -48.5 77t-153.5 26h-92v170h61q100 0 149 26.5t49 77.5q0 41 -31.5 62.5t-91.5 21.5q-58 0 -114 -17t-98 -40l-65 164q52 29 134.5 52.5t187.5 23.5q154 0 239.5 -59t85.5 -166
q0 -87 -54 -144t-142 -74q238 -24 238 -214q0 -84 -45.5 -146.5t-134.5 -97t-216 -34.5q-89 0 -176.5 17.5zM1361 1448h223l-850 -1447h-225zM1985.5 390.5q44.5 -50.5 44.5 -135.5q0 -82 -41.5 -144t-125 -97t-206.5 -35q-117 0 -198.5 32t-123 90.5t-41.5 137.5
q0 82 43.5 136t127.5 87q-65 35 -97.5 81t-32.5 115q0 117 89.5 183t248.5 66q156 0 240 -62t84 -169q0 -69 -37.5 -118t-111.5 -80q93 -37 137.5 -87.5zM1584.5 721.5q-30.5 -24.5 -30.5 -68.5q0 -43 29.5 -70.5t89.5 -47.5q103 40 103 118q0 44 -29.5 68.5t-79.5 24.5
q-52 0 -82.5 -24.5zM1774.5 173.5q35.5 31.5 35.5 83.5q0 53 -38 83.5t-119 52.5q-127 -40 -127 -135q0 -54 38 -85t106 -31q69 0 104.5 31.5z" />
    <glyph glyph-name="fiveeighths" unicode="&#x215d;" horiz-adv-x="2086" 
d="M65 592l53 172q42 -18 99.5 -30t114.5 -12q92 0 135.5 33t43.5 88q0 58 -47 87t-146 29q-48 0 -105.5 -6t-97.5 -14l36 509h558l-14 -183h-365l-15 -151q48 6 108 6q99 0 175.5 -30.5t120.5 -93t44 -154.5q0 -143 -109 -222.5t-309 -79.5q-159 0 -280 52zM1348 1448h223
l-850 -1447h-225zM1972.5 390.5q44.5 -50.5 44.5 -135.5q0 -82 -41.5 -144t-125 -97t-206.5 -35q-117 0 -198.5 32t-123 90.5t-41.5 137.5q0 82 43.5 136t127.5 87q-65 35 -97.5 81t-32.5 115q0 117 89.5 183t248.5 66q156 0 240 -62t84 -169q0 -69 -37.5 -118t-111.5 -80
q93 -37 137.5 -87.5zM1571.5 721.5q-30.5 -24.5 -30.5 -68.5q0 -43 29.5 -70.5t89.5 -47.5q103 40 103 118q0 44 -29.5 68.5t-79.5 24.5q-52 0 -82.5 -24.5zM1761.5 173.5q35.5 31.5 35.5 83.5q0 53 -38 83.5t-119 52.5q-127 -40 -127 -135q0 -54 38 -85t106 -31
q69 0 104.5 31.5z" />
    <glyph glyph-name="seveneighths" unicode="&#x215e;" horiz-adv-x="1935" 
d="M488 1257h-440l23 191h695l-9 -76l-347 -811h-254zM1197 1448h223l-850 -1447h-225zM1821.5 390.5q44.5 -50.5 44.5 -135.5q0 -82 -41.5 -144t-125 -97t-206.5 -35q-117 0 -198.5 32t-123 90.5t-41.5 137.5q0 82 43.5 136t127.5 87q-65 35 -97.5 81t-32.5 115
q0 117 89.5 183t248.5 66q156 0 240 -62t84 -169q0 -69 -37.5 -118t-111.5 -80q93 -37 137.5 -87.5zM1420.5 721.5q-30.5 -24.5 -30.5 -68.5q0 -43 29.5 -70.5t89.5 -47.5q103 40 103 118q0 44 -29.5 68.5t-79.5 24.5q-52 0 -82.5 -24.5zM1610.5 173.5q35.5 31.5 35.5 83.5
q0 53 -38 83.5t-119 52.5q-127 -40 -127 -135q0 -54 38 -85t106 -31q69 0 104.5 31.5z" />
    <glyph glyph-name="asterisk" unicode="*" horiz-adv-x="799" 
d="M96 834l177 207l-248 22l44 205l252 -87l-28 267h214l-29 -265l252 85l43 -205l-244 -22l174 -206l-167 -115l-136 240l-136 -241z" />
    <glyph glyph-name="backslash" unicode="\" horiz-adv-x="833" 
d="M14 1548h221l584 -1880h-223z" />
    <glyph glyph-name="periodcentered" unicode="&#xb7;" horiz-adv-x="568" 
d="M202.5 514.5q-37.5 20.5 -59 56t-21.5 78.5q0 44 21.5 81t59 58t82.5 21q44 0 81 -21.5t59 -58t22 -80.5q0 -43 -22 -78.5t-59 -56t-81 -20.5q-45 0 -82.5 20.5z" />
    <glyph glyph-name="bullet" unicode="&#x2022;" horiz-adv-x="897" 
d="M312 459.5q-63 36.5 -100 98t-37 132.5q0 72 37 134.5t100 100t137 37.5q73 0 135.5 -37.5t99 -100t36.5 -134.5q0 -71 -36.5 -132.5t-99 -98t-135.5 -36.5q-74 0 -137 36.5z" />
    <glyph glyph-name="colon" unicode=":" horiz-adv-x="529" 
d="M181.5 782.5q-37.5 21.5 -59.5 58t-22 79.5q0 45 22 82t59.5 58t82.5 21t83 -21.5t60 -58.5t22 -81q0 -43 -22 -79.5t-60 -58t-83 -21.5t-82.5 21.5zM181.5 6q-37.5 21 -59.5 57.5t-22 79.5q0 46 21.5 83t59.5 58.5t83 21.5t83 -21.5t60 -59t22 -82.5q0 -43 -22 -79.5
t-60 -57.5t-83 -21t-82.5 21z" />
    <glyph glyph-name="comma" unicode="," horiz-adv-x="546" 
d="M48 -309q53 134 81 286t28 305l268 -18q0 -165 -52.5 -327.5t-117.5 -269.5z" />
    <glyph glyph-name="ellipsis" unicode="&#x2026;" horiz-adv-x="1588" 
d="M145.5 27q-45.5 44 -45.5 114q0 72 45.5 117t118.5 45t119 -45.5t46 -116.5q0 -70 -46 -114t-119 -44t-118.5 44zM674.5 27q-45.5 44 -45.5 114q0 72 45.5 117t118.5 45t119 -45.5t46 -116.5q0 -70 -46 -114t-119 -44t-118.5 44zM1203.5 27q-45.5 44 -45.5 114
q0 72 45.5 117t118.5 45t119 -45.5t46 -116.5q0 -70 -46 -114t-119 -44t-118.5 44z" />
    <glyph glyph-name="exclam" unicode="!" horiz-adv-x="703" 
d="M196 1448h311l-39 -951h-233zM232.5 27q-45.5 44 -45.5 114q0 72 45.5 117t118.5 45t119 -45.5t46 -116.5q0 -70 -46 -114t-119 -44t-118.5 44z" />
    <glyph glyph-name="exclamdbl" unicode="&#x203c;" horiz-adv-x="1406" 
d="M196 1448h311l-39 -951h-233zM232.5 27q-45.5 44 -45.5 114q0 72 45.5 117t118.5 45t119 -45.5t46 -116.5q0 -70 -46 -114t-119 -44t-118.5 44zM899 1448h311l-39 -951h-233zM935.5 27q-45.5 44 -45.5 114q0 72 45.5 117t118.5 45t119 -45.5t46 -116.5q0 -70 -46 -114
t-119 -44t-118.5 44z" />
    <glyph glyph-name="exclamdown" unicode="&#xa1;" horiz-adv-x="703" 
d="M470.5 1058q45.5 -44 45.5 -114q0 -72 -45.5 -117t-118.5 -45t-119 45.5t-46 116.5q0 70 46 114t119 44t118.5 -44zM507 -363h-311l39 951h233z" />
    <glyph glyph-name="numbersign" unicode="#" horiz-adv-x="1384" 
d="M1067 891l-83 -338h234l-48 -191h-233l-90 -362h-201l90 362h-253l-90 -362h-200l90 362h-246l48 191h246l84 338h-245l50 195h244l90 362h198l-90 -362h254l90 362h199l-89 -362h233l-48 -195h-234zM868 891h-254l-84 -338h253z" />
    <glyph glyph-name="uni203E" unicode="&#x203e;" horiz-adv-x="944" 
d="M-10 1735h962v-113h-962v113z" />
    <glyph glyph-name="period" unicode="." horiz-adv-x="529" 
d="M145.5 27q-45.5 44 -45.5 114q0 72 45.5 117t118.5 45t119 -45.5t46 -116.5q0 -70 -46 -114t-119 -44t-118.5 44z" />
    <glyph glyph-name="question" unicode="?" horiz-adv-x="977" 
d="M288.5 572q-14.5 49 -14.5 95q0 64 41.5 116.5t134.5 109.5q82 51 120 78.5t58 59t20 75.5q0 67 -48 104.5t-149 37.5q-85 0 -164 -24t-161 -68l-76 204q92 50 203.5 79t232.5 29q145 0 245 -42.5t150.5 -118.5t50.5 -176t-39 -169.5t-95 -112.5t-138 -86
q-63 -34 -95 -56.5t-47 -46t-15 -55.5q0 -37 23 -120h-200q-23 38 -37.5 87zM313.5 27q-45.5 44 -45.5 114q0 72 45.5 117t118.5 45t119 -45.5t46 -116.5q0 -70 -46 -114t-119 -44t-118.5 44z" />
    <glyph glyph-name="questiondown" unicode="&#xbf;" horiz-adv-x="982" 
d="M668.5 1059q45.5 -44 45.5 -114q0 -72 -45.5 -117t-118.5 -45t-119 45.5t-46 116.5q0 70 46 114t119 44t118.5 -44zM693.5 514q14.5 -49 14.5 -95q0 -64 -41.5 -116.5t-134.5 -109.5q-82 -51 -120 -78.5t-58 -59t-20 -75.5q0 -67 48 -104.5t149 -37.5q85 0 164 24t161 68
l76 -204q-92 -50 -203.5 -79t-232.5 -29q-145 0 -245 42.5t-150.5 118.5t-50.5 176t39 169.5t95 112.5t138 86q63 34 95 56.5t47 46t15 55.5q0 37 -23 120h200q23 -38 37.5 -87z" />
    <glyph glyph-name="quotedbl" unicode="&#x22;" horiz-adv-x="1017" 
d="M150 1448h267l-43 -510h-184zM598 1448h270l-46 -510h-185z" />
    <glyph glyph-name="quotesingle" unicode="'" horiz-adv-x="548" 
d="M144 1449l260 -1l-40 -556h-180z" />
    <glyph glyph-name="semicolon" unicode=";" horiz-adv-x="566" 
d="M201.5 782.5q-37.5 21.5 -59 58t-21.5 79.5q0 45 21.5 82t59 58t83.5 21q45 0 83.5 -21.5t60.5 -58.5t22 -81q0 -43 -22.5 -79.5t-60.5 -58t-83 -21.5q-46 0 -83.5 21.5zM46 -262q54 123 82 262.5t28 281.5l275 -18q0 -152 -51 -296t-118 -255z" />
    <glyph glyph-name="slash" unicode="/" horiz-adv-x="852" 
d="M608 1541h221l-583 -1873h-221z" />
    <glyph glyph-name="underscore" unicode="_" horiz-adv-x="942" 
d="M-10 -179h962v-113h-962v113z" />
    <glyph glyph-name="underscoredbl" unicode="&#x2017;" horiz-adv-x="942" 
d="M-10 -179h962v-113h-962v113zM-10 -433h962v-113h-962v113z" />
    <glyph glyph-name="uni208D" unicode="&#x208d;" horiz-adv-x="563" 
d="M156.5 -96.5q-54.5 139.5 -54.5 300.5q0 158 54.5 299t168.5 278h199q-95 -132 -146.5 -278.5t-51.5 -296.5q0 -149 50.5 -296t145.5 -276h-197q-114 130 -168.5 269.5z" />
    <glyph glyph-name="uni208E" unicode="&#x208e;" horiz-adv-x="563" 
d="M406.5 510.5q54.5 -139.5 54.5 -300.5q0 -158 -54.5 -299t-168.5 -278h-199q95 132 146.5 278.5t51.5 296.5q0 149 -50.5 296t-145.5 276h197q114 -130 168.5 -269.5z" />
    <glyph glyph-name="braceleft" unicode="{" horiz-adv-x="884" 
d="M382.5 -251q-97.5 81 -97.5 243v344q0 86 -59.5 134t-190.5 53v185q134 6 192 52.5t58 128.5v348q0 156 99 233.5t271 77.5h164v-206h-95q-88 0 -131 -43.5t-43 -133.5v-218q0 -101 -16.5 -162.5t-58 -102t-119.5 -70.5q194 -55 194 -308v-254q0 -90 43 -133.5t131 -43.5
h95v-205h-174q-165 0 -262.5 81z" />
    <glyph glyph-name="braceright" unicode="}" horiz-adv-x="884" 
d="M502.5 1467q97.5 -81 97.5 -242v-344q0 -86 59 -134t191 -53v-186q-135 -6 -192.5 -52t-57.5 -128v-348q0 -156 -100 -234t-272 -78h-163v206h95q87 0 130.5 43.5t43.5 133.5v219q0 101 16.5 162.5t58 102t119.5 69.5q-194 55 -194 308v254q0 91 -43 134t-131 43h-95v205
h174q166 0 263.5 -81z" />
    <glyph glyph-name="bracketleft" unicode="[" horiz-adv-x="903" 
d="M289 1548h549v-208h-283v-1468h283v-204h-549v1880z" />
    <glyph glyph-name="bracketright" unicode="]" horiz-adv-x="903" 
d="M65 -128h283v1468h-283v208h549v-1880h-549v204z" />
    <glyph glyph-name="parenleft" unicode="(" horiz-adv-x="935" 
d="M226 602q0 269 92 503.5t264 442.5h264q-333 -457 -333 -944q0 -253 87 -488t242 -448h-260q-356 406 -356 934z" />
    <glyph glyph-name="parenright" unicode=")" horiz-adv-x="935" 
d="M336 116q88 235 88 487q0 255 -88.5 492.5t-247.5 452.5h266q356 -425 356 -947q0 -527 -356 -933h-262q156 213 244 448z" />
    <glyph glyph-name="uni207D" unicode="&#x207d;" horiz-adv-x="563" 
d="M156.5 956.5q-54.5 139.5 -54.5 300.5q0 158 54.5 299t168.5 278h199q-95 -132 -146.5 -278.5t-51.5 -296.5q0 -149 50.5 -296t145.5 -276h-197q-114 130 -168.5 269.5z" />
    <glyph glyph-name="uni207E" unicode="&#x207e;" horiz-adv-x="563" 
d="M406.5 1563.5q54.5 -139.5 54.5 -300.5q0 -158 -54.5 -299t-168.5 -278h-199q95 132 146.5 278.5t51.5 296.5q0 149 -50.5 296t-145.5 276h197q114 -130 168.5 -269.5z" />
    <glyph glyph-name="emdash" unicode="&#x2014;" horiz-adv-x="2171" 
d="M102 661h1966v-214h-1966v214z" />
    <glyph glyph-name="endash" unicode="&#x2013;" horiz-adv-x="1085" 
d="M102 661h881v-214h-881v214z" />
    <glyph glyph-name="uni2015" unicode="&#x2015;" horiz-adv-x="2171" 
d="M102 661h1966v-214h-1966v214z" />
    <glyph glyph-name="hyphen" unicode="-" horiz-adv-x="805" 
d="M115 663h573v-215h-573v215z" />
    <glyph glyph-name="uni2011" unicode="&#x2011;" horiz-adv-x="1233" 
d="M115 663h573v-215h-573v215z" />
    <glyph glyph-name="uni00AD" unicode="&#xad;" horiz-adv-x="805" 
d="M115 663h573v-215h-573v215z" />
    <glyph glyph-name="guillemotleft" unicode="&#xab;" horiz-adv-x="1060" 
d="M557 450v187l394 407l41 -251l-224 -248l224 -250l-41 -251zM69 450v187l394 407l41 -251l-224 -248l224 -250l-41 -251z" />
    <glyph glyph-name="guillemotright" unicode="&#xbb;" horiz-adv-x="1060" 
d="M68 295l224 250l-224 248l41 251l394 -407v-187l-394 -406zM556 295l224 250l-224 248l41 251l394 -407v-187l-394 -406z" />
    <glyph glyph-name="guilsinglleft" unicode="&#x2039;" horiz-adv-x="572" 
d="M69 450v187l394 407l41 -251l-224 -248l224 -250l-41 -251z" />
    <glyph glyph-name="guilsinglright" unicode="&#x203a;" horiz-adv-x="572" 
d="M68 295l224 250l-224 248l41 251l394 -407v-187l-394 -406z" />
    <glyph glyph-name="quotedblbase" unicode="&#x201e;" horiz-adv-x="978" 
d="M480 -310q53 134 81 286t28 305l268 -18q0 -165 -52.5 -327.5t-117.5 -269.5zM48 -310q53 134 81 286t28 305l268 -18q0 -165 -52.5 -327.5t-117.5 -269.5z" />
    <glyph glyph-name="quotedblleft" unicode="&#x201c;" horiz-adv-x="981" 
d="M498 1492q-53 -134 -81 -286t-28 -305l-268 18q0 165 52.5 327.5t117.5 269.5zM933 1492q-53 -134 -81 -286t-28 -305l-268 18q0 165 52.5 327.5t117.5 269.5z" />
    <glyph glyph-name="quotedblright" unicode="&#x201d;" horiz-adv-x="978" 
d="M480 924q53 134 81 286t28 305l268 -18q0 -165 -52.5 -327.5t-117.5 -269.5zM48 924q53 134 81 286t28 305l268 -18q0 -165 -52.5 -327.5t-117.5 -269.5z" />
    <glyph glyph-name="quoteleft" unicode="&#x2018;" horiz-adv-x="546" 
d="M498 1492q-53 -134 -81 -286t-28 -305l-268 18q0 165 52.5 327.5t117.5 269.5z" />
    <glyph glyph-name="quotereversed" unicode="&#x201b;" horiz-adv-x="588" 
d="M191.5 1169.5q-52.5 162.5 -52.5 327.5l268 18q0 -153 28 -305t81 -286l-207 -24q-65 107 -117.5 269.5z" />
    <glyph glyph-name="quoteright" unicode="&#x2019;" horiz-adv-x="587" 
d="M71 924q53 134 81 286t28 305l268 -18q0 -165 -52.5 -327.5t-117.5 -269.5z" />
    <glyph glyph-name="quotesinglbase" unicode="&#x201a;" horiz-adv-x="546" 
d="M48 -309q53 134 81 286t28 305l268 -18q0 -165 -52.5 -327.5t-117.5 -269.5z" />
    <glyph glyph-name="anoteleia" unicode="&#x387;" horiz-adv-x="568" 
d="M202.5 514.5q-37.5 20.5 -59 56t-21.5 78.5q0 44 21.5 81t59 58t82.5 21q44 0 81 -21.5t59 -58t22 -80.5q0 -43 -22 -78.5t-59 -56t-81 -20.5q-45 0 -82.5 20.5z" />
    <glyph glyph-name="uni00A0" unicode="&#xa0;" horiz-adv-x="639" 
 />
    <glyph glyph-name="uniFEFF" unicode="&#xfeff;" horiz-adv-x="0" 
 />
    <glyph glyph-name="cent" unicode="&#xa2;" horiz-adv-x="1181" 
d="M1073 299q-61 -29 -126 -49.5t-148 -30.5v-219h-195v213q-135 10 -243 70t-171.5 171.5t-63.5 271.5q0 164 59 284t166.5 189.5t252.5 86.5v160h195v-161q81 -9 156.5 -29.5t129.5 -46.5l-73 -196q-107 45 -213 60v-644q53 6 100.5 18.5t113.5 36.5zM468 544.5
q49 -73.5 136 -102.5v621q-91 -31 -138 -116.5t-47 -214.5q0 -114 49 -187.5z" />
    <glyph glyph-name="currency" unicode="&#xa4;" horiz-adv-x="1213" 
d="M141 368l124 125q-51 90 -51 196q0 100 50 194l-125 124l148 148l119 -122q91 59 203 59q53 0 104 -14.5t94 -41.5l118 118l144 -146l-118 -120q54 -94 54 -199t-55 -198l120 -121l-147 -148l-117 120q-98 -53 -197 -53q-108 0 -203 55l-119 -122zM709.5 516
q45.5 26 71.5 72t26 103q0 55 -26 101t-71.5 73t-100.5 27t-100.5 -27t-72.5 -73t-27 -101q0 -56 26.5 -102t72.5 -72.5t101 -26.5t100.5 26z" />
    <glyph glyph-name="dollar" unicode="$" horiz-adv-x="1163" 
d="M965 169q-113 -103 -308 -125v-197h-137v191q-119 4 -237 31t-197 67l84 212q77 -37 184.5 -64t202.5 -27q112 0 173 39.5t61 110.5q0 48 -38 85.5t-101.5 68t-164.5 66.5q-130 48 -206.5 91t-122.5 113.5t-46 181.5q0 110 52 190t144 125.5t212 57.5v148h137v-146
q101 -6 197 -29t153 -54l-59 -214q-76 38 -166.5 63.5t-180.5 25.5q-93 0 -148.5 -32.5t-55.5 -100.5q0 -44 27.5 -74.5t77.5 -54.5t155 -64q7 -3 14 -5.5t13 -5.5q138 -51 223 -104t128 -124t43 -170q0 -173 -113 -276z" />
    <glyph glyph-name="Euro" unicode="&#x20ac;" horiz-adv-x="1181" 
d="M905.5 218.5q67.5 18.5 156.5 63.5l67 -201q-97 -51 -190 -77.5t-218 -26.5q-138 0 -250.5 58.5t-188.5 172.5t-107 276h-129l20 157h91q-2 44 -2 66q0 44 3 86h-112l20 154h112q35 166 117 283.5t200.5 178.5t261.5 61q112 0 205.5 -26t192.5 -80l-72 -208
q-86 45 -156.5 68.5t-155.5 23.5q-113 0 -188 -77.5t-107 -223.5h378l-20 -154h-378q-2 -52 -2 -80q0 -26 2 -72h398l-20 -157h-355q32 -133 101 -208.5t171 -75.5q87 0 154.5 18.5z" />
    <glyph glyph-name="florin" unicode="&#x192;" horiz-adv-x="1178" 
d="M62 -154q139 54 205 140t85 212l83 559h-196l26 191h203l23 139q32 203 141 292t291 89q114 0 214 -31l-49 -208q-78 26 -151 26t-117.5 -51t-59.5 -164l-13 -92h263l-25 -191h-267l-87 -582q-22 -150 -82 -248.5t-156 -163t-246 -121.5z" />
    <glyph glyph-name="franc" unicode="&#x20a3;" horiz-adv-x="1110" 
d="M470 1213v-365h519v-219h-519v-220h398l-21 -206h-377v-203h-291v203h-132l21 206h111v1039h870l-22 -235h-557z" />
    <glyph glyph-name="lira" unicode="&#x20a4;" horiz-adv-x="1181" 
d="M57 173q85 41 132.5 84t67.5 97.5t20 134.5v134h-185l20 202h165v194q0 212 100 317t291 105q98 0 195.5 -21t163.5 -55l-70 -185q-143 60 -252 60q-83 0 -119.5 -57t-36.5 -172v-188h336l-21 -200h-315v-131q0 -93 -39.5 -164t-115.5 -112h377q90 0 148.5 24.5
t123.5 83.5l113 -180q-73 -75 -155.5 -109.5t-201.5 -34.5h-694z" />
    <glyph glyph-name="uni20BA" unicode="&#x20ba;" horiz-adv-x="1345" 
d="M383 -8.5q-74 8.5 -128 21.5v351l-148 -114v224l148 91v180l-148 -95v203l148 91v504h271v-352l266 177v-202l-266 -173v-180l266 174v-196l-266 -181v-285q16 -2 39 -2q199 0 304 106t105 304v47h271v-53q0 -198 -86.5 -344.5t-247.5 -225.5t-377 -79q-77 0 -151 8.5z
" />
    <glyph glyph-name="uni20BC" unicode="&#x20bc;" horiz-adv-x="1515" 
d="M1119.5 1163.5q116.5 -66.5 178.5 -179.5t62 -264v-720h-289v679q0 136 -57 218t-170 104v-675h-182v674q-218 -45 -218 -327v-673h-288v718q0 153 60.5 266t174 179t271.5 81v295h182v-295q159 -14 275.5 -80.5z" />
    <glyph glyph-name="peseta" unicode="&#x20a7;" horiz-adv-x="1231" 
d="M1301 838h-140q-22 -131 -91 -222t-175.5 -137.5t-240.5 -46.5q-81 0 -184 18v-450h-291v838h-145l21 203h124v407h406q260 0 407.5 -100.5t172.5 -306.5h156zM470 1041h401q-20 106 -91.5 148.5t-198.5 42.5h-111v-191zM778 695q67 46 89 143h-397v-176q87 -13 129 -13
q112 0 179 46z" />
    <glyph glyph-name="uni20BD" unicode="&#x20bd;" horiz-adv-x="1231" 
d="M523 599v-190h427l-21 -206h-406v-203h-281v203h-195l21 206h174v190h-195l21 206h174v643h381q551 0 551 -418q0 -130 -64.5 -227.5t-181.5 -150.5t-272 -53h-133zM523 805h99q137 0 206.5 59t69.5 163q0 113 -68.5 164t-209.5 51h-97v-437z" />
    <glyph glyph-name="uni20B9" unicode="&#x20b9;" horiz-adv-x="1203" 
d="M346 506h-216l21 205h171q234 0 280 169h-472l21 206h456q-22 76 -87.5 116t-171.5 40h-218l21 206h1030l-21 -206h-359q62 -66 78 -156h302l-21 -206h-286q-26 -121 -102.5 -193.5t-172.5 -102.5l439 -584h-334z" />
    <glyph glyph-name="sterling" unicode="&#xa3;" horiz-adv-x="1181" 
d="M57 173q85 41 132.5 84t67.5 97.5t20 134.5v134h-185l20 202h165v194q0 212 100 317t291 105q98 0 195.5 -21t163.5 -55l-70 -185q-143 60 -252 60q-83 0 -119.5 -57t-36.5 -172v-188h336l-21 -200h-315v-131q0 -93 -39.5 -164t-115.5 -112h377q90 0 148.5 24.5
t123.5 83.5l113 -180q-73 -75 -155.5 -109.5t-201.5 -34.5h-694z" />
    <glyph glyph-name="yen" unicode="&#xa5;" horiz-adv-x="1199" 
d="M453 204h-312l20 190h292v143h-312l20 189h199l-361 697h312l200 -411q76 -158 94 -224q32 80 99 214l210 421h283l-364 -697h233l-20 -189h-305v-143h325l-20 -190h-305v-204h-288v204z" />
    <glyph glyph-name="uni2219" unicode="&#x2219;" horiz-adv-x="897" 
d="M312 459.5q-63 36.5 -100 98t-37 132.5q0 72 37 134.5t100 100t137 37.5q73 0 135.5 -37.5t99 -100t36.5 -134.5q0 -71 -36.5 -132.5t-99 -98t-135.5 -36.5q-74 0 -137 36.5z" />
    <glyph glyph-name="uni2215" unicode="&#x2215;" horiz-adv-x="929" 
d="M685 1448h220l-659 -1448h-221z" />
    <glyph glyph-name="uni208C" unicode="&#x208c;" horiz-adv-x="927" 
d="M80 458h767v-169h-767v169zM80 99h767v-167h-767v167z" />
    <glyph glyph-name="uni207C" unicode="&#x207c;" horiz-adv-x="933" 
d="M83 1511h767v-169h-767v169zM83 1152h767v-167h-767v167z" />
    <glyph glyph-name="equivalence" unicode="&#x2261;" horiz-adv-x="1229" 
d="M97 1481h983v-195h-983v195zM97 1018h983v-196h-983v196zM97 554h983v-196h-983v196z" />
    <glyph glyph-name="integralbt" unicode="&#x2321;" horiz-adv-x="1237" 
d="M552 1108q0 99 20.5 178t63.5 141q85 123 207 123q64 0 102.5 -31t38.5 -80q0 -40 -26 -66t-66 -26q-25 0 -42.5 12.5t-51.5 47.5q-22 23 -32.5 31t-23.5 8t-24.5 -9.5t-14.5 -29.5q-6 -37 -6 -140l-5 -1822h-145z" />
    <glyph glyph-name="integraltp" unicode="&#x2320;" horiz-adv-x="1237" 
d="M298.5 -516q-38.5 31 -38.5 79q0 40 26 66t66 26q26 0 45.5 -13t48.5 -46q21 -23 32 -31t24 -8t24 9t15 30q6 37 6 139v1971h145v-1811q0 -198 -84 -320q-85 -122 -207 -122q-64 0 -102.5 31z" />
    <glyph glyph-name="revlogicalnot" unicode="&#x2310;" horiz-adv-x="1179" 
d="M97 237v593h982v-195h-786v-398h-196z" />
    <glyph glyph-name="uni208B" unicode="&#x208b;" horiz-adv-x="927" 
d="M80 279h767v-169h-767v169z" />
    <glyph glyph-name="uni207B" unicode="&#x207b;" horiz-adv-x="933" 
d="M83 1332h767v-169h-767v169z" />
    <glyph glyph-name="plus" unicode="+" horiz-adv-x="1179" 
d="M484 584h-387v209h387v386h210v-386h386v-209h-386v-385h-210v385z" />
    <glyph glyph-name="minus" unicode="&#x2212;" horiz-adv-x="1179" 
d="M97 793h982v-210h-982v210z" />
    <glyph glyph-name="multiply" unicode="&#xd7;" horiz-adv-x="1179" 
d="M117 364l325 322l-326 326l148 147l324 -324l324 324l148 -148l-325 -325l325 -322l-148 -148l-324 322l-323 -322z" />
    <glyph glyph-name="divide" unicode="&#xf7;" horiz-adv-x="1178" 
d="M510.5 933q-34.5 19 -54.5 53t-20 76q0 43 20 77.5t54.5 54t75.5 19.5q42 0 76.5 -20t54 -54.5t19.5 -76.5q0 -43 -20 -76.5t-54.5 -52.5t-75.5 -19t-75.5 19zM96 793h983v-210h-983v210zM510.5 180.5q-34.5 18.5 -54.5 52.5t-20 78t20 78t54.5 53t75.5 19
q42 0 76.5 -20.5t54 -55t19.5 -74.5q0 -43 -20 -77t-54.5 -53t-75.5 -19t-75.5 18.5z" />
    <glyph glyph-name="equal" unicode="=" horiz-adv-x="1179" 
d="M97 1017h983v-195h-983v195zM97 554h983v-196h-983v196z" />
    <glyph glyph-name="notequal" unicode="&#x2260;" horiz-adv-x="1179" 
d="M746 822l-98 -268h432v-196h-504l-102 -276h-218l102 276h-261v196h334l99 268h-433v195h506l100 271h215l-100 -271h262v-195h-334z" />
    <glyph glyph-name="greater" unicode="&#x3e;" horiz-adv-x="1179" 
d="M95 357l749 330l-749 328v214l987 -441v-201l-987 -443v213z" />
    <glyph glyph-name="less" unicode="&#x3c;" horiz-adv-x="1179" 
d="M97 587v201l986 441v-214l-747 -328l747 -330v-213z" />
    <glyph glyph-name="greaterequal" unicode="&#x2265;" horiz-adv-x="1179" 
d="M92 451l747 330l-747 328v214l986 -441v-201l-986 -443v213zM96 0v210h982v-210h-982z" />
    <glyph glyph-name="lessequal" unicode="&#x2264;" horiz-adv-x="1179" 
d="M97 210h982v-210h-982v210zM97 681v201l986 441v-214l-747 -328l747 -330v-213z" />
    <glyph glyph-name="plusminus" unicode="&#xb1;" horiz-adv-x="1179" 
d="M97 208h982v-210h-982v210zM484 649h-387v209h387v386h210v-386h386v-209h-386v-385h-210v385z" />
    <glyph glyph-name="approxequal" unicode="&#x2248;" horiz-adv-x="1199" 
d="M166 1021.5q69 90.5 196 90.5q57 0 113.5 -18.5t136.5 -57.5q75 -38 123 -56t83 -18q52 0 82.5 35.5t38.5 114.5h176q-26 -356 -271 -356q-60 0 -114 19.5t-145 66.5q-68 36 -114 51.5t-83 15.5q-57 0 -87.5 -38t-38.5 -115h-176q11 175 80 265.5zM166 553.5
q69 90.5 196 90.5q57 0 113.5 -18.5t136.5 -57.5q75 -38 123 -56t83 -18q52 0 82.5 35.5t38.5 114.5h176q-26 -356 -271 -356q-60 0 -114 19.5t-145 66.5q-68 36 -114 51.5t-83 15.5q-57 0 -87.5 -38t-38.5 -115h-176q11 175 80 265.5z" />
    <glyph glyph-name="asciitilde" unicode="~" horiz-adv-x="1199" 
d="M166 787.5q69 90.5 196 90.5q57 0 113.5 -18.5t136.5 -57.5q75 -38 123 -56t83 -18q52 0 82.5 35.5t38.5 114.5h176q-26 -356 -271 -356q-60 0 -114 19.5t-145 66.5q-68 36 -114 51.5t-83 15.5q-57 0 -87.5 -38t-38.5 -115h-176q11 175 80 265.5z" />
    <glyph glyph-name="logicalnot" unicode="&#xac;" horiz-adv-x="1179" 
d="M883 635h-786v195h982v-593h-196v398z" />
    <glyph glyph-name="infinity" unicode="&#x221e;" horiz-adv-x="1804" 
d="M891 508q-88 -124 -197 -189t-232 -65q-106 0 -193.5 46.5t-138.5 131t-51 193.5q0 105 48.5 190t138 133.5t209.5 48.5q267 0 437 -263q93 130 199.5 192.5t229.5 62.5q111 0 199 -46t137 -128.5t49 -187.5q0 -104 -48.5 -190t-138.5 -136.5t-210 -50.5q-262 0 -438 258
zM643.5 466.5q76.5 54.5 147.5 167.5q-62 99 -138.5 153t-164.5 54q-67 0 -117.5 -29.5t-77.5 -79t-27 -107.5q0 -57 25.5 -106t74.5 -78t116 -29q85 0 161.5 54.5zM1439 435q49 31 74.5 81t25.5 105q0 58 -27.5 106.5t-77 77t-111.5 28.5q-87 0 -165 -56.5t-144 -163.5
q64 -100 143.5 -154.5t166.5 -54.5q66 0 115 31z" />
    <glyph glyph-name="intersection" unicode="&#x2229;" horiz-adv-x="1473" 
d="M279 510q0 152 58.5 271t162 185t233.5 66q131 0 236 -66t165 -185t60 -271v-512h-102v514q0 127 -45.5 222t-126.5 145.5t-185 50.5q-105 0 -185 -50t-124.5 -144.5t-44.5 -225.5v-512h-102v512z" />
    <glyph glyph-name="integral" unicode="&#x222b;" horiz-adv-x="612" 
d="M-47 -315v193q82 -25 141 -25t81 50t22 156v1105q0 141 36.5 225.5t107.5 121.5t179 37q81 0 146 -20v-189q-87 20 -146 20q-42 0 -64.5 -21.5t-31 -64.5t-8.5 -114v-1111q0 -140 -35.5 -223.5t-103.5 -120t-170 -36.5q-94 0 -154 17z" />
    <glyph glyph-name="uni2126" unicode="&#x2126;" horiz-adv-x="1699" 
d="M89 235h355q-85 57 -156.5 146t-114.5 203t-43 238q0 186 77.5 331.5t239 230t402.5 84.5q229 0 391.5 -85t245.5 -231.5t83 -329.5q0 -124 -44 -237.5t-115.5 -203t-155.5 -146.5h356v-235h-612v235q131 124 201.5 259.5t70.5 302.5q0 115 -43 217t-138 167t-242 65
q-146 0 -240 -65t-136 -168t-42 -220q0 -164 70 -299t199 -259v-235h-609v235z" />
    <glyph glyph-name="uni2206" unicode="&#x2206;" horiz-adv-x="1330" 
d="M44 240l479 1208h295l468 -1204v-244h-1242v240zM995 249l-332 875l-340 -875h672z" />
    <glyph glyph-name="product" unicode="&#x220f;" horiz-adv-x="1400" 
d="M190 1448h1019v-1698h-279v1478h-462v-1478h-278v1698z" />
    <glyph glyph-name="summation" unicode="&#x2211;" horiz-adv-x="1155" 
d="M86 -52l480 709l-480 574v217h944v-229h-647l465 -555l-465 -687h707v-227h-1004v198z" />
    <glyph glyph-name="radical" unicode="&#x221a;" horiz-adv-x="1122" 
d="M270 613h-207v222h361l180 -584l433 1426h230l-536 -1716h-251z" />
    <glyph glyph-name="uni00B5" unicode="&#xb5;" horiz-adv-x="1363" 
d="M1342 21q-43 -17 -103 -28t-117 -11q-95 0 -155 35.5t-87 112.5q-42 -73 -106.5 -111.5t-149.5 -38.5q-64 0 -113 23.5t-80 67.5v-501l-287 -21v1531h285v-660q0 -103 51.5 -154t138.5 -51q63 0 117 26.5t86 75t32 111.5v654h287v-759q0 -64 25 -91t71 -27q35 0 74 14z
" />
    <glyph glyph-name="partialdiff" unicode="&#x2202;" horiz-adv-x="1169" 
d="M287 31q-93 54 -143.5 161t-50.5 263q0 168 67.5 287.5t177.5 180.5t234 61q72 0 142 -24.5t111 -60.5v23q0 174 -61.5 271t-183.5 97q-62 0 -106 -13.5t-95 -42.5l-62 169q65 35 129 52t136 17q129 0 231.5 -57.5t163.5 -184t61 -322.5q0 -266 -58.5 -476.5t-178 -332.5
t-294.5 -122q-127 0 -220 54zM659.5 229.5q61.5 77.5 98.5 207.5t51 290q-48 36 -112.5 60.5t-124.5 24.5q-74 0 -135 -39.5t-97.5 -122t-36.5 -206.5q0 -94 27 -160t74.5 -99t108.5 -33q85 0 146.5 77.5z" />
    <glyph glyph-name="orthogonal" unicode="&#x221f;" horiz-adv-x="2005" 
d="M408 1223h94v-1129h1130v-94h-1224v1223z" />
    <glyph glyph-name="percent" unicode="%" horiz-adv-x="1954" 
d="M79 1012q0 217 92 336.5t277 119.5q178 0 267.5 -115t89.5 -334q0 -230 -92.5 -354t-278.5 -124q-355 0 -355 471zM1299 1448h223l-850 -1447h-225zM534 791q29 72 29 226q0 138 -26.5 205.5t-90.5 67.5q-67 0 -97 -70.5t-30 -206.5q0 -153 27.5 -223.5t93.5 -70.5
q65 0 94 72zM1237.5 97q-88.5 119 -88.5 351q0 218 92.5 338t277.5 120q178 0 267.5 -115.5t89.5 -335.5q0 -229 -93 -353t-278 -124q-179 0 -267.5 119zM1604.5 229.5q29.5 71.5 29.5 224.5q0 139 -27 207t-92 68q-126 0 -126 -279q0 -150 28.5 -221t93.5 -71
q64 0 93.5 71.5z" />
    <glyph glyph-name="perthousand" unicode="&#x2030;" horiz-adv-x="2768" 
d="M79 1012q0 217 92 336.5t277 119.5q178 0 267.5 -115t89.5 -334q0 -230 -92.5 -354t-278.5 -124q-355 0 -355 471zM1299 1448h223l-850 -1447h-225zM534 791q29 72 29 226q0 138 -26.5 205.5t-90.5 67.5q-67 0 -97 -70.5t-30 -206.5q0 -153 27.5 -223.5t93.5 -70.5
q65 0 94 72zM1237.5 97q-88.5 119 -88.5 351q0 218 92.5 338t277.5 120q178 0 267.5 -115.5t89.5 -335.5q0 -229 -93 -353t-278 -124q-179 0 -267.5 119zM2052.5 97q-88.5 119 -88.5 351q0 218 92 338t276 120q178 0 267.5 -115t89.5 -336q0 -229 -92.5 -353t-277.5 -124
q-178 0 -266.5 119zM1604.5 229.5q29.5 71.5 29.5 224.5q0 139 -27 207t-92 68q-126 0 -126 -279q0 -150 28.5 -221t93.5 -71q64 0 93.5 71.5zM2418 229.5q30 71.5 30 224.5q0 139 -27.5 207t-92.5 68t-95 -71.5t-30 -208.5q0 -149 28 -220t92 -71q65 0 95 71.5z" />
    <glyph glyph-name="uni208A" unicode="&#x208a;" horiz-adv-x="927" 
d="M379 110h-299v169h299v299h169v-299h299v-169h-299v-299h-169v299z" />
    <glyph glyph-name="uni207A" unicode="&#x207a;" horiz-adv-x="933" 
d="M382 1163h-299v169h299v299h169v-299h299v-169h-299v-299h-169v299z" />
    <glyph glyph-name="arrowup" unicode="&#x2191;" horiz-adv-x="1024" 
d="M469 928q-64 -56 -197 -119v72q72 62 127 127t95 143h36q40 -78 95 -143t127 -127v-72q-133 63 -197 119v-989h-86v989z" />
    <glyph glyph-name="arrowright" unicode="&#x2192;" horiz-adv-x="2048" 
d="M1407 297h-989v86h989q-56 64 -119 197h72q62 -72 127.5 -127t142.5 -95v-36q-77 -40 -142 -95t-128 -127h-72q63 133 119 197z" />
    <glyph glyph-name="arrowdown" unicode="&#x2193;" horiz-adv-x="1024" 
d="M399 81q-55 65 -127 128v72q133 -63 197 -119v989h86v-989q64 56 197 119v-72q-72 -63 -127 -128t-95 -142h-36q-40 77 -95 142z" />
    <glyph glyph-name="arrowleft" unicode="&#x2190;" horiz-adv-x="2048" 
d="M560 227q-65 55 -142 95v36q77 40 142.5 95t127.5 127h72q-63 -133 -119 -197h989v-86h-989q56 -64 119 -197h-72q-63 72 -128 127z" />
    <glyph glyph-name="arrowboth" unicode="&#x2194;" horiz-adv-x="2048" 
d="M560 227q-65 55 -142 95v36q77 40 142.5 95t127.5 127h72q-63 -133 -119 -197h766q-56 64 -119 197h72q62 -72 127.5 -127t142.5 -95v-36q-77 -40 -142 -95t-128 -127h-72q63 133 119 197h-766q56 -64 119 -197h-72q-63 72 -128 127z" />
    <glyph glyph-name="arrowupdn" unicode="&#x2195;" horiz-adv-x="1024" 
d="M399 81q-55 65 -127 128v72q133 -63 197 -119v766q-64 -56 -197 -119v72q72 62 127 127t95 143h36q40 -78 95 -143t127 -127v-72q-133 63 -197 119v-766q64 56 197 119v-72q-72 -63 -127 -128t-95 -142h-36q-40 77 -95 142z" />
    <glyph glyph-name="arrowupdnbse" unicode="&#x21a8;" horiz-adv-x="1024" 
d="M399 81q-55 65 -127 128v72q133 -63 197 -119v766q-64 -56 -197 -119v72q72 62 127 127t95 143h36q40 -78 95 -143t127 -127v-72q-133 63 -197 119v-766q64 56 197 119v-72q-72 -63 -127 -128t-95 -142h-36q-40 77 -95 142zM272 -104h480v-80h-480v80z" />
    <glyph glyph-name="dnblock" unicode="&#x2584;" 
d="M0 621h1450v-1174h-1450v1174z" />
    <glyph glyph-name="block" unicode="&#x2588;" 
d="M0 2159h1450v-2712h-1450v2712z" />
    <glyph glyph-name="upblock" unicode="&#x2580;" 
d="M0 2159h1450v-1538h-1450v1538z" />
    <glyph glyph-name="lfblock" unicode="&#x258c;" 
d="M0 2159h725v-2712h-725v2712z" />
    <glyph glyph-name="rtblock" unicode="&#x2590;" 
d="M725 2159h725v-2712h-725v2712z" />
    <glyph glyph-name="ltshade" unicode="&#x2591;" horiz-adv-x="1552" 
d="M102 1991h105v-97h-105v97zM516 1991h105v-97h-105v97zM934 1991h102v-97h-102v97zM1348 1991h102v-97h-102v97zM309 1796h105v-96h-105v96zM725 1796h104v-96h-104v96zM1141 1796h102v-96h-102v96zM102 1700h105v-96h-105v96zM516 1700h105v-96h-105v96zM934 1700h102
v-96h-102v96zM1348 1700h102v-96h-102v96zM309 1505h105v-96h-105v96zM725 1505h104v-96h-104v96zM1141 1505h102v-96h-102v96zM102 1315h105v-98h-105v98zM516 1315h105v-98h-105v98zM934 1315h102v-98h-102v98zM1348 1315h102v-98h-102v98zM309 1118h105v-94h-105v94z
M725 1118h104v-94h-104v94zM1141 1118h102v-94h-102v94zM102 928h105v-97h-105v97zM516 928h105v-97h-105v97zM934 928h102v-97h-102v97zM1348 928h102v-97h-102v97zM309 731h105v-94h-105v94zM725 731h104v-94h-104v94zM1141 731h102v-94h-102v94zM102 541h105v-97h-105v97
zM516 541h105v-97h-105v97zM934 541h102v-97h-102v97zM1348 541h102v-97h-102v97zM309 344h105v-94h-105v94zM725 344h104v-94h-104v94zM1141 344h102v-94h-102v94zM102 154h105v-99h-105v99zM516 154h105v-99h-105v99zM934 154h102v-99h-102v99zM1348 154h102v-99h-102v99z
M309 -43h105v-92h-105v92zM725 -43h104v-92h-104v92zM1141 -43h102v-92h-102v92zM102 -233h105v-99h-105v99zM516 -233h105v-99h-105v99zM934 -233h102v-99h-102v99zM1348 -233h102v-99h-102v99zM309 -426h105v-96h-105v96zM725 -426h104v-96h-104v96zM1141 -426h102v-96
h-102v96z" />
    </font>
</defs>
</svg>
